ISO-10303-21;
HEADER;
/* Generated by software containing ST-Developer
 * from STEP Tools, Inc. (www.steptools.com) 
 */

FILE_DESCRIPTION(
/* description */ (''),
/* implementation_level */ '2;1');

FILE_NAME(
/* name */ 'BNO055_short.stp',
/* time_stamp */ '2025-04-16T23:15:18+09:00',
/* author */ ('hibik'),
/* organization */ (''),
/* preprocessor_version */ 'ST-DEVELOPER v20',
/* originating_system */ 'Autodesk Inventor 2024',
/* authorisation */ '');

FILE_SCHEMA (('AUTOMOTIVE_DESIGN { 1 0 10303 214 3 1 1 }'));
ENDSEC;

DATA;
#10=MECHANICAL_DESIGN_GEOMETRIC_PRESENTATION_REPRESENTATION('',(#1064,#1065,
#1066,#1067,#1068,#1069,#1070,#1071,#1072,#1073,#1074,#1075,#1076,#1077,
#1078,#1079,#1080,#1081,#1082,#1083,#1084,#1085,#1086,#1087,#1088,#1089,
#1090,#1091,#1092,#1093,#1094,#1095,#1096,#1097,#1098,#1099,#1100,#1101,
#1102,#1103,#1104,#1105,#1106,#1107,#1108,#1109,#1110,#1111,#1112,#1113,
#1114,#1115,#1116,#1117,#1118,#1119,#1120,#1121,#1122),#1890);
#11=SHAPE_REPRESENTATION_RELATIONSHIP('SRR','None',#1897,#12);
#12=ADVANCED_BREP_SHAPE_REPRESENTATION('',(#13),#1889);
#13=MANIFOLD_SOLID_BREP('\X2\30BD30EA30C330C9\X0\1',#1181);
#14=FACE_BOUND('',#139,.T.);
#15=FACE_BOUND('',#140,.T.);
#16=FACE_BOUND('',#141,.T.);
#17=FACE_BOUND('',#158,.T.);
#18=CIRCLE('',#1211,0.750000000000001);
#19=CIRCLE('',#1212,0.750000000000001);
#20=CIRCLE('',#1217,0.750000000000001);
#21=CIRCLE('',#1218,0.750000000000001);
#22=CIRCLE('',#1223,0.750000000000001);
#23=CIRCLE('',#1224,0.750000000000001);
#24=CIRCLE('',#1229,0.750000000000001);
#25=CIRCLE('',#1230,0.750000000000001);
#26=CIRCLE('',#1235,0.750000000000001);
#27=CIRCLE('',#1236,0.750000000000001);
#28=CIRCLE('',#1241,0.750000000000001);
#29=CIRCLE('',#1242,0.750000000000001);
#30=CIRCLE('',#1247,0.750000000000001);
#31=CIRCLE('',#1248,0.750000000000001);
#32=CIRCLE('',#1253,0.750000000000001);
#33=CIRCLE('',#1254,0.750000000000001);
#34=CYLINDRICAL_SURFACE('',#1210,0.750000000000001);
#35=CYLINDRICAL_SURFACE('',#1216,0.750000000000001);
#36=CYLINDRICAL_SURFACE('',#1222,0.750000000000001);
#37=CYLINDRICAL_SURFACE('',#1228,0.750000000000001);
#38=CYLINDRICAL_SURFACE('',#1234,0.750000000000001);
#39=CYLINDRICAL_SURFACE('',#1240,0.750000000000001);
#40=CYLINDRICAL_SURFACE('',#1246,0.750000000000001);
#41=CYLINDRICAL_SURFACE('',#1252,0.750000000000001);
#42=FACE_OUTER_BOUND('',#100,.T.);
#43=FACE_OUTER_BOUND('',#101,.T.);
#44=FACE_OUTER_BOUND('',#102,.T.);
#45=FACE_OUTER_BOUND('',#103,.T.);
#46=FACE_OUTER_BOUND('',#104,.T.);
#47=FACE_OUTER_BOUND('',#105,.T.);
#48=FACE_OUTER_BOUND('',#106,.T.);
#49=FACE_OUTER_BOUND('',#107,.T.);
#50=FACE_OUTER_BOUND('',#108,.T.);
#51=FACE_OUTER_BOUND('',#109,.T.);
#52=FACE_OUTER_BOUND('',#110,.T.);
#53=FACE_OUTER_BOUND('',#111,.T.);
#54=FACE_OUTER_BOUND('',#112,.T.);
#55=FACE_OUTER_BOUND('',#113,.T.);
#56=FACE_OUTER_BOUND('',#114,.T.);
#57=FACE_OUTER_BOUND('',#115,.T.);
#58=FACE_OUTER_BOUND('',#116,.T.);
#59=FACE_OUTER_BOUND('',#117,.T.);
#60=FACE_OUTER_BOUND('',#118,.T.);
#61=FACE_OUTER_BOUND('',#119,.T.);
#62=FACE_OUTER_BOUND('',#120,.T.);
#63=FACE_OUTER_BOUND('',#121,.T.);
#64=FACE_OUTER_BOUND('',#122,.T.);
#65=FACE_OUTER_BOUND('',#123,.T.);
#66=FACE_OUTER_BOUND('',#124,.T.);
#67=FACE_OUTER_BOUND('',#125,.T.);
#68=FACE_OUTER_BOUND('',#126,.T.);
#69=FACE_OUTER_BOUND('',#127,.T.);
#70=FACE_OUTER_BOUND('',#128,.T.);
#71=FACE_OUTER_BOUND('',#129,.T.);
#72=FACE_OUTER_BOUND('',#130,.T.);
#73=FACE_OUTER_BOUND('',#131,.T.);
#74=FACE_OUTER_BOUND('',#132,.T.);
#75=FACE_OUTER_BOUND('',#133,.T.);
#76=FACE_OUTER_BOUND('',#134,.T.);
#77=FACE_OUTER_BOUND('',#135,.T.);
#78=FACE_OUTER_BOUND('',#136,.T.);
#79=FACE_OUTER_BOUND('',#137,.T.);
#80=FACE_OUTER_BOUND('',#138,.T.);
#81=FACE_OUTER_BOUND('',#142,.T.);
#82=FACE_OUTER_BOUND('',#143,.T.);
#83=FACE_OUTER_BOUND('',#144,.T.);
#84=FACE_OUTER_BOUND('',#145,.T.);
#85=FACE_OUTER_BOUND('',#146,.T.);
#86=FACE_OUTER_BOUND('',#147,.T.);
#87=FACE_OUTER_BOUND('',#148,.T.);
#88=FACE_OUTER_BOUND('',#149,.T.);
#89=FACE_OUTER_BOUND('',#150,.T.);
#90=FACE_OUTER_BOUND('',#151,.T.);
#91=FACE_OUTER_BOUND('',#152,.T.);
#92=FACE_OUTER_BOUND('',#153,.T.);
#93=FACE_OUTER_BOUND('',#154,.T.);
#94=FACE_OUTER_BOUND('',#155,.T.);
#95=FACE_OUTER_BOUND('',#156,.T.);
#96=FACE_OUTER_BOUND('',#157,.T.);
#97=FACE_OUTER_BOUND('',#159,.T.);
#98=FACE_OUTER_BOUND('',#160,.T.);
#99=FACE_OUTER_BOUND('',#161,.T.);
#100=EDGE_LOOP('',(#702,#703,#704,#705));
#101=EDGE_LOOP('',(#706,#707,#708,#709));
#102=EDGE_LOOP('',(#710,#711,#712,#713));
#103=EDGE_LOOP('',(#714,#715,#716,#717));
#104=EDGE_LOOP('',(#718,#719,#720,#721));
#105=EDGE_LOOP('',(#722,#723,#724,#725));
#106=EDGE_LOOP('',(#726,#727,#728,#729));
#107=EDGE_LOOP('',(#730,#731,#732,#733));
#108=EDGE_LOOP('',(#734,#735,#736,#737));
#109=EDGE_LOOP('',(#738,#739,#740,#741));
#110=EDGE_LOOP('',(#742,#743,#744,#745));
#111=EDGE_LOOP('',(#746,#747,#748,#749));
#112=EDGE_LOOP('',(#750,#751,#752,#753));
#113=EDGE_LOOP('',(#754,#755,#756,#757));
#114=EDGE_LOOP('',(#758,#759,#760,#761));
#115=EDGE_LOOP('',(#762,#763,#764,#765));
#116=EDGE_LOOP('',(#766,#767,#768,#769));
#117=EDGE_LOOP('',(#770,#771,#772,#773));
#118=EDGE_LOOP('',(#774,#775,#776,#777));
#119=EDGE_LOOP('',(#778,#779,#780,#781));
#120=EDGE_LOOP('',(#782,#783,#784,#785));
#121=EDGE_LOOP('',(#786,#787,#788,#789));
#122=EDGE_LOOP('',(#790,#791,#792,#793));
#123=EDGE_LOOP('',(#794,#795,#796,#797));
#124=EDGE_LOOP('',(#798,#799,#800,#801));
#125=EDGE_LOOP('',(#802,#803,#804,#805));
#126=EDGE_LOOP('',(#806,#807,#808,#809));
#127=EDGE_LOOP('',(#810,#811,#812,#813));
#128=EDGE_LOOP('',(#814,#815,#816,#817));
#129=EDGE_LOOP('',(#818,#819,#820,#821));
#130=EDGE_LOOP('',(#822,#823,#824,#825));
#131=EDGE_LOOP('',(#826,#827,#828,#829));
#132=EDGE_LOOP('',(#830,#831,#832,#833));
#133=EDGE_LOOP('',(#834,#835,#836,#837));
#134=EDGE_LOOP('',(#838,#839,#840,#841));
#135=EDGE_LOOP('',(#842,#843,#844,#845));
#136=EDGE_LOOP('',(#846,#847,#848,#849));
#137=EDGE_LOOP('',(#850,#851,#852,#853,#854,#855,#856,#857,#858,#859,#860,
#861,#862,#863,#864,#865,#866,#867,#868,#869));
#138=EDGE_LOOP('',(#870,#871,#872,#873,#874,#875,#876,#877,#878,#879,#880,
#881,#882,#883,#884,#885,#886,#887,#888,#889,#890,#891,#892,#893,#894,#895,
#896,#897,#898,#899,#900,#901,#902,#903,#904,#905));
#139=EDGE_LOOP('',(#906,#907,#908,#909));
#140=EDGE_LOOP('',(#910,#911,#912,#913));
#141=EDGE_LOOP('',(#914,#915,#916,#917));
#142=EDGE_LOOP('',(#918,#919,#920,#921));
#143=EDGE_LOOP('',(#922,#923,#924,#925));
#144=EDGE_LOOP('',(#926,#927,#928,#929));
#145=EDGE_LOOP('',(#930,#931,#932,#933));
#146=EDGE_LOOP('',(#934,#935,#936,#937));
#147=EDGE_LOOP('',(#938,#939,#940,#941));
#148=EDGE_LOOP('',(#942,#943,#944,#945));
#149=EDGE_LOOP('',(#946,#947,#948,#949));
#150=EDGE_LOOP('',(#950,#951,#952,#953));
#151=EDGE_LOOP('',(#954,#955,#956,#957));
#152=EDGE_LOOP('',(#958,#959,#960,#961));
#153=EDGE_LOOP('',(#962,#963,#964,#965));
#154=EDGE_LOOP('',(#966,#967,#968,#969));
#155=EDGE_LOOP('',(#970,#971,#972,#973));
#156=EDGE_LOOP('',(#974,#975,#976,#977));
#157=EDGE_LOOP('',(#978,#979,#980,#981));
#158=EDGE_LOOP('',(#982,#983,#984,#985));
#159=EDGE_LOOP('',(#986,#987,#988,#989));
#160=EDGE_LOOP('',(#990,#991,#992,#993,#994,#995,#996,#997,#998,#999,#1000,
#1001,#1002,#1003,#1004,#1005,#1006,#1007,#1008,#1009));
#161=EDGE_LOOP('',(#1010,#1011,#1012,#1013));
#162=LINE('',#1572,#302);
#163=LINE('',#1574,#303);
#164=LINE('',#1576,#304);
#165=LINE('',#1577,#305);
#166=LINE('',#1580,#306);
#167=LINE('',#1582,#307);
#168=LINE('',#1583,#308);
#169=LINE('',#1586,#309);
#170=LINE('',#1588,#310);
#171=LINE('',#1589,#311);
#172=LINE('',#1591,#312);
#173=LINE('',#1592,#313);
#174=LINE('',#1597,#314);
#175=LINE('',#1599,#315);
#176=LINE('',#1601,#316);
#177=LINE('',#1602,#317);
#178=LINE('',#1607,#318);
#179=LINE('',#1611,#319);
#180=LINE('',#1613,#320);
#181=LINE('',#1614,#321);
#182=LINE('',#1616,#322);
#183=LINE('',#1620,#323);
#184=LINE('',#1622,#324);
#185=LINE('',#1624,#325);
#186=LINE('',#1625,#326);
#187=LINE('',#1630,#327);
#188=LINE('',#1634,#328);
#189=LINE('',#1636,#329);
#190=LINE('',#1637,#330);
#191=LINE('',#1639,#331);
#192=LINE('',#1643,#332);
#193=LINE('',#1645,#333);
#194=LINE('',#1647,#334);
#195=LINE('',#1648,#335);
#196=LINE('',#1653,#336);
#197=LINE('',#1657,#337);
#198=LINE('',#1659,#338);
#199=LINE('',#1660,#339);
#200=LINE('',#1662,#340);
#201=LINE('',#1666,#341);
#202=LINE('',#1668,#342);
#203=LINE('',#1670,#343);
#204=LINE('',#1671,#344);
#205=LINE('',#1676,#345);
#206=LINE('',#1680,#346);
#207=LINE('',#1682,#347);
#208=LINE('',#1683,#348);
#209=LINE('',#1685,#349);
#210=LINE('',#1689,#350);
#211=LINE('',#1691,#351);
#212=LINE('',#1693,#352);
#213=LINE('',#1694,#353);
#214=LINE('',#1699,#354);
#215=LINE('',#1703,#355);
#216=LINE('',#1705,#356);
#217=LINE('',#1706,#357);
#218=LINE('',#1708,#358);
#219=LINE('',#1712,#359);
#220=LINE('',#1714,#360);
#221=LINE('',#1716,#361);
#222=LINE('',#1717,#362);
#223=LINE('',#1722,#363);
#224=LINE('',#1726,#364);
#225=LINE('',#1728,#365);
#226=LINE('',#1729,#366);
#227=LINE('',#1731,#367);
#228=LINE('',#1735,#368);
#229=LINE('',#1737,#369);
#230=LINE('',#1739,#370);
#231=LINE('',#1740,#371);
#232=LINE('',#1745,#372);
#233=LINE('',#1749,#373);
#234=LINE('',#1751,#374);
#235=LINE('',#1752,#375);
#236=LINE('',#1754,#376);
#237=LINE('',#1758,#377);
#238=LINE('',#1760,#378);
#239=LINE('',#1762,#379);
#240=LINE('',#1763,#380);
#241=LINE('',#1768,#381);
#242=LINE('',#1772,#382);
#243=LINE('',#1774,#383);
#244=LINE('',#1775,#384);
#245=LINE('',#1777,#385);
#246=LINE('',#1779,#386);
#247=LINE('',#1781,#387);
#248=LINE('',#1783,#388);
#249=LINE('',#1785,#389);
#250=LINE('',#1787,#390);
#251=LINE('',#1788,#391);
#252=LINE('',#1789,#392);
#253=LINE('',#1790,#393);
#254=LINE('',#1792,#394);
#255=LINE('',#1793,#395);
#256=LINE('',#1794,#396);
#257=LINE('',#1796,#397);
#258=LINE('',#1797,#398);
#259=LINE('',#1799,#399);
#260=LINE('',#1800,#400);
#261=LINE('',#1803,#401);
#262=LINE('',#1805,#402);
#263=LINE('',#1807,#403);
#264=LINE('',#1808,#404);
#265=LINE('',#1811,#405);
#266=LINE('',#1813,#406);
#267=LINE('',#1815,#407);
#268=LINE('',#1816,#408);
#269=LINE('',#1819,#409);
#270=LINE('',#1821,#410);
#271=LINE('',#1823,#411);
#272=LINE('',#1824,#412);
#273=LINE('',#1827,#413);
#274=LINE('',#1829,#414);
#275=LINE('',#1830,#415);
#276=LINE('',#1833,#416);
#277=LINE('',#1834,#417);
#278=LINE('',#1837,#418);
#279=LINE('',#1838,#419);
#280=LINE('',#1840,#420);
#281=LINE('',#1844,#421);
#282=LINE('',#1846,#422);
#283=LINE('',#1847,#423);
#284=LINE('',#1850,#424);
#285=LINE('',#1851,#425);
#286=LINE('',#1854,#426);
#287=LINE('',#1855,#427);
#288=LINE('',#1857,#428);
#289=LINE('',#1861,#429);
#290=LINE('',#1863,#430);
#291=LINE('',#1864,#431);
#292=LINE('',#1867,#432);
#293=LINE('',#1868,#433);
#294=LINE('',#1871,#434);
#295=LINE('',#1872,#435);
#296=LINE('',#1874,#436);
#297=LINE('',#1878,#437);
#298=LINE('',#1880,#438);
#299=LINE('',#1881,#439);
#300=LINE('',#1883,#440);
#301=LINE('',#1885,#441);
#302=VECTOR('',#1282,10.);
#303=VECTOR('',#1283,10.);
#304=VECTOR('',#1284,10.);
#305=VECTOR('',#1285,10.);
#306=VECTOR('',#1288,10.);
#307=VECTOR('',#1289,10.);
#308=VECTOR('',#1290,10.);
#309=VECTOR('',#1293,10.);
#310=VECTOR('',#1294,10.);
#311=VECTOR('',#1295,10.);
#312=VECTOR('',#1298,10.);
#313=VECTOR('',#1299,10.);
#314=VECTOR('',#1304,10.);
#315=VECTOR('',#1305,10.);
#316=VECTOR('',#1306,10.);
#317=VECTOR('',#1307,10.);
#318=VECTOR('',#1312,10.);
#319=VECTOR('',#1317,10.);
#320=VECTOR('',#1318,10.);
#321=VECTOR('',#1319,10.);
#322=VECTOR('',#1322,10.);
#323=VECTOR('',#1325,10.);
#324=VECTOR('',#1326,10.);
#325=VECTOR('',#1327,10.);
#326=VECTOR('',#1328,10.);
#327=VECTOR('',#1333,10.);
#328=VECTOR('',#1338,10.);
#329=VECTOR('',#1339,10.);
#330=VECTOR('',#1340,10.);
#331=VECTOR('',#1343,10.);
#332=VECTOR('',#1346,10.);
#333=VECTOR('',#1347,10.);
#334=VECTOR('',#1348,10.);
#335=VECTOR('',#1349,10.);
#336=VECTOR('',#1354,10.);
#337=VECTOR('',#1359,10.);
#338=VECTOR('',#1360,10.);
#339=VECTOR('',#1361,10.);
#340=VECTOR('',#1364,10.);
#341=VECTOR('',#1367,10.);
#342=VECTOR('',#1368,10.);
#343=VECTOR('',#1369,10.);
#344=VECTOR('',#1370,10.);
#345=VECTOR('',#1375,10.);
#346=VECTOR('',#1380,10.);
#347=VECTOR('',#1381,10.);
#348=VECTOR('',#1382,10.);
#349=VECTOR('',#1385,10.);
#350=VECTOR('',#1388,10.);
#351=VECTOR('',#1389,10.);
#352=VECTOR('',#1390,10.);
#353=VECTOR('',#1391,10.);
#354=VECTOR('',#1396,10.);
#355=VECTOR('',#1401,10.);
#356=VECTOR('',#1402,10.);
#357=VECTOR('',#1403,10.);
#358=VECTOR('',#1406,10.);
#359=VECTOR('',#1409,10.);
#360=VECTOR('',#1410,10.);
#361=VECTOR('',#1411,10.);
#362=VECTOR('',#1412,10.);
#363=VECTOR('',#1417,10.);
#364=VECTOR('',#1422,10.);
#365=VECTOR('',#1423,10.);
#366=VECTOR('',#1424,10.);
#367=VECTOR('',#1427,10.);
#368=VECTOR('',#1430,10.);
#369=VECTOR('',#1431,10.);
#370=VECTOR('',#1432,10.);
#371=VECTOR('',#1433,10.);
#372=VECTOR('',#1438,10.);
#373=VECTOR('',#1443,10.);
#374=VECTOR('',#1444,10.);
#375=VECTOR('',#1445,10.);
#376=VECTOR('',#1448,10.);
#377=VECTOR('',#1451,10.);
#378=VECTOR('',#1452,10.);
#379=VECTOR('',#1453,10.);
#380=VECTOR('',#1454,10.);
#381=VECTOR('',#1459,10.);
#382=VECTOR('',#1464,10.);
#383=VECTOR('',#1465,10.);
#384=VECTOR('',#1466,10.);
#385=VECTOR('',#1469,10.);
#386=VECTOR('',#1472,10.);
#387=VECTOR('',#1473,10.);
#388=VECTOR('',#1474,10.);
#389=VECTOR('',#1475,10.);
#390=VECTOR('',#1476,10.);
#391=VECTOR('',#1477,10.);
#392=VECTOR('',#1478,10.);
#393=VECTOR('',#1479,10.);
#394=VECTOR('',#1482,10.);
#395=VECTOR('',#1483,10.);
#396=VECTOR('',#1484,10.);
#397=VECTOR('',#1485,10.);
#398=VECTOR('',#1486,10.);
#399=VECTOR('',#1487,10.);
#400=VECTOR('',#1488,10.);
#401=VECTOR('',#1489,10.);
#402=VECTOR('',#1490,10.);
#403=VECTOR('',#1491,10.);
#404=VECTOR('',#1492,10.);
#405=VECTOR('',#1493,10.);
#406=VECTOR('',#1494,10.);
#407=VECTOR('',#1495,10.);
#408=VECTOR('',#1496,10.);
#409=VECTOR('',#1497,10.);
#410=VECTOR('',#1498,10.);
#411=VECTOR('',#1499,10.);
#412=VECTOR('',#1500,10.);
#413=VECTOR('',#1503,10.);
#414=VECTOR('',#1504,10.);
#415=VECTOR('',#1505,10.);
#416=VECTOR('',#1508,10.);
#417=VECTOR('',#1509,10.);
#418=VECTOR('',#1512,10.);
#419=VECTOR('',#1513,10.);
#420=VECTOR('',#1516,10.);
#421=VECTOR('',#1521,10.);
#422=VECTOR('',#1522,10.);
#423=VECTOR('',#1523,10.);
#424=VECTOR('',#1526,10.);
#425=VECTOR('',#1527,10.);
#426=VECTOR('',#1530,10.);
#427=VECTOR('',#1531,10.);
#428=VECTOR('',#1534,10.);
#429=VECTOR('',#1539,10.);
#430=VECTOR('',#1540,10.);
#431=VECTOR('',#1541,10.);
#432=VECTOR('',#1544,10.);
#433=VECTOR('',#1545,10.);
#434=VECTOR('',#1548,10.);
#435=VECTOR('',#1549,10.);
#436=VECTOR('',#1552,10.);
#437=VECTOR('',#1557,10.);
#438=VECTOR('',#1558,10.);
#439=VECTOR('',#1559,10.);
#440=VECTOR('',#1562,10.);
#441=VECTOR('',#1565,10.);
#442=VERTEX_POINT('',#1570);
#443=VERTEX_POINT('',#1571);
#444=VERTEX_POINT('',#1573);
#445=VERTEX_POINT('',#1575);
#446=VERTEX_POINT('',#1579);
#447=VERTEX_POINT('',#1581);
#448=VERTEX_POINT('',#1585);
#449=VERTEX_POINT('',#1587);
#450=VERTEX_POINT('',#1595);
#451=VERTEX_POINT('',#1596);
#452=VERTEX_POINT('',#1598);
#453=VERTEX_POINT('',#1600);
#454=VERTEX_POINT('',#1604);
#455=VERTEX_POINT('',#1606);
#456=VERTEX_POINT('',#1610);
#457=VERTEX_POINT('',#1612);
#458=VERTEX_POINT('',#1618);
#459=VERTEX_POINT('',#1619);
#460=VERTEX_POINT('',#1621);
#461=VERTEX_POINT('',#1623);
#462=VERTEX_POINT('',#1627);
#463=VERTEX_POINT('',#1629);
#464=VERTEX_POINT('',#1633);
#465=VERTEX_POINT('',#1635);
#466=VERTEX_POINT('',#1641);
#467=VERTEX_POINT('',#1642);
#468=VERTEX_POINT('',#1644);
#469=VERTEX_POINT('',#1646);
#470=VERTEX_POINT('',#1650);
#471=VERTEX_POINT('',#1652);
#472=VERTEX_POINT('',#1656);
#473=VERTEX_POINT('',#1658);
#474=VERTEX_POINT('',#1664);
#475=VERTEX_POINT('',#1665);
#476=VERTEX_POINT('',#1667);
#477=VERTEX_POINT('',#1669);
#478=VERTEX_POINT('',#1673);
#479=VERTEX_POINT('',#1675);
#480=VERTEX_POINT('',#1679);
#481=VERTEX_POINT('',#1681);
#482=VERTEX_POINT('',#1687);
#483=VERTEX_POINT('',#1688);
#484=VERTEX_POINT('',#1690);
#485=VERTEX_POINT('',#1692);
#486=VERTEX_POINT('',#1696);
#487=VERTEX_POINT('',#1698);
#488=VERTEX_POINT('',#1702);
#489=VERTEX_POINT('',#1704);
#490=VERTEX_POINT('',#1710);
#491=VERTEX_POINT('',#1711);
#492=VERTEX_POINT('',#1713);
#493=VERTEX_POINT('',#1715);
#494=VERTEX_POINT('',#1719);
#495=VERTEX_POINT('',#1721);
#496=VERTEX_POINT('',#1725);
#497=VERTEX_POINT('',#1727);
#498=VERTEX_POINT('',#1733);
#499=VERTEX_POINT('',#1734);
#500=VERTEX_POINT('',#1736);
#501=VERTEX_POINT('',#1738);
#502=VERTEX_POINT('',#1742);
#503=VERTEX_POINT('',#1744);
#504=VERTEX_POINT('',#1748);
#505=VERTEX_POINT('',#1750);
#506=VERTEX_POINT('',#1756);
#507=VERTEX_POINT('',#1757);
#508=VERTEX_POINT('',#1759);
#509=VERTEX_POINT('',#1761);
#510=VERTEX_POINT('',#1765);
#511=VERTEX_POINT('',#1767);
#512=VERTEX_POINT('',#1771);
#513=VERTEX_POINT('',#1773);
#514=VERTEX_POINT('',#1780);
#515=VERTEX_POINT('',#1782);
#516=VERTEX_POINT('',#1784);
#517=VERTEX_POINT('',#1786);
#518=VERTEX_POINT('',#1795);
#519=VERTEX_POINT('',#1798);
#520=VERTEX_POINT('',#1801);
#521=VERTEX_POINT('',#1802);
#522=VERTEX_POINT('',#1804);
#523=VERTEX_POINT('',#1806);
#524=VERTEX_POINT('',#1809);
#525=VERTEX_POINT('',#1810);
#526=VERTEX_POINT('',#1812);
#527=VERTEX_POINT('',#1814);
#528=VERTEX_POINT('',#1817);
#529=VERTEX_POINT('',#1818);
#530=VERTEX_POINT('',#1820);
#531=VERTEX_POINT('',#1822);
#532=VERTEX_POINT('',#1826);
#533=VERTEX_POINT('',#1828);
#534=VERTEX_POINT('',#1832);
#535=VERTEX_POINT('',#1836);
#536=VERTEX_POINT('',#1843);
#537=VERTEX_POINT('',#1845);
#538=VERTEX_POINT('',#1849);
#539=VERTEX_POINT('',#1853);
#540=VERTEX_POINT('',#1860);
#541=VERTEX_POINT('',#1862);
#542=VERTEX_POINT('',#1866);
#543=VERTEX_POINT('',#1870);
#544=VERTEX_POINT('',#1877);
#545=VERTEX_POINT('',#1879);
#546=EDGE_CURVE('',#442,#443,#162,.T.);
#547=EDGE_CURVE('',#442,#444,#163,.T.);
#548=EDGE_CURVE('',#445,#444,#164,.T.);
#549=EDGE_CURVE('',#443,#445,#165,.T.);
#550=EDGE_CURVE('',#443,#446,#166,.T.);
#551=EDGE_CURVE('',#447,#445,#167,.T.);
#552=EDGE_CURVE('',#446,#447,#168,.T.);
#553=EDGE_CURVE('',#446,#448,#169,.T.);
#554=EDGE_CURVE('',#449,#447,#170,.T.);
#555=EDGE_CURVE('',#448,#449,#171,.T.);
#556=EDGE_CURVE('',#448,#442,#172,.T.);
#557=EDGE_CURVE('',#444,#449,#173,.T.);
#558=EDGE_CURVE('',#450,#451,#174,.T.);
#559=EDGE_CURVE('',#450,#452,#175,.T.);
#560=EDGE_CURVE('',#452,#453,#176,.T.);
#561=EDGE_CURVE('',#451,#453,#177,.T.);
#562=EDGE_CURVE('',#454,#450,#18,.T.);
#563=EDGE_CURVE('',#454,#455,#178,.T.);
#564=EDGE_CURVE('',#455,#452,#19,.T.);
#565=EDGE_CURVE('',#456,#454,#179,.T.);
#566=EDGE_CURVE('',#457,#456,#180,.T.);
#567=EDGE_CURVE('',#457,#455,#181,.T.);
#568=EDGE_CURVE('',#453,#457,#182,.T.);
#569=EDGE_CURVE('',#458,#459,#183,.T.);
#570=EDGE_CURVE('',#458,#460,#184,.T.);
#571=EDGE_CURVE('',#460,#461,#185,.T.);
#572=EDGE_CURVE('',#459,#461,#186,.T.);
#573=EDGE_CURVE('',#462,#458,#20,.T.);
#574=EDGE_CURVE('',#462,#463,#187,.T.);
#575=EDGE_CURVE('',#463,#460,#21,.T.);
#576=EDGE_CURVE('',#464,#462,#188,.T.);
#577=EDGE_CURVE('',#465,#464,#189,.T.);
#578=EDGE_CURVE('',#465,#463,#190,.T.);
#579=EDGE_CURVE('',#461,#465,#191,.T.);
#580=EDGE_CURVE('',#466,#467,#192,.T.);
#581=EDGE_CURVE('',#466,#468,#193,.T.);
#582=EDGE_CURVE('',#468,#469,#194,.T.);
#583=EDGE_CURVE('',#467,#469,#195,.T.);
#584=EDGE_CURVE('',#470,#466,#22,.T.);
#585=EDGE_CURVE('',#470,#471,#196,.T.);
#586=EDGE_CURVE('',#471,#468,#23,.T.);
#587=EDGE_CURVE('',#472,#470,#197,.T.);
#588=EDGE_CURVE('',#473,#472,#198,.T.);
#589=EDGE_CURVE('',#473,#471,#199,.T.);
#590=EDGE_CURVE('',#469,#473,#200,.T.);
#591=EDGE_CURVE('',#474,#475,#201,.T.);
#592=EDGE_CURVE('',#474,#476,#202,.T.);
#593=EDGE_CURVE('',#476,#477,#203,.T.);
#594=EDGE_CURVE('',#475,#477,#204,.T.);
#595=EDGE_CURVE('',#478,#474,#24,.T.);
#596=EDGE_CURVE('',#478,#479,#205,.T.);
#597=EDGE_CURVE('',#479,#476,#25,.T.);
#598=EDGE_CURVE('',#480,#478,#206,.T.);
#599=EDGE_CURVE('',#481,#480,#207,.T.);
#600=EDGE_CURVE('',#481,#479,#208,.T.);
#601=EDGE_CURVE('',#477,#481,#209,.T.);
#602=EDGE_CURVE('',#482,#483,#210,.T.);
#603=EDGE_CURVE('',#482,#484,#211,.T.);
#604=EDGE_CURVE('',#484,#485,#212,.T.);
#605=EDGE_CURVE('',#483,#485,#213,.T.);
#606=EDGE_CURVE('',#486,#482,#26,.T.);
#607=EDGE_CURVE('',#486,#487,#214,.T.);
#608=EDGE_CURVE('',#487,#484,#27,.T.);
#609=EDGE_CURVE('',#488,#486,#215,.T.);
#610=EDGE_CURVE('',#489,#488,#216,.T.);
#611=EDGE_CURVE('',#489,#487,#217,.T.);
#612=EDGE_CURVE('',#485,#489,#218,.T.);
#613=EDGE_CURVE('',#490,#491,#219,.T.);
#614=EDGE_CURVE('',#490,#492,#220,.T.);
#615=EDGE_CURVE('',#492,#493,#221,.T.);
#616=EDGE_CURVE('',#491,#493,#222,.T.);
#617=EDGE_CURVE('',#494,#490,#28,.T.);
#618=EDGE_CURVE('',#494,#495,#223,.T.);
#619=EDGE_CURVE('',#495,#492,#29,.T.);
#620=EDGE_CURVE('',#496,#494,#224,.T.);
#621=EDGE_CURVE('',#497,#496,#225,.T.);
#622=EDGE_CURVE('',#497,#495,#226,.T.);
#623=EDGE_CURVE('',#493,#497,#227,.T.);
#624=EDGE_CURVE('',#498,#499,#228,.T.);
#625=EDGE_CURVE('',#498,#500,#229,.T.);
#626=EDGE_CURVE('',#500,#501,#230,.T.);
#627=EDGE_CURVE('',#499,#501,#231,.T.);
#628=EDGE_CURVE('',#502,#498,#30,.T.);
#629=EDGE_CURVE('',#502,#503,#232,.T.);
#630=EDGE_CURVE('',#503,#500,#31,.T.);
#631=EDGE_CURVE('',#504,#502,#233,.T.);
#632=EDGE_CURVE('',#505,#504,#234,.T.);
#633=EDGE_CURVE('',#505,#503,#235,.T.);
#634=EDGE_CURVE('',#501,#505,#236,.T.);
#635=EDGE_CURVE('',#506,#507,#237,.T.);
#636=EDGE_CURVE('',#506,#508,#238,.T.);
#637=EDGE_CURVE('',#508,#509,#239,.T.);
#638=EDGE_CURVE('',#507,#509,#240,.T.);
#639=EDGE_CURVE('',#510,#506,#32,.T.);
#640=EDGE_CURVE('',#510,#511,#241,.T.);
#641=EDGE_CURVE('',#511,#508,#33,.T.);
#642=EDGE_CURVE('',#512,#510,#242,.T.);
#643=EDGE_CURVE('',#513,#512,#243,.T.);
#644=EDGE_CURVE('',#513,#511,#244,.T.);
#645=EDGE_CURVE('',#509,#513,#245,.T.);
#646=EDGE_CURVE('',#499,#464,#246,.T.);
#647=EDGE_CURVE('',#514,#504,#247,.T.);
#648=EDGE_CURVE('',#515,#514,#248,.T.);
#649=EDGE_CURVE('',#515,#516,#249,.T.);
#650=EDGE_CURVE('',#516,#517,#250,.T.);
#651=EDGE_CURVE('',#475,#517,#251,.T.);
#652=EDGE_CURVE('',#507,#480,#252,.T.);
#653=EDGE_CURVE('',#459,#512,#253,.T.);
#654=EDGE_CURVE('',#451,#496,#254,.T.);
#655=EDGE_CURVE('',#491,#472,#255,.T.);
#656=EDGE_CURVE('',#467,#488,#256,.T.);
#657=EDGE_CURVE('',#483,#518,#257,.T.);
#658=EDGE_CURVE('',#518,#514,#258,.T.);
#659=EDGE_CURVE('',#517,#519,#259,.T.);
#660=EDGE_CURVE('',#519,#456,#260,.T.);
#661=EDGE_CURVE('',#520,#521,#261,.T.);
#662=EDGE_CURVE('',#521,#522,#262,.T.);
#663=EDGE_CURVE('',#522,#523,#263,.T.);
#664=EDGE_CURVE('',#523,#520,#264,.T.);
#665=EDGE_CURVE('',#524,#525,#265,.T.);
#666=EDGE_CURVE('',#525,#526,#266,.T.);
#667=EDGE_CURVE('',#526,#527,#267,.T.);
#668=EDGE_CURVE('',#527,#524,#268,.T.);
#669=EDGE_CURVE('',#528,#529,#269,.T.);
#670=EDGE_CURVE('',#529,#530,#270,.T.);
#671=EDGE_CURVE('',#530,#531,#271,.T.);
#672=EDGE_CURVE('',#531,#528,#272,.T.);
#673=EDGE_CURVE('',#528,#532,#273,.T.);
#674=EDGE_CURVE('',#533,#532,#274,.T.);
#675=EDGE_CURVE('',#529,#533,#275,.T.);
#676=EDGE_CURVE('',#534,#533,#276,.T.);
#677=EDGE_CURVE('',#530,#534,#277,.T.);
#678=EDGE_CURVE('',#535,#534,#278,.T.);
#679=EDGE_CURVE('',#531,#535,#279,.T.);
#680=EDGE_CURVE('',#532,#535,#280,.T.);
#681=EDGE_CURVE('',#524,#536,#281,.T.);
#682=EDGE_CURVE('',#537,#536,#282,.T.);
#683=EDGE_CURVE('',#525,#537,#283,.T.);
#684=EDGE_CURVE('',#538,#537,#284,.T.);
#685=EDGE_CURVE('',#526,#538,#285,.T.);
#686=EDGE_CURVE('',#539,#538,#286,.T.);
#687=EDGE_CURVE('',#527,#539,#287,.T.);
#688=EDGE_CURVE('',#536,#539,#288,.T.);
#689=EDGE_CURVE('',#520,#540,#289,.T.);
#690=EDGE_CURVE('',#541,#540,#290,.T.);
#691=EDGE_CURVE('',#521,#541,#291,.T.);
#692=EDGE_CURVE('',#542,#541,#292,.T.);
#693=EDGE_CURVE('',#522,#542,#293,.T.);
#694=EDGE_CURVE('',#543,#542,#294,.T.);
#695=EDGE_CURVE('',#523,#543,#295,.T.);
#696=EDGE_CURVE('',#540,#543,#296,.T.);
#697=EDGE_CURVE('',#544,#515,#297,.T.);
#698=EDGE_CURVE('',#545,#544,#298,.T.);
#699=EDGE_CURVE('',#516,#545,#299,.T.);
#700=EDGE_CURVE('',#544,#518,#300,.T.);
#701=EDGE_CURVE('',#545,#519,#301,.T.);
#702=ORIENTED_EDGE('',*,*,#546,.F.);
#703=ORIENTED_EDGE('',*,*,#547,.T.);
#704=ORIENTED_EDGE('',*,*,#548,.F.);
#705=ORIENTED_EDGE('',*,*,#549,.F.);
#706=ORIENTED_EDGE('',*,*,#550,.F.);
#707=ORIENTED_EDGE('',*,*,#549,.T.);
#708=ORIENTED_EDGE('',*,*,#551,.F.);
#709=ORIENTED_EDGE('',*,*,#552,.F.);
#710=ORIENTED_EDGE('',*,*,#553,.F.);
#711=ORIENTED_EDGE('',*,*,#552,.T.);
#712=ORIENTED_EDGE('',*,*,#554,.F.);
#713=ORIENTED_EDGE('',*,*,#555,.F.);
#714=ORIENTED_EDGE('',*,*,#556,.F.);
#715=ORIENTED_EDGE('',*,*,#555,.T.);
#716=ORIENTED_EDGE('',*,*,#557,.F.);
#717=ORIENTED_EDGE('',*,*,#547,.F.);
#718=ORIENTED_EDGE('',*,*,#557,.T.);
#719=ORIENTED_EDGE('',*,*,#554,.T.);
#720=ORIENTED_EDGE('',*,*,#551,.T.);
#721=ORIENTED_EDGE('',*,*,#548,.T.);
#722=ORIENTED_EDGE('',*,*,#558,.F.);
#723=ORIENTED_EDGE('',*,*,#559,.T.);
#724=ORIENTED_EDGE('',*,*,#560,.T.);
#725=ORIENTED_EDGE('',*,*,#561,.F.);
#726=ORIENTED_EDGE('',*,*,#562,.F.);
#727=ORIENTED_EDGE('',*,*,#563,.T.);
#728=ORIENTED_EDGE('',*,*,#564,.T.);
#729=ORIENTED_EDGE('',*,*,#559,.F.);
#730=ORIENTED_EDGE('',*,*,#565,.F.);
#731=ORIENTED_EDGE('',*,*,#566,.F.);
#732=ORIENTED_EDGE('',*,*,#567,.T.);
#733=ORIENTED_EDGE('',*,*,#563,.F.);
#734=ORIENTED_EDGE('',*,*,#567,.F.);
#735=ORIENTED_EDGE('',*,*,#568,.F.);
#736=ORIENTED_EDGE('',*,*,#560,.F.);
#737=ORIENTED_EDGE('',*,*,#564,.F.);
#738=ORIENTED_EDGE('',*,*,#569,.F.);
#739=ORIENTED_EDGE('',*,*,#570,.T.);
#740=ORIENTED_EDGE('',*,*,#571,.T.);
#741=ORIENTED_EDGE('',*,*,#572,.F.);
#742=ORIENTED_EDGE('',*,*,#573,.F.);
#743=ORIENTED_EDGE('',*,*,#574,.T.);
#744=ORIENTED_EDGE('',*,*,#575,.T.);
#745=ORIENTED_EDGE('',*,*,#570,.F.);
#746=ORIENTED_EDGE('',*,*,#576,.F.);
#747=ORIENTED_EDGE('',*,*,#577,.F.);
#748=ORIENTED_EDGE('',*,*,#578,.T.);
#749=ORIENTED_EDGE('',*,*,#574,.F.);
#750=ORIENTED_EDGE('',*,*,#579,.F.);
#751=ORIENTED_EDGE('',*,*,#571,.F.);
#752=ORIENTED_EDGE('',*,*,#575,.F.);
#753=ORIENTED_EDGE('',*,*,#578,.F.);
#754=ORIENTED_EDGE('',*,*,#580,.F.);
#755=ORIENTED_EDGE('',*,*,#581,.T.);
#756=ORIENTED_EDGE('',*,*,#582,.T.);
#757=ORIENTED_EDGE('',*,*,#583,.F.);
#758=ORIENTED_EDGE('',*,*,#584,.F.);
#759=ORIENTED_EDGE('',*,*,#585,.T.);
#760=ORIENTED_EDGE('',*,*,#586,.T.);
#761=ORIENTED_EDGE('',*,*,#581,.F.);
#762=ORIENTED_EDGE('',*,*,#587,.F.);
#763=ORIENTED_EDGE('',*,*,#588,.F.);
#764=ORIENTED_EDGE('',*,*,#589,.T.);
#765=ORIENTED_EDGE('',*,*,#585,.F.);
#766=ORIENTED_EDGE('',*,*,#589,.F.);
#767=ORIENTED_EDGE('',*,*,#590,.F.);
#768=ORIENTED_EDGE('',*,*,#582,.F.);
#769=ORIENTED_EDGE('',*,*,#586,.F.);
#770=ORIENTED_EDGE('',*,*,#591,.F.);
#771=ORIENTED_EDGE('',*,*,#592,.T.);
#772=ORIENTED_EDGE('',*,*,#593,.T.);
#773=ORIENTED_EDGE('',*,*,#594,.F.);
#774=ORIENTED_EDGE('',*,*,#595,.F.);
#775=ORIENTED_EDGE('',*,*,#596,.T.);
#776=ORIENTED_EDGE('',*,*,#597,.T.);
#777=ORIENTED_EDGE('',*,*,#592,.F.);
#778=ORIENTED_EDGE('',*,*,#598,.F.);
#779=ORIENTED_EDGE('',*,*,#599,.F.);
#780=ORIENTED_EDGE('',*,*,#600,.T.);
#781=ORIENTED_EDGE('',*,*,#596,.F.);
#782=ORIENTED_EDGE('',*,*,#600,.F.);
#783=ORIENTED_EDGE('',*,*,#601,.F.);
#784=ORIENTED_EDGE('',*,*,#593,.F.);
#785=ORIENTED_EDGE('',*,*,#597,.F.);
#786=ORIENTED_EDGE('',*,*,#602,.F.);
#787=ORIENTED_EDGE('',*,*,#603,.T.);
#788=ORIENTED_EDGE('',*,*,#604,.T.);
#789=ORIENTED_EDGE('',*,*,#605,.F.);
#790=ORIENTED_EDGE('',*,*,#606,.F.);
#791=ORIENTED_EDGE('',*,*,#607,.T.);
#792=ORIENTED_EDGE('',*,*,#608,.T.);
#793=ORIENTED_EDGE('',*,*,#603,.F.);
#794=ORIENTED_EDGE('',*,*,#609,.F.);
#795=ORIENTED_EDGE('',*,*,#610,.F.);
#796=ORIENTED_EDGE('',*,*,#611,.T.);
#797=ORIENTED_EDGE('',*,*,#607,.F.);
#798=ORIENTED_EDGE('',*,*,#611,.F.);
#799=ORIENTED_EDGE('',*,*,#612,.F.);
#800=ORIENTED_EDGE('',*,*,#604,.F.);
#801=ORIENTED_EDGE('',*,*,#608,.F.);
#802=ORIENTED_EDGE('',*,*,#613,.F.);
#803=ORIENTED_EDGE('',*,*,#614,.T.);
#804=ORIENTED_EDGE('',*,*,#615,.T.);
#805=ORIENTED_EDGE('',*,*,#616,.F.);
#806=ORIENTED_EDGE('',*,*,#617,.F.);
#807=ORIENTED_EDGE('',*,*,#618,.T.);
#808=ORIENTED_EDGE('',*,*,#619,.T.);
#809=ORIENTED_EDGE('',*,*,#614,.F.);
#810=ORIENTED_EDGE('',*,*,#620,.F.);
#811=ORIENTED_EDGE('',*,*,#621,.F.);
#812=ORIENTED_EDGE('',*,*,#622,.T.);
#813=ORIENTED_EDGE('',*,*,#618,.F.);
#814=ORIENTED_EDGE('',*,*,#623,.F.);
#815=ORIENTED_EDGE('',*,*,#615,.F.);
#816=ORIENTED_EDGE('',*,*,#619,.F.);
#817=ORIENTED_EDGE('',*,*,#622,.F.);
#818=ORIENTED_EDGE('',*,*,#624,.F.);
#819=ORIENTED_EDGE('',*,*,#625,.T.);
#820=ORIENTED_EDGE('',*,*,#626,.T.);
#821=ORIENTED_EDGE('',*,*,#627,.F.);
#822=ORIENTED_EDGE('',*,*,#628,.F.);
#823=ORIENTED_EDGE('',*,*,#629,.T.);
#824=ORIENTED_EDGE('',*,*,#630,.T.);
#825=ORIENTED_EDGE('',*,*,#625,.F.);
#826=ORIENTED_EDGE('',*,*,#631,.F.);
#827=ORIENTED_EDGE('',*,*,#632,.F.);
#828=ORIENTED_EDGE('',*,*,#633,.T.);
#829=ORIENTED_EDGE('',*,*,#629,.F.);
#830=ORIENTED_EDGE('',*,*,#634,.F.);
#831=ORIENTED_EDGE('',*,*,#626,.F.);
#832=ORIENTED_EDGE('',*,*,#630,.F.);
#833=ORIENTED_EDGE('',*,*,#633,.F.);
#834=ORIENTED_EDGE('',*,*,#635,.F.);
#835=ORIENTED_EDGE('',*,*,#636,.T.);
#836=ORIENTED_EDGE('',*,*,#637,.T.);
#837=ORIENTED_EDGE('',*,*,#638,.F.);
#838=ORIENTED_EDGE('',*,*,#639,.F.);
#839=ORIENTED_EDGE('',*,*,#640,.T.);
#840=ORIENTED_EDGE('',*,*,#641,.T.);
#841=ORIENTED_EDGE('',*,*,#636,.F.);
#842=ORIENTED_EDGE('',*,*,#642,.F.);
#843=ORIENTED_EDGE('',*,*,#643,.F.);
#844=ORIENTED_EDGE('',*,*,#644,.T.);
#845=ORIENTED_EDGE('',*,*,#640,.F.);
#846=ORIENTED_EDGE('',*,*,#644,.F.);
#847=ORIENTED_EDGE('',*,*,#645,.F.);
#848=ORIENTED_EDGE('',*,*,#637,.F.);
#849=ORIENTED_EDGE('',*,*,#641,.F.);
#850=ORIENTED_EDGE('',*,*,#572,.T.);
#851=ORIENTED_EDGE('',*,*,#579,.T.);
#852=ORIENTED_EDGE('',*,*,#577,.T.);
#853=ORIENTED_EDGE('',*,*,#646,.F.);
#854=ORIENTED_EDGE('',*,*,#627,.T.);
#855=ORIENTED_EDGE('',*,*,#634,.T.);
#856=ORIENTED_EDGE('',*,*,#632,.T.);
#857=ORIENTED_EDGE('',*,*,#647,.F.);
#858=ORIENTED_EDGE('',*,*,#648,.F.);
#859=ORIENTED_EDGE('',*,*,#649,.T.);
#860=ORIENTED_EDGE('',*,*,#650,.T.);
#861=ORIENTED_EDGE('',*,*,#651,.F.);
#862=ORIENTED_EDGE('',*,*,#594,.T.);
#863=ORIENTED_EDGE('',*,*,#601,.T.);
#864=ORIENTED_EDGE('',*,*,#599,.T.);
#865=ORIENTED_EDGE('',*,*,#652,.F.);
#866=ORIENTED_EDGE('',*,*,#638,.T.);
#867=ORIENTED_EDGE('',*,*,#645,.T.);
#868=ORIENTED_EDGE('',*,*,#643,.T.);
#869=ORIENTED_EDGE('',*,*,#653,.F.);
#870=ORIENTED_EDGE('',*,*,#565,.T.);
#871=ORIENTED_EDGE('',*,*,#562,.T.);
#872=ORIENTED_EDGE('',*,*,#558,.T.);
#873=ORIENTED_EDGE('',*,*,#654,.T.);
#874=ORIENTED_EDGE('',*,*,#620,.T.);
#875=ORIENTED_EDGE('',*,*,#617,.T.);
#876=ORIENTED_EDGE('',*,*,#613,.T.);
#877=ORIENTED_EDGE('',*,*,#655,.T.);
#878=ORIENTED_EDGE('',*,*,#587,.T.);
#879=ORIENTED_EDGE('',*,*,#584,.T.);
#880=ORIENTED_EDGE('',*,*,#580,.T.);
#881=ORIENTED_EDGE('',*,*,#656,.T.);
#882=ORIENTED_EDGE('',*,*,#609,.T.);
#883=ORIENTED_EDGE('',*,*,#606,.T.);
#884=ORIENTED_EDGE('',*,*,#602,.T.);
#885=ORIENTED_EDGE('',*,*,#657,.T.);
#886=ORIENTED_EDGE('',*,*,#658,.T.);
#887=ORIENTED_EDGE('',*,*,#647,.T.);
#888=ORIENTED_EDGE('',*,*,#631,.T.);
#889=ORIENTED_EDGE('',*,*,#628,.T.);
#890=ORIENTED_EDGE('',*,*,#624,.T.);
#891=ORIENTED_EDGE('',*,*,#646,.T.);
#892=ORIENTED_EDGE('',*,*,#576,.T.);
#893=ORIENTED_EDGE('',*,*,#573,.T.);
#894=ORIENTED_EDGE('',*,*,#569,.T.);
#895=ORIENTED_EDGE('',*,*,#653,.T.);
#896=ORIENTED_EDGE('',*,*,#642,.T.);
#897=ORIENTED_EDGE('',*,*,#639,.T.);
#898=ORIENTED_EDGE('',*,*,#635,.T.);
#899=ORIENTED_EDGE('',*,*,#652,.T.);
#900=ORIENTED_EDGE('',*,*,#598,.T.);
#901=ORIENTED_EDGE('',*,*,#595,.T.);
#902=ORIENTED_EDGE('',*,*,#591,.T.);
#903=ORIENTED_EDGE('',*,*,#651,.T.);
#904=ORIENTED_EDGE('',*,*,#659,.T.);
#905=ORIENTED_EDGE('',*,*,#660,.T.);
#906=ORIENTED_EDGE('',*,*,#661,.T.);
#907=ORIENTED_EDGE('',*,*,#662,.T.);
#908=ORIENTED_EDGE('',*,*,#663,.T.);
#909=ORIENTED_EDGE('',*,*,#664,.T.);
#910=ORIENTED_EDGE('',*,*,#665,.T.);
#911=ORIENTED_EDGE('',*,*,#666,.T.);
#912=ORIENTED_EDGE('',*,*,#667,.T.);
#913=ORIENTED_EDGE('',*,*,#668,.T.);
#914=ORIENTED_EDGE('',*,*,#669,.T.);
#915=ORIENTED_EDGE('',*,*,#670,.T.);
#916=ORIENTED_EDGE('',*,*,#671,.T.);
#917=ORIENTED_EDGE('',*,*,#672,.T.);
#918=ORIENTED_EDGE('',*,*,#669,.F.);
#919=ORIENTED_EDGE('',*,*,#673,.T.);
#920=ORIENTED_EDGE('',*,*,#674,.F.);
#921=ORIENTED_EDGE('',*,*,#675,.F.);
#922=ORIENTED_EDGE('',*,*,#670,.F.);
#923=ORIENTED_EDGE('',*,*,#675,.T.);
#924=ORIENTED_EDGE('',*,*,#676,.F.);
#925=ORIENTED_EDGE('',*,*,#677,.F.);
#926=ORIENTED_EDGE('',*,*,#671,.F.);
#927=ORIENTED_EDGE('',*,*,#677,.T.);
#928=ORIENTED_EDGE('',*,*,#678,.F.);
#929=ORIENTED_EDGE('',*,*,#679,.F.);
#930=ORIENTED_EDGE('',*,*,#672,.F.);
#931=ORIENTED_EDGE('',*,*,#679,.T.);
#932=ORIENTED_EDGE('',*,*,#680,.F.);
#933=ORIENTED_EDGE('',*,*,#673,.F.);
#934=ORIENTED_EDGE('',*,*,#680,.T.);
#935=ORIENTED_EDGE('',*,*,#678,.T.);
#936=ORIENTED_EDGE('',*,*,#676,.T.);
#937=ORIENTED_EDGE('',*,*,#674,.T.);
#938=ORIENTED_EDGE('',*,*,#665,.F.);
#939=ORIENTED_EDGE('',*,*,#681,.T.);
#940=ORIENTED_EDGE('',*,*,#682,.F.);
#941=ORIENTED_EDGE('',*,*,#683,.F.);
#942=ORIENTED_EDGE('',*,*,#666,.F.);
#943=ORIENTED_EDGE('',*,*,#683,.T.);
#944=ORIENTED_EDGE('',*,*,#684,.F.);
#945=ORIENTED_EDGE('',*,*,#685,.F.);
#946=ORIENTED_EDGE('',*,*,#667,.F.);
#947=ORIENTED_EDGE('',*,*,#685,.T.);
#948=ORIENTED_EDGE('',*,*,#686,.F.);
#949=ORIENTED_EDGE('',*,*,#687,.F.);
#950=ORIENTED_EDGE('',*,*,#668,.F.);
#951=ORIENTED_EDGE('',*,*,#687,.T.);
#952=ORIENTED_EDGE('',*,*,#688,.F.);
#953=ORIENTED_EDGE('',*,*,#681,.F.);
#954=ORIENTED_EDGE('',*,*,#688,.T.);
#955=ORIENTED_EDGE('',*,*,#686,.T.);
#956=ORIENTED_EDGE('',*,*,#684,.T.);
#957=ORIENTED_EDGE('',*,*,#682,.T.);
#958=ORIENTED_EDGE('',*,*,#661,.F.);
#959=ORIENTED_EDGE('',*,*,#689,.T.);
#960=ORIENTED_EDGE('',*,*,#690,.F.);
#961=ORIENTED_EDGE('',*,*,#691,.F.);
#962=ORIENTED_EDGE('',*,*,#662,.F.);
#963=ORIENTED_EDGE('',*,*,#691,.T.);
#964=ORIENTED_EDGE('',*,*,#692,.F.);
#965=ORIENTED_EDGE('',*,*,#693,.F.);
#966=ORIENTED_EDGE('',*,*,#663,.F.);
#967=ORIENTED_EDGE('',*,*,#693,.T.);
#968=ORIENTED_EDGE('',*,*,#694,.F.);
#969=ORIENTED_EDGE('',*,*,#695,.F.);
#970=ORIENTED_EDGE('',*,*,#664,.F.);
#971=ORIENTED_EDGE('',*,*,#695,.T.);
#972=ORIENTED_EDGE('',*,*,#696,.F.);
#973=ORIENTED_EDGE('',*,*,#689,.F.);
#974=ORIENTED_EDGE('',*,*,#696,.T.);
#975=ORIENTED_EDGE('',*,*,#694,.T.);
#976=ORIENTED_EDGE('',*,*,#692,.T.);
#977=ORIENTED_EDGE('',*,*,#690,.T.);
#978=ORIENTED_EDGE('',*,*,#649,.F.);
#979=ORIENTED_EDGE('',*,*,#697,.F.);
#980=ORIENTED_EDGE('',*,*,#698,.F.);
#981=ORIENTED_EDGE('',*,*,#699,.F.);
#982=ORIENTED_EDGE('',*,*,#546,.T.);
#983=ORIENTED_EDGE('',*,*,#550,.T.);
#984=ORIENTED_EDGE('',*,*,#553,.T.);
#985=ORIENTED_EDGE('',*,*,#556,.T.);
#986=ORIENTED_EDGE('',*,*,#697,.T.);
#987=ORIENTED_EDGE('',*,*,#648,.T.);
#988=ORIENTED_EDGE('',*,*,#658,.F.);
#989=ORIENTED_EDGE('',*,*,#700,.F.);
#990=ORIENTED_EDGE('',*,*,#566,.T.);
#991=ORIENTED_EDGE('',*,*,#660,.F.);
#992=ORIENTED_EDGE('',*,*,#701,.F.);
#993=ORIENTED_EDGE('',*,*,#698,.T.);
#994=ORIENTED_EDGE('',*,*,#700,.T.);
#995=ORIENTED_EDGE('',*,*,#657,.F.);
#996=ORIENTED_EDGE('',*,*,#605,.T.);
#997=ORIENTED_EDGE('',*,*,#612,.T.);
#998=ORIENTED_EDGE('',*,*,#610,.T.);
#999=ORIENTED_EDGE('',*,*,#656,.F.);
#1000=ORIENTED_EDGE('',*,*,#583,.T.);
#1001=ORIENTED_EDGE('',*,*,#590,.T.);
#1002=ORIENTED_EDGE('',*,*,#588,.T.);
#1003=ORIENTED_EDGE('',*,*,#655,.F.);
#1004=ORIENTED_EDGE('',*,*,#616,.T.);
#1005=ORIENTED_EDGE('',*,*,#623,.T.);
#1006=ORIENTED_EDGE('',*,*,#621,.T.);
#1007=ORIENTED_EDGE('',*,*,#654,.F.);
#1008=ORIENTED_EDGE('',*,*,#561,.T.);
#1009=ORIENTED_EDGE('',*,*,#568,.T.);
#1010=ORIENTED_EDGE('',*,*,#699,.T.);
#1011=ORIENTED_EDGE('',*,*,#701,.T.);
#1012=ORIENTED_EDGE('',*,*,#659,.F.);
#1013=ORIENTED_EDGE('',*,*,#650,.F.);
#1014=PLANE('',#1204);
#1015=PLANE('',#1205);
#1016=PLANE('',#1206);
#1017=PLANE('',#1207);
#1018=PLANE('',#1208);
#1019=PLANE('',#1209);
#1020=PLANE('',#1213);
#1021=PLANE('',#1214);
#1022=PLANE('',#1215);
#1023=PLANE('',#1219);
#1024=PLANE('',#1220);
#1025=PLANE('',#1221);
#1026=PLANE('',#1225);
#1027=PLANE('',#1226);
#1028=PLANE('',#1227);
#1029=PLANE('',#1231);
#1030=PLANE('',#1232);
#1031=PLANE('',#1233);
#1032=PLANE('',#1237);
#1033=PLANE('',#1238);
#1034=PLANE('',#1239);
#1035=PLANE('',#1243);
#1036=PLANE('',#1244);
#1037=PLANE('',#1245);
#1038=PLANE('',#1249);
#1039=PLANE('',#1250);
#1040=PLANE('',#1251);
#1041=PLANE('',#1255);
#1042=PLANE('',#1256);
#1043=PLANE('',#1257);
#1044=PLANE('',#1258);
#1045=PLANE('',#1259);
#1046=PLANE('',#1260);
#1047=PLANE('',#1261);
#1048=PLANE('',#1262);
#1049=PLANE('',#1263);
#1050=PLANE('',#1264);
#1051=PLANE('',#1265);
#1052=PLANE('',#1266);
#1053=PLANE('',#1267);
#1054=PLANE('',#1268);
#1055=PLANE('',#1269);
#1056=PLANE('',#1270);
#1057=PLANE('',#1271);
#1058=PLANE('',#1272);
#1059=PLANE('',#1273);
#1060=PLANE('',#1274);
#1061=PLANE('',#1275);
#1062=PLANE('',#1276);
#1063=PLANE('',#1277);
#1064=STYLED_ITEM('',(#1908),#1123);
#1065=STYLED_ITEM('',(#1908),#1124);
#1066=STYLED_ITEM('',(#1908),#1125);
#1067=STYLED_ITEM('',(#1908),#1126);
#1068=STYLED_ITEM('',(#1908),#1127);
#1069=STYLED_ITEM('',(#1909),#1128);
#1070=STYLED_ITEM('',(#1909),#1129);
#1071=STYLED_ITEM('',(#1909),#1130);
#1072=STYLED_ITEM('',(#1909),#1131);
#1073=STYLED_ITEM('',(#1909),#1132);
#1074=STYLED_ITEM('',(#1909),#1133);
#1075=STYLED_ITEM('',(#1909),#1134);
#1076=STYLED_ITEM('',(#1909),#1135);
#1077=STYLED_ITEM('',(#1909),#1136);
#1078=STYLED_ITEM('',(#1909),#1137);
#1079=STYLED_ITEM('',(#1909),#1138);
#1080=STYLED_ITEM('',(#1909),#1139);
#1081=STYLED_ITEM('',(#1909),#1140);
#1082=STYLED_ITEM('',(#1909),#1141);
#1083=STYLED_ITEM('',(#1909),#1142);
#1084=STYLED_ITEM('',(#1909),#1143);
#1085=STYLED_ITEM('',(#1909),#1144);
#1086=STYLED_ITEM('',(#1909),#1145);
#1087=STYLED_ITEM('',(#1909),#1146);
#1088=STYLED_ITEM('',(#1909),#1147);
#1089=STYLED_ITEM('',(#1909),#1148);
#1090=STYLED_ITEM('',(#1909),#1149);
#1091=STYLED_ITEM('',(#1909),#1150);
#1092=STYLED_ITEM('',(#1909),#1151);
#1093=STYLED_ITEM('',(#1909),#1152);
#1094=STYLED_ITEM('',(#1909),#1153);
#1095=STYLED_ITEM('',(#1909),#1154);
#1096=STYLED_ITEM('',(#1909),#1155);
#1097=STYLED_ITEM('',(#1909),#1156);
#1098=STYLED_ITEM('',(#1909),#1157);
#1099=STYLED_ITEM('',(#1909),#1158);
#1100=STYLED_ITEM('',(#1909),#1159);
#1101=STYLED_ITEM('',(#1910),#1160);
#1102=STYLED_ITEM('',(#1910),#1161);
#1103=STYLED_ITEM('',(#1911),#1162);
#1104=STYLED_ITEM('',(#1911),#1163);
#1105=STYLED_ITEM('',(#1911),#1164);
#1106=STYLED_ITEM('',(#1911),#1165);
#1107=STYLED_ITEM('',(#1911),#1166);
#1108=STYLED_ITEM('',(#1911),#1167);
#1109=STYLED_ITEM('',(#1911),#1168);
#1110=STYLED_ITEM('',(#1911),#1169);
#1111=STYLED_ITEM('',(#1911),#1170);
#1112=STYLED_ITEM('',(#1911),#1171);
#1113=STYLED_ITEM('',(#1911),#1172);
#1114=STYLED_ITEM('',(#1911),#1173);
#1115=STYLED_ITEM('',(#1911),#1174);
#1116=STYLED_ITEM('',(#1911),#1175);
#1117=STYLED_ITEM('',(#1911),#1176);
#1118=STYLED_ITEM('',(#1910),#1177);
#1119=STYLED_ITEM('',(#1910),#1178);
#1120=STYLED_ITEM('',(#1910),#1179);
#1121=STYLED_ITEM('',(#1910),#1180);
#1122=STYLED_ITEM('',(#1907),#13);
#1123=ADVANCED_FACE('',(#42),#1014,.T.);
#1124=ADVANCED_FACE('',(#43),#1015,.T.);
#1125=ADVANCED_FACE('',(#44),#1016,.T.);
#1126=ADVANCED_FACE('',(#45),#1017,.T.);
#1127=ADVANCED_FACE('',(#46),#1018,.T.);
#1128=ADVANCED_FACE('',(#47),#1019,.F.);
#1129=ADVANCED_FACE('',(#48),#34,.F.);
#1130=ADVANCED_FACE('',(#49),#1020,.F.);
#1131=ADVANCED_FACE('',(#50),#1021,.T.);
#1132=ADVANCED_FACE('',(#51),#1022,.F.);
#1133=ADVANCED_FACE('',(#52),#35,.F.);
#1134=ADVANCED_FACE('',(#53),#1023,.F.);
#1135=ADVANCED_FACE('',(#54),#1024,.T.);
#1136=ADVANCED_FACE('',(#55),#1025,.F.);
#1137=ADVANCED_FACE('',(#56),#36,.F.);
#1138=ADVANCED_FACE('',(#57),#1026,.F.);
#1139=ADVANCED_FACE('',(#58),#1027,.T.);
#1140=ADVANCED_FACE('',(#59),#1028,.F.);
#1141=ADVANCED_FACE('',(#60),#37,.F.);
#1142=ADVANCED_FACE('',(#61),#1029,.F.);
#1143=ADVANCED_FACE('',(#62),#1030,.T.);
#1144=ADVANCED_FACE('',(#63),#1031,.F.);
#1145=ADVANCED_FACE('',(#64),#38,.F.);
#1146=ADVANCED_FACE('',(#65),#1032,.F.);
#1147=ADVANCED_FACE('',(#66),#1033,.T.);
#1148=ADVANCED_FACE('',(#67),#1034,.F.);
#1149=ADVANCED_FACE('',(#68),#39,.F.);
#1150=ADVANCED_FACE('',(#69),#1035,.F.);
#1151=ADVANCED_FACE('',(#70),#1036,.T.);
#1152=ADVANCED_FACE('',(#71),#1037,.F.);
#1153=ADVANCED_FACE('',(#72),#40,.F.);
#1154=ADVANCED_FACE('',(#73),#1038,.F.);
#1155=ADVANCED_FACE('',(#74),#1039,.T.);
#1156=ADVANCED_FACE('',(#75),#1040,.F.);
#1157=ADVANCED_FACE('',(#76),#41,.F.);
#1158=ADVANCED_FACE('',(#77),#1041,.F.);
#1159=ADVANCED_FACE('',(#78),#1042,.T.);
#1160=ADVANCED_FACE('',(#79),#1043,.T.);
#1161=ADVANCED_FACE('',(#80,#14,#15,#16),#1044,.T.);
#1162=ADVANCED_FACE('',(#81),#1045,.T.);
#1163=ADVANCED_FACE('',(#82),#1046,.T.);
#1164=ADVANCED_FACE('',(#83),#1047,.T.);
#1165=ADVANCED_FACE('',(#84),#1048,.T.);
#1166=ADVANCED_FACE('',(#85),#1049,.T.);
#1167=ADVANCED_FACE('',(#86),#1050,.T.);
#1168=ADVANCED_FACE('',(#87),#1051,.T.);
#1169=ADVANCED_FACE('',(#88),#1052,.T.);
#1170=ADVANCED_FACE('',(#89),#1053,.T.);
#1171=ADVANCED_FACE('',(#90),#1054,.T.);
#1172=ADVANCED_FACE('',(#91),#1055,.T.);
#1173=ADVANCED_FACE('',(#92),#1056,.T.);
#1174=ADVANCED_FACE('',(#93),#1057,.T.);
#1175=ADVANCED_FACE('',(#94),#1058,.T.);
#1176=ADVANCED_FACE('',(#95),#1059,.T.);
#1177=ADVANCED_FACE('',(#96,#17),#1060,.F.);
#1178=ADVANCED_FACE('',(#97),#1061,.T.);
#1179=ADVANCED_FACE('',(#98),#1062,.T.);
#1180=ADVANCED_FACE('',(#99),#1063,.T.);
#1181=CLOSED_SHELL('',(#1123,#1124,#1125,#1126,#1127,#1128,#1129,#1130,
#1131,#1132,#1133,#1134,#1135,#1136,#1137,#1138,#1139,#1140,#1141,#1142,
#1143,#1144,#1145,#1146,#1147,#1148,#1149,#1150,#1151,#1152,#1153,#1154,
#1155,#1156,#1157,#1158,#1159,#1160,#1161,#1162,#1163,#1164,#1165,#1166,
#1167,#1168,#1169,#1170,#1171,#1172,#1173,#1174,#1175,#1176,#1177,#1178,
#1179,#1180));
#1182=DERIVED_UNIT_ELEMENT(#1185,1.);
#1183=DERIVED_UNIT_ELEMENT(#1892,-3.);
#1184=DIMENSIONAL_EXPONENTS(0.,1.,0.,0.,0.,0.,0.);
#1185=(
CONVERSION_BASED_UNIT('gram',#1187)
MASS_UNIT()
NAMED_UNIT(#1184)
);
#1186=(
MASS_UNIT()
NAMED_UNIT(*)
SI_UNIT(.KILO.,.GRAM.)
);
#1187=MASS_MEASURE_WITH_UNIT(MASS_MEASURE(0.001),#1186);
#1188=DERIVED_UNIT((#1182,#1183));
#1189=MEASURE_REPRESENTATION_ITEM('density measure',
POSITIVE_RATIO_MEASURE(1.),#1188);
#1190=PROPERTY_DEFINITION_REPRESENTATION(#1195,#1192);
#1191=PROPERTY_DEFINITION_REPRESENTATION(#1196,#1193);
#1192=REPRESENTATION('material name',(#1194),#1889);
#1193=REPRESENTATION('density',(#1189),#1889);
#1194=DESCRIPTIVE_REPRESENTATION_ITEM('\X2\4E00822C\X0\','\X2\4E00822C\X0\');
#1195=PROPERTY_DEFINITION('material property','material name',#1899);
#1196=PROPERTY_DEFINITION('material property','density of part',#1899);
#1197=DATE_TIME_ROLE('creation_date');
#1198=APPLIED_DATE_AND_TIME_ASSIGNMENT(#1199,#1197,(#1899));
#1199=DATE_AND_TIME(#1200,#1201);
#1200=CALENDAR_DATE(2025,20,2);
#1201=LOCAL_TIME(0,0,0.,#1202);
#1202=COORDINATED_UNIVERSAL_TIME_OFFSET(0,0,.BEHIND.);
#1203=AXIS2_PLACEMENT_3D('',#1568,#1278,#1279);
#1204=AXIS2_PLACEMENT_3D('',#1569,#1280,#1281);
#1205=AXIS2_PLACEMENT_3D('',#1578,#1286,#1287);
#1206=AXIS2_PLACEMENT_3D('',#1584,#1291,#1292);
#1207=AXIS2_PLACEMENT_3D('',#1590,#1296,#1297);
#1208=AXIS2_PLACEMENT_3D('',#1593,#1300,#1301);
#1209=AXIS2_PLACEMENT_3D('',#1594,#1302,#1303);
#1210=AXIS2_PLACEMENT_3D('',#1603,#1308,#1309);
#1211=AXIS2_PLACEMENT_3D('',#1605,#1310,#1311);
#1212=AXIS2_PLACEMENT_3D('',#1608,#1313,#1314);
#1213=AXIS2_PLACEMENT_3D('',#1609,#1315,#1316);
#1214=AXIS2_PLACEMENT_3D('',#1615,#1320,#1321);
#1215=AXIS2_PLACEMENT_3D('',#1617,#1323,#1324);
#1216=AXIS2_PLACEMENT_3D('',#1626,#1329,#1330);
#1217=AXIS2_PLACEMENT_3D('',#1628,#1331,#1332);
#1218=AXIS2_PLACEMENT_3D('',#1631,#1334,#1335);
#1219=AXIS2_PLACEMENT_3D('',#1632,#1336,#1337);
#1220=AXIS2_PLACEMENT_3D('',#1638,#1341,#1342);
#1221=AXIS2_PLACEMENT_3D('',#1640,#1344,#1345);
#1222=AXIS2_PLACEMENT_3D('',#1649,#1350,#1351);
#1223=AXIS2_PLACEMENT_3D('',#1651,#1352,#1353);
#1224=AXIS2_PLACEMENT_3D('',#1654,#1355,#1356);
#1225=AXIS2_PLACEMENT_3D('',#1655,#1357,#1358);
#1226=AXIS2_PLACEMENT_3D('',#1661,#1362,#1363);
#1227=AXIS2_PLACEMENT_3D('',#1663,#1365,#1366);
#1228=AXIS2_PLACEMENT_3D('',#1672,#1371,#1372);
#1229=AXIS2_PLACEMENT_3D('',#1674,#1373,#1374);
#1230=AXIS2_PLACEMENT_3D('',#1677,#1376,#1377);
#1231=AXIS2_PLACEMENT_3D('',#1678,#1378,#1379);
#1232=AXIS2_PLACEMENT_3D('',#1684,#1383,#1384);
#1233=AXIS2_PLACEMENT_3D('',#1686,#1386,#1387);
#1234=AXIS2_PLACEMENT_3D('',#1695,#1392,#1393);
#1235=AXIS2_PLACEMENT_3D('',#1697,#1394,#1395);
#1236=AXIS2_PLACEMENT_3D('',#1700,#1397,#1398);
#1237=AXIS2_PLACEMENT_3D('',#1701,#1399,#1400);
#1238=AXIS2_PLACEMENT_3D('',#1707,#1404,#1405);
#1239=AXIS2_PLACEMENT_3D('',#1709,#1407,#1408);
#1240=AXIS2_PLACEMENT_3D('',#1718,#1413,#1414);
#1241=AXIS2_PLACEMENT_3D('',#1720,#1415,#1416);
#1242=AXIS2_PLACEMENT_3D('',#1723,#1418,#1419);
#1243=AXIS2_PLACEMENT_3D('',#1724,#1420,#1421);
#1244=AXIS2_PLACEMENT_3D('',#1730,#1425,#1426);
#1245=AXIS2_PLACEMENT_3D('',#1732,#1428,#1429);
#1246=AXIS2_PLACEMENT_3D('',#1741,#1434,#1435);
#1247=AXIS2_PLACEMENT_3D('',#1743,#1436,#1437);
#1248=AXIS2_PLACEMENT_3D('',#1746,#1439,#1440);
#1249=AXIS2_PLACEMENT_3D('',#1747,#1441,#1442);
#1250=AXIS2_PLACEMENT_3D('',#1753,#1446,#1447);
#1251=AXIS2_PLACEMENT_3D('',#1755,#1449,#1450);
#1252=AXIS2_PLACEMENT_3D('',#1764,#1455,#1456);
#1253=AXIS2_PLACEMENT_3D('',#1766,#1457,#1458);
#1254=AXIS2_PLACEMENT_3D('',#1769,#1460,#1461);
#1255=AXIS2_PLACEMENT_3D('',#1770,#1462,#1463);
#1256=AXIS2_PLACEMENT_3D('',#1776,#1467,#1468);
#1257=AXIS2_PLACEMENT_3D('',#1778,#1470,#1471);
#1258=AXIS2_PLACEMENT_3D('',#1791,#1480,#1481);
#1259=AXIS2_PLACEMENT_3D('',#1825,#1501,#1502);
#1260=AXIS2_PLACEMENT_3D('',#1831,#1506,#1507);
#1261=AXIS2_PLACEMENT_3D('',#1835,#1510,#1511);
#1262=AXIS2_PLACEMENT_3D('',#1839,#1514,#1515);
#1263=AXIS2_PLACEMENT_3D('',#1841,#1517,#1518);
#1264=AXIS2_PLACEMENT_3D('',#1842,#1519,#1520);
#1265=AXIS2_PLACEMENT_3D('',#1848,#1524,#1525);
#1266=AXIS2_PLACEMENT_3D('',#1852,#1528,#1529);
#1267=AXIS2_PLACEMENT_3D('',#1856,#1532,#1533);
#1268=AXIS2_PLACEMENT_3D('',#1858,#1535,#1536);
#1269=AXIS2_PLACEMENT_3D('',#1859,#1537,#1538);
#1270=AXIS2_PLACEMENT_3D('',#1865,#1542,#1543);
#1271=AXIS2_PLACEMENT_3D('',#1869,#1546,#1547);
#1272=AXIS2_PLACEMENT_3D('',#1873,#1550,#1551);
#1273=AXIS2_PLACEMENT_3D('',#1875,#1553,#1554);
#1274=AXIS2_PLACEMENT_3D('',#1876,#1555,#1556);
#1275=AXIS2_PLACEMENT_3D('',#1882,#1560,#1561);
#1276=AXIS2_PLACEMENT_3D('',#1884,#1563,#1564);
#1277=AXIS2_PLACEMENT_3D('',#1886,#1566,#1567);
#1278=DIRECTION('axis',(0.,0.,1.));
#1279=DIRECTION('refdir',(1.,0.,0.));
#1280=DIRECTION('center_axis',(0.,-1.,3.70074341541719E-16));
#1281=DIRECTION('ref_axis',(-1.,0.,0.));
#1282=DIRECTION('',(1.,0.,0.));
#1283=DIRECTION('',(0.,-3.70074341541719E-16,-1.));
#1284=DIRECTION('',(-1.,0.,0.));
#1285=DIRECTION('',(0.,-3.70074341541719E-16,-1.));
#1286=DIRECTION('center_axis',(1.,0.,0.));
#1287=DIRECTION('ref_axis',(0.,-1.,3.70074341541719E-16));
#1288=DIRECTION('',(0.,1.,-3.70074341541719E-16));
#1289=DIRECTION('',(0.,-1.,3.70074341541719E-16));
#1290=DIRECTION('',(0.,-3.70074341541719E-16,-1.));
#1291=DIRECTION('center_axis',(0.,1.,-3.70074341541719E-16));
#1292=DIRECTION('ref_axis',(1.,0.,0.));
#1293=DIRECTION('',(-1.,0.,0.));
#1294=DIRECTION('',(1.,0.,0.));
#1295=DIRECTION('',(0.,-3.70074341541719E-16,-1.));
#1296=DIRECTION('center_axis',(-1.,0.,0.));
#1297=DIRECTION('ref_axis',(0.,1.,-3.70074341541719E-16));
#1298=DIRECTION('',(0.,-1.,3.70074341541719E-16));
#1299=DIRECTION('',(0.,1.,-3.70074341541719E-16));
#1300=DIRECTION('center_axis',(0.,-3.70074341541719E-16,-1.));
#1301=DIRECTION('ref_axis',(-1.,0.,0.));
#1302=DIRECTION('center_axis',(-6.24995297883015E-16,-1.,0.));
#1303=DIRECTION('ref_axis',(-1.,6.24995297883015E-16,0.));
#1304=DIRECTION('',(-1.,6.24995297883015E-16,0.));
#1305=DIRECTION('',(0.,0.,-1.));
#1306=DIRECTION('',(-1.,6.24995297883015E-16,0.));
#1307=DIRECTION('',(0.,0.,-1.));
#1308=DIRECTION('center_axis',(0.,0.,-1.));
#1309=DIRECTION('ref_axis',(1.,0.,0.));
#1310=DIRECTION('center_axis',(0.,0.,-1.));
#1311=DIRECTION('ref_axis',(1.,0.,0.));
#1312=DIRECTION('',(0.,0.,-1.));
#1313=DIRECTION('center_axis',(0.,0.,-1.));
#1314=DIRECTION('ref_axis',(1.,0.,0.));
#1315=DIRECTION('center_axis',(-7.03119710118392E-16,1.,0.));
#1316=DIRECTION('ref_axis',(1.,7.03119710118392E-16,0.));
#1317=DIRECTION('',(1.,7.03119710118392E-16,0.));
#1318=DIRECTION('',(0.,0.,1.));
#1319=DIRECTION('',(1.,7.03119710118392E-16,0.));
#1320=DIRECTION('center_axis',(0.,0.,1.));
#1321=DIRECTION('ref_axis',(1.,0.,0.));
#1322=DIRECTION('',(0.,1.,0.));
#1323=DIRECTION('center_axis',(0.,1.,0.));
#1324=DIRECTION('ref_axis',(1.,0.,0.));
#1325=DIRECTION('',(1.,0.,0.));
#1326=DIRECTION('',(0.,0.,-1.));
#1327=DIRECTION('',(1.,0.,0.));
#1328=DIRECTION('',(0.,0.,-1.));
#1329=DIRECTION('center_axis',(0.,0.,-1.));
#1330=DIRECTION('ref_axis',(-1.,-1.22464679914735E-16,0.));
#1331=DIRECTION('center_axis',(0.,0.,-1.));
#1332=DIRECTION('ref_axis',(1.,0.,0.));
#1333=DIRECTION('',(0.,0.,-1.));
#1334=DIRECTION('center_axis',(0.,0.,-1.));
#1335=DIRECTION('ref_axis',(1.,0.,0.));
#1336=DIRECTION('center_axis',(1.24999059576603E-15,-1.,0.));
#1337=DIRECTION('ref_axis',(-1.,-1.24999059576603E-15,0.));
#1338=DIRECTION('',(-1.,-1.24999059576603E-15,0.));
#1339=DIRECTION('',(0.,0.,1.));
#1340=DIRECTION('',(-1.,-1.24999059576603E-15,0.));
#1341=DIRECTION('center_axis',(0.,0.,1.));
#1342=DIRECTION('ref_axis',(1.,0.,0.));
#1343=DIRECTION('',(0.,-1.,0.));
#1344=DIRECTION('center_axis',(-1.24999059576603E-15,-1.,0.));
#1345=DIRECTION('ref_axis',(-1.,1.24999059576603E-15,0.));
#1346=DIRECTION('',(-1.,1.24999059576603E-15,0.));
#1347=DIRECTION('',(0.,0.,-1.));
#1348=DIRECTION('',(-1.,1.24999059576603E-15,0.));
#1349=DIRECTION('',(0.,0.,-1.));
#1350=DIRECTION('center_axis',(0.,0.,-1.));
#1351=DIRECTION('ref_axis',(1.,0.,0.));
#1352=DIRECTION('center_axis',(0.,0.,-1.));
#1353=DIRECTION('ref_axis',(1.,0.,0.));
#1354=DIRECTION('',(0.,0.,-1.));
#1355=DIRECTION('center_axis',(0.,0.,-1.));
#1356=DIRECTION('ref_axis',(1.,0.,0.));
#1357=DIRECTION('center_axis',(0.,1.,0.));
#1358=DIRECTION('ref_axis',(1.,0.,0.));
#1359=DIRECTION('',(1.,0.,0.));
#1360=DIRECTION('',(0.,0.,1.));
#1361=DIRECTION('',(1.,0.,0.));
#1362=DIRECTION('center_axis',(0.,0.,1.));
#1363=DIRECTION('ref_axis',(1.,0.,0.));
#1364=DIRECTION('',(0.,1.,0.));
#1365=DIRECTION('center_axis',(7.03119710118392E-16,1.,0.));
#1366=DIRECTION('ref_axis',(1.,-7.03119710118392E-16,0.));
#1367=DIRECTION('',(1.,-7.03119710118392E-16,0.));
#1368=DIRECTION('',(0.,0.,-1.));
#1369=DIRECTION('',(1.,-7.03119710118392E-16,0.));
#1370=DIRECTION('',(0.,0.,-1.));
#1371=DIRECTION('center_axis',(0.,0.,-1.));
#1372=DIRECTION('ref_axis',(-1.,-1.22464679914735E-16,0.));
#1373=DIRECTION('center_axis',(0.,0.,-1.));
#1374=DIRECTION('ref_axis',(1.,0.,0.));
#1375=DIRECTION('',(0.,0.,-1.));
#1376=DIRECTION('center_axis',(0.,0.,-1.));
#1377=DIRECTION('ref_axis',(1.,0.,0.));
#1378=DIRECTION('center_axis',(6.24995297883015E-16,-1.,0.));
#1379=DIRECTION('ref_axis',(-1.,-6.24995297883015E-16,0.));
#1380=DIRECTION('',(-1.,-6.24995297883015E-16,0.));
#1381=DIRECTION('',(0.,0.,1.));
#1382=DIRECTION('',(-1.,-6.24995297883015E-16,0.));
#1383=DIRECTION('center_axis',(0.,0.,1.));
#1384=DIRECTION('ref_axis',(1.,0.,0.));
#1385=DIRECTION('',(0.,-1.,0.));
#1386=DIRECTION('center_axis',(-1.24999059576603E-15,-1.,0.));
#1387=DIRECTION('ref_axis',(-1.,1.24999059576603E-15,0.));
#1388=DIRECTION('',(-1.,1.24999059576603E-15,0.));
#1389=DIRECTION('',(0.,0.,-1.));
#1390=DIRECTION('',(-1.,1.24999059576603E-15,0.));
#1391=DIRECTION('',(0.,0.,-1.));
#1392=DIRECTION('center_axis',(0.,0.,-1.));
#1393=DIRECTION('ref_axis',(1.,0.,0.));
#1394=DIRECTION('center_axis',(0.,0.,-1.));
#1395=DIRECTION('ref_axis',(1.,0.,0.));
#1396=DIRECTION('',(0.,0.,-1.));
#1397=DIRECTION('center_axis',(0.,0.,-1.));
#1398=DIRECTION('ref_axis',(1.,0.,0.));
#1399=DIRECTION('center_axis',(0.,1.,0.));
#1400=DIRECTION('ref_axis',(1.,0.,0.));
#1401=DIRECTION('',(1.,0.,0.));
#1402=DIRECTION('',(0.,0.,1.));
#1403=DIRECTION('',(1.,0.,0.));
#1404=DIRECTION('center_axis',(0.,0.,1.));
#1405=DIRECTION('ref_axis',(1.,0.,0.));
#1406=DIRECTION('',(0.,1.,0.));
#1407=DIRECTION('center_axis',(-6.24995297883015E-16,-1.,0.));
#1408=DIRECTION('ref_axis',(-1.,6.24995297883015E-16,0.));
#1409=DIRECTION('',(-1.,6.24995297883015E-16,0.));
#1410=DIRECTION('',(0.,0.,-1.));
#1411=DIRECTION('',(-1.,6.24995297883015E-16,0.));
#1412=DIRECTION('',(0.,0.,-1.));
#1413=DIRECTION('center_axis',(0.,0.,-1.));
#1414=DIRECTION('ref_axis',(1.,0.,0.));
#1415=DIRECTION('center_axis',(0.,0.,-1.));
#1416=DIRECTION('ref_axis',(1.,0.,0.));
#1417=DIRECTION('',(0.,0.,-1.));
#1418=DIRECTION('center_axis',(0.,0.,-1.));
#1419=DIRECTION('ref_axis',(1.,0.,0.));
#1420=DIRECTION('center_axis',(-6.24995297883015E-16,1.,0.));
#1421=DIRECTION('ref_axis',(1.,6.24995297883015E-16,0.));
#1422=DIRECTION('',(1.,6.24995297883015E-16,0.));
#1423=DIRECTION('',(0.,0.,1.));
#1424=DIRECTION('',(1.,6.24995297883015E-16,0.));
#1425=DIRECTION('center_axis',(0.,0.,1.));
#1426=DIRECTION('ref_axis',(1.,0.,0.));
#1427=DIRECTION('',(0.,1.,0.));
#1428=DIRECTION('center_axis',(0.,1.,0.));
#1429=DIRECTION('ref_axis',(1.,0.,0.));
#1430=DIRECTION('',(1.,0.,0.));
#1431=DIRECTION('',(0.,0.,-1.));
#1432=DIRECTION('',(1.,0.,0.));
#1433=DIRECTION('',(0.,0.,-1.));
#1434=DIRECTION('center_axis',(0.,0.,-1.));
#1435=DIRECTION('ref_axis',(-1.,-1.22464679914735E-16,0.));
#1436=DIRECTION('center_axis',(0.,0.,-1.));
#1437=DIRECTION('ref_axis',(1.,0.,0.));
#1438=DIRECTION('',(0.,0.,-1.));
#1439=DIRECTION('center_axis',(0.,0.,-1.));
#1440=DIRECTION('ref_axis',(1.,0.,0.));
#1441=DIRECTION('center_axis',(1.24999059576603E-15,-1.,0.));
#1442=DIRECTION('ref_axis',(-1.,-1.24999059576603E-15,0.));
#1443=DIRECTION('',(-1.,-1.24999059576603E-15,0.));
#1444=DIRECTION('',(0.,0.,1.));
#1445=DIRECTION('',(-1.,-1.24999059576603E-15,0.));
#1446=DIRECTION('center_axis',(0.,0.,1.));
#1447=DIRECTION('ref_axis',(1.,0.,0.));
#1448=DIRECTION('',(0.,-1.,0.));
#1449=DIRECTION('center_axis',(6.24995297883015E-16,1.,0.));
#1450=DIRECTION('ref_axis',(1.,-6.24995297883015E-16,0.));
#1451=DIRECTION('',(1.,-6.24995297883015E-16,0.));
#1452=DIRECTION('',(0.,0.,-1.));
#1453=DIRECTION('',(1.,-6.24995297883015E-16,0.));
#1454=DIRECTION('',(0.,0.,-1.));
#1455=DIRECTION('center_axis',(0.,0.,-1.));
#1456=DIRECTION('ref_axis',(-1.,-1.22464679914735E-16,0.));
#1457=DIRECTION('center_axis',(0.,0.,-1.));
#1458=DIRECTION('ref_axis',(1.,0.,0.));
#1459=DIRECTION('',(0.,0.,-1.));
#1460=DIRECTION('center_axis',(0.,0.,-1.));
#1461=DIRECTION('ref_axis',(1.,0.,0.));
#1462=DIRECTION('center_axis',(6.24995297883015E-16,-1.,0.));
#1463=DIRECTION('ref_axis',(-1.,-6.24995297883015E-16,0.));
#1464=DIRECTION('',(-1.,-6.24995297883015E-16,0.));
#1465=DIRECTION('',(0.,0.,1.));
#1466=DIRECTION('',(-1.,-6.24995297883015E-16,0.));
#1467=DIRECTION('center_axis',(0.,0.,1.));
#1468=DIRECTION('ref_axis',(1.,0.,0.));
#1469=DIRECTION('',(0.,-1.,0.));
#1470=DIRECTION('center_axis',(1.,0.,0.));
#1471=DIRECTION('ref_axis',(0.,1.,-3.70074341541719E-16));
#1472=DIRECTION('',(0.,1.,-3.70074341541719E-16));
#1473=DIRECTION('',(0.,1.,-3.70074341541719E-16));
#1474=DIRECTION('',(0.,0.,1.));
#1475=DIRECTION('',(0.,1.,-3.70074341541719E-16));
#1476=DIRECTION('',(0.,0.,1.));
#1477=DIRECTION('',(0.,1.,-3.70074341541719E-16));
#1478=DIRECTION('',(0.,1.,-3.70074341541719E-16));
#1479=DIRECTION('',(0.,1.,-3.70074341541719E-16));
#1480=DIRECTION('center_axis',(0.,0.,1.));
#1481=DIRECTION('ref_axis',(1.,0.,0.));
#1482=DIRECTION('',(0.,-1.,3.70074341541719E-16));
#1483=DIRECTION('',(0.,-1.,3.70074341541719E-16));
#1484=DIRECTION('',(0.,-1.,3.70074341541719E-16));
#1485=DIRECTION('',(0.,-1.,3.70074341541719E-16));
#1486=DIRECTION('',(1.,0.,0.));
#1487=DIRECTION('',(-1.,0.,0.));
#1488=DIRECTION('',(0.,-1.,3.70074341541719E-16));
#1489=DIRECTION('',(1.,0.,0.));
#1490=DIRECTION('',(0.,-1.,0.));
#1491=DIRECTION('',(-1.,0.,0.));
#1492=DIRECTION('',(0.,1.,0.));
#1493=DIRECTION('',(1.,1.58603289232165E-16,0.));
#1494=DIRECTION('',(4.62592926927149E-16,-1.,0.));
#1495=DIRECTION('',(-1.,-2.37904933848248E-16,0.));
#1496=DIRECTION('',(-4.62592926927148E-16,1.,0.));
#1497=DIRECTION('',(1.,0.,0.));
#1498=DIRECTION('',(2.01858731750028E-15,-1.,0.));
#1499=DIRECTION('',(-1.,0.,0.));
#1500=DIRECTION('',(2.01858731750028E-15,1.,0.));
#1501=DIRECTION('center_axis',(0.,1.,0.));
#1502=DIRECTION('ref_axis',(-1.,0.,0.));
#1503=DIRECTION('',(0.,0.,1.));
#1504=DIRECTION('',(-1.,0.,0.));
#1505=DIRECTION('',(0.,0.,1.));
#1506=DIRECTION('center_axis',(1.,2.01858731750028E-15,0.));
#1507=DIRECTION('ref_axis',(-2.01858731750028E-15,1.,0.));
#1508=DIRECTION('',(-2.01858731750028E-15,1.,0.));
#1509=DIRECTION('',(0.,0.,1.));
#1510=DIRECTION('center_axis',(0.,-1.,0.));
#1511=DIRECTION('ref_axis',(1.,0.,0.));
#1512=DIRECTION('',(1.,0.,0.));
#1513=DIRECTION('',(0.,0.,1.));
#1514=DIRECTION('center_axis',(-1.,2.01858731750028E-15,0.));
#1515=DIRECTION('ref_axis',(-2.01858731750028E-15,-1.,0.));
#1516=DIRECTION('',(-2.01858731750028E-15,-1.,0.));
#1517=DIRECTION('center_axis',(0.,0.,1.));
#1518=DIRECTION('ref_axis',(1.,0.,0.));
#1519=DIRECTION('center_axis',(-1.58603289232165E-16,1.,0.));
#1520=DIRECTION('ref_axis',(-1.,-1.58603289232165E-16,0.));
#1521=DIRECTION('',(0.,0.,1.));
#1522=DIRECTION('',(-1.,-1.58603289232165E-16,0.));
#1523=DIRECTION('',(0.,0.,1.));
#1524=DIRECTION('center_axis',(1.,4.62592926927149E-16,0.));
#1525=DIRECTION('ref_axis',(-4.62592926927149E-16,1.,0.));
#1526=DIRECTION('',(-4.62592926927149E-16,1.,0.));
#1527=DIRECTION('',(0.,0.,1.));
#1528=DIRECTION('center_axis',(2.37904933848248E-16,-1.,0.));
#1529=DIRECTION('ref_axis',(1.,2.37904933848248E-16,0.));
#1530=DIRECTION('',(1.,2.37904933848248E-16,0.));
#1531=DIRECTION('',(0.,0.,1.));
#1532=DIRECTION('center_axis',(-1.,-4.62592926927148E-16,0.));
#1533=DIRECTION('ref_axis',(4.62592926927148E-16,-1.,0.));
#1534=DIRECTION('',(4.62592926927148E-16,-1.,0.));
#1535=DIRECTION('center_axis',(0.,0.,1.));
#1536=DIRECTION('ref_axis',(1.,0.,0.));
#1537=DIRECTION('center_axis',(0.,1.,0.));
#1538=DIRECTION('ref_axis',(-1.,0.,0.));
#1539=DIRECTION('',(0.,0.,1.));
#1540=DIRECTION('',(-1.,0.,0.));
#1541=DIRECTION('',(0.,0.,1.));
#1542=DIRECTION('center_axis',(1.,0.,0.));
#1543=DIRECTION('ref_axis',(0.,1.,0.));
#1544=DIRECTION('',(0.,1.,0.));
#1545=DIRECTION('',(0.,0.,1.));
#1546=DIRECTION('center_axis',(0.,-1.,0.));
#1547=DIRECTION('ref_axis',(1.,0.,0.));
#1548=DIRECTION('',(1.,0.,0.));
#1549=DIRECTION('',(0.,0.,1.));
#1550=DIRECTION('center_axis',(-1.,0.,0.));
#1551=DIRECTION('ref_axis',(0.,-1.,0.));
#1552=DIRECTION('',(0.,-1.,0.));
#1553=DIRECTION('center_axis',(0.,0.,1.));
#1554=DIRECTION('ref_axis',(1.,0.,0.));
#1555=DIRECTION('center_axis',(0.,3.70074341541719E-16,1.));
#1556=DIRECTION('ref_axis',(1.,0.,0.));
#1557=DIRECTION('',(1.,0.,0.));
#1558=DIRECTION('',(0.,-1.,3.70074341541719E-16));
#1559=DIRECTION('',(-1.,0.,0.));
#1560=DIRECTION('center_axis',(0.,-1.,0.));
#1561=DIRECTION('ref_axis',(1.,0.,0.));
#1562=DIRECTION('',(0.,0.,1.));
#1563=DIRECTION('center_axis',(-1.,0.,0.));
#1564=DIRECTION('ref_axis',(0.,-1.,3.70074341541719E-16));
#1565=DIRECTION('',(0.,0.,1.));
#1566=DIRECTION('center_axis',(0.,1.,0.));
#1567=DIRECTION('ref_axis',(-1.,0.,0.));
#1568=CARTESIAN_POINT('',(0.,0.,0.));
#1569=CARTESIAN_POINT('Origin',(1.69,-8.912,5.75));
#1570=CARTESIAN_POINT('',(-1.59,-8.912,5.75));
#1571=CARTESIAN_POINT('',(1.69,-8.912,5.75));
#1572=CARTESIAN_POINT('',(2.75,-8.912,5.75000000000001));
#1573=CARTESIAN_POINT('',(-1.59,-8.912,-0.249999999999997));
#1574=CARTESIAN_POINT('',(-1.59,-8.912,5.75));
#1575=CARTESIAN_POINT('',(1.69,-8.912,-0.249999999999997));
#1576=CARTESIAN_POINT('',(1.69,-8.912,-0.249999999999997));
#1577=CARTESIAN_POINT('',(1.69,-8.912,5.75));
#1578=CARTESIAN_POINT('Origin',(1.69,1.248,5.75));
#1579=CARTESIAN_POINT('',(1.69,1.248,5.75));
#1580=CARTESIAN_POINT('',(1.69,-1.292,5.75));
#1581=CARTESIAN_POINT('',(1.69,1.248,-0.25));
#1582=CARTESIAN_POINT('',(1.69,1.248,-0.25));
#1583=CARTESIAN_POINT('',(1.69,1.248,5.75));
#1584=CARTESIAN_POINT('Origin',(-1.59,1.248,5.75));
#1585=CARTESIAN_POINT('',(-1.59,1.248,5.75));
#1586=CARTESIAN_POINT('',(1.11,1.248,5.75));
#1587=CARTESIAN_POINT('',(-1.59,1.248,-0.25));
#1588=CARTESIAN_POINT('',(-1.69,1.248,-0.25));
#1589=CARTESIAN_POINT('',(-1.59,1.248,5.75));
#1590=CARTESIAN_POINT('Origin',(-1.59,-8.912,5.75));
#1591=CARTESIAN_POINT('',(-1.59,-6.372,5.75));
#1592=CARTESIAN_POINT('',(-1.59,-8.912,-0.249999999999997));
#1593=CARTESIAN_POINT('Origin',(0.0499999999999978,-3.832,-0.249999999999999));
#1594=CARTESIAN_POINT('Origin',(-0.80181489813947,-0.75,7.25000000000001));
#1595=CARTESIAN_POINT('',(-0.80181489813947,-0.75,7.25000000000001));
#1596=CARTESIAN_POINT('',(-1.69,-0.75,7.25000000000001));
#1597=CARTESIAN_POINT('',(1.50409255093027,-0.750000000000002,7.25000000000001));
#1598=CARTESIAN_POINT('',(-0.80181489813947,-0.75,7.15000000000001));
#1599=CARTESIAN_POINT('',(-0.80181489813947,-0.75,7.25000000000001));
#1600=CARTESIAN_POINT('',(-1.69,-0.75,7.15000000000001));
#1601=CARTESIAN_POINT('',(-1.69,-0.75,7.15000000000001));
#1602=CARTESIAN_POINT('',(-1.69,-0.75,6.5));
#1603=CARTESIAN_POINT('Origin',(-0.80181489813947,-1.38777878078145E-16,
7.25000000000001));
#1604=CARTESIAN_POINT('',(-0.80181489813947,0.75,7.25000000000001));
#1605=CARTESIAN_POINT('Origin',(-0.80181489813947,-1.38777878078145E-16,
7.25000000000001));
#1606=CARTESIAN_POINT('',(-0.80181489813947,0.75,7.15000000000001));
#1607=CARTESIAN_POINT('',(-0.80181489813947,0.75,7.25000000000001));
#1608=CARTESIAN_POINT('Origin',(-0.80181489813947,-1.38777878078145E-16,
7.15000000000001));
#1609=CARTESIAN_POINT('Origin',(-1.69,0.75,7.25000000000001));
#1610=CARTESIAN_POINT('',(-1.69,0.75,7.25000000000001));
#1611=CARTESIAN_POINT('',(1.06,0.750000000000002,7.25000000000001));
#1612=CARTESIAN_POINT('',(-1.69,0.75,7.15000000000001));
#1613=CARTESIAN_POINT('',(-1.69,0.75,6.5));
#1614=CARTESIAN_POINT('',(-0.80181489813947,0.75,7.15000000000001));
#1615=CARTESIAN_POINT('Origin',(-0.870907449069735,-1.38777878078145E-16,
7.15000000000001));
#1616=CARTESIAN_POINT('',(-1.69,2.584,7.15000000000001));
#1617=CARTESIAN_POINT('Origin',(8.42181489813947,-4.33,7.25000000000001));
#1618=CARTESIAN_POINT('',(8.42181489813947,-4.33,7.25000000000001));
#1619=CARTESIAN_POINT('',(9.31,-4.33,7.25000000000001));
#1620=CARTESIAN_POINT('',(6.11590744906974,-4.33,7.25000000000001));
#1621=CARTESIAN_POINT('',(8.42181489813947,-4.33,7.15000000000001));
#1622=CARTESIAN_POINT('',(8.42181489813947,-4.33,7.25000000000001));
#1623=CARTESIAN_POINT('',(9.31,-4.33,7.15000000000001));
#1624=CARTESIAN_POINT('',(9.31,-4.33,7.15000000000001));
#1625=CARTESIAN_POINT('',(9.31,-4.33,6.50000000000001));
#1626=CARTESIAN_POINT('Origin',(8.42181489813947,-5.08,7.25000000000001));
#1627=CARTESIAN_POINT('',(8.42181489813947,-5.83,7.25000000000001));
#1628=CARTESIAN_POINT('Origin',(8.42181489813947,-5.08,7.25000000000001));
#1629=CARTESIAN_POINT('',(8.42181489813947,-5.83,7.15000000000001));
#1630=CARTESIAN_POINT('',(8.42181489813947,-5.83,7.25000000000001));
#1631=CARTESIAN_POINT('Origin',(8.42181489813947,-5.08,7.15000000000001));
#1632=CARTESIAN_POINT('Origin',(9.31,-5.83,7.25000000000001));
#1633=CARTESIAN_POINT('',(9.31,-5.83,7.25000000000001));
#1634=CARTESIAN_POINT('',(6.56,-5.83,7.25000000000001));
#1635=CARTESIAN_POINT('',(9.31,-5.83,7.15000000000001));
#1636=CARTESIAN_POINT('',(9.31,-5.83,6.50000000000001));
#1637=CARTESIAN_POINT('',(8.42181489813947,-5.83,7.15000000000001));
#1638=CARTESIAN_POINT('Origin',(8.49090744906974,-5.08,7.15000000000001));
#1639=CARTESIAN_POINT('',(9.31,-8.956,7.15000000000001));
#1640=CARTESIAN_POINT('Origin',(-0.80181489813947,-5.83,7.25000000000001));
#1641=CARTESIAN_POINT('',(-0.80181489813947,-5.83,7.25000000000001));
#1642=CARTESIAN_POINT('',(-1.69,-5.83,7.25000000000001));
#1643=CARTESIAN_POINT('',(1.50409255093026,-5.83,7.25000000000001));
#1644=CARTESIAN_POINT('',(-0.80181489813947,-5.83,7.15000000000001));
#1645=CARTESIAN_POINT('',(-0.80181489813947,-5.83,7.25000000000001));
#1646=CARTESIAN_POINT('',(-1.69,-5.83,7.15000000000001));
#1647=CARTESIAN_POINT('',(-1.69,-5.83,7.15000000000001));
#1648=CARTESIAN_POINT('',(-1.69,-5.83,6.5));
#1649=CARTESIAN_POINT('Origin',(-0.80181489813947,-5.08,7.25000000000001));
#1650=CARTESIAN_POINT('',(-0.80181489813947,-4.33,7.25000000000001));
#1651=CARTESIAN_POINT('Origin',(-0.80181489813947,-5.08,7.25000000000001));
#1652=CARTESIAN_POINT('',(-0.80181489813947,-4.33,7.15000000000001));
#1653=CARTESIAN_POINT('',(-0.80181489813947,-4.33,7.25000000000001));
#1654=CARTESIAN_POINT('Origin',(-0.80181489813947,-5.08,7.15000000000001));
#1655=CARTESIAN_POINT('Origin',(-1.69,-4.33,7.25000000000001));
#1656=CARTESIAN_POINT('',(-1.69,-4.33,7.25000000000001));
#1657=CARTESIAN_POINT('',(1.06,-4.33,7.25000000000001));
#1658=CARTESIAN_POINT('',(-1.69,-4.33,7.15000000000001));
#1659=CARTESIAN_POINT('',(-1.69,-4.33,6.5));
#1660=CARTESIAN_POINT('',(-0.80181489813947,-4.33,7.15000000000001));
#1661=CARTESIAN_POINT('Origin',(-0.870907449069735,-5.08,7.15000000000001));
#1662=CARTESIAN_POINT('',(-1.69,0.0440000000000002,7.15000000000001));
#1663=CARTESIAN_POINT('Origin',(8.42181489813947,0.75,7.25000000000001));
#1664=CARTESIAN_POINT('',(8.42181489813947,0.75,7.25000000000001));
#1665=CARTESIAN_POINT('',(9.31,0.75,7.25000000000001));
#1666=CARTESIAN_POINT('',(6.11590744906974,0.750000000000002,7.25000000000001));
#1667=CARTESIAN_POINT('',(8.42181489813947,0.75,7.15000000000001));
#1668=CARTESIAN_POINT('',(8.42181489813947,0.75,7.25000000000001));
#1669=CARTESIAN_POINT('',(9.31,0.749999999999999,7.15000000000001));
#1670=CARTESIAN_POINT('',(9.31,0.75,7.15000000000001));
#1671=CARTESIAN_POINT('',(9.31,0.749999999999999,6.50000000000001));
#1672=CARTESIAN_POINT('Origin',(8.42181489813947,-1.38777878078145E-16,
7.25000000000001));
#1673=CARTESIAN_POINT('',(8.42181489813947,-0.75,7.25000000000001));
#1674=CARTESIAN_POINT('Origin',(8.42181489813947,-1.38777878078145E-16,
7.25000000000001));
#1675=CARTESIAN_POINT('',(8.42181489813947,-0.75,7.15000000000001));
#1676=CARTESIAN_POINT('',(8.42181489813947,-0.75,7.25000000000001));
#1677=CARTESIAN_POINT('Origin',(8.42181489813947,-1.38777878078145E-16,
7.15000000000001));
#1678=CARTESIAN_POINT('Origin',(9.31,-0.75,7.25000000000001));
#1679=CARTESIAN_POINT('',(9.31,-0.75,7.25000000000001));
#1680=CARTESIAN_POINT('',(6.56,-0.750000000000001,7.25000000000001));
#1681=CARTESIAN_POINT('',(9.31,-0.75,7.15000000000001));
#1682=CARTESIAN_POINT('',(9.31,-0.75,6.50000000000001));
#1683=CARTESIAN_POINT('',(8.42181489813947,-0.75,7.15000000000001));
#1684=CARTESIAN_POINT('Origin',(8.49090744906974,-1.38777878078145E-16,
7.15000000000001));
#1685=CARTESIAN_POINT('',(9.31,-6.416,7.15000000000001));
#1686=CARTESIAN_POINT('Origin',(-0.80181489813947,-8.37,7.25000000000001));
#1687=CARTESIAN_POINT('',(-0.80181489813947,-8.37,7.25000000000001));
#1688=CARTESIAN_POINT('',(-1.69,-8.37,7.25000000000001));
#1689=CARTESIAN_POINT('',(1.50409255093026,-8.37,7.25000000000001));
#1690=CARTESIAN_POINT('',(-0.80181489813947,-8.37,7.15000000000001));
#1691=CARTESIAN_POINT('',(-0.80181489813947,-8.37,7.25000000000001));
#1692=CARTESIAN_POINT('',(-1.69,-8.37,7.15000000000001));
#1693=CARTESIAN_POINT('',(-1.69,-8.37,7.15000000000001));
#1694=CARTESIAN_POINT('',(-1.69,-8.37,6.5));
#1695=CARTESIAN_POINT('Origin',(-0.80181489813947,-7.62,7.25000000000001));
#1696=CARTESIAN_POINT('',(-0.80181489813947,-6.87,7.25000000000001));
#1697=CARTESIAN_POINT('Origin',(-0.80181489813947,-7.62,7.25000000000001));
#1698=CARTESIAN_POINT('',(-0.80181489813947,-6.87,7.15000000000001));
#1699=CARTESIAN_POINT('',(-0.80181489813947,-6.87,7.25000000000001));
#1700=CARTESIAN_POINT('Origin',(-0.80181489813947,-7.62,7.15000000000001));
#1701=CARTESIAN_POINT('Origin',(-1.69,-6.87,7.25000000000001));
#1702=CARTESIAN_POINT('',(-1.69,-6.87,7.25000000000001));
#1703=CARTESIAN_POINT('',(1.06,-6.87,7.25000000000001));
#1704=CARTESIAN_POINT('',(-1.69,-6.87,7.15000000000001));
#1705=CARTESIAN_POINT('',(-1.69,-6.87,6.5));
#1706=CARTESIAN_POINT('',(-0.80181489813947,-6.87,7.15000000000001));
#1707=CARTESIAN_POINT('Origin',(-0.870907449069735,-7.62,7.15000000000001));
#1708=CARTESIAN_POINT('',(-1.69,-1.226,7.15000000000001));
#1709=CARTESIAN_POINT('Origin',(-0.80181489813947,-3.29,7.25000000000001));
#1710=CARTESIAN_POINT('',(-0.80181489813947,-3.29,7.25000000000001));
#1711=CARTESIAN_POINT('',(-1.69,-3.29,7.25000000000001));
#1712=CARTESIAN_POINT('',(1.50409255093027,-3.29,7.25000000000001));
#1713=CARTESIAN_POINT('',(-0.80181489813947,-3.29,7.15000000000001));
#1714=CARTESIAN_POINT('',(-0.80181489813947,-3.29,7.25000000000001));
#1715=CARTESIAN_POINT('',(-1.69,-3.29,7.15000000000001));
#1716=CARTESIAN_POINT('',(-1.69,-3.29,7.15000000000001));
#1717=CARTESIAN_POINT('',(-1.69,-3.29,6.5));
#1718=CARTESIAN_POINT('Origin',(-0.80181489813947,-2.54,7.25000000000001));
#1719=CARTESIAN_POINT('',(-0.80181489813947,-1.79,7.25000000000001));
#1720=CARTESIAN_POINT('Origin',(-0.80181489813947,-2.54,7.25000000000001));
#1721=CARTESIAN_POINT('',(-0.80181489813947,-1.79,7.15000000000001));
#1722=CARTESIAN_POINT('',(-0.80181489813947,-1.79,7.25000000000001));
#1723=CARTESIAN_POINT('Origin',(-0.80181489813947,-2.54,7.15000000000001));
#1724=CARTESIAN_POINT('Origin',(-1.69,-1.79,7.25000000000001));
#1725=CARTESIAN_POINT('',(-1.69,-1.79,7.25000000000001));
#1726=CARTESIAN_POINT('',(1.06,-1.79,7.25000000000001));
#1727=CARTESIAN_POINT('',(-1.69,-1.79,7.15000000000001));
#1728=CARTESIAN_POINT('',(-1.69,-1.79,6.5));
#1729=CARTESIAN_POINT('',(-0.80181489813947,-1.79,7.15000000000001));
#1730=CARTESIAN_POINT('Origin',(-0.870907449069735,-2.54,7.15000000000001));
#1731=CARTESIAN_POINT('',(-1.69,1.314,7.15000000000001));
#1732=CARTESIAN_POINT('Origin',(8.42181489813947,-6.87,7.25000000000001));
#1733=CARTESIAN_POINT('',(8.42181489813947,-6.87,7.25000000000001));
#1734=CARTESIAN_POINT('',(9.31,-6.87,7.25000000000001));
#1735=CARTESIAN_POINT('',(6.11590744906974,-6.87,7.25000000000001));
#1736=CARTESIAN_POINT('',(8.42181489813947,-6.87,7.15000000000001));
#1737=CARTESIAN_POINT('',(8.42181489813947,-6.87,7.25000000000001));
#1738=CARTESIAN_POINT('',(9.31,-6.87,7.15000000000001));
#1739=CARTESIAN_POINT('',(9.31,-6.87,7.15000000000001));
#1740=CARTESIAN_POINT('',(9.31,-6.87,6.50000000000001));
#1741=CARTESIAN_POINT('Origin',(8.42181489813947,-7.62,7.25000000000001));
#1742=CARTESIAN_POINT('',(8.42181489813947,-8.37,7.25000000000001));
#1743=CARTESIAN_POINT('Origin',(8.42181489813947,-7.62,7.25000000000001));
#1744=CARTESIAN_POINT('',(8.42181489813947,-8.37,7.15000000000001));
#1745=CARTESIAN_POINT('',(8.42181489813947,-8.37,7.25000000000001));
#1746=CARTESIAN_POINT('Origin',(8.42181489813947,-7.62,7.15000000000001));
#1747=CARTESIAN_POINT('Origin',(9.31,-8.37,7.25000000000001));
#1748=CARTESIAN_POINT('',(9.31,-8.37,7.25000000000001));
#1749=CARTESIAN_POINT('',(6.56,-8.37,7.25000000000001));
#1750=CARTESIAN_POINT('',(9.31,-8.37,7.15000000000001));
#1751=CARTESIAN_POINT('',(9.31,-8.37,6.50000000000001));
#1752=CARTESIAN_POINT('',(8.42181489813947,-8.37,7.15000000000001));
#1753=CARTESIAN_POINT('Origin',(8.49090744906974,-7.62,7.15000000000001));
#1754=CARTESIAN_POINT('',(9.31,-10.226,7.15000000000001));
#1755=CARTESIAN_POINT('Origin',(8.42181489813947,-1.79,7.25000000000001));
#1756=CARTESIAN_POINT('',(8.42181489813947,-1.79,7.25000000000001));
#1757=CARTESIAN_POINT('',(9.31,-1.79,7.25000000000001));
#1758=CARTESIAN_POINT('',(6.11590744906974,-1.79,7.25000000000001));
#1759=CARTESIAN_POINT('',(8.42181489813947,-1.79,7.15000000000001));
#1760=CARTESIAN_POINT('',(8.42181489813947,-1.79,7.25000000000001));
#1761=CARTESIAN_POINT('',(9.31,-1.79,7.15000000000001));
#1762=CARTESIAN_POINT('',(9.31,-1.79,7.15000000000001));
#1763=CARTESIAN_POINT('',(9.31,-1.79,6.50000000000001));
#1764=CARTESIAN_POINT('Origin',(8.42181489813947,-2.54,7.25000000000001));
#1765=CARTESIAN_POINT('',(8.42181489813947,-3.29,7.25000000000001));
#1766=CARTESIAN_POINT('Origin',(8.42181489813947,-2.54,7.25000000000001));
#1767=CARTESIAN_POINT('',(8.42181489813947,-3.29,7.15000000000001));
#1768=CARTESIAN_POINT('',(8.42181489813947,-3.29,7.25000000000001));
#1769=CARTESIAN_POINT('Origin',(8.42181489813947,-2.54,7.15000000000001));
#1770=CARTESIAN_POINT('Origin',(9.31,-3.29,7.25000000000001));
#1771=CARTESIAN_POINT('',(9.31,-3.29,7.25000000000001));
#1772=CARTESIAN_POINT('',(6.56,-3.29,7.25000000000001));
#1773=CARTESIAN_POINT('',(9.31,-3.29,7.15000000000001));
#1774=CARTESIAN_POINT('',(9.31,-3.29,6.50000000000001));
#1775=CARTESIAN_POINT('',(8.42181489813947,-3.29,7.15000000000001));
#1776=CARTESIAN_POINT('Origin',(8.49090744906974,-2.54,7.15000000000001));
#1777=CARTESIAN_POINT('',(9.31,-7.686,7.15000000000001));
#1778=CARTESIAN_POINT('Origin',(9.31,-12.832,5.75000000000001));
#1779=CARTESIAN_POINT('',(9.31,-12.832,7.25000000000001));
#1780=CARTESIAN_POINT('',(9.31,-12.832,7.25000000000001));
#1781=CARTESIAN_POINT('',(9.31,-12.832,7.25000000000001));
#1782=CARTESIAN_POINT('',(9.31,-12.832,5.75000000000001));
#1783=CARTESIAN_POINT('',(9.31,-12.832,5.75000000000001));
#1784=CARTESIAN_POINT('',(9.31,5.168,5.75));
#1785=CARTESIAN_POINT('',(9.31,-12.832,5.75000000000001));
#1786=CARTESIAN_POINT('',(9.31,5.168,7.25));
#1787=CARTESIAN_POINT('',(9.31,5.168,5.75));
#1788=CARTESIAN_POINT('',(9.31,-12.832,7.25000000000001));
#1789=CARTESIAN_POINT('',(9.31,-12.832,7.25000000000001));
#1790=CARTESIAN_POINT('',(9.31,-12.832,7.25000000000001));
#1791=CARTESIAN_POINT('Origin',(3.81,-3.832,7.25000000000001));
#1792=CARTESIAN_POINT('',(-1.69,5.168,7.25));
#1793=CARTESIAN_POINT('',(-1.69,5.168,7.25));
#1794=CARTESIAN_POINT('',(-1.69,5.168,7.25));
#1795=CARTESIAN_POINT('',(-1.69,-12.832,7.25000000000001));
#1796=CARTESIAN_POINT('',(-1.69,5.168,7.25));
#1797=CARTESIAN_POINT('',(-1.69,-12.832,7.25000000000001));
#1798=CARTESIAN_POINT('',(-1.69,5.168,7.25));
#1799=CARTESIAN_POINT('',(9.31,5.168,7.25));
#1800=CARTESIAN_POINT('',(-1.69,5.168,7.25));
#1801=CARTESIAN_POINT('',(0.309999999999999,-1.332,7.25000000000001));
#1802=CARTESIAN_POINT('',(7.31,-1.332,7.25000000000001));
#1803=CARTESIAN_POINT('',(5.56,-1.332,7.25000000000001));
#1804=CARTESIAN_POINT('',(7.31,-6.332,7.25000000000001));
#1805=CARTESIAN_POINT('',(7.31,-5.082,7.25000000000001));
#1806=CARTESIAN_POINT('',(0.309999999999999,-6.332,7.25000000000001));
#1807=CARTESIAN_POINT('',(2.06,-6.332,7.25000000000001));
#1808=CARTESIAN_POINT('',(0.309999999999999,-2.582,7.25000000000001));
#1809=CARTESIAN_POINT('',(3.11,0.068000000000001,7.25000000000001));
#1810=CARTESIAN_POINT('',(6.61,0.0680000000000015,7.25000000000001));
#1811=CARTESIAN_POINT('',(5.21,0.0680000000000011,7.25000000000001));
#1812=CARTESIAN_POINT('',(6.61,-1.132,7.25000000000001));
#1813=CARTESIAN_POINT('',(6.61,-2.482,7.25000000000001));
#1814=CARTESIAN_POINT('',(3.11,-1.132,7.25000000000001));
#1815=CARTESIAN_POINT('',(3.46,-1.132,7.25000000000001));
#1816=CARTESIAN_POINT('',(3.11,-1.882,7.25000000000001));
#1817=CARTESIAN_POINT('',(3.06,4.168,7.25000000000001));
#1818=CARTESIAN_POINT('',(4.56,4.168,7.25000000000001));
#1819=CARTESIAN_POINT('',(4.185,4.168,7.25000000000001));
#1820=CARTESIAN_POINT('',(4.56,1.968,7.25000000000001));
#1821=CARTESIAN_POINT('',(4.56000000000001,-0.931999999999999,7.25000000000001));
#1822=CARTESIAN_POINT('',(3.06,1.968,7.25000000000001));
#1823=CARTESIAN_POINT('',(3.435,1.968,7.25000000000001));
#1824=CARTESIAN_POINT('',(3.05999999999999,0.168000000000001,7.25000000000001));
#1825=CARTESIAN_POINT('Origin',(4.56,4.168,7.25000000000001));
#1826=CARTESIAN_POINT('',(3.06,4.168,8.25000000000001));
#1827=CARTESIAN_POINT('',(3.06,4.168,7.25000000000001));
#1828=CARTESIAN_POINT('',(4.56,4.168,8.25000000000001));
#1829=CARTESIAN_POINT('',(4.56,4.168,8.25000000000001));
#1830=CARTESIAN_POINT('',(4.56,4.168,7.25000000000001));
#1831=CARTESIAN_POINT('Origin',(4.56,1.968,7.25000000000001));
#1832=CARTESIAN_POINT('',(4.56,1.968,8.25000000000001));
#1833=CARTESIAN_POINT('',(4.56,1.968,8.25000000000001));
#1834=CARTESIAN_POINT('',(4.56,1.968,7.25000000000001));
#1835=CARTESIAN_POINT('Origin',(3.06,1.968,7.25000000000001));
#1836=CARTESIAN_POINT('',(3.06,1.968,8.25000000000001));
#1837=CARTESIAN_POINT('',(3.06,1.968,8.25000000000001));
#1838=CARTESIAN_POINT('',(3.06,1.968,7.25000000000001));
#1839=CARTESIAN_POINT('Origin',(3.06,4.168,7.25000000000001));
#1840=CARTESIAN_POINT('',(3.06,4.168,8.25000000000001));
#1841=CARTESIAN_POINT('Origin',(3.81,3.068,8.25000000000001));
#1842=CARTESIAN_POINT('Origin',(6.61,0.0680000000000015,7.25000000000001));
#1843=CARTESIAN_POINT('',(3.11,0.068000000000001,8.25000000000001));
#1844=CARTESIAN_POINT('',(3.11,0.068000000000001,7.25000000000001));
#1845=CARTESIAN_POINT('',(6.61,0.0680000000000015,8.25000000000001));
#1846=CARTESIAN_POINT('',(6.61,0.0680000000000015,8.25000000000001));
#1847=CARTESIAN_POINT('',(6.61,0.0680000000000015,7.25000000000001));
#1848=CARTESIAN_POINT('Origin',(6.61,-1.132,7.25000000000001));
#1849=CARTESIAN_POINT('',(6.61,-1.132,8.25000000000001));
#1850=CARTESIAN_POINT('',(6.61,-1.132,8.25000000000001));
#1851=CARTESIAN_POINT('',(6.61,-1.132,7.25000000000001));
#1852=CARTESIAN_POINT('Origin',(3.11,-1.132,7.25000000000001));
#1853=CARTESIAN_POINT('',(3.11,-1.132,8.25000000000001));
#1854=CARTESIAN_POINT('',(3.11,-1.132,8.25000000000001));
#1855=CARTESIAN_POINT('',(3.11,-1.132,7.25000000000001));
#1856=CARTESIAN_POINT('Origin',(3.11,0.068000000000001,7.25000000000001));
#1857=CARTESIAN_POINT('',(3.11,0.068000000000001,8.25000000000001));
#1858=CARTESIAN_POINT('Origin',(4.86,-0.531999999999999,8.25000000000001));
#1859=CARTESIAN_POINT('Origin',(7.31,-1.332,7.25000000000001));
#1860=CARTESIAN_POINT('',(0.309999999999999,-1.332,9.25000000000001));
#1861=CARTESIAN_POINT('',(0.309999999999999,-1.332,7.25000000000001));
#1862=CARTESIAN_POINT('',(7.31,-1.332,9.25000000000001));
#1863=CARTESIAN_POINT('',(7.31,-1.332,9.25000000000001));
#1864=CARTESIAN_POINT('',(7.31,-1.332,7.25000000000001));
#1865=CARTESIAN_POINT('Origin',(7.31,-6.332,7.25000000000001));
#1866=CARTESIAN_POINT('',(7.31,-6.332,9.25000000000001));
#1867=CARTESIAN_POINT('',(7.31,-6.332,9.25000000000001));
#1868=CARTESIAN_POINT('',(7.31,-6.332,7.25000000000001));
#1869=CARTESIAN_POINT('Origin',(0.309999999999999,-6.332,7.25000000000001));
#1870=CARTESIAN_POINT('',(0.309999999999999,-6.332,9.25000000000001));
#1871=CARTESIAN_POINT('',(0.309999999999999,-6.332,9.25000000000001));
#1872=CARTESIAN_POINT('',(0.309999999999999,-6.332,7.25000000000001));
#1873=CARTESIAN_POINT('Origin',(0.309999999999999,-1.332,7.25000000000001));
#1874=CARTESIAN_POINT('',(0.309999999999999,-1.332,9.25000000000001));
#1875=CARTESIAN_POINT('Origin',(3.81,-3.832,9.25000000000001));
#1876=CARTESIAN_POINT('Origin',(3.81,-3.832,5.75));
#1877=CARTESIAN_POINT('',(-1.69,-12.832,5.75000000000001));
#1878=CARTESIAN_POINT('',(-1.69,-12.832,5.75000000000001));
#1879=CARTESIAN_POINT('',(-1.69,5.168,5.75));
#1880=CARTESIAN_POINT('',(-1.69,5.168,5.75));
#1881=CARTESIAN_POINT('',(9.31,5.168,5.75));
#1882=CARTESIAN_POINT('Origin',(-1.69,-12.832,5.75000000000001));
#1883=CARTESIAN_POINT('',(-1.69,-12.832,5.75000000000001));
#1884=CARTESIAN_POINT('Origin',(-1.69,5.168,5.75));
#1885=CARTESIAN_POINT('',(-1.69,5.168,5.75));
#1886=CARTESIAN_POINT('Origin',(9.31,5.168,5.75));
#1887=UNCERTAINTY_MEASURE_WITH_UNIT(LENGTH_MEASURE(0.01),#1891,
'DISTANCE_ACCURACY_VALUE',
'Maximum model space distance between geometric entities at asserted c
onnectivities');
#1888=UNCERTAINTY_MEASURE_WITH_UNIT(LENGTH_MEASURE(0.01),#1891,
'DISTANCE_ACCURACY_VALUE',
'Maximum model space distance between geometric entities at asserted c
onnectivities');
#1889=(
GEOMETRIC_REPRESENTATION_CONTEXT(3)
GLOBAL_UNCERTAINTY_ASSIGNED_CONTEXT((#1887))
GLOBAL_UNIT_ASSIGNED_CONTEXT((#1891,#1893,#1894))
REPRESENTATION_CONTEXT('','3D')
);
#1890=(
GEOMETRIC_REPRESENTATION_CONTEXT(3)
GLOBAL_UNCERTAINTY_ASSIGNED_CONTEXT((#1888))
GLOBAL_UNIT_ASSIGNED_CONTEXT((#1891,#1893,#1894))
REPRESENTATION_CONTEXT('','3D')
);
#1891=(
LENGTH_UNIT()
NAMED_UNIT(*)
SI_UNIT(.MILLI.,.METRE.)
);
#1892=(
LENGTH_UNIT()
NAMED_UNIT(*)
SI_UNIT(.CENTI.,.METRE.)
);
#1893=(
NAMED_UNIT(*)
PLANE_ANGLE_UNIT()
SI_UNIT($,.RADIAN.)
);
#1894=(
NAMED_UNIT(*)
SI_UNIT($,.STERADIAN.)
SOLID_ANGLE_UNIT()
);
#1895=SHAPE_DEFINITION_REPRESENTATION(#1896,#1897);
#1896=PRODUCT_DEFINITION_SHAPE('',$,#1899);
#1897=SHAPE_REPRESENTATION('',(#1203),#1889);
#1898=PRODUCT_DEFINITION_CONTEXT('part definition',#1903,'design');
#1899=PRODUCT_DEFINITION('BNO055_shrt','BNO055_short',#1900,#1898);
#1900=PRODUCT_DEFINITION_FORMATION('',$,#1905);
#1901=PRODUCT_RELATED_PRODUCT_CATEGORY('BNO055_short','BNO055_short',(#1905));
#1902=APPLICATION_PROTOCOL_DEFINITION('international standard',
'automotive_design',2009,#1903);
#1903=APPLICATION_CONTEXT(
'Core Data for Automotive Mechanical Design Process');
#1904=PRODUCT_CONTEXT('part definition',#1903,'mechanical');
#1905=PRODUCT('BNO055_shrt','BNO055_short',$,(#1904));
#1906=PRESENTATION_STYLE_ASSIGNMENT((#1912));
#1907=PRESENTATION_STYLE_ASSIGNMENT((#1913));
#1908=PRESENTATION_STYLE_ASSIGNMENT((#1914));
#1909=PRESENTATION_STYLE_ASSIGNMENT((#1915));
#1910=PRESENTATION_STYLE_ASSIGNMENT((#1916));
#1911=PRESENTATION_STYLE_ASSIGNMENT((#1917));
#1912=SURFACE_STYLE_USAGE(.BOTH.,#1930);
#1913=SURFACE_STYLE_USAGE(.BOTH.,#1931);
#1914=SURFACE_STYLE_USAGE(.BOTH.,#1932);
#1915=SURFACE_STYLE_USAGE(.BOTH.,#1933);
#1916=SURFACE_STYLE_USAGE(.BOTH.,#1934);
#1917=SURFACE_STYLE_USAGE(.BOTH.,#1935);
#1918=SURFACE_STYLE_RENDERING_WITH_PROPERTIES($,#1954,(#1924));
#1919=SURFACE_STYLE_RENDERING_WITH_PROPERTIES($,#1955,(#1925));
#1920=SURFACE_STYLE_RENDERING_WITH_PROPERTIES($,#1956,(#1926));
#1921=SURFACE_STYLE_RENDERING_WITH_PROPERTIES($,#1957,(#1927));
#1922=SURFACE_STYLE_RENDERING_WITH_PROPERTIES($,#1958,(#1928));
#1923=SURFACE_STYLE_RENDERING_WITH_PROPERTIES($,#1959,(#1929));
#1924=SURFACE_STYLE_TRANSPARENT(0.);
#1925=SURFACE_STYLE_TRANSPARENT(0.);
#1926=SURFACE_STYLE_TRANSPARENT(0.);
#1927=SURFACE_STYLE_TRANSPARENT(0.);
#1928=SURFACE_STYLE_TRANSPARENT(0.);
#1929=SURFACE_STYLE_TRANSPARENT(0.);
#1930=SURFACE_SIDE_STYLE('',(#1936,#1918));
#1931=SURFACE_SIDE_STYLE('',(#1937,#1919));
#1932=SURFACE_SIDE_STYLE('',(#1938,#1920));
#1933=SURFACE_SIDE_STYLE('',(#1939,#1921));
#1934=SURFACE_SIDE_STYLE('',(#1940,#1922));
#1935=SURFACE_SIDE_STYLE('',(#1941,#1923));
#1936=SURFACE_STYLE_FILL_AREA(#1942);
#1937=SURFACE_STYLE_FILL_AREA(#1943);
#1938=SURFACE_STYLE_FILL_AREA(#1944);
#1939=SURFACE_STYLE_FILL_AREA(#1945);
#1940=SURFACE_STYLE_FILL_AREA(#1946);
#1941=SURFACE_STYLE_FILL_AREA(#1947);
#1942=FILL_AREA_STYLE('',(#1948));
#1943=FILL_AREA_STYLE('',(#1949));
#1944=FILL_AREA_STYLE('',(#1950));
#1945=FILL_AREA_STYLE('',(#1951));
#1946=FILL_AREA_STYLE('',(#1952));
#1947=FILL_AREA_STYLE('',(#1953));
#1948=FILL_AREA_STYLE_COLOUR('',#1954);
#1949=FILL_AREA_STYLE_COLOUR('',#1955);
#1950=FILL_AREA_STYLE_COLOUR('',#1956);
#1951=FILL_AREA_STYLE_COLOUR('',#1957);
#1952=FILL_AREA_STYLE_COLOUR('',#1958);
#1953=FILL_AREA_STYLE_COLOUR('',#1959);
#1954=COLOUR_RGB('',0.749019607843137,0.749019607843137,0.749019607843137);
#1955=COLOUR_RGB('',0.8,0.8,0.8);
#1956=COLOUR_RGB('',0.117647058823529,0.117647058823529,0.117647058823529);
#1957=COLOUR_RGB('',0.756862745098039,0.619607843137255,0.);
#1958=COLOUR_RGB('',0.,0.317647058823529,0.);
#1959=COLOUR_RGB('',0.235294117647059,0.235294117647059,0.235294117647059);
ENDSEC;
END-ISO-10303-21;
