%TF.GenerationSoftware,KiCad,Pcbnew,9.0.1*%
%TF.CreationDate,2025-04-22T13:02:54+09:00*%
%TF.ProjectId,ORCA_CORE_B,4f524341-5f43-44f5-9245-5f422e6b6963,rev?*%
%TF.SameCoordinates,Original*%
%TF.FileFunction,Profile,NP*%
%FSLAX46Y46*%
G04 Gerber Fmt 4.6, Leading zero omitted, Abs format (unit mm)*
G04 Created by KiCad (PCBNEW 9.0.1) date 2025-04-22 13:02:54*
%MOMM*%
%LPD*%
G01*
G04 APERTURE LIST*
%TA.AperFunction,Profile*%
%ADD10C,0.500000*%
%TD*%
G04 APERTURE END LIST*
D10*
X153922159Y-130795984D02*
G75*
G02*
X155523044Y-131583925I-1372159J-4808116D01*
G01*
X108607200Y-93004016D02*
G75*
G02*
X109607186Y-96736041I0J-1999984D01*
G01*
X153000008Y-102995984D02*
X147500000Y-102995984D01*
X174500000Y-64504016D02*
X182500007Y-64504016D01*
X153421800Y-93004016D02*
G75*
G02*
X154729440Y-98703997I0J-2999984D01*
G01*
X109607201Y-96736067D02*
X105114244Y-99330077D01*
X196500000Y-84995984D02*
X185999994Y-84995984D01*
X102500000Y-130000000D02*
X122416300Y-130000000D01*
X192500000Y-125990084D02*
X192500000Y-112995984D01*
X177500000Y-112995984D02*
X177500000Y-102995984D01*
X147500000Y-127795984D02*
X147500000Y-125995984D01*
X155523037Y-131583935D02*
G75*
G02*
X153724301Y-136995985I-1783837J-2412065D01*
G01*
X153000008Y-102995984D02*
G75*
G02*
X159999994Y-102995984I3499993J7D01*
G01*
X189500000Y-64504020D02*
X189500000Y-46510480D01*
X122416300Y-130000000D02*
G75*
G02*
X127185364Y-133497990I0J-5000000D01*
G01*
X140500000Y-76004016D02*
G75*
G02*
X139900000Y-75943406I0J3000116D01*
G01*
X186000004Y-102995984D02*
G75*
G02*
X178999996Y-102995984I-3500004J4D01*
G01*
X192500000Y-125990084D02*
G75*
G02*
X185499995Y-125995984I-3500000J-5916D01*
G01*
X131954400Y-136995984D02*
X153724301Y-136995984D01*
X153127841Y-99204016D02*
G75*
G02*
X153525000Y-99108031I1371759J-4806284D01*
G01*
X160000004Y-125995984D02*
X185499996Y-125995984D01*
X171500000Y-76004000D02*
X171500000Y-76004016D01*
X182500001Y-46504016D02*
X174500000Y-46504016D01*
X105114244Y-99330077D02*
G75*
G02*
X102614100Y-100000015I-2500144J4330177D01*
G01*
X147500000Y-125995984D02*
X152999996Y-125995984D01*
X147500000Y-102995984D02*
X147500000Y-102204000D01*
X174500000Y-73004000D02*
G75*
G02*
X171500000Y-76004000I-3000000J0D01*
G01*
X97500000Y-43004016D02*
X97500000Y-93004016D01*
X186000004Y-102995984D02*
X196500000Y-102995984D01*
X185500006Y-112995984D02*
X177500000Y-112995984D01*
X185500006Y-112995984D02*
G75*
G02*
X192500000Y-112995984I3499997J3D01*
G01*
X131954400Y-136995984D02*
G75*
G02*
X127185349Y-133497995I0J4999984D01*
G01*
X166500000Y-84995984D02*
X166500000Y-102995984D01*
X182500001Y-46504016D02*
G75*
G02*
X189499993Y-46510480I3499999J16D01*
G01*
X174500000Y-73004000D02*
X174500000Y-64504016D01*
X171500000Y-43004016D02*
X97500000Y-43004016D01*
X150509486Y-99204016D02*
X153127841Y-99204016D01*
X97500000Y-105000000D02*
G75*
G02*
X102500000Y-100000000I5000000J0D01*
G01*
X171500000Y-43004016D02*
G75*
G02*
X174499984Y-46004016I0J-2999984D01*
G01*
X189500000Y-64504020D02*
G75*
G02*
X182500000Y-64504016I-3500000J20D01*
G01*
X97500000Y-105000000D02*
X97500000Y-125000000D01*
X137500000Y-93004016D02*
X137500000Y-77903000D01*
X160000004Y-125995984D02*
G75*
G02*
X152999996Y-125995984I-3500004J4D01*
G01*
X166500000Y-102995984D02*
X159999994Y-102995984D01*
X153922159Y-130795984D02*
X150500000Y-130795984D01*
X150500000Y-130795984D02*
G75*
G02*
X147500016Y-127795984I0J2999984D01*
G01*
X102614100Y-99999988D02*
X102614100Y-100000000D01*
X196500000Y-102995984D02*
X196500000Y-84995984D01*
X179000008Y-84995984D02*
G75*
G02*
X185999994Y-84995984I3499993J7D01*
G01*
X140500000Y-76004016D02*
X171500000Y-76004016D01*
X102614100Y-100000000D02*
X102500000Y-100000000D01*
X154729449Y-98704016D02*
G75*
G02*
X153524998Y-99108023I-2179449J4500116D01*
G01*
X97500000Y-93004016D02*
X108607200Y-93004016D01*
X177500000Y-102995984D02*
X178999996Y-102995984D01*
X147500000Y-102204000D02*
G75*
G02*
X150509486Y-99204015I3000000J0D01*
G01*
X153421800Y-93004016D02*
X137500000Y-93004016D01*
X137500000Y-77903000D02*
G75*
G02*
X139899999Y-75943408I2000000J0D01*
G01*
X179000008Y-84995984D02*
X166500000Y-84995984D01*
X102500000Y-130000000D02*
G75*
G02*
X97500000Y-125000000I0J5000000D01*
G01*
X174500000Y-46504016D02*
X174500000Y-46004016D01*
M02*
