%TF.GenerationSoftware,KiCad,Pcbnew,9.0.1*%
%TF.CreationDate,2025-04-22T13:02:54+09:00*%
%TF.ProjectId,ORCA_CORE_B,4f524341-5f43-44f5-9245-5f422e6b6963,rev?*%
%TF.SameCoordinates,Original*%
%TF.FileFunction,Soldermask,Bot*%
%TF.FilePolarity,Negative*%
%FSLAX46Y46*%
G04 Gerber Fmt 4.6, Leading zero omitted, Abs format (unit mm)*
G04 Created by KiCad (PCBNEW 9.0.1) date 2025-04-22 13:02:54*
%MOMM*%
%LPD*%
G01*
G04 APERTURE LIST*
G04 Aperture macros list*
%AMRoundRect*
0 Rectangle with rounded corners*
0 $1 Rounding radius*
0 $2 $3 $4 $5 $6 $7 $8 $9 X,Y pos of 4 corners*
0 Add a 4 corners polygon primitive as box body*
4,1,4,$2,$3,$4,$5,$6,$7,$8,$9,$2,$3,0*
0 Add four circle primitives for the rounded corners*
1,1,$1+$1,$2,$3*
1,1,$1+$1,$4,$5*
1,1,$1+$1,$6,$7*
1,1,$1+$1,$8,$9*
0 Add four rect primitives between the rounded corners*
20,1,$1+$1,$2,$3,$4,$5,0*
20,1,$1+$1,$4,$5,$6,$7,0*
20,1,$1+$1,$6,$7,$8,$9,0*
20,1,$1+$1,$8,$9,$2,$3,0*%
G04 Aperture macros list end*
%ADD10RoundRect,0.250000X0.600000X0.725000X-0.600000X0.725000X-0.600000X-0.725000X0.600000X-0.725000X0*%
%ADD11O,1.700000X1.950000*%
%ADD12RoundRect,0.250000X0.750000X-0.600000X0.750000X0.600000X-0.750000X0.600000X-0.750000X-0.600000X0*%
%ADD13O,2.000000X1.700000*%
%ADD14RoundRect,0.250000X-0.725000X0.600000X-0.725000X-0.600000X0.725000X-0.600000X0.725000X0.600000X0*%
%ADD15O,1.950000X1.700000*%
%ADD16C,3.200000*%
%ADD17RoundRect,0.250000X-0.600000X-0.725000X0.600000X-0.725000X0.600000X0.725000X-0.600000X0.725000X0*%
%ADD18R,1.524000X1.524000*%
%ADD19C,1.524000*%
%ADD20C,3.500000*%
%ADD21RoundRect,0.250000X-0.750000X0.600000X-0.750000X-0.600000X0.750000X-0.600000X0.750000X0.600000X0*%
%ADD22RoundRect,0.250000X-0.600000X-0.750000X0.600000X-0.750000X0.600000X0.750000X-0.600000X0.750000X0*%
%ADD23O,1.700000X2.000000*%
%ADD24R,5.000000X5.000000*%
%ADD25C,5.000000*%
%ADD26C,2.000000*%
%ADD27RoundRect,0.250000X0.600000X0.750000X-0.600000X0.750000X-0.600000X-0.750000X0.600000X-0.750000X0*%
%ADD28C,0.650000*%
%ADD29O,2.100000X1.000000*%
%ADD30O,1.600000X1.000000*%
%ADD31C,1.700000*%
%ADD32R,1.700000X1.700000*%
%ADD33RoundRect,1.500000X1.500000X-1.500000X1.500000X1.500000X-1.500000X1.500000X-1.500000X-1.500000X0*%
%ADD34C,6.000000*%
%ADD35RoundRect,0.137500X0.137500X-0.662500X0.137500X0.662500X-0.137500X0.662500X-0.137500X-0.662500X0*%
%ADD36RoundRect,0.237500X0.250000X0.237500X-0.250000X0.237500X-0.250000X-0.237500X0.250000X-0.237500X0*%
%ADD37O,1.700000X1.700000*%
%ADD38RoundRect,0.237500X-0.250000X-0.237500X0.250000X-0.237500X0.250000X0.237500X-0.250000X0.237500X0*%
%ADD39RoundRect,0.237500X0.237500X-0.250000X0.237500X0.250000X-0.237500X0.250000X-0.237500X-0.250000X0*%
%ADD40RoundRect,0.375000X-0.625000X-0.375000X0.625000X-0.375000X0.625000X0.375000X-0.625000X0.375000X0*%
%ADD41RoundRect,0.500000X-0.500000X-1.400000X0.500000X-1.400000X0.500000X1.400000X-0.500000X1.400000X0*%
%ADD42RoundRect,0.150000X-0.150000X0.675000X-0.150000X-0.675000X0.150000X-0.675000X0.150000X0.675000X0*%
%ADD43RoundRect,0.110000X0.890000X0.440000X-0.890000X0.440000X-0.890000X-0.440000X0.890000X-0.440000X0*%
%ADD44RoundRect,0.080000X0.320000X0.470000X-0.320000X0.470000X-0.320000X-0.470000X0.320000X-0.470000X0*%
%ADD45RoundRect,0.250000X-0.650000X0.412500X-0.650000X-0.412500X0.650000X-0.412500X0.650000X0.412500X0*%
%ADD46RoundRect,0.250000X-0.475000X0.337500X-0.475000X-0.337500X0.475000X-0.337500X0.475000X0.337500X0*%
%ADD47RoundRect,0.250000X0.337500X0.475000X-0.337500X0.475000X-0.337500X-0.475000X0.337500X-0.475000X0*%
%ADD48R,6.000000X6.000000*%
%ADD49R,1.600000X3.000000*%
%ADD50R,1.200000X0.400000*%
G04 APERTURE END LIST*
D10*
%TO.C,J31*%
X108631962Y-125770984D03*
D11*
X106131962Y-125770984D03*
X103631962Y-125770984D03*
%TD*%
D12*
%TO.C,J3*%
X108946825Y-56069095D03*
D13*
X108946825Y-53569095D03*
%TD*%
D14*
%TO.C,J38*%
X105685825Y-71759095D03*
D15*
X105685825Y-74259095D03*
X105685825Y-76759095D03*
X105685825Y-79259095D03*
X105685825Y-81759095D03*
X105685825Y-84259095D03*
%TD*%
D12*
%TO.C,J12*%
X164211825Y-70744895D03*
D13*
X164211825Y-68244895D03*
%TD*%
D16*
%TO.C,H11*%
X120991825Y-46559095D03*
%TD*%
D17*
%TO.C,J42*%
X115355962Y-98719984D03*
D11*
X117855962Y-98719984D03*
X120355962Y-98719984D03*
X122855962Y-98719984D03*
%TD*%
D18*
%TO.C,J50*%
X163156462Y-117985984D03*
D19*
X163156462Y-115485984D03*
X163156462Y-113485984D03*
X163156462Y-110985984D03*
D20*
X165866462Y-121160984D03*
X165866462Y-107810984D03*
%TD*%
D17*
%TO.C,J24*%
X130563962Y-101625984D03*
D11*
X133063962Y-101625984D03*
X135563962Y-101625984D03*
X138063962Y-101625984D03*
X140563962Y-101625984D03*
X143063962Y-101625984D03*
%TD*%
D21*
%TO.C,J36*%
X133223825Y-87117095D03*
D13*
X133223825Y-89617095D03*
%TD*%
D22*
%TO.C,J16*%
X155361825Y-63114095D03*
D23*
X157861825Y-63114095D03*
%TD*%
D16*
%TO.C,H3*%
X188993962Y-125945984D03*
%TD*%
D24*
%TO.C,J2*%
X103043962Y-59879095D03*
D25*
X103043962Y-52469095D03*
%TD*%
D12*
%TO.C,J26*%
X126471825Y-68809095D03*
D13*
X126471825Y-66309095D03*
%TD*%
D17*
%TO.C,J17*%
X104139962Y-105831984D03*
D11*
X106639962Y-105831984D03*
X109139962Y-105831984D03*
%TD*%
D14*
%TO.C,J25*%
X143063962Y-115595984D03*
D15*
X143063962Y-118095984D03*
X143063962Y-120595984D03*
X143063962Y-123095984D03*
X143063962Y-125595984D03*
X143063962Y-128095984D03*
%TD*%
D26*
%TO.C,SW2*%
X183191825Y-58759095D03*
X183191825Y-52259095D03*
X187691825Y-58759095D03*
X187691825Y-52259095D03*
%TD*%
D16*
%TO.C,H12*%
X100991825Y-46609095D03*
%TD*%
%TO.C,H6*%
X185983962Y-64506584D03*
%TD*%
%TO.C,H5*%
X185983962Y-46506584D03*
%TD*%
%TO.C,H14*%
X142621825Y-46764895D03*
%TD*%
D12*
%TO.C,J4*%
X116196825Y-56069095D03*
D13*
X116196825Y-53569095D03*
%TD*%
D16*
%TO.C,H2*%
X182473962Y-102935984D03*
%TD*%
D14*
%TO.C,J40*%
X147714525Y-53182695D03*
D15*
X147714525Y-55682695D03*
X147714525Y-58182695D03*
X147714525Y-60682695D03*
X147714525Y-63182695D03*
X147714525Y-65682695D03*
%TD*%
D16*
%TO.C,H26*%
X115491825Y-89509095D03*
%TD*%
%TO.C,H13*%
X142621825Y-72264895D03*
%TD*%
D22*
%TO.C,J37*%
X140523962Y-108610984D03*
D23*
X143023962Y-108610984D03*
%TD*%
D27*
%TO.C,J14*%
X157861825Y-55494095D03*
D23*
X155361825Y-55494095D03*
%TD*%
D12*
%TO.C,J7*%
X123446825Y-56069095D03*
D13*
X123446825Y-53569095D03*
%TD*%
D10*
%TO.C,J32*%
X108631962Y-117515984D03*
D11*
X106131962Y-117515984D03*
X103631962Y-117515984D03*
%TD*%
D28*
%TO.C,P1*%
X189718962Y-96875984D03*
X189718962Y-91095984D03*
D29*
X189218962Y-98305984D03*
D30*
X193398962Y-98305984D03*
D29*
X189218962Y-89665984D03*
D30*
X193398962Y-89665984D03*
%TD*%
D31*
%TO.C,U14*%
X125633962Y-110685984D03*
D32*
X123093962Y-110685984D03*
D31*
X120553962Y-110685984D03*
X118013962Y-110685984D03*
X118013962Y-118305984D03*
X120553962Y-118305984D03*
D32*
X123093962Y-118305984D03*
D31*
X125633962Y-118305984D03*
%TD*%
D16*
%TO.C,H23*%
X156483962Y-102995984D03*
%TD*%
D14*
%TO.C,J51*%
X158038962Y-110735984D03*
D15*
X158038962Y-113235984D03*
X158038962Y-115735984D03*
X158038962Y-118235984D03*
%TD*%
D17*
%TO.C,J23*%
X122347962Y-124627984D03*
D11*
X124847962Y-124627984D03*
X127347962Y-124627984D03*
X129847962Y-124627984D03*
X132347962Y-124627984D03*
X134847962Y-124627984D03*
%TD*%
D16*
%TO.C,H24*%
X156483962Y-125995984D03*
%TD*%
%TO.C,H1*%
X182473962Y-84985984D03*
%TD*%
D14*
%TO.C,J43*%
X176573962Y-90235984D03*
D15*
X176573962Y-92735984D03*
X176573962Y-95235984D03*
X176573962Y-97735984D03*
%TD*%
D16*
%TO.C,H4*%
X188993962Y-112995984D03*
%TD*%
%TO.C,H25*%
X115491825Y-66509095D03*
%TD*%
D33*
%TO.C,J5*%
X132361825Y-57439095D03*
D34*
X132361825Y-50239095D03*
%TD*%
D12*
%TO.C,J21*%
X164211825Y-50424895D03*
D13*
X164211825Y-47924895D03*
%TD*%
D35*
%TO.C,U11*%
X134366825Y-82799095D03*
X133096825Y-82799095D03*
X133096825Y-76299095D03*
X134366825Y-76299095D03*
%TD*%
D14*
%TO.C,J45*%
X177416825Y-53009095D03*
D15*
X177416825Y-55509095D03*
X177416825Y-58009095D03*
%TD*%
D36*
%TO.C,R16*%
X143534325Y-58084895D03*
X141709325Y-58084895D03*
%TD*%
%TO.C,R10*%
X143534325Y-55544895D03*
X141709325Y-55544895D03*
%TD*%
%TO.C,R1*%
X181276825Y-48509095D03*
X179451825Y-48509095D03*
%TD*%
D32*
%TO.C,J55*%
X128516825Y-81819095D03*
D37*
X125976825Y-81819095D03*
X123436825Y-81819095D03*
D32*
X128516825Y-79279095D03*
D37*
X125976825Y-79279095D03*
X123436825Y-79279095D03*
D32*
X128516825Y-76739095D03*
D37*
X125976825Y-76739095D03*
X123436825Y-76739095D03*
D32*
X128516825Y-74199095D03*
D37*
X125976825Y-74199095D03*
X123436825Y-74199095D03*
%TD*%
D38*
%TO.C,R28*%
X100918825Y-90673095D03*
X102743825Y-90673095D03*
%TD*%
D36*
%TO.C,R27*%
X102743825Y-88387095D03*
X100918825Y-88387095D03*
%TD*%
D39*
%TO.C,R40*%
X109601825Y-71369095D03*
X109601825Y-69544095D03*
%TD*%
D40*
%TO.C,U17*%
X129336825Y-69859095D03*
X129336825Y-67559095D03*
D41*
X135636825Y-67559095D03*
D40*
X129336825Y-65259095D03*
%TD*%
D36*
%TO.C,R2*%
X193558962Y-91780984D03*
X191733962Y-91780984D03*
%TD*%
%TO.C,R12*%
X170204325Y-54274895D03*
X168379325Y-54274895D03*
%TD*%
D40*
%TO.C,U7*%
X153441825Y-51494895D03*
X153441825Y-49194895D03*
D41*
X159741825Y-49194895D03*
D40*
X153441825Y-46894895D03*
%TD*%
D42*
%TO.C,U3*%
X168656825Y-59269895D03*
X169926825Y-59269895D03*
X171196825Y-59269895D03*
X172466825Y-59269895D03*
X172466825Y-64519895D03*
X171196825Y-64519895D03*
X169926825Y-64519895D03*
X168656825Y-64519895D03*
%TD*%
D43*
%TO.C,D1*%
X163591825Y-46019895D03*
D44*
X161691825Y-46019895D03*
%TD*%
D45*
%TO.C,C7*%
X148336825Y-45384895D03*
X148336825Y-48509895D03*
%TD*%
D36*
%TO.C,R22*%
X157099825Y-59431095D03*
X155274825Y-59431095D03*
%TD*%
%TO.C,R24*%
X159639825Y-65527095D03*
X157814825Y-65527095D03*
%TD*%
D46*
%TO.C,C2*%
X150876825Y-45384895D03*
X150876825Y-47459895D03*
%TD*%
D14*
%TO.C,J48*%
X180893962Y-116995984D03*
D15*
X180893962Y-119495984D03*
X180893962Y-121995984D03*
%TD*%
D47*
%TO.C,C10*%
X134536825Y-73909095D03*
X132461825Y-73909095D03*
%TD*%
D39*
%TO.C,R33*%
X109601825Y-75226095D03*
X109601825Y-73401095D03*
%TD*%
D36*
%TO.C,R3*%
X193558962Y-96225984D03*
X191733962Y-96225984D03*
%TD*%
D32*
%TO.C,J53*%
X151556482Y-132824125D03*
D31*
X149016482Y-132824125D03*
X146476482Y-132824125D03*
X143936482Y-132824125D03*
X141396482Y-132824125D03*
X138856482Y-132824125D03*
X136316482Y-132824125D03*
%TD*%
D39*
%TO.C,R43*%
X109601825Y-78989095D03*
X109601825Y-77164095D03*
%TD*%
D48*
%TO.C,Q3*%
X117221825Y-78989095D03*
D49*
X114921825Y-72489095D03*
X119521825Y-72489095D03*
%TD*%
D32*
%TO.C,J60*%
X151563962Y-97215984D03*
D31*
X151563962Y-94675984D03*
X149023962Y-97215984D03*
X149023962Y-94675984D03*
X146483962Y-97215984D03*
X146483962Y-94675984D03*
X143943962Y-97215984D03*
X143943962Y-94675984D03*
X141403962Y-97215984D03*
X141403962Y-94675984D03*
X138863962Y-97215984D03*
X138863962Y-94675984D03*
X136323962Y-97215984D03*
X136323962Y-94675984D03*
X133783962Y-97215984D03*
X133783962Y-94675984D03*
X131243962Y-97215984D03*
X131243962Y-94675984D03*
X128703962Y-97215984D03*
X128703962Y-94675984D03*
%TD*%
D45*
%TO.C,C9*%
X122301825Y-65704095D03*
X122301825Y-68829095D03*
%TD*%
D50*
%TO.C,U1*%
X180173962Y-96208484D03*
X180173962Y-95573484D03*
X180173962Y-94938484D03*
X180173962Y-94303484D03*
X180173962Y-93668484D03*
X180173962Y-93033484D03*
X180173962Y-92398484D03*
X180173962Y-91763484D03*
X185373962Y-91763484D03*
X185373962Y-92398484D03*
X185373962Y-93033484D03*
X185373962Y-93668484D03*
X185373962Y-94303484D03*
X185373962Y-94938484D03*
X185373962Y-95573484D03*
X185373962Y-96208484D03*
%TD*%
D39*
%TO.C,R46*%
X109601825Y-83100095D03*
X109601825Y-81275095D03*
%TD*%
D36*
%TO.C,R18*%
X170204325Y-56814895D03*
X168379325Y-56814895D03*
%TD*%
M02*
