M48
; DRILL file {KiCad 9.0.1} date 2025-04-22T13:02:56+0900
; FORMAT={-:-/ absolute / inch / decimal}
; #@! TF.CreationDate,2025-04-22T13:02:56+09:00
; #@! TF.GenerationSoftware,Kicad,Pcbnew,9.0.1
; #@! TF.FileFunction,Plated,1,2,PTH
FMAT,2
INCH
; #@! TA.AperFunction,Plated,PTH,ViaDrill
T1C0.0157
; #@! TA.AperFunction,Plated,PTH,ComponentDrill
T2C0.0236
; #@! TA.AperFunction,Plated,PTH,ComponentDrill
T3C0.0315
; #@! TA.AperFunction,Plated,PTH,ComponentDrill
T4C0.0362
; #@! TA.AperFunction,Plated,PTH,ComponentDrill
T5C0.0374
; #@! TA.AperFunction,Plated,PTH,ComponentDrill
T6C0.0394
; #@! TA.AperFunction,Plated,PTH,ComponentDrill
T7C0.0433
; #@! TA.AperFunction,Plated,PTH,ComponentDrill
T8C0.0906
; #@! TA.AperFunction,Plated,PTH,ComponentDrill
T9C0.0984
; #@! TA.AperFunction,Plated,PTH,ComponentDrill
T10C0.1772
%
G90
G05
T1
X3.8537Y-2.4794
X3.9009Y-2.4794
X3.9068Y-1.9766
X3.9068Y-2.0266
X3.9068Y-2.0766
X3.9068Y-2.1266
X3.9068Y-2.2766
X3.9068Y-2.3266
X3.9068Y-2.3766
X3.9068Y-2.4266
X3.9068Y-4.2266
X3.9068Y-4.3266
X3.9068Y-4.4266
X3.9068Y-4.5266
X3.9068Y-4.6266
X3.9068Y-4.7266
X3.9068Y-4.8266
X3.9068Y-4.9266
X3.9568Y-1.9266
X3.965Y-2.5598
X3.965Y-2.6598
X3.965Y-2.7598
X3.965Y-2.8598
X3.965Y-2.9598
X3.965Y-3.0598
X3.965Y-3.1598
X3.965Y-3.2598
X3.965Y-3.3598
X3.9695Y-3.5698
X3.975Y-3.4798
X3.9757Y-2.4794
X4.0068Y-1.9266
X4.0068Y-4.0766
X4.0068Y-4.1766
X4.0068Y-4.3266
X4.0068Y-4.4266
X4.0068Y-4.7766
X4.0068Y-5.0266
X4.0466Y-2.4794
X4.0568Y-1.9266
X4.065Y-2.5598
X4.065Y-2.6598
X4.065Y-3.3598
X4.1068Y-1.9266
X4.1068Y-3.9766
X4.1068Y-4.0766
X4.1068Y-4.3266
X4.1068Y-4.4266
X4.1068Y-5.0266
X4.1175Y-2.4794
X4.1568Y-1.9266
X4.165Y-2.5598
X4.165Y-2.6598
X4.1883Y-2.4794
X4.2068Y-3.9766
X4.2068Y-4.3266
X4.2068Y-4.4266
X4.2068Y-5.0266
X4.2568Y-1.8266
X4.2568Y-1.9266
X4.2568Y-2.0266
X4.2568Y-2.2766
X4.2568Y-2.3266
X4.2568Y-2.4266
X4.2592Y-2.4794
X4.265Y-2.5598
X4.265Y-2.6598
X4.265Y-3.4598
X4.265Y-3.5598
X4.285Y-3.2298
X4.3068Y-3.8766
X4.3068Y-3.9766
X4.3068Y-4.3266
X4.3068Y-4.4266
X4.3068Y-5.0266
X4.315Y-2.8098
X4.315Y-2.9598
X4.315Y-3.1098
X4.315Y-3.2698
X4.3301Y-2.4794
X4.3382Y-3.6622
X4.3567Y-3.7839
X4.3568Y-1.8266
X4.3568Y-1.9266
X4.3568Y-2.0266
X4.3568Y-2.2766
X4.3568Y-2.3266
X4.3568Y-2.4266
X4.3568Y-2.6666
X4.3568Y-4.7766
X4.365Y-3.4598
X4.365Y-3.5598
X4.3768Y-2.7466
X4.3768Y-2.8666
X4.3768Y-2.9266
X4.3768Y-3.0266
X4.3768Y-3.0666
X4.3768Y-3.1666
X4.4009Y-2.4794
X4.4068Y-3.8766
X4.4091Y-3.1698
X4.4168Y-2.9266
X4.4224Y-3.6602
X4.4327Y-3.7413
X4.4468Y-4.5525
X4.4468Y-4.6207
X4.4568Y-1.8266
X4.4568Y-1.9266
X4.4568Y-2.0266
X4.4568Y-2.2766
X4.4568Y-2.3266
X4.4568Y-2.4266
X4.4568Y-3.9766
X4.4568Y-4.7766
X4.4568Y-4.8766
X4.4568Y-5.0266
X4.4718Y-2.4794
X4.495Y-3.2848
X4.5Y-3.3448
X4.5047Y-3.661
X4.5068Y-3.7766
X4.5068Y-4.1266
X4.5068Y-4.2266
X4.5118Y-3.6969
X4.5427Y-2.4794
X4.5568Y-1.8266
X4.5568Y-1.9266
X4.5568Y-2.0266
X4.5568Y-2.2766
X4.5568Y-2.3266
X4.5568Y-2.4266
X4.5568Y-3.9766
X4.565Y-3.2848
X4.565Y-3.3448
X4.586Y-3.6644
X4.6068Y-3.7766
X4.6068Y-4.1266
X4.6068Y-4.2266
X4.6068Y-4.7766
X4.6068Y-4.8766
X4.6068Y-5.0266
X4.6135Y-2.4794
X4.6568Y-1.8266
X4.6568Y-1.9266
X4.6568Y-2.0266
X4.6568Y-2.2766
X4.6568Y-2.3266
X4.6568Y-2.4266
X4.6568Y-3.9766
X4.6668Y-3.7766
X4.6687Y-3.6644
X4.6883Y-2.4794
X4.69Y-2.7348
X4.7068Y-3.7266
X4.7068Y-4.8766
X4.7068Y-4.9266
X4.74Y-2.6598
X4.74Y-2.7098
X4.7435Y-3.6644
X4.755Y-3.3433
X4.7568Y-3.0298
X4.7568Y-3.1798
X4.7568Y-1.9266
X4.7568Y-2.0266
X4.7568Y-2.2766
X4.7568Y-2.3266
X4.7568Y-2.4266
X4.7568Y-4.4766
X4.7568Y-4.8266
X4.7568Y-4.9766
X4.7592Y-2.4794
X4.765Y-3.4598
X4.765Y-3.5598
X4.7868Y-3.9666
X4.7952Y-2.92
X4.7968Y-3.7466
X4.805Y-3.3048
X4.8068Y-4.2766
X4.8068Y-4.5766
X4.8068Y-4.7766
X4.8068Y-5.0266
X4.815Y-2.5868
X4.815Y-2.7848
X4.8222Y-3.6644
X4.8301Y-2.4794
X4.8568Y-1.8266
X4.8568Y-1.9266
X4.8568Y-2.0266
X4.8568Y-2.2766
X4.8568Y-2.3266
X4.8568Y-2.4266
X4.8568Y-3.7966
X4.8568Y-4.0907
X4.8568Y-4.2266
X4.8568Y-4.2766
X4.8568Y-4.5766
X4.8568Y-4.7766
X4.8568Y-5.0266
X4.865Y-3.3598
X4.865Y-3.4598
X4.865Y-3.5598
X4.8768Y-3.9866
X4.89Y-2.6098
X4.89Y-2.7098
X4.89Y-2.7848
X4.8967Y-4.0912
X4.9009Y-2.4794
X4.9009Y-3.6644
X4.9054Y-3.9588
X4.9068Y-4.2266
X4.9068Y-4.2766
X4.9068Y-4.4766
X4.9068Y-4.5766
X4.9068Y-4.7766
X4.9068Y-4.8266
X4.9068Y-4.9766
X4.915Y-3.3098
X4.9168Y-3.7666
X4.944Y-2.8663
X4.9568Y-1.8266
X4.9568Y-1.9266
X4.9568Y-2.0266
X4.9568Y-2.2766
X4.9568Y-2.3266
X4.9568Y-2.4266
X4.9568Y-3.7966
X4.96Y-2.9698
X4.96Y-3.0698
X4.96Y-3.1698
X4.96Y-3.2748
X4.965Y-2.7848
X4.965Y-3.3348
X4.965Y-3.4598
X4.965Y-3.5598
X4.9718Y-2.4794
X4.9757Y-3.6644
X4.9768Y-4.1466
X4.9868Y-4.0666
X4.9968Y-3.7666
X5.0068Y-4.2766
X5.0068Y-4.4766
X5.0068Y-4.5766
X5.0068Y-4.7266
X5.0271Y-3.9869
X5.0368Y-4.1066
X5.0368Y-4.1966
X5.0427Y-2.4794
X5.0545Y-3.6644
X5.0568Y-1.8266
X5.0568Y-1.9266
X5.0568Y-2.0266
X5.0568Y-2.1766
X5.0568Y-2.2766
X5.0568Y-2.3766
X5.0568Y-5.0266
X5.0568Y-5.2266
X5.065Y-2.8348
X5.065Y-3.4598
X5.065Y-3.5598
X5.092Y-2.5693
X5.092Y-2.6598
X5.1068Y-2.4266
X5.1068Y-4.2766
X5.1068Y-4.4766
X5.1068Y-4.5766
X5.1135Y-2.4794
X5.115Y-2.7848
X5.115Y-2.8598
X5.1332Y-3.6644
X5.14Y-2.9848
X5.14Y-3.0598
X5.14Y-3.1348
X5.14Y-3.2098
X5.14Y-3.2598
X5.1568Y-1.8266
X5.1568Y-5.1266
X5.165Y-2.9098
X5.165Y-3.3598
X5.165Y-3.4098
X5.165Y-3.4598
X5.165Y-3.5598
X5.1844Y-2.4794
X5.2066Y-3.0384
X5.2068Y-2.4266
X5.212Y-3.6644
X5.2152Y-4.7466
X5.2329Y-4.6066
X5.2368Y-1.8266
X5.24Y-2.5598
X5.24Y-2.6098
X5.24Y-2.7348
X5.24Y-2.8098
X5.24Y-3.3598
X5.2553Y-2.4794
X5.2568Y-5.0266
X5.2568Y-5.2266
X5.2568Y-5.3266
X5.2615Y-4.5066
X5.2868Y-3.6644
X5.29Y-3.0039
X5.29Y-3.2598
X5.29Y-3.3598
X5.2967Y-2.8598
X5.3068Y-1.8266
X5.3068Y-2.4266
X5.315Y-3.0848
X5.315Y-3.3848
X5.315Y-3.4598
X5.3186Y-4.2401
X5.3261Y-2.4794
X5.3364Y-4.3266
X5.3541Y-4.4315
X5.3568Y-1.9266
X5.3568Y-2.0266
X5.3568Y-2.1766
X5.3568Y-2.2766
X5.3568Y-2.3516
X5.3568Y-5.3266
X5.365Y-2.8098
X5.365Y-2.8848
X5.365Y-2.9598
X5.365Y-3.0348
X5.365Y-3.1098
X5.3655Y-3.6644
X5.3719Y-4.4706
X5.4068Y-4.5766
X5.4068Y-4.6766
X5.4068Y-4.7766
X5.4122Y-1.7252
X5.4128Y-1.7983
X5.4128Y-1.8849
X5.4128Y-1.9636
X5.4128Y-2.0463
X5.4128Y-2.129
X5.4128Y-2.2077
X5.4128Y-2.2786
X5.4128Y-2.3573
X5.4128Y-2.4794
X5.4128Y-2.566
X5.4128Y-2.6447
X5.4128Y-2.7274
X5.4128Y-2.8022
X5.4128Y-2.8809
X5.4128Y-2.9518
X5.4142Y-2.4173
X5.4142Y-3.0244
X5.4157Y-3.6642
X5.4285Y-4.2786
X5.4368Y-4.2266
X5.4368Y-4.3266
X5.4486Y-4.9266
X5.4568Y-4.5766
X5.4568Y-4.6766
X5.4568Y-4.7766
X5.4568Y-5.3266
X5.465Y-2.0868
X5.465Y-2.2868
X5.465Y-2.4868
X5.465Y-2.6868
X5.474Y-1.7106
X5.4768Y-2.9803
X5.497Y-3.9468
X5.5168Y-3.6866
X5.5348Y-4.1802
X5.5568Y-5.3266
X5.565Y-2.3868
X5.565Y-2.5868
X5.5714Y-4.3601
X5.5768Y-4.5466
X5.5768Y-4.6066
X5.5968Y-4.4966
X5.6168Y-3.6866
X5.6268Y-3.8766
X5.6318Y-4.4766
X5.6368Y-4.1066
X5.6368Y-4.1766
X5.6568Y-5.3266
X5.665Y-2.0868
X5.665Y-2.4868
X5.665Y-2.6868
X5.7168Y-3.6866
X5.74Y-2.0368
X5.74Y-2.0868
X5.7568Y-5.3266
X5.765Y-1.7868
X5.765Y-1.8868
X5.765Y-2.7868
X5.8088Y-4.0581
X5.8104Y-4.1368
X5.8104Y-4.2156
X5.8104Y-4.2943
X5.8104Y-4.3731
X5.8104Y-4.4518
X5.8104Y-4.5266
X5.8104Y-4.6054
X5.8104Y-4.6841
X5.8104Y-4.7628
X5.8104Y-4.8376
X5.8104Y-4.9557
X5.8114Y-4.9008
X5.815Y-2.0118
X5.821Y-3.7735
X5.8568Y-5.3266
X5.865Y-2.6868
X5.865Y-2.8868
X5.89Y-2.0368
X5.89Y-2.0868
X5.9168Y-3.7735
X5.94Y-1.7868
X5.9568Y-4.2266
X5.9568Y-4.3266
X5.9568Y-4.4266
X5.9568Y-4.5266
X5.9568Y-4.6266
X5.9568Y-4.7266
X5.9568Y-4.8266
X5.9568Y-5.3266
X5.965Y-2.1868
X5.965Y-2.4868
X5.965Y-2.5868
X5.965Y-2.7868
X6.041Y-1.9368
X6.0568Y-4.2266
X6.0568Y-4.3266
X6.0568Y-4.4266
X6.0568Y-4.5266
X6.0568Y-4.6266
X6.0568Y-4.7266
X6.0568Y-4.8266
X6.0568Y-5.3266
X6.065Y-2.6868
X6.065Y-2.8868
X6.0668Y-3.7166
X6.0868Y-3.8366
X6.0968Y-3.7666
X6.1132Y-2.3398
X6.1568Y-4.2266
X6.1568Y-4.3266
X6.1568Y-4.4266
X6.1568Y-4.5266
X6.1568Y-4.6266
X6.1568Y-4.7266
X6.1568Y-4.8266
X6.165Y-1.7868
X6.165Y-1.8868
X6.165Y-1.9868
X6.165Y-2.5868
X6.165Y-2.7868
X6.1805Y-2.2707
X6.1869Y-2.3368
X6.2068Y-4.2766
X6.2568Y-4.2266
X6.2568Y-4.2766
X6.2568Y-4.7266
X6.2568Y-4.8266
X6.265Y-2.6868
X6.265Y-2.8868
X6.2907Y-2.1841
X6.3068Y-4.4266
X6.3568Y-4.2266
X6.3568Y-4.3266
X6.3568Y-4.4266
X6.3568Y-4.7266
X6.3568Y-4.8266
X6.365Y-2.4868
X6.393Y-2.2227
X6.393Y-2.3727
X6.4068Y-4.1766
X6.4568Y-4.1266
X6.465Y-2.0618
X6.465Y-2.4618
X6.465Y-2.5868
X6.465Y-2.8868
X6.5068Y-4.1266
X6.5068Y-4.3766
X6.515Y-2.0618
X6.5568Y-4.1266
X6.5568Y-4.3766
X6.565Y-1.7868
X6.565Y-1.9868
X6.565Y-2.0368
X6.565Y-2.4868
X6.565Y-2.5868
X6.565Y-2.8868
X6.5663Y-4.0542
X6.6068Y-4.1766
X6.6068Y-4.3266
X6.6411Y-4.0542
X6.6568Y-3.4266
X6.6568Y-3.5266
X6.6568Y-3.6266
X6.6568Y-3.7266
X6.6568Y-3.8266
X6.6568Y-3.9266
X6.6568Y-4.2266
X6.6568Y-4.3266
X6.6568Y-4.4266
X6.6568Y-4.5266
X6.6568Y-4.6266
X6.6568Y-4.7266
X6.6568Y-4.8266
X6.665Y-1.7868
X6.665Y-1.8868
X6.665Y-2.0868
X6.665Y-2.4368
X6.665Y-2.8868
X6.69Y-2.3335
X6.701Y-2.1368
X6.701Y-2.2368
X6.712Y-4.0542
X6.715Y-2.4368
X6.74Y-2.6118
X6.7568Y-3.4266
X6.7568Y-3.5266
X6.7568Y-3.6266
X6.7568Y-3.7266
X6.7568Y-3.8266
X6.7568Y-3.9266
X6.7568Y-4.2266
X6.7568Y-4.3266
X6.7568Y-4.4266
X6.7568Y-4.5266
X6.7568Y-4.6266
X6.7568Y-4.7266
X6.7568Y-4.8266
X6.765Y-1.7868
X6.765Y-1.8868
X6.765Y-1.9868
X6.765Y-2.6868
X6.765Y-2.7868
X6.765Y-2.8868
X6.7709Y-2.2118
X6.7829Y-2.4368
X6.7868Y-4.0542
X6.79Y-2.6118
X6.8568Y-3.4266
X6.8568Y-3.5266
X6.8568Y-3.6266
X6.8568Y-3.6266
X6.8568Y-3.7266
X6.8568Y-3.8266
X6.8568Y-3.9266
X6.8568Y-4.2266
X6.8568Y-4.3266
X6.8568Y-4.4266
X6.8568Y-4.5266
X6.8568Y-4.6266
X6.8568Y-4.7266
X6.8568Y-4.8266
X6.8576Y-4.0542
X6.8694Y-1.9439
X6.8694Y-2.0148
X6.8694Y-2.0896
X6.8694Y-2.1605
X6.8694Y-2.2353
X6.8694Y-2.3061
X6.8694Y-2.3809
X6.8694Y-2.4557
X6.8694Y-2.5266
X6.8709Y-1.863
X6.8818Y-3.6016
X6.9068Y-3.5016
X6.9165Y-4.0539
X6.9568Y-1.8766
X6.9568Y-2.4266
X6.9568Y-3.4266
X6.9568Y-3.4766
X6.9568Y-3.9266
X6.9718Y-4.0542
X6.9876Y-4.4676
X6.9876Y-4.5384
X6.9876Y-4.6172
X6.9876Y-4.692
X6.9876Y-4.7628
X6.9876Y-4.8376
X6.9876Y-4.9085
X7.0068Y-2.0266
X7.0068Y-3.5016
X7.0068Y-3.6016
X7.0318Y-3.5516
X7.0568Y-2.0266
X7.0568Y-2.0266
X7.0568Y-2.0766
X7.0568Y-2.1266
X7.0568Y-2.4766
X7.0568Y-3.4266
X7.0568Y-3.5266
X7.0568Y-3.9266
X7.0568Y-4.5266
X7.0568Y-4.5766
X7.0568Y-4.6266
X7.0568Y-4.8766
X7.1068Y-1.9766
X7.1068Y-2.0766
X7.1068Y-2.2766
X7.1068Y-4.5266
X7.1529Y-3.4431
X7.1568Y-1.8766
X7.1568Y-2.1766
X7.1568Y-2.4766
X7.1568Y-3.5266
X7.1568Y-3.8266
X7.1568Y-3.9266
X7.1568Y-4.5266
X7.1568Y-4.8766
X7.1586Y-3.6134
X7.1836Y-3.7377
X7.2068Y-1.9266
X7.2068Y-4.5266
X7.2068Y-4.5766
X7.2068Y-4.6266
X7.2068Y-4.8766
X7.2568Y-2.1766
X7.2568Y-3.4266
X7.2568Y-3.5266
X7.2568Y-3.8266
X7.2568Y-3.8266
X7.2568Y-3.9266
X7.2886Y-3.5812
X7.3068Y-1.9766
X7.3068Y-2.0766
X7.3068Y-2.2766
X7.3068Y-4.5266
X7.3068Y-4.8766
X7.3456Y-3.7156
X7.3568Y-3.4266
X7.3568Y-3.5016
X7.3568Y-3.8266
X7.3568Y-3.9266
X7.3568Y-4.8266
X7.4068Y-1.9266
X7.4068Y-4.5766
X7.4068Y-4.6266
X7.4068Y-4.7766
X7.4068Y-4.8266
X7.4568Y-3.4266
X7.4568Y-3.9266
X7.4568Y-4.6266
X7.4568Y-4.7766
X7.4568Y-4.8266
X7.4936Y-3.6334
X7.4936Y-3.7634
X7.5068Y-4.5266
X7.5068Y-4.8766
X7.5318Y-3.5016
X7.5568Y-3.4266
X7.5568Y-3.9266
X7.6318Y-3.6766
X7.6318Y-3.7516
X7.6568Y-3.4266
X7.6568Y-3.6266
X7.6568Y-3.7266
X7.6568Y-3.8266
X7.6568Y-3.9266
X7.6818Y-3.5016
T3
X4.6462Y-4.3577
X4.6462Y-4.6577
X4.7462Y-4.3577
X4.7462Y-4.6577
X4.8462Y-4.3577
X4.8462Y-4.6577
X4.9462Y-4.3577
X4.9462Y-4.6577
T4
X6.4235Y-4.3695
X6.4235Y-4.468
X6.4235Y-4.5467
X6.4235Y-4.6451
T5
X4.08Y-4.6266
X4.08Y-4.9516
X4.1Y-4.1666
X4.1609Y-2.8252
X4.1609Y-2.9236
X4.1609Y-3.022
X4.1609Y-3.1204
X4.1609Y-3.2189
X4.1609Y-3.3173
X4.1784Y-4.6266
X4.1784Y-4.9516
X4.1984Y-4.1666
X4.2768Y-4.6266
X4.2768Y-4.9516
X4.2968Y-4.1666
X4.5416Y-3.8866
X4.64Y-3.8866
X4.7384Y-3.8866
X4.8168Y-4.9066
X4.8368Y-3.8866
X4.9153Y-4.9066
X5.0137Y-4.9066
X5.1121Y-4.9066
X5.1403Y-4.001
X5.2105Y-4.9066
X5.2387Y-4.001
X5.309Y-4.9066
X5.3372Y-4.001
X5.4356Y-4.001
X5.534Y-4.001
X5.6324Y-4.001
X5.6324Y-4.551
X5.6324Y-4.6494
X5.6324Y-4.7479
X5.6324Y-4.8463
X5.6324Y-4.9447
X5.6324Y-5.0431
X5.8155Y-2.0938
X5.8155Y-2.1922
X5.8155Y-2.2907
X5.8155Y-2.3891
X5.8155Y-2.4875
X5.8155Y-2.5859
X6.222Y-4.3597
X6.222Y-4.4581
X6.222Y-4.5565
X6.222Y-4.655
X6.9517Y-3.5526
X6.9517Y-3.651
X6.9517Y-3.7494
X6.9517Y-3.8479
X6.9849Y-2.087
X6.9849Y-2.1854
X6.9849Y-2.2838
X7.1218Y-4.6061
X7.1218Y-4.7046
X7.1218Y-4.803
T6
X4.2892Y-2.109
X4.2892Y-2.2074
X4.5747Y-2.109
X4.5747Y-2.2074
X4.8597Y-2.9212
X4.8597Y-3.0212
X4.8597Y-3.1212
X4.8597Y-3.2212
X4.8601Y-2.109
X4.8601Y-2.2074
X4.9597Y-2.9212
X4.9597Y-3.0212
X4.9597Y-3.1212
X4.9597Y-3.2212
X4.9792Y-2.6106
X4.9792Y-2.709
X5.0597Y-2.9212
X5.0597Y-3.0212
X5.0597Y-3.1212
X5.0597Y-3.2212
X5.0671Y-3.7274
X5.0671Y-3.8274
X5.1671Y-3.7274
X5.1671Y-3.8274
X5.245Y-3.4298
X5.245Y-3.5282
X5.2671Y-3.7274
X5.2671Y-3.8274
X5.3668Y-5.2293
X5.3671Y-3.7274
X5.3671Y-3.8274
X5.4668Y-5.2293
X5.4671Y-3.7274
X5.4671Y-3.8274
X5.5324Y-4.276
X5.5668Y-5.2293
X5.5671Y-3.7274
X5.5671Y-3.8274
X5.6309Y-4.276
X5.6668Y-5.2293
X5.6671Y-3.7274
X5.6671Y-3.8274
X5.7668Y-5.2293
X5.7671Y-3.7274
X5.7671Y-3.8274
X5.8668Y-5.2293
X5.8671Y-3.7274
X5.8671Y-3.8274
X5.9668Y-5.2293
X5.9671Y-3.7274
X5.9671Y-3.8274
X6.1166Y-2.1848
X6.1166Y-2.4848
X6.215Y-2.1848
X6.215Y-2.4848
X6.465Y-1.8868
X6.465Y-1.9852
X6.465Y-2.6868
X6.465Y-2.7852
T7
X7.2123Y-2.0574
X7.2123Y-2.3134
X7.3894Y-2.0574
X7.3894Y-2.3134
T8
X6.5302Y-4.2445
X6.5302Y-4.7701
T9
X4.0568Y-2.0657
X4.0568Y-2.3574
T10
X5.2111Y-1.9779
X5.2111Y-2.2614
T2
G00X7.4279Y-3.5302
M15
G01X7.4712Y-3.5302
M16
G05
G00X7.4279Y-3.8703
M15
G01X7.4712Y-3.8703
M16
G05
G00X7.6023Y-3.5302
M15
G01X7.6259Y-3.5302
M16
G05
G00X7.6023Y-3.8703
M15
G01X7.6259Y-3.8703
M16
G05
M30
