%TF.GenerationSoftware,KiCad,Pcbnew,9.0.1*%
%TF.CreationDate,2025-04-22T13:02:54+09:00*%
%TF.ProjectId,ORCA_CORE_B,4f524341-5f43-44f5-9245-5f422e6b6963,rev?*%
%TF.SameCoordinates,Original*%
%TF.FileFunction,Legend,Top*%
%TF.FilePolarity,Positive*%
%FSLAX46Y46*%
G04 Gerber Fmt 4.6, Leading zero omitted, Abs format (unit mm)*
G04 Created by KiCad (PCBNEW 9.0.1) date 2025-04-22 13:02:54*
%MOMM*%
%LPD*%
G01*
G04 APERTURE LIST*
%ADD10C,0.500000*%
%ADD11C,0.160000*%
%ADD12C,0.300000*%
%ADD13C,0.150000*%
%ADD14C,0.100000*%
%ADD15C,0.120000*%
G04 APERTURE END LIST*
D10*
X171500000Y-76004000D02*
X171500000Y-76004016D01*
X102614100Y-99999988D02*
X102614100Y-100000000D01*
X179000008Y-84995984D02*
X166500000Y-84995984D01*
X166500000Y-84995984D02*
X166500000Y-102995984D01*
X166500000Y-102995984D02*
X178999992Y-102995984D01*
X186000004Y-102995984D02*
G75*
G02*
X178999992Y-102995984I-3500006J6D01*
G01*
X186000004Y-102995984D02*
X196500000Y-102995984D01*
X196500000Y-102995984D02*
X196500000Y-84995984D01*
X196500000Y-84995984D02*
X185999994Y-84995984D01*
X179000008Y-84995984D02*
G75*
G02*
X185999994Y-84995984I3499993J7D01*
G01*
X185500006Y-112995984D02*
X177500000Y-112995984D01*
X177500000Y-112995984D02*
X177500000Y-125995984D01*
X177500000Y-125995984D02*
X185499996Y-125995984D01*
X192500000Y-125990084D02*
G75*
G02*
X185499995Y-125995984I-3500000J-5916D01*
G01*
X192500000Y-125990084D02*
X192500000Y-112995984D01*
X185500006Y-112995984D02*
G75*
G02*
X192500000Y-112995984I3499997J3D01*
G01*
X153000008Y-102995984D02*
X147500000Y-102995984D01*
X147500000Y-102995984D02*
X147500000Y-125995984D01*
X147500000Y-125995984D02*
X152999992Y-125995984D01*
X160000004Y-125995984D02*
G75*
G02*
X152999992Y-125995984I-3500006J6D01*
G01*
X160000004Y-125995984D02*
X177500000Y-125995984D01*
X177500000Y-125995984D02*
X177500000Y-102995984D01*
X177500000Y-102995984D02*
X159999994Y-102995984D01*
X153000008Y-102995984D02*
G75*
G02*
X159999994Y-102995984I3499993J7D01*
G01*
X102614100Y-100000000D02*
X102500000Y-100000000D01*
X150509486Y-99204016D02*
X153127841Y-99204016D01*
X147500000Y-127795984D02*
X147500000Y-102204000D01*
X153922159Y-130795984D02*
X150500000Y-130795984D01*
X115375218Y-93405901D02*
G75*
G02*
X116875150Y-93004036I1499782J-2597699D01*
G01*
X153421800Y-93004016D02*
G75*
G02*
X154729440Y-98703997I0J-2999984D01*
G01*
X147500000Y-102204000D02*
G75*
G02*
X150509486Y-99204015I3000000J0D01*
G01*
X150500000Y-130795984D02*
G75*
G02*
X147500016Y-127795984I0J2999984D01*
G01*
X155523037Y-131583935D02*
G75*
G02*
X153724301Y-136995985I-1783837J-2412065D01*
G01*
X154729449Y-98704016D02*
G75*
G02*
X153525000Y-99108031I-2179449J4500016D01*
G01*
X153127841Y-99204016D02*
G75*
G02*
X153525000Y-99108031I1371759J-4806284D01*
G01*
X153922159Y-130795984D02*
G75*
G02*
X155523044Y-131583925I-1372159J-4808116D01*
G01*
X131954400Y-136995984D02*
G75*
G02*
X127185349Y-133497995I0J4999984D01*
G01*
X122416300Y-130000000D02*
G75*
G02*
X127185364Y-133497990I0J-5000000D01*
G01*
X153421800Y-93004016D02*
X116875150Y-93004016D01*
X131954400Y-136995984D02*
X153724301Y-136995984D01*
X102500000Y-130000000D02*
X122416300Y-130000000D01*
X115375218Y-93405901D02*
X105114244Y-99330077D01*
X97500000Y-105000000D02*
X97500000Y-125000000D01*
X102500000Y-130000000D02*
G75*
G02*
X97500000Y-125000000I0J5000000D01*
G01*
X105114244Y-99330077D02*
G75*
G02*
X102614100Y-100000015I-2500144J4330177D01*
G01*
X97500000Y-105000000D02*
G75*
G02*
X102500000Y-100000000I5000000J0D01*
G01*
X97500000Y-93004016D02*
X137500000Y-93004016D01*
X137500000Y-93004016D02*
X137500000Y-63004016D01*
X137500000Y-63004016D02*
X97500000Y-63004016D01*
X97500000Y-63004016D02*
X97500000Y-93004016D01*
X171500000Y-43004016D02*
X140509797Y-43004016D01*
X174500000Y-73004000D02*
X174500000Y-46004016D01*
X140500000Y-76004016D02*
X171500000Y-76004016D01*
X137500000Y-46004000D02*
X137500000Y-72994835D01*
X171500000Y-43004016D02*
G75*
G02*
X174499984Y-46004016I0J-2999984D01*
G01*
X174500000Y-73004000D02*
G75*
G02*
X171500000Y-76004000I-3000000J0D01*
G01*
X140500000Y-76004016D02*
G75*
G02*
X137499998Y-72994835I0J3000016D01*
G01*
X137500000Y-46004000D02*
G75*
G02*
X140509797Y-43004016I3000000J0D01*
G01*
X97500000Y-63004016D02*
X137500000Y-63004016D01*
X137500000Y-63004016D02*
X137500000Y-43004016D01*
X137500000Y-43004016D02*
X97500000Y-43004016D01*
X97500000Y-43004016D02*
X97500000Y-63004016D01*
X189500000Y-64504020D02*
X189500000Y-46512774D01*
X182499995Y-46504016D02*
G75*
G02*
X189499994Y-46512774I3500005J16D01*
G01*
X182499995Y-46504016D02*
X174500000Y-46504016D01*
X174500000Y-46504016D02*
X174500000Y-64504016D01*
X174500000Y-64504016D02*
X182500007Y-64504016D01*
X189500000Y-64504020D02*
G75*
G02*
X182500000Y-64504016I-3500000J20D01*
G01*
X102614100Y-99999988D02*
X102614100Y-100000000D01*
X171500000Y-76004000D02*
X171500000Y-76004016D01*
X179000008Y-84995984D02*
X166500000Y-84995984D01*
X166500000Y-84995984D02*
X166500000Y-102995984D01*
X166500000Y-102995984D02*
X178999996Y-102995984D01*
X186000004Y-102995984D02*
G75*
G02*
X178999996Y-102995984I-3500004J4D01*
G01*
X186000004Y-102995984D02*
X196500000Y-102995984D01*
X196500000Y-102995984D02*
X196500000Y-84995984D01*
X196500000Y-84995984D02*
X185999994Y-84995984D01*
X179000008Y-84995984D02*
G75*
G02*
X185999994Y-84995984I3499993J7D01*
G01*
X185500006Y-112995984D02*
X177500000Y-112995984D01*
X177500000Y-112995984D02*
X177500000Y-125995984D01*
X177500000Y-125995984D02*
X185499996Y-125995984D01*
X192500000Y-125990084D02*
G75*
G02*
X185499995Y-125995984I-3500000J-5916D01*
G01*
X192500000Y-125990084D02*
X192500000Y-112995984D01*
X185500006Y-112995984D02*
G75*
G02*
X192500000Y-112995984I3499997J3D01*
G01*
X153000008Y-102995984D02*
X147500000Y-102995984D01*
X147500000Y-102995984D02*
X147500000Y-125995984D01*
X147500000Y-125995984D02*
X152999996Y-125995984D01*
X160000004Y-125995984D02*
G75*
G02*
X152999996Y-125995984I-3500004J4D01*
G01*
X160000004Y-125995984D02*
X177500000Y-125995984D01*
X177500000Y-125995984D02*
X177500000Y-102995984D01*
X177500000Y-102995984D02*
X159999994Y-102995984D01*
X153000008Y-102995984D02*
G75*
G02*
X159999994Y-102995984I3499993J7D01*
G01*
X102614100Y-100000000D02*
X102500000Y-100000000D01*
X150509797Y-99204016D02*
X153127841Y-99204016D01*
X147500000Y-127795984D02*
X147500000Y-102204000D01*
X153922159Y-130795984D02*
X150500000Y-130795984D01*
X115375218Y-93405901D02*
G75*
G02*
X116875150Y-93004036I1499782J-2597699D01*
G01*
X153421800Y-93004016D02*
G75*
G02*
X154729440Y-98703997I0J-2999984D01*
G01*
X147500000Y-102204000D02*
G75*
G02*
X150509797Y-99204016I3000000J0D01*
G01*
X150500000Y-130795984D02*
G75*
G02*
X147500016Y-127795984I0J2999984D01*
G01*
X155523037Y-131583935D02*
G75*
G02*
X153724301Y-136995985I-1783837J-2412065D01*
G01*
X154729449Y-98704016D02*
G75*
G02*
X153525000Y-99108031I-2179449J4500016D01*
G01*
X153127841Y-99204016D02*
G75*
G02*
X153525000Y-99108031I1371759J-4806284D01*
G01*
X153922159Y-130795984D02*
G75*
G02*
X155523044Y-131583925I-1372159J-4808116D01*
G01*
X131954400Y-136995984D02*
G75*
G02*
X127185349Y-133497995I0J4999984D01*
G01*
X122416300Y-130000000D02*
G75*
G02*
X127185364Y-133497990I0J-5000000D01*
G01*
X153421800Y-93004016D02*
X116875150Y-93004016D01*
X131954400Y-136995984D02*
X153724301Y-136995984D01*
X102500000Y-130000000D02*
X122416300Y-130000000D01*
X115375218Y-93405901D02*
X105114158Y-99330127D01*
X97500000Y-105000000D02*
X97500000Y-125000000D01*
X102500000Y-130000000D02*
G75*
G02*
X97500000Y-125000000I0J5000000D01*
G01*
X105114158Y-99330127D02*
G75*
G02*
X102614100Y-100000016I-2500058J4330227D01*
G01*
X97500000Y-105000000D02*
G75*
G02*
X102500000Y-100000000I5000000J0D01*
G01*
X97500000Y-93004016D02*
X137500000Y-93004016D01*
X137500000Y-93004016D02*
X137500000Y-63004016D01*
X137500000Y-63004016D02*
X97500000Y-63004016D01*
X97500000Y-63004016D02*
X97500000Y-93004016D01*
X171500000Y-43004016D02*
X140509797Y-43004016D01*
X174500000Y-73004000D02*
X174500000Y-46004016D01*
X140500000Y-76004016D02*
X171500000Y-76004016D01*
X137500000Y-46004000D02*
X137500000Y-72994835D01*
X171500000Y-43004016D02*
G75*
G02*
X174499984Y-46004016I0J-2999984D01*
G01*
X174500000Y-73004000D02*
G75*
G02*
X171500000Y-76004000I-3000000J0D01*
G01*
X140500000Y-76004016D02*
G75*
G02*
X137499998Y-72994835I0J3000016D01*
G01*
X137500000Y-46004000D02*
G75*
G02*
X140509797Y-43004016I3000000J0D01*
G01*
X97500000Y-63004016D02*
X137500000Y-63004016D01*
X137500000Y-63004016D02*
X137500000Y-43004016D01*
X137500000Y-43004016D02*
X97500000Y-43004016D01*
X97500000Y-43004016D02*
X97500000Y-63004016D01*
X189500000Y-64504020D02*
X189500000Y-46510480D01*
X182500001Y-46504016D02*
G75*
G02*
X189499993Y-46510480I3499999J16D01*
G01*
X182500001Y-46504016D02*
X174500000Y-46504016D01*
X174500000Y-46504016D02*
X174500000Y-64504016D01*
X174500000Y-64504016D02*
X182500007Y-64504016D01*
X189500000Y-64504020D02*
G75*
G02*
X182500000Y-64504016I-3500000J20D01*
G01*
D11*
X179860653Y-97269759D02*
X179479701Y-97269759D01*
X179479701Y-97269759D02*
X179441605Y-97650711D01*
X179441605Y-97650711D02*
X179479701Y-97612616D01*
X179479701Y-97612616D02*
X179555891Y-97574521D01*
X179555891Y-97574521D02*
X179746367Y-97574521D01*
X179746367Y-97574521D02*
X179822558Y-97612616D01*
X179822558Y-97612616D02*
X179860653Y-97650711D01*
X179860653Y-97650711D02*
X179898748Y-97726902D01*
X179898748Y-97726902D02*
X179898748Y-97917378D01*
X179898748Y-97917378D02*
X179860653Y-97993568D01*
X179860653Y-97993568D02*
X179822558Y-98031664D01*
X179822558Y-98031664D02*
X179746367Y-98069759D01*
X179746367Y-98069759D02*
X179555891Y-98069759D01*
X179555891Y-98069759D02*
X179479701Y-98031664D01*
X179479701Y-98031664D02*
X179441605Y-97993568D01*
X180127320Y-97269759D02*
X180393987Y-98069759D01*
X180393987Y-98069759D02*
X180660653Y-97269759D01*
X150498748Y-52807854D02*
X150422558Y-52769759D01*
X150422558Y-52769759D02*
X150308272Y-52769759D01*
X150308272Y-52769759D02*
X150193986Y-52807854D01*
X150193986Y-52807854D02*
X150117796Y-52884044D01*
X150117796Y-52884044D02*
X150079701Y-52960235D01*
X150079701Y-52960235D02*
X150041605Y-53112616D01*
X150041605Y-53112616D02*
X150041605Y-53226902D01*
X150041605Y-53226902D02*
X150079701Y-53379283D01*
X150079701Y-53379283D02*
X150117796Y-53455473D01*
X150117796Y-53455473D02*
X150193986Y-53531664D01*
X150193986Y-53531664D02*
X150308272Y-53569759D01*
X150308272Y-53569759D02*
X150384463Y-53569759D01*
X150384463Y-53569759D02*
X150498748Y-53531664D01*
X150498748Y-53531664D02*
X150536844Y-53493568D01*
X150536844Y-53493568D02*
X150536844Y-53226902D01*
X150536844Y-53226902D02*
X150384463Y-53226902D01*
X150879701Y-53569759D02*
X150879701Y-52769759D01*
X150879701Y-52769759D02*
X151336844Y-53569759D01*
X151336844Y-53569759D02*
X151336844Y-52769759D01*
X151717796Y-53569759D02*
X151717796Y-52769759D01*
X151717796Y-52769759D02*
X151908272Y-52769759D01*
X151908272Y-52769759D02*
X152022558Y-52807854D01*
X152022558Y-52807854D02*
X152098748Y-52884044D01*
X152098748Y-52884044D02*
X152136843Y-52960235D01*
X152136843Y-52960235D02*
X152174939Y-53112616D01*
X152174939Y-53112616D02*
X152174939Y-53226902D01*
X152174939Y-53226902D02*
X152136843Y-53379283D01*
X152136843Y-53379283D02*
X152098748Y-53455473D01*
X152098748Y-53455473D02*
X152022558Y-53531664D01*
X152022558Y-53531664D02*
X151908272Y-53569759D01*
X151908272Y-53569759D02*
X151717796Y-53569759D01*
D12*
X181184790Y-57347441D02*
X180470504Y-57847441D01*
X181184790Y-58204584D02*
X179684790Y-58204584D01*
X179684790Y-58204584D02*
X179684790Y-57633155D01*
X179684790Y-57633155D02*
X179756219Y-57490298D01*
X179756219Y-57490298D02*
X179827647Y-57418869D01*
X179827647Y-57418869D02*
X179970504Y-57347441D01*
X179970504Y-57347441D02*
X180184790Y-57347441D01*
X180184790Y-57347441D02*
X180327647Y-57418869D01*
X180327647Y-57418869D02*
X180399076Y-57490298D01*
X180399076Y-57490298D02*
X180470504Y-57633155D01*
X180470504Y-57633155D02*
X180470504Y-58204584D01*
X180399076Y-56704584D02*
X180399076Y-56204584D01*
X181184790Y-55990298D02*
X181184790Y-56704584D01*
X181184790Y-56704584D02*
X179684790Y-56704584D01*
X179684790Y-56704584D02*
X179684790Y-55990298D01*
X181113362Y-55418869D02*
X181184790Y-55204584D01*
X181184790Y-55204584D02*
X181184790Y-54847441D01*
X181184790Y-54847441D02*
X181113362Y-54704584D01*
X181113362Y-54704584D02*
X181041933Y-54633155D01*
X181041933Y-54633155D02*
X180899076Y-54561726D01*
X180899076Y-54561726D02*
X180756219Y-54561726D01*
X180756219Y-54561726D02*
X180613362Y-54633155D01*
X180613362Y-54633155D02*
X180541933Y-54704584D01*
X180541933Y-54704584D02*
X180470504Y-54847441D01*
X180470504Y-54847441D02*
X180399076Y-55133155D01*
X180399076Y-55133155D02*
X180327647Y-55276012D01*
X180327647Y-55276012D02*
X180256219Y-55347441D01*
X180256219Y-55347441D02*
X180113362Y-55418869D01*
X180113362Y-55418869D02*
X179970504Y-55418869D01*
X179970504Y-55418869D02*
X179827647Y-55347441D01*
X179827647Y-55347441D02*
X179756219Y-55276012D01*
X179756219Y-55276012D02*
X179684790Y-55133155D01*
X179684790Y-55133155D02*
X179684790Y-54776012D01*
X179684790Y-54776012D02*
X179756219Y-54561726D01*
X180399076Y-53918870D02*
X180399076Y-53418870D01*
X181184790Y-53204584D02*
X181184790Y-53918870D01*
X181184790Y-53918870D02*
X179684790Y-53918870D01*
X179684790Y-53918870D02*
X179684790Y-53204584D01*
X179684790Y-52776012D02*
X179684790Y-51918870D01*
X181184790Y-52347441D02*
X179684790Y-52347441D01*
X102681330Y-102376812D02*
X102681330Y-100876812D01*
X102681330Y-102305384D02*
X102538472Y-102376812D01*
X102538472Y-102376812D02*
X102252758Y-102376812D01*
X102252758Y-102376812D02*
X102109901Y-102305384D01*
X102109901Y-102305384D02*
X102038472Y-102233955D01*
X102038472Y-102233955D02*
X101967044Y-102091098D01*
X101967044Y-102091098D02*
X101967044Y-101662526D01*
X101967044Y-101662526D02*
X102038472Y-101519669D01*
X102038472Y-101519669D02*
X102109901Y-101448241D01*
X102109901Y-101448241D02*
X102252758Y-101376812D01*
X102252758Y-101376812D02*
X102538472Y-101376812D01*
X102538472Y-101376812D02*
X102681330Y-101448241D01*
X104038473Y-102376812D02*
X104038473Y-101591098D01*
X104038473Y-101591098D02*
X103967044Y-101448241D01*
X103967044Y-101448241D02*
X103824187Y-101376812D01*
X103824187Y-101376812D02*
X103538473Y-101376812D01*
X103538473Y-101376812D02*
X103395615Y-101448241D01*
X104038473Y-102305384D02*
X103895615Y-102376812D01*
X103895615Y-102376812D02*
X103538473Y-102376812D01*
X103538473Y-102376812D02*
X103395615Y-102305384D01*
X103395615Y-102305384D02*
X103324187Y-102162526D01*
X103324187Y-102162526D02*
X103324187Y-102019669D01*
X103324187Y-102019669D02*
X103395615Y-101876812D01*
X103395615Y-101876812D02*
X103538473Y-101805384D01*
X103538473Y-101805384D02*
X103895615Y-101805384D01*
X103895615Y-101805384D02*
X104038473Y-101733955D01*
X104538473Y-101376812D02*
X105109901Y-101376812D01*
X104752758Y-100876812D02*
X104752758Y-102162526D01*
X104752758Y-102162526D02*
X104824187Y-102305384D01*
X104824187Y-102305384D02*
X104967044Y-102376812D01*
X104967044Y-102376812D02*
X105109901Y-102376812D01*
X106252759Y-102376812D02*
X106252759Y-101591098D01*
X106252759Y-101591098D02*
X106181330Y-101448241D01*
X106181330Y-101448241D02*
X106038473Y-101376812D01*
X106038473Y-101376812D02*
X105752759Y-101376812D01*
X105752759Y-101376812D02*
X105609901Y-101448241D01*
X106252759Y-102305384D02*
X106109901Y-102376812D01*
X106109901Y-102376812D02*
X105752759Y-102376812D01*
X105752759Y-102376812D02*
X105609901Y-102305384D01*
X105609901Y-102305384D02*
X105538473Y-102162526D01*
X105538473Y-102162526D02*
X105538473Y-102019669D01*
X105538473Y-102019669D02*
X105609901Y-101876812D01*
X105609901Y-101876812D02*
X105752759Y-101805384D01*
X105752759Y-101805384D02*
X106109901Y-101805384D01*
X106109901Y-101805384D02*
X106252759Y-101733955D01*
X108324187Y-102376812D02*
X108181330Y-102305384D01*
X108181330Y-102305384D02*
X108109901Y-102162526D01*
X108109901Y-102162526D02*
X108109901Y-100876812D01*
X108895615Y-102376812D02*
X108895615Y-101376812D01*
X108895615Y-100876812D02*
X108824187Y-100948241D01*
X108824187Y-100948241D02*
X108895615Y-101019669D01*
X108895615Y-101019669D02*
X108967044Y-100948241D01*
X108967044Y-100948241D02*
X108895615Y-100876812D01*
X108895615Y-100876812D02*
X108895615Y-101019669D01*
X109609901Y-101376812D02*
X109609901Y-102376812D01*
X109609901Y-101519669D02*
X109681330Y-101448241D01*
X109681330Y-101448241D02*
X109824187Y-101376812D01*
X109824187Y-101376812D02*
X110038473Y-101376812D01*
X110038473Y-101376812D02*
X110181330Y-101448241D01*
X110181330Y-101448241D02*
X110252759Y-101591098D01*
X110252759Y-101591098D02*
X110252759Y-102376812D01*
X111538473Y-102305384D02*
X111395616Y-102376812D01*
X111395616Y-102376812D02*
X111109902Y-102376812D01*
X111109902Y-102376812D02*
X110967044Y-102305384D01*
X110967044Y-102305384D02*
X110895616Y-102162526D01*
X110895616Y-102162526D02*
X110895616Y-101591098D01*
X110895616Y-101591098D02*
X110967044Y-101448241D01*
X110967044Y-101448241D02*
X111109902Y-101376812D01*
X111109902Y-101376812D02*
X111395616Y-101376812D01*
X111395616Y-101376812D02*
X111538473Y-101448241D01*
X111538473Y-101448241D02*
X111609902Y-101591098D01*
X111609902Y-101591098D02*
X111609902Y-101733955D01*
X111609902Y-101733955D02*
X110895616Y-101876812D01*
D11*
X153722558Y-44636425D02*
X153722558Y-45169759D01*
X153379701Y-44636425D02*
X153379701Y-45055473D01*
X153379701Y-45055473D02*
X153417796Y-45131664D01*
X153417796Y-45131664D02*
X153493986Y-45169759D01*
X153493986Y-45169759D02*
X153608272Y-45169759D01*
X153608272Y-45169759D02*
X153684463Y-45131664D01*
X153684463Y-45131664D02*
X153722558Y-45093568D01*
X154103511Y-44636425D02*
X154103511Y-45436425D01*
X154103511Y-44674521D02*
X154179701Y-44636425D01*
X154179701Y-44636425D02*
X154332082Y-44636425D01*
X154332082Y-44636425D02*
X154408273Y-44674521D01*
X154408273Y-44674521D02*
X154446368Y-44712616D01*
X154446368Y-44712616D02*
X154484463Y-44788806D01*
X154484463Y-44788806D02*
X154484463Y-45017378D01*
X154484463Y-45017378D02*
X154446368Y-45093568D01*
X154446368Y-45093568D02*
X154408273Y-45131664D01*
X154408273Y-45131664D02*
X154332082Y-45169759D01*
X154332082Y-45169759D02*
X154179701Y-45169759D01*
X154179701Y-45169759D02*
X154103511Y-45131664D01*
X154827321Y-44636425D02*
X154827321Y-45436425D01*
X154827321Y-44674521D02*
X154903511Y-44636425D01*
X154903511Y-44636425D02*
X155055892Y-44636425D01*
X155055892Y-44636425D02*
X155132083Y-44674521D01*
X155132083Y-44674521D02*
X155170178Y-44712616D01*
X155170178Y-44712616D02*
X155208273Y-44788806D01*
X155208273Y-44788806D02*
X155208273Y-45017378D01*
X155208273Y-45017378D02*
X155170178Y-45093568D01*
X155170178Y-45093568D02*
X155132083Y-45131664D01*
X155132083Y-45131664D02*
X155055892Y-45169759D01*
X155055892Y-45169759D02*
X154903511Y-45169759D01*
X154903511Y-45169759D02*
X154827321Y-45131664D01*
X155855893Y-45131664D02*
X155779702Y-45169759D01*
X155779702Y-45169759D02*
X155627321Y-45169759D01*
X155627321Y-45169759D02*
X155551131Y-45131664D01*
X155551131Y-45131664D02*
X155513035Y-45055473D01*
X155513035Y-45055473D02*
X155513035Y-44750711D01*
X155513035Y-44750711D02*
X155551131Y-44674521D01*
X155551131Y-44674521D02*
X155627321Y-44636425D01*
X155627321Y-44636425D02*
X155779702Y-44636425D01*
X155779702Y-44636425D02*
X155855893Y-44674521D01*
X155855893Y-44674521D02*
X155893988Y-44750711D01*
X155893988Y-44750711D02*
X155893988Y-44826902D01*
X155893988Y-44826902D02*
X155513035Y-44903092D01*
X156236845Y-45169759D02*
X156236845Y-44636425D01*
X156236845Y-44788806D02*
X156274940Y-44712616D01*
X156274940Y-44712616D02*
X156313035Y-44674521D01*
X156313035Y-44674521D02*
X156389226Y-44636425D01*
X156389226Y-44636425D02*
X156465416Y-44636425D01*
X157455892Y-45169759D02*
X157379702Y-45131664D01*
X157379702Y-45131664D02*
X157341607Y-45055473D01*
X157341607Y-45055473D02*
X157341607Y-44369759D01*
X157760655Y-45169759D02*
X157760655Y-44636425D01*
X157760655Y-44369759D02*
X157722559Y-44407854D01*
X157722559Y-44407854D02*
X157760655Y-44445949D01*
X157760655Y-44445949D02*
X157798750Y-44407854D01*
X157798750Y-44407854D02*
X157760655Y-44369759D01*
X157760655Y-44369759D02*
X157760655Y-44445949D01*
X158141607Y-45169759D02*
X158141607Y-44636425D01*
X158141607Y-44712616D02*
X158179702Y-44674521D01*
X158179702Y-44674521D02*
X158255892Y-44636425D01*
X158255892Y-44636425D02*
X158370178Y-44636425D01*
X158370178Y-44636425D02*
X158446369Y-44674521D01*
X158446369Y-44674521D02*
X158484464Y-44750711D01*
X158484464Y-44750711D02*
X158484464Y-45169759D01*
X158484464Y-44750711D02*
X158522559Y-44674521D01*
X158522559Y-44674521D02*
X158598750Y-44636425D01*
X158598750Y-44636425D02*
X158713035Y-44636425D01*
X158713035Y-44636425D02*
X158789226Y-44674521D01*
X158789226Y-44674521D02*
X158827321Y-44750711D01*
X158827321Y-44750711D02*
X158827321Y-45169759D01*
X159208274Y-45169759D02*
X159208274Y-44636425D01*
X159208274Y-44369759D02*
X159170178Y-44407854D01*
X159170178Y-44407854D02*
X159208274Y-44445949D01*
X159208274Y-44445949D02*
X159246369Y-44407854D01*
X159246369Y-44407854D02*
X159208274Y-44369759D01*
X159208274Y-44369759D02*
X159208274Y-44445949D01*
X159474940Y-44636425D02*
X159779702Y-44636425D01*
X159589226Y-44369759D02*
X159589226Y-45055473D01*
X159589226Y-45055473D02*
X159627321Y-45131664D01*
X159627321Y-45131664D02*
X159703511Y-45169759D01*
X159703511Y-45169759D02*
X159779702Y-45169759D01*
X162165415Y-43769759D02*
X162432082Y-44569759D01*
X162432082Y-44569759D02*
X162698748Y-43769759D01*
X162965415Y-44569759D02*
X162965415Y-44036425D01*
X162965415Y-43769759D02*
X162927319Y-43807854D01*
X162927319Y-43807854D02*
X162965415Y-43845949D01*
X162965415Y-43845949D02*
X163003510Y-43807854D01*
X163003510Y-43807854D02*
X162965415Y-43769759D01*
X162965415Y-43769759D02*
X162965415Y-43845949D01*
X163346367Y-44036425D02*
X163346367Y-44569759D01*
X163346367Y-44112616D02*
X163384462Y-44074521D01*
X163384462Y-44074521D02*
X163460652Y-44036425D01*
X163460652Y-44036425D02*
X163574938Y-44036425D01*
X163574938Y-44036425D02*
X163651129Y-44074521D01*
X163651129Y-44074521D02*
X163689224Y-44150711D01*
X163689224Y-44150711D02*
X163689224Y-44569759D01*
D12*
X136884790Y-117678616D02*
X136099076Y-117678616D01*
X136099076Y-117678616D02*
X135956219Y-117750044D01*
X135956219Y-117750044D02*
X135884790Y-117892901D01*
X135884790Y-117892901D02*
X135884790Y-118178616D01*
X135884790Y-118178616D02*
X135956219Y-118321473D01*
X136813362Y-117678616D02*
X136884790Y-117821473D01*
X136884790Y-117821473D02*
X136884790Y-118178616D01*
X136884790Y-118178616D02*
X136813362Y-118321473D01*
X136813362Y-118321473D02*
X136670504Y-118392901D01*
X136670504Y-118392901D02*
X136527647Y-118392901D01*
X136527647Y-118392901D02*
X136384790Y-118321473D01*
X136384790Y-118321473D02*
X136313362Y-118178616D01*
X136313362Y-118178616D02*
X136313362Y-117821473D01*
X136313362Y-117821473D02*
X136241933Y-117678616D01*
X136884790Y-116964330D02*
X135884790Y-116964330D01*
X136170504Y-116964330D02*
X136027647Y-116892901D01*
X136027647Y-116892901D02*
X135956219Y-116821473D01*
X135956219Y-116821473D02*
X135884790Y-116678615D01*
X135884790Y-116678615D02*
X135884790Y-116535758D01*
X136884790Y-116035759D02*
X135884790Y-116035759D01*
X136027647Y-116035759D02*
X135956219Y-115964330D01*
X135956219Y-115964330D02*
X135884790Y-115821473D01*
X135884790Y-115821473D02*
X135884790Y-115607187D01*
X135884790Y-115607187D02*
X135956219Y-115464330D01*
X135956219Y-115464330D02*
X136099076Y-115392902D01*
X136099076Y-115392902D02*
X136884790Y-115392902D01*
X136099076Y-115392902D02*
X135956219Y-115321473D01*
X135956219Y-115321473D02*
X135884790Y-115178616D01*
X135884790Y-115178616D02*
X135884790Y-114964330D01*
X135884790Y-114964330D02*
X135956219Y-114821473D01*
X135956219Y-114821473D02*
X136099076Y-114750044D01*
X136099076Y-114750044D02*
X136884790Y-114750044D01*
X136813362Y-112321473D02*
X136884790Y-112464330D01*
X136884790Y-112464330D02*
X136884790Y-112750045D01*
X136884790Y-112750045D02*
X136813362Y-112892902D01*
X136813362Y-112892902D02*
X136670504Y-112964330D01*
X136670504Y-112964330D02*
X136099076Y-112964330D01*
X136099076Y-112964330D02*
X135956219Y-112892902D01*
X135956219Y-112892902D02*
X135884790Y-112750045D01*
X135884790Y-112750045D02*
X135884790Y-112464330D01*
X135884790Y-112464330D02*
X135956219Y-112321473D01*
X135956219Y-112321473D02*
X136099076Y-112250045D01*
X136099076Y-112250045D02*
X136241933Y-112250045D01*
X136241933Y-112250045D02*
X136384790Y-112964330D01*
X135884790Y-111607188D02*
X136884790Y-111607188D01*
X136027647Y-111607188D02*
X135956219Y-111535759D01*
X135956219Y-111535759D02*
X135884790Y-111392902D01*
X135884790Y-111392902D02*
X135884790Y-111178616D01*
X135884790Y-111178616D02*
X135956219Y-111035759D01*
X135956219Y-111035759D02*
X136099076Y-110964331D01*
X136099076Y-110964331D02*
X136884790Y-110964331D01*
X136884790Y-109607188D02*
X136099076Y-109607188D01*
X136099076Y-109607188D02*
X135956219Y-109678616D01*
X135956219Y-109678616D02*
X135884790Y-109821473D01*
X135884790Y-109821473D02*
X135884790Y-110107188D01*
X135884790Y-110107188D02*
X135956219Y-110250045D01*
X136813362Y-109607188D02*
X136884790Y-109750045D01*
X136884790Y-109750045D02*
X136884790Y-110107188D01*
X136884790Y-110107188D02*
X136813362Y-110250045D01*
X136813362Y-110250045D02*
X136670504Y-110321473D01*
X136670504Y-110321473D02*
X136527647Y-110321473D01*
X136527647Y-110321473D02*
X136384790Y-110250045D01*
X136384790Y-110250045D02*
X136313362Y-110107188D01*
X136313362Y-110107188D02*
X136313362Y-109750045D01*
X136313362Y-109750045D02*
X136241933Y-109607188D01*
X136884790Y-108892902D02*
X135384790Y-108892902D01*
X135956219Y-108892902D02*
X135884790Y-108750045D01*
X135884790Y-108750045D02*
X135884790Y-108464330D01*
X135884790Y-108464330D02*
X135956219Y-108321473D01*
X135956219Y-108321473D02*
X136027647Y-108250045D01*
X136027647Y-108250045D02*
X136170504Y-108178616D01*
X136170504Y-108178616D02*
X136599076Y-108178616D01*
X136599076Y-108178616D02*
X136741933Y-108250045D01*
X136741933Y-108250045D02*
X136813362Y-108321473D01*
X136813362Y-108321473D02*
X136884790Y-108464330D01*
X136884790Y-108464330D02*
X136884790Y-108750045D01*
X136884790Y-108750045D02*
X136813362Y-108892902D01*
X136884790Y-107321473D02*
X136813362Y-107464330D01*
X136813362Y-107464330D02*
X136670504Y-107535759D01*
X136670504Y-107535759D02*
X135384790Y-107535759D01*
X136813362Y-106178616D02*
X136884790Y-106321473D01*
X136884790Y-106321473D02*
X136884790Y-106607188D01*
X136884790Y-106607188D02*
X136813362Y-106750045D01*
X136813362Y-106750045D02*
X136670504Y-106821473D01*
X136670504Y-106821473D02*
X136099076Y-106821473D01*
X136099076Y-106821473D02*
X135956219Y-106750045D01*
X135956219Y-106750045D02*
X135884790Y-106607188D01*
X135884790Y-106607188D02*
X135884790Y-106321473D01*
X135884790Y-106321473D02*
X135956219Y-106178616D01*
X135956219Y-106178616D02*
X136099076Y-106107188D01*
X136099076Y-106107188D02*
X136241933Y-106107188D01*
X136241933Y-106107188D02*
X136384790Y-106821473D01*
X127038472Y-130376812D02*
X127038472Y-129376812D01*
X127038472Y-129519669D02*
X127109901Y-129448241D01*
X127109901Y-129448241D02*
X127252758Y-129376812D01*
X127252758Y-129376812D02*
X127467044Y-129376812D01*
X127467044Y-129376812D02*
X127609901Y-129448241D01*
X127609901Y-129448241D02*
X127681330Y-129591098D01*
X127681330Y-129591098D02*
X127681330Y-130376812D01*
X127681330Y-129591098D02*
X127752758Y-129448241D01*
X127752758Y-129448241D02*
X127895615Y-129376812D01*
X127895615Y-129376812D02*
X128109901Y-129376812D01*
X128109901Y-129376812D02*
X128252758Y-129448241D01*
X128252758Y-129448241D02*
X128324187Y-129591098D01*
X128324187Y-129591098D02*
X128324187Y-130376812D01*
X129681330Y-130376812D02*
X129681330Y-128876812D01*
X129681330Y-130305384D02*
X129538472Y-130376812D01*
X129538472Y-130376812D02*
X129252758Y-130376812D01*
X129252758Y-130376812D02*
X129109901Y-130305384D01*
X129109901Y-130305384D02*
X129038472Y-130233955D01*
X129038472Y-130233955D02*
X128967044Y-130091098D01*
X128967044Y-130091098D02*
X128967044Y-129662526D01*
X128967044Y-129662526D02*
X129038472Y-129519669D01*
X129038472Y-129519669D02*
X129109901Y-129448241D01*
X129109901Y-129448241D02*
X129252758Y-129376812D01*
X129252758Y-129376812D02*
X129538472Y-129376812D01*
X129538472Y-129376812D02*
X129681330Y-129448241D01*
X132181330Y-130376812D02*
X132181330Y-129591098D01*
X132181330Y-129591098D02*
X132109901Y-129448241D01*
X132109901Y-129448241D02*
X131967044Y-129376812D01*
X131967044Y-129376812D02*
X131681330Y-129376812D01*
X131681330Y-129376812D02*
X131538472Y-129448241D01*
X132181330Y-130305384D02*
X132038472Y-130376812D01*
X132038472Y-130376812D02*
X131681330Y-130376812D01*
X131681330Y-130376812D02*
X131538472Y-130305384D01*
X131538472Y-130305384D02*
X131467044Y-130162526D01*
X131467044Y-130162526D02*
X131467044Y-130019669D01*
X131467044Y-130019669D02*
X131538472Y-129876812D01*
X131538472Y-129876812D02*
X131681330Y-129805384D01*
X131681330Y-129805384D02*
X132038472Y-129805384D01*
X132038472Y-129805384D02*
X132181330Y-129733955D01*
X132895615Y-130376812D02*
X132895615Y-129376812D01*
X132895615Y-129662526D02*
X132967044Y-129519669D01*
X132967044Y-129519669D02*
X133038473Y-129448241D01*
X133038473Y-129448241D02*
X133181330Y-129376812D01*
X133181330Y-129376812D02*
X133324187Y-129376812D01*
X133824186Y-130376812D02*
X133824186Y-129376812D01*
X133824186Y-129519669D02*
X133895615Y-129448241D01*
X133895615Y-129448241D02*
X134038472Y-129376812D01*
X134038472Y-129376812D02*
X134252758Y-129376812D01*
X134252758Y-129376812D02*
X134395615Y-129448241D01*
X134395615Y-129448241D02*
X134467044Y-129591098D01*
X134467044Y-129591098D02*
X134467044Y-130376812D01*
X134467044Y-129591098D02*
X134538472Y-129448241D01*
X134538472Y-129448241D02*
X134681329Y-129376812D01*
X134681329Y-129376812D02*
X134895615Y-129376812D01*
X134895615Y-129376812D02*
X135038472Y-129448241D01*
X135038472Y-129448241D02*
X135109901Y-129591098D01*
X135109901Y-129591098D02*
X135109901Y-130376812D01*
D11*
X179365415Y-94969759D02*
X179822558Y-94969759D01*
X179593986Y-95769759D02*
X179593986Y-94969759D01*
X180013034Y-94969759D02*
X180546368Y-95769759D01*
X180546368Y-94969759D02*
X180013034Y-95769759D01*
X180851130Y-95769759D02*
X180851130Y-94969759D01*
X180851130Y-94969759D02*
X181041606Y-94969759D01*
X181041606Y-94969759D02*
X181155892Y-95007854D01*
X181155892Y-95007854D02*
X181232082Y-95084044D01*
X181232082Y-95084044D02*
X181270177Y-95160235D01*
X181270177Y-95160235D02*
X181308273Y-95312616D01*
X181308273Y-95312616D02*
X181308273Y-95426902D01*
X181308273Y-95426902D02*
X181270177Y-95579283D01*
X181270177Y-95579283D02*
X181232082Y-95655473D01*
X181232082Y-95655473D02*
X181155892Y-95731664D01*
X181155892Y-95731664D02*
X181041606Y-95769759D01*
X181041606Y-95769759D02*
X180851130Y-95769759D01*
D12*
X117681330Y-103476812D02*
X117681330Y-104476812D01*
X117038472Y-103476812D02*
X117038472Y-104262526D01*
X117038472Y-104262526D02*
X117109901Y-104405384D01*
X117109901Y-104405384D02*
X117252758Y-104476812D01*
X117252758Y-104476812D02*
X117467044Y-104476812D01*
X117467044Y-104476812D02*
X117609901Y-104405384D01*
X117609901Y-104405384D02*
X117681330Y-104333955D01*
X119038473Y-104476812D02*
X119038473Y-103691098D01*
X119038473Y-103691098D02*
X118967044Y-103548241D01*
X118967044Y-103548241D02*
X118824187Y-103476812D01*
X118824187Y-103476812D02*
X118538473Y-103476812D01*
X118538473Y-103476812D02*
X118395615Y-103548241D01*
X119038473Y-104405384D02*
X118895615Y-104476812D01*
X118895615Y-104476812D02*
X118538473Y-104476812D01*
X118538473Y-104476812D02*
X118395615Y-104405384D01*
X118395615Y-104405384D02*
X118324187Y-104262526D01*
X118324187Y-104262526D02*
X118324187Y-104119669D01*
X118324187Y-104119669D02*
X118395615Y-103976812D01*
X118395615Y-103976812D02*
X118538473Y-103905384D01*
X118538473Y-103905384D02*
X118895615Y-103905384D01*
X118895615Y-103905384D02*
X119038473Y-103833955D01*
X119752758Y-104476812D02*
X119752758Y-103476812D01*
X119752758Y-103762526D02*
X119824187Y-103619669D01*
X119824187Y-103619669D02*
X119895616Y-103548241D01*
X119895616Y-103548241D02*
X120038473Y-103476812D01*
X120038473Y-103476812D02*
X120181330Y-103476812D01*
X120467044Y-103476812D02*
X121038472Y-103476812D01*
X120681329Y-102976812D02*
X120681329Y-104262526D01*
X120681329Y-104262526D02*
X120752758Y-104405384D01*
X120752758Y-104405384D02*
X120895615Y-104476812D01*
X120895615Y-104476812D02*
X121038472Y-104476812D01*
D11*
X164888222Y-74082208D02*
X164888222Y-74882208D01*
X164888222Y-74882208D02*
X164621556Y-74310780D01*
X164621556Y-74310780D02*
X164354889Y-74882208D01*
X164354889Y-74882208D02*
X164354889Y-74082208D01*
X163859651Y-74082208D02*
X163935841Y-74120304D01*
X163935841Y-74120304D02*
X163973936Y-74158399D01*
X163973936Y-74158399D02*
X164012032Y-74234589D01*
X164012032Y-74234589D02*
X164012032Y-74463161D01*
X164012032Y-74463161D02*
X163973936Y-74539351D01*
X163973936Y-74539351D02*
X163935841Y-74577446D01*
X163935841Y-74577446D02*
X163859651Y-74615542D01*
X163859651Y-74615542D02*
X163745365Y-74615542D01*
X163745365Y-74615542D02*
X163669174Y-74577446D01*
X163669174Y-74577446D02*
X163631079Y-74539351D01*
X163631079Y-74539351D02*
X163592984Y-74463161D01*
X163592984Y-74463161D02*
X163592984Y-74234589D01*
X163592984Y-74234589D02*
X163631079Y-74158399D01*
X163631079Y-74158399D02*
X163669174Y-74120304D01*
X163669174Y-74120304D02*
X163745365Y-74082208D01*
X163745365Y-74082208D02*
X163859651Y-74082208D01*
X163364412Y-74615542D02*
X163059650Y-74615542D01*
X163250126Y-74882208D02*
X163250126Y-74196494D01*
X163250126Y-74196494D02*
X163212031Y-74120304D01*
X163212031Y-74120304D02*
X163135841Y-74082208D01*
X163135841Y-74082208D02*
X163059650Y-74082208D01*
X162678698Y-74082208D02*
X162754888Y-74120304D01*
X162754888Y-74120304D02*
X162792983Y-74158399D01*
X162792983Y-74158399D02*
X162831079Y-74234589D01*
X162831079Y-74234589D02*
X162831079Y-74463161D01*
X162831079Y-74463161D02*
X162792983Y-74539351D01*
X162792983Y-74539351D02*
X162754888Y-74577446D01*
X162754888Y-74577446D02*
X162678698Y-74615542D01*
X162678698Y-74615542D02*
X162564412Y-74615542D01*
X162564412Y-74615542D02*
X162488221Y-74577446D01*
X162488221Y-74577446D02*
X162450126Y-74539351D01*
X162450126Y-74539351D02*
X162412031Y-74463161D01*
X162412031Y-74463161D02*
X162412031Y-74234589D01*
X162412031Y-74234589D02*
X162450126Y-74158399D01*
X162450126Y-74158399D02*
X162488221Y-74120304D01*
X162488221Y-74120304D02*
X162564412Y-74082208D01*
X162564412Y-74082208D02*
X162678698Y-74082208D01*
X162069173Y-74082208D02*
X162069173Y-74615542D01*
X162069173Y-74463161D02*
X162031078Y-74539351D01*
X162031078Y-74539351D02*
X161992983Y-74577446D01*
X161992983Y-74577446D02*
X161916792Y-74615542D01*
X161916792Y-74615542D02*
X161840602Y-74615542D01*
D12*
X99984790Y-122221473D02*
X98484790Y-122221473D01*
X98627647Y-121578615D02*
X98556219Y-121507187D01*
X98556219Y-121507187D02*
X98484790Y-121364330D01*
X98484790Y-121364330D02*
X98484790Y-121007187D01*
X98484790Y-121007187D02*
X98556219Y-120864330D01*
X98556219Y-120864330D02*
X98627647Y-120792901D01*
X98627647Y-120792901D02*
X98770504Y-120721472D01*
X98770504Y-120721472D02*
X98913362Y-120721472D01*
X98913362Y-120721472D02*
X99127647Y-120792901D01*
X99127647Y-120792901D02*
X99984790Y-121650044D01*
X99984790Y-121650044D02*
X99984790Y-120721472D01*
X99841933Y-119221473D02*
X99913362Y-119292901D01*
X99913362Y-119292901D02*
X99984790Y-119507187D01*
X99984790Y-119507187D02*
X99984790Y-119650044D01*
X99984790Y-119650044D02*
X99913362Y-119864330D01*
X99913362Y-119864330D02*
X99770504Y-120007187D01*
X99770504Y-120007187D02*
X99627647Y-120078616D01*
X99627647Y-120078616D02*
X99341933Y-120150044D01*
X99341933Y-120150044D02*
X99127647Y-120150044D01*
X99127647Y-120150044D02*
X98841933Y-120078616D01*
X98841933Y-120078616D02*
X98699076Y-120007187D01*
X98699076Y-120007187D02*
X98556219Y-119864330D01*
X98556219Y-119864330D02*
X98484790Y-119650044D01*
X98484790Y-119650044D02*
X98484790Y-119507187D01*
X98484790Y-119507187D02*
X98556219Y-119292901D01*
X98556219Y-119292901D02*
X98627647Y-119221473D01*
D11*
X159345365Y-73915542D02*
X159345365Y-73382208D01*
X159688222Y-73915542D02*
X159688222Y-73496494D01*
X159688222Y-73496494D02*
X159650127Y-73420304D01*
X159650127Y-73420304D02*
X159573937Y-73382208D01*
X159573937Y-73382208D02*
X159459651Y-73382208D01*
X159459651Y-73382208D02*
X159383460Y-73420304D01*
X159383460Y-73420304D02*
X159345365Y-73458399D01*
X158964412Y-73915542D02*
X158964412Y-73382208D01*
X158964412Y-73839351D02*
X158926317Y-73877446D01*
X158926317Y-73877446D02*
X158850127Y-73915542D01*
X158850127Y-73915542D02*
X158735841Y-73915542D01*
X158735841Y-73915542D02*
X158659650Y-73877446D01*
X158659650Y-73877446D02*
X158621555Y-73801256D01*
X158621555Y-73801256D02*
X158621555Y-73382208D01*
X157897745Y-73382208D02*
X157897745Y-74182208D01*
X157897745Y-73420304D02*
X157973936Y-73382208D01*
X157973936Y-73382208D02*
X158126317Y-73382208D01*
X158126317Y-73382208D02*
X158202507Y-73420304D01*
X158202507Y-73420304D02*
X158240602Y-73458399D01*
X158240602Y-73458399D02*
X158278698Y-73534589D01*
X158278698Y-73534589D02*
X158278698Y-73763161D01*
X158278698Y-73763161D02*
X158240602Y-73839351D01*
X158240602Y-73839351D02*
X158202507Y-73877446D01*
X158202507Y-73877446D02*
X158126317Y-73915542D01*
X158126317Y-73915542D02*
X157973936Y-73915542D01*
X157973936Y-73915542D02*
X157897745Y-73877446D01*
X157212030Y-73420304D02*
X157288221Y-73382208D01*
X157288221Y-73382208D02*
X157440602Y-73382208D01*
X157440602Y-73382208D02*
X157516792Y-73420304D01*
X157516792Y-73420304D02*
X157554888Y-73496494D01*
X157554888Y-73496494D02*
X157554888Y-73801256D01*
X157554888Y-73801256D02*
X157516792Y-73877446D01*
X157516792Y-73877446D02*
X157440602Y-73915542D01*
X157440602Y-73915542D02*
X157288221Y-73915542D01*
X157288221Y-73915542D02*
X157212030Y-73877446D01*
X157212030Y-73877446D02*
X157173935Y-73801256D01*
X157173935Y-73801256D02*
X157173935Y-73725065D01*
X157173935Y-73725065D02*
X157554888Y-73648875D01*
X156831078Y-73382208D02*
X156831078Y-73915542D01*
X156831078Y-73763161D02*
X156792983Y-73839351D01*
X156792983Y-73839351D02*
X156754888Y-73877446D01*
X156754888Y-73877446D02*
X156678697Y-73915542D01*
X156678697Y-73915542D02*
X156602507Y-73915542D01*
X155612031Y-73382208D02*
X155688221Y-73420304D01*
X155688221Y-73420304D02*
X155726316Y-73496494D01*
X155726316Y-73496494D02*
X155726316Y-74182208D01*
X155307268Y-73382208D02*
X155307268Y-73915542D01*
X155307268Y-74182208D02*
X155345364Y-74144113D01*
X155345364Y-74144113D02*
X155307268Y-74106018D01*
X155307268Y-74106018D02*
X155269173Y-74144113D01*
X155269173Y-74144113D02*
X155307268Y-74182208D01*
X155307268Y-74182208D02*
X155307268Y-74106018D01*
X154926316Y-73382208D02*
X154926316Y-73915542D01*
X154926316Y-73839351D02*
X154888221Y-73877446D01*
X154888221Y-73877446D02*
X154812031Y-73915542D01*
X154812031Y-73915542D02*
X154697745Y-73915542D01*
X154697745Y-73915542D02*
X154621554Y-73877446D01*
X154621554Y-73877446D02*
X154583459Y-73801256D01*
X154583459Y-73801256D02*
X154583459Y-73382208D01*
X154583459Y-73801256D02*
X154545364Y-73877446D01*
X154545364Y-73877446D02*
X154469173Y-73915542D01*
X154469173Y-73915542D02*
X154354888Y-73915542D01*
X154354888Y-73915542D02*
X154278697Y-73877446D01*
X154278697Y-73877446D02*
X154240602Y-73801256D01*
X154240602Y-73801256D02*
X154240602Y-73382208D01*
X153859649Y-73382208D02*
X153859649Y-73915542D01*
X153859649Y-74182208D02*
X153897745Y-74144113D01*
X153897745Y-74144113D02*
X153859649Y-74106018D01*
X153859649Y-74106018D02*
X153821554Y-74144113D01*
X153821554Y-74144113D02*
X153859649Y-74182208D01*
X153859649Y-74182208D02*
X153859649Y-74106018D01*
X153592983Y-73915542D02*
X153288221Y-73915542D01*
X153478697Y-74182208D02*
X153478697Y-73496494D01*
X153478697Y-73496494D02*
X153440602Y-73420304D01*
X153440602Y-73420304D02*
X153364412Y-73382208D01*
X153364412Y-73382208D02*
X153288221Y-73382208D01*
X179836844Y-93169759D02*
X179570177Y-92788806D01*
X179379701Y-93169759D02*
X179379701Y-92369759D01*
X179379701Y-92369759D02*
X179684463Y-92369759D01*
X179684463Y-92369759D02*
X179760653Y-92407854D01*
X179760653Y-92407854D02*
X179798748Y-92445949D01*
X179798748Y-92445949D02*
X179836844Y-92522140D01*
X179836844Y-92522140D02*
X179836844Y-92636425D01*
X179836844Y-92636425D02*
X179798748Y-92712616D01*
X179798748Y-92712616D02*
X179760653Y-92750711D01*
X179760653Y-92750711D02*
X179684463Y-92788806D01*
X179684463Y-92788806D02*
X179379701Y-92788806D01*
X180103510Y-92369759D02*
X180636844Y-93169759D01*
X180636844Y-92369759D02*
X180103510Y-93169759D01*
X180941606Y-93169759D02*
X180941606Y-92369759D01*
X180941606Y-92369759D02*
X181132082Y-92369759D01*
X181132082Y-92369759D02*
X181246368Y-92407854D01*
X181246368Y-92407854D02*
X181322558Y-92484044D01*
X181322558Y-92484044D02*
X181360653Y-92560235D01*
X181360653Y-92560235D02*
X181398749Y-92712616D01*
X181398749Y-92712616D02*
X181398749Y-92826902D01*
X181398749Y-92826902D02*
X181360653Y-92979283D01*
X181360653Y-92979283D02*
X181322558Y-93055473D01*
X181322558Y-93055473D02*
X181246368Y-93131664D01*
X181246368Y-93131664D02*
X181132082Y-93169759D01*
X181132082Y-93169759D02*
X180941606Y-93169759D01*
D12*
X138884790Y-126278616D02*
X138099076Y-126278616D01*
X138099076Y-126278616D02*
X137956219Y-126350044D01*
X137956219Y-126350044D02*
X137884790Y-126492901D01*
X137884790Y-126492901D02*
X137884790Y-126778616D01*
X137884790Y-126778616D02*
X137956219Y-126921473D01*
X138813362Y-126278616D02*
X138884790Y-126421473D01*
X138884790Y-126421473D02*
X138884790Y-126778616D01*
X138884790Y-126778616D02*
X138813362Y-126921473D01*
X138813362Y-126921473D02*
X138670504Y-126992901D01*
X138670504Y-126992901D02*
X138527647Y-126992901D01*
X138527647Y-126992901D02*
X138384790Y-126921473D01*
X138384790Y-126921473D02*
X138313362Y-126778616D01*
X138313362Y-126778616D02*
X138313362Y-126421473D01*
X138313362Y-126421473D02*
X138241933Y-126278616D01*
X138884790Y-125564330D02*
X137884790Y-125564330D01*
X138170504Y-125564330D02*
X138027647Y-125492901D01*
X138027647Y-125492901D02*
X137956219Y-125421473D01*
X137956219Y-125421473D02*
X137884790Y-125278615D01*
X137884790Y-125278615D02*
X137884790Y-125135758D01*
X138884790Y-124635759D02*
X137884790Y-124635759D01*
X138027647Y-124635759D02*
X137956219Y-124564330D01*
X137956219Y-124564330D02*
X137884790Y-124421473D01*
X137884790Y-124421473D02*
X137884790Y-124207187D01*
X137884790Y-124207187D02*
X137956219Y-124064330D01*
X137956219Y-124064330D02*
X138099076Y-123992902D01*
X138099076Y-123992902D02*
X138884790Y-123992902D01*
X138099076Y-123992902D02*
X137956219Y-123921473D01*
X137956219Y-123921473D02*
X137884790Y-123778616D01*
X137884790Y-123778616D02*
X137884790Y-123564330D01*
X137884790Y-123564330D02*
X137956219Y-123421473D01*
X137956219Y-123421473D02*
X138099076Y-123350044D01*
X138099076Y-123350044D02*
X138884790Y-123350044D01*
X138813362Y-121564330D02*
X138884790Y-121421473D01*
X138884790Y-121421473D02*
X138884790Y-121135759D01*
X138884790Y-121135759D02*
X138813362Y-120992902D01*
X138813362Y-120992902D02*
X138670504Y-120921473D01*
X138670504Y-120921473D02*
X138599076Y-120921473D01*
X138599076Y-120921473D02*
X138456219Y-120992902D01*
X138456219Y-120992902D02*
X138384790Y-121135759D01*
X138384790Y-121135759D02*
X138384790Y-121350045D01*
X138384790Y-121350045D02*
X138313362Y-121492902D01*
X138313362Y-121492902D02*
X138170504Y-121564330D01*
X138170504Y-121564330D02*
X138099076Y-121564330D01*
X138099076Y-121564330D02*
X137956219Y-121492902D01*
X137956219Y-121492902D02*
X137884790Y-121350045D01*
X137884790Y-121350045D02*
X137884790Y-121135759D01*
X137884790Y-121135759D02*
X137956219Y-120992902D01*
X138813362Y-119707187D02*
X138884790Y-119850044D01*
X138884790Y-119850044D02*
X138884790Y-120135759D01*
X138884790Y-120135759D02*
X138813362Y-120278616D01*
X138813362Y-120278616D02*
X138670504Y-120350044D01*
X138670504Y-120350044D02*
X138099076Y-120350044D01*
X138099076Y-120350044D02*
X137956219Y-120278616D01*
X137956219Y-120278616D02*
X137884790Y-120135759D01*
X137884790Y-120135759D02*
X137884790Y-119850044D01*
X137884790Y-119850044D02*
X137956219Y-119707187D01*
X137956219Y-119707187D02*
X138099076Y-119635759D01*
X138099076Y-119635759D02*
X138241933Y-119635759D01*
X138241933Y-119635759D02*
X138384790Y-120350044D01*
X138884790Y-118992902D02*
X137884790Y-118992902D01*
X138170504Y-118992902D02*
X138027647Y-118921473D01*
X138027647Y-118921473D02*
X137956219Y-118850045D01*
X137956219Y-118850045D02*
X137884790Y-118707187D01*
X137884790Y-118707187D02*
X137884790Y-118564330D01*
X137884790Y-118207188D02*
X138884790Y-117850045D01*
X138884790Y-117850045D02*
X137884790Y-117492902D01*
X138884790Y-116707188D02*
X138813362Y-116850045D01*
X138813362Y-116850045D02*
X138741933Y-116921474D01*
X138741933Y-116921474D02*
X138599076Y-116992902D01*
X138599076Y-116992902D02*
X138170504Y-116992902D01*
X138170504Y-116992902D02*
X138027647Y-116921474D01*
X138027647Y-116921474D02*
X137956219Y-116850045D01*
X137956219Y-116850045D02*
X137884790Y-116707188D01*
X137884790Y-116707188D02*
X137884790Y-116492902D01*
X137884790Y-116492902D02*
X137956219Y-116350045D01*
X137956219Y-116350045D02*
X138027647Y-116278617D01*
X138027647Y-116278617D02*
X138170504Y-116207188D01*
X138170504Y-116207188D02*
X138599076Y-116207188D01*
X138599076Y-116207188D02*
X138741933Y-116278617D01*
X138741933Y-116278617D02*
X138813362Y-116350045D01*
X138813362Y-116350045D02*
X138884790Y-116492902D01*
X138884790Y-116492902D02*
X138884790Y-116707188D01*
D11*
X179798748Y-89907854D02*
X179722558Y-89869759D01*
X179722558Y-89869759D02*
X179608272Y-89869759D01*
X179608272Y-89869759D02*
X179493986Y-89907854D01*
X179493986Y-89907854D02*
X179417796Y-89984044D01*
X179417796Y-89984044D02*
X179379701Y-90060235D01*
X179379701Y-90060235D02*
X179341605Y-90212616D01*
X179341605Y-90212616D02*
X179341605Y-90326902D01*
X179341605Y-90326902D02*
X179379701Y-90479283D01*
X179379701Y-90479283D02*
X179417796Y-90555473D01*
X179417796Y-90555473D02*
X179493986Y-90631664D01*
X179493986Y-90631664D02*
X179608272Y-90669759D01*
X179608272Y-90669759D02*
X179684463Y-90669759D01*
X179684463Y-90669759D02*
X179798748Y-90631664D01*
X179798748Y-90631664D02*
X179836844Y-90593568D01*
X179836844Y-90593568D02*
X179836844Y-90326902D01*
X179836844Y-90326902D02*
X179684463Y-90326902D01*
X180179701Y-90669759D02*
X180179701Y-89869759D01*
X180179701Y-89869759D02*
X180636844Y-90669759D01*
X180636844Y-90669759D02*
X180636844Y-89869759D01*
X181017796Y-90669759D02*
X181017796Y-89869759D01*
X181017796Y-89869759D02*
X181208272Y-89869759D01*
X181208272Y-89869759D02*
X181322558Y-89907854D01*
X181322558Y-89907854D02*
X181398748Y-89984044D01*
X181398748Y-89984044D02*
X181436843Y-90060235D01*
X181436843Y-90060235D02*
X181474939Y-90212616D01*
X181474939Y-90212616D02*
X181474939Y-90326902D01*
X181474939Y-90326902D02*
X181436843Y-90479283D01*
X181436843Y-90479283D02*
X181398748Y-90555473D01*
X181398748Y-90555473D02*
X181322558Y-90631664D01*
X181322558Y-90631664D02*
X181208272Y-90669759D01*
X181208272Y-90669759D02*
X181017796Y-90669759D01*
X150165415Y-65269759D02*
X150432082Y-66069759D01*
X150432082Y-66069759D02*
X150698748Y-65269759D01*
X150965415Y-66069759D02*
X150965415Y-65536425D01*
X150965415Y-65269759D02*
X150927319Y-65307854D01*
X150927319Y-65307854D02*
X150965415Y-65345949D01*
X150965415Y-65345949D02*
X151003510Y-65307854D01*
X151003510Y-65307854D02*
X150965415Y-65269759D01*
X150965415Y-65269759D02*
X150965415Y-65345949D01*
X151346367Y-65536425D02*
X151346367Y-66069759D01*
X151346367Y-65612616D02*
X151384462Y-65574521D01*
X151384462Y-65574521D02*
X151460652Y-65536425D01*
X151460652Y-65536425D02*
X151574938Y-65536425D01*
X151574938Y-65536425D02*
X151651129Y-65574521D01*
X151651129Y-65574521D02*
X151689224Y-65650711D01*
X151689224Y-65650711D02*
X151689224Y-66069759D01*
D12*
X125338472Y-107276812D02*
X125338472Y-106276812D01*
X125338472Y-106419669D02*
X125409901Y-106348241D01*
X125409901Y-106348241D02*
X125552758Y-106276812D01*
X125552758Y-106276812D02*
X125767044Y-106276812D01*
X125767044Y-106276812D02*
X125909901Y-106348241D01*
X125909901Y-106348241D02*
X125981330Y-106491098D01*
X125981330Y-106491098D02*
X125981330Y-107276812D01*
X125981330Y-106491098D02*
X126052758Y-106348241D01*
X126052758Y-106348241D02*
X126195615Y-106276812D01*
X126195615Y-106276812D02*
X126409901Y-106276812D01*
X126409901Y-106276812D02*
X126552758Y-106348241D01*
X126552758Y-106348241D02*
X126624187Y-106491098D01*
X126624187Y-106491098D02*
X126624187Y-107276812D01*
X127981330Y-107276812D02*
X127981330Y-105776812D01*
X127981330Y-107205384D02*
X127838472Y-107276812D01*
X127838472Y-107276812D02*
X127552758Y-107276812D01*
X127552758Y-107276812D02*
X127409901Y-107205384D01*
X127409901Y-107205384D02*
X127338472Y-107133955D01*
X127338472Y-107133955D02*
X127267044Y-106991098D01*
X127267044Y-106991098D02*
X127267044Y-106562526D01*
X127267044Y-106562526D02*
X127338472Y-106419669D01*
X127338472Y-106419669D02*
X127409901Y-106348241D01*
X127409901Y-106348241D02*
X127552758Y-106276812D01*
X127552758Y-106276812D02*
X127838472Y-106276812D01*
X127838472Y-106276812D02*
X127981330Y-106348241D01*
X129624187Y-106276812D02*
X130195615Y-106276812D01*
X129838472Y-107276812D02*
X129838472Y-105991098D01*
X129838472Y-105991098D02*
X129909901Y-105848241D01*
X129909901Y-105848241D02*
X130052758Y-105776812D01*
X130052758Y-105776812D02*
X130195615Y-105776812D01*
X130909901Y-107276812D02*
X130767044Y-107205384D01*
X130767044Y-107205384D02*
X130695615Y-107133955D01*
X130695615Y-107133955D02*
X130624187Y-106991098D01*
X130624187Y-106991098D02*
X130624187Y-106562526D01*
X130624187Y-106562526D02*
X130695615Y-106419669D01*
X130695615Y-106419669D02*
X130767044Y-106348241D01*
X130767044Y-106348241D02*
X130909901Y-106276812D01*
X130909901Y-106276812D02*
X131124187Y-106276812D01*
X131124187Y-106276812D02*
X131267044Y-106348241D01*
X131267044Y-106348241D02*
X131338473Y-106419669D01*
X131338473Y-106419669D02*
X131409901Y-106562526D01*
X131409901Y-106562526D02*
X131409901Y-106991098D01*
X131409901Y-106991098D02*
X131338473Y-107133955D01*
X131338473Y-107133955D02*
X131267044Y-107205384D01*
X131267044Y-107205384D02*
X131124187Y-107276812D01*
X131124187Y-107276812D02*
X130909901Y-107276812D01*
X132052758Y-107276812D02*
X132052758Y-106276812D01*
X132052758Y-106562526D02*
X132124187Y-106419669D01*
X132124187Y-106419669D02*
X132195616Y-106348241D01*
X132195616Y-106348241D02*
X132338473Y-106276812D01*
X132338473Y-106276812D02*
X132481330Y-106276812D01*
X132981329Y-107276812D02*
X132981329Y-105776812D01*
X133124187Y-106705384D02*
X133552758Y-107276812D01*
X133552758Y-106276812D02*
X132981329Y-106848241D01*
D13*
X104851644Y-55152428D02*
X105565929Y-55152428D01*
X105565929Y-55152428D02*
X105708786Y-55200047D01*
X105708786Y-55200047D02*
X105804025Y-55295285D01*
X105804025Y-55295285D02*
X105851644Y-55438142D01*
X105851644Y-55438142D02*
X105851644Y-55533380D01*
X104851644Y-54771475D02*
X104851644Y-54152428D01*
X104851644Y-54152428D02*
X105232596Y-54485761D01*
X105232596Y-54485761D02*
X105232596Y-54342904D01*
X105232596Y-54342904D02*
X105280215Y-54247666D01*
X105280215Y-54247666D02*
X105327834Y-54200047D01*
X105327834Y-54200047D02*
X105423072Y-54152428D01*
X105423072Y-54152428D02*
X105661167Y-54152428D01*
X105661167Y-54152428D02*
X105756405Y-54200047D01*
X105756405Y-54200047D02*
X105804025Y-54247666D01*
X105804025Y-54247666D02*
X105851644Y-54342904D01*
X105851644Y-54342904D02*
X105851644Y-54628618D01*
X105851644Y-54628618D02*
X105804025Y-54723856D01*
X105804025Y-54723856D02*
X105756405Y-54771475D01*
X167969920Y-58174714D02*
X167969920Y-58984237D01*
X167969920Y-58984237D02*
X168017539Y-59079475D01*
X168017539Y-59079475D02*
X168065158Y-59127095D01*
X168065158Y-59127095D02*
X168160396Y-59174714D01*
X168160396Y-59174714D02*
X168350872Y-59174714D01*
X168350872Y-59174714D02*
X168446110Y-59127095D01*
X168446110Y-59127095D02*
X168493729Y-59079475D01*
X168493729Y-59079475D02*
X168541348Y-58984237D01*
X168541348Y-58984237D02*
X168541348Y-58174714D01*
X169065158Y-59174714D02*
X169255634Y-59174714D01*
X169255634Y-59174714D02*
X169350872Y-59127095D01*
X169350872Y-59127095D02*
X169398491Y-59079475D01*
X169398491Y-59079475D02*
X169493729Y-58936618D01*
X169493729Y-58936618D02*
X169541348Y-58746142D01*
X169541348Y-58746142D02*
X169541348Y-58365190D01*
X169541348Y-58365190D02*
X169493729Y-58269952D01*
X169493729Y-58269952D02*
X169446110Y-58222333D01*
X169446110Y-58222333D02*
X169350872Y-58174714D01*
X169350872Y-58174714D02*
X169160396Y-58174714D01*
X169160396Y-58174714D02*
X169065158Y-58222333D01*
X169065158Y-58222333D02*
X169017539Y-58269952D01*
X169017539Y-58269952D02*
X168969920Y-58365190D01*
X168969920Y-58365190D02*
X168969920Y-58603285D01*
X168969920Y-58603285D02*
X169017539Y-58698523D01*
X169017539Y-58698523D02*
X169065158Y-58746142D01*
X169065158Y-58746142D02*
X169160396Y-58793761D01*
X169160396Y-58793761D02*
X169350872Y-58793761D01*
X169350872Y-58793761D02*
X169446110Y-58746142D01*
X169446110Y-58746142D02*
X169493729Y-58698523D01*
X169493729Y-58698523D02*
X169541348Y-58603285D01*
X130294967Y-78681914D02*
X129961634Y-78205723D01*
X129723539Y-78681914D02*
X129723539Y-77681914D01*
X129723539Y-77681914D02*
X130104491Y-77681914D01*
X130104491Y-77681914D02*
X130199729Y-77729533D01*
X130199729Y-77729533D02*
X130247348Y-77777152D01*
X130247348Y-77777152D02*
X130294967Y-77872390D01*
X130294967Y-77872390D02*
X130294967Y-78015247D01*
X130294967Y-78015247D02*
X130247348Y-78110485D01*
X130247348Y-78110485D02*
X130199729Y-78158104D01*
X130199729Y-78158104D02*
X130104491Y-78205723D01*
X130104491Y-78205723D02*
X129723539Y-78205723D01*
X130675920Y-77777152D02*
X130723539Y-77729533D01*
X130723539Y-77729533D02*
X130818777Y-77681914D01*
X130818777Y-77681914D02*
X131056872Y-77681914D01*
X131056872Y-77681914D02*
X131152110Y-77729533D01*
X131152110Y-77729533D02*
X131199729Y-77777152D01*
X131199729Y-77777152D02*
X131247348Y-77872390D01*
X131247348Y-77872390D02*
X131247348Y-77967628D01*
X131247348Y-77967628D02*
X131199729Y-78110485D01*
X131199729Y-78110485D02*
X130628301Y-78681914D01*
X130628301Y-78681914D02*
X131247348Y-78681914D01*
X132104491Y-77681914D02*
X131914015Y-77681914D01*
X131914015Y-77681914D02*
X131818777Y-77729533D01*
X131818777Y-77729533D02*
X131771158Y-77777152D01*
X131771158Y-77777152D02*
X131675920Y-77920009D01*
X131675920Y-77920009D02*
X131628301Y-78110485D01*
X131628301Y-78110485D02*
X131628301Y-78491437D01*
X131628301Y-78491437D02*
X131675920Y-78586675D01*
X131675920Y-78586675D02*
X131723539Y-78634295D01*
X131723539Y-78634295D02*
X131818777Y-78681914D01*
X131818777Y-78681914D02*
X132009253Y-78681914D01*
X132009253Y-78681914D02*
X132104491Y-78634295D01*
X132104491Y-78634295D02*
X132152110Y-78586675D01*
X132152110Y-78586675D02*
X132199729Y-78491437D01*
X132199729Y-78491437D02*
X132199729Y-78253342D01*
X132199729Y-78253342D02*
X132152110Y-78158104D01*
X132152110Y-78158104D02*
X132104491Y-78110485D01*
X132104491Y-78110485D02*
X132009253Y-78062866D01*
X132009253Y-78062866D02*
X131818777Y-78062866D01*
X131818777Y-78062866D02*
X131723539Y-78110485D01*
X131723539Y-78110485D02*
X131675920Y-78158104D01*
X131675920Y-78158104D02*
X131628301Y-78253342D01*
X101690644Y-78818618D02*
X102404929Y-78818618D01*
X102404929Y-78818618D02*
X102547786Y-78866237D01*
X102547786Y-78866237D02*
X102643025Y-78961475D01*
X102643025Y-78961475D02*
X102690644Y-79104332D01*
X102690644Y-79104332D02*
X102690644Y-79199570D01*
X101690644Y-78437665D02*
X101690644Y-77818618D01*
X101690644Y-77818618D02*
X102071596Y-78151951D01*
X102071596Y-78151951D02*
X102071596Y-78009094D01*
X102071596Y-78009094D02*
X102119215Y-77913856D01*
X102119215Y-77913856D02*
X102166834Y-77866237D01*
X102166834Y-77866237D02*
X102262072Y-77818618D01*
X102262072Y-77818618D02*
X102500167Y-77818618D01*
X102500167Y-77818618D02*
X102595405Y-77866237D01*
X102595405Y-77866237D02*
X102643025Y-77913856D01*
X102643025Y-77913856D02*
X102690644Y-78009094D01*
X102690644Y-78009094D02*
X102690644Y-78294808D01*
X102690644Y-78294808D02*
X102643025Y-78390046D01*
X102643025Y-78390046D02*
X102595405Y-78437665D01*
X102119215Y-77247189D02*
X102071596Y-77342427D01*
X102071596Y-77342427D02*
X102023977Y-77390046D01*
X102023977Y-77390046D02*
X101928739Y-77437665D01*
X101928739Y-77437665D02*
X101881120Y-77437665D01*
X101881120Y-77437665D02*
X101785882Y-77390046D01*
X101785882Y-77390046D02*
X101738263Y-77342427D01*
X101738263Y-77342427D02*
X101690644Y-77247189D01*
X101690644Y-77247189D02*
X101690644Y-77056713D01*
X101690644Y-77056713D02*
X101738263Y-76961475D01*
X101738263Y-76961475D02*
X101785882Y-76913856D01*
X101785882Y-76913856D02*
X101881120Y-76866237D01*
X101881120Y-76866237D02*
X101928739Y-76866237D01*
X101928739Y-76866237D02*
X102023977Y-76913856D01*
X102023977Y-76913856D02*
X102071596Y-76961475D01*
X102071596Y-76961475D02*
X102119215Y-77056713D01*
X102119215Y-77056713D02*
X102119215Y-77247189D01*
X102119215Y-77247189D02*
X102166834Y-77342427D01*
X102166834Y-77342427D02*
X102214453Y-77390046D01*
X102214453Y-77390046D02*
X102309691Y-77437665D01*
X102309691Y-77437665D02*
X102500167Y-77437665D01*
X102500167Y-77437665D02*
X102595405Y-77390046D01*
X102595405Y-77390046D02*
X102643025Y-77342427D01*
X102643025Y-77342427D02*
X102690644Y-77247189D01*
X102690644Y-77247189D02*
X102690644Y-77056713D01*
X102690644Y-77056713D02*
X102643025Y-76961475D01*
X102643025Y-76961475D02*
X102595405Y-76913856D01*
X102595405Y-76913856D02*
X102500167Y-76866237D01*
X102500167Y-76866237D02*
X102309691Y-76866237D01*
X102309691Y-76866237D02*
X102214453Y-76913856D01*
X102214453Y-76913856D02*
X102166834Y-76961475D01*
X102166834Y-76961475D02*
X102119215Y-77056713D01*
X109777025Y-81822333D02*
X109824644Y-81727095D01*
X109824644Y-81727095D02*
X109824644Y-81536619D01*
X109824644Y-81536619D02*
X109777025Y-81441381D01*
X109777025Y-81441381D02*
X109681786Y-81393762D01*
X109681786Y-81393762D02*
X109634167Y-81393762D01*
X109634167Y-81393762D02*
X109538929Y-81441381D01*
X109538929Y-81441381D02*
X109491310Y-81536619D01*
X109491310Y-81536619D02*
X109491310Y-81679476D01*
X109491310Y-81679476D02*
X109443691Y-81774714D01*
X109443691Y-81774714D02*
X109348453Y-81822333D01*
X109348453Y-81822333D02*
X109300834Y-81822333D01*
X109300834Y-81822333D02*
X109205596Y-81774714D01*
X109205596Y-81774714D02*
X109157977Y-81679476D01*
X109157977Y-81679476D02*
X109157977Y-81536619D01*
X109157977Y-81536619D02*
X109205596Y-81441381D01*
X109777025Y-80584238D02*
X109824644Y-80679476D01*
X109824644Y-80679476D02*
X109824644Y-80869952D01*
X109824644Y-80869952D02*
X109777025Y-80965190D01*
X109777025Y-80965190D02*
X109681786Y-81012809D01*
X109681786Y-81012809D02*
X109300834Y-81012809D01*
X109300834Y-81012809D02*
X109205596Y-80965190D01*
X109205596Y-80965190D02*
X109157977Y-80869952D01*
X109157977Y-80869952D02*
X109157977Y-80679476D01*
X109157977Y-80679476D02*
X109205596Y-80584238D01*
X109205596Y-80584238D02*
X109300834Y-80536619D01*
X109300834Y-80536619D02*
X109396072Y-80536619D01*
X109396072Y-80536619D02*
X109491310Y-81012809D01*
X109824644Y-80108047D02*
X109157977Y-80108047D01*
X109348453Y-80108047D02*
X109253215Y-80060428D01*
X109253215Y-80060428D02*
X109205596Y-80012809D01*
X109205596Y-80012809D02*
X109157977Y-79917571D01*
X109157977Y-79917571D02*
X109157977Y-79822333D01*
X109157977Y-79584237D02*
X109824644Y-79346142D01*
X109824644Y-79346142D02*
X109157977Y-79108047D01*
X109824644Y-78584237D02*
X109777025Y-78679475D01*
X109777025Y-78679475D02*
X109729405Y-78727094D01*
X109729405Y-78727094D02*
X109634167Y-78774713D01*
X109634167Y-78774713D02*
X109348453Y-78774713D01*
X109348453Y-78774713D02*
X109253215Y-78727094D01*
X109253215Y-78727094D02*
X109205596Y-78679475D01*
X109205596Y-78679475D02*
X109157977Y-78584237D01*
X109157977Y-78584237D02*
X109157977Y-78441380D01*
X109157977Y-78441380D02*
X109205596Y-78346142D01*
X109205596Y-78346142D02*
X109253215Y-78298523D01*
X109253215Y-78298523D02*
X109348453Y-78250904D01*
X109348453Y-78250904D02*
X109634167Y-78250904D01*
X109634167Y-78250904D02*
X109729405Y-78298523D01*
X109729405Y-78298523D02*
X109777025Y-78346142D01*
X109777025Y-78346142D02*
X109824644Y-78441380D01*
X109824644Y-78441380D02*
X109824644Y-78584237D01*
X109919882Y-78060428D02*
X109919882Y-77298523D01*
X109824644Y-76631856D02*
X109300834Y-76631856D01*
X109300834Y-76631856D02*
X109205596Y-76679475D01*
X109205596Y-76679475D02*
X109157977Y-76774713D01*
X109157977Y-76774713D02*
X109157977Y-76965189D01*
X109157977Y-76965189D02*
X109205596Y-77060427D01*
X109777025Y-76631856D02*
X109824644Y-76727094D01*
X109824644Y-76727094D02*
X109824644Y-76965189D01*
X109824644Y-76965189D02*
X109777025Y-77060427D01*
X109777025Y-77060427D02*
X109681786Y-77108046D01*
X109681786Y-77108046D02*
X109586548Y-77108046D01*
X109586548Y-77108046D02*
X109491310Y-77060427D01*
X109491310Y-77060427D02*
X109443691Y-76965189D01*
X109443691Y-76965189D02*
X109443691Y-76727094D01*
X109443691Y-76727094D02*
X109396072Y-76631856D01*
X109824644Y-76155665D02*
X109157977Y-76155665D01*
X109348453Y-76155665D02*
X109253215Y-76108046D01*
X109253215Y-76108046D02*
X109205596Y-76060427D01*
X109205596Y-76060427D02*
X109157977Y-75965189D01*
X109157977Y-75965189D02*
X109157977Y-75869951D01*
X109824644Y-75536617D02*
X109157977Y-75536617D01*
X109253215Y-75536617D02*
X109205596Y-75488998D01*
X109205596Y-75488998D02*
X109157977Y-75393760D01*
X109157977Y-75393760D02*
X109157977Y-75250903D01*
X109157977Y-75250903D02*
X109205596Y-75155665D01*
X109205596Y-75155665D02*
X109300834Y-75108046D01*
X109300834Y-75108046D02*
X109824644Y-75108046D01*
X109300834Y-75108046D02*
X109205596Y-75060427D01*
X109205596Y-75060427D02*
X109157977Y-74965189D01*
X109157977Y-74965189D02*
X109157977Y-74822332D01*
X109157977Y-74822332D02*
X109205596Y-74727093D01*
X109205596Y-74727093D02*
X109300834Y-74679474D01*
X109300834Y-74679474D02*
X109824644Y-74679474D01*
X161126644Y-69689418D02*
X161840929Y-69689418D01*
X161840929Y-69689418D02*
X161983786Y-69737037D01*
X161983786Y-69737037D02*
X162079025Y-69832275D01*
X162079025Y-69832275D02*
X162126644Y-69975132D01*
X162126644Y-69975132D02*
X162126644Y-70070370D01*
X162126644Y-68689418D02*
X162126644Y-69260846D01*
X162126644Y-68975132D02*
X161126644Y-68975132D01*
X161126644Y-68975132D02*
X161269501Y-69070370D01*
X161269501Y-69070370D02*
X161364739Y-69165608D01*
X161364739Y-69165608D02*
X161412358Y-69260846D01*
X161221882Y-68308465D02*
X161174263Y-68260846D01*
X161174263Y-68260846D02*
X161126644Y-68165608D01*
X161126644Y-68165608D02*
X161126644Y-67927513D01*
X161126644Y-67927513D02*
X161174263Y-67832275D01*
X161174263Y-67832275D02*
X161221882Y-67784656D01*
X161221882Y-67784656D02*
X161317120Y-67737037D01*
X161317120Y-67737037D02*
X161412358Y-67737037D01*
X161412358Y-67737037D02*
X161555215Y-67784656D01*
X161555215Y-67784656D02*
X162126644Y-68356084D01*
X162126644Y-68356084D02*
X162126644Y-67737037D01*
X102633157Y-88794295D02*
X102537919Y-88841914D01*
X102537919Y-88841914D02*
X102347443Y-88841914D01*
X102347443Y-88841914D02*
X102252205Y-88794295D01*
X102252205Y-88794295D02*
X102204586Y-88699056D01*
X102204586Y-88699056D02*
X102204586Y-88318104D01*
X102204586Y-88318104D02*
X102252205Y-88222866D01*
X102252205Y-88222866D02*
X102347443Y-88175247D01*
X102347443Y-88175247D02*
X102537919Y-88175247D01*
X102537919Y-88175247D02*
X102633157Y-88222866D01*
X102633157Y-88222866D02*
X102680776Y-88318104D01*
X102680776Y-88318104D02*
X102680776Y-88413342D01*
X102680776Y-88413342D02*
X102204586Y-88508580D01*
X103109348Y-88175247D02*
X103109348Y-88841914D01*
X103109348Y-88270485D02*
X103156967Y-88222866D01*
X103156967Y-88222866D02*
X103252205Y-88175247D01*
X103252205Y-88175247D02*
X103395062Y-88175247D01*
X103395062Y-88175247D02*
X103490300Y-88222866D01*
X103490300Y-88222866D02*
X103537919Y-88318104D01*
X103537919Y-88318104D02*
X103537919Y-88841914D01*
X104442681Y-88841914D02*
X104442681Y-88318104D01*
X104442681Y-88318104D02*
X104395062Y-88222866D01*
X104395062Y-88222866D02*
X104299824Y-88175247D01*
X104299824Y-88175247D02*
X104109348Y-88175247D01*
X104109348Y-88175247D02*
X104014110Y-88222866D01*
X104442681Y-88794295D02*
X104347443Y-88841914D01*
X104347443Y-88841914D02*
X104109348Y-88841914D01*
X104109348Y-88841914D02*
X104014110Y-88794295D01*
X104014110Y-88794295D02*
X103966491Y-88699056D01*
X103966491Y-88699056D02*
X103966491Y-88603818D01*
X103966491Y-88603818D02*
X104014110Y-88508580D01*
X104014110Y-88508580D02*
X104109348Y-88460961D01*
X104109348Y-88460961D02*
X104347443Y-88460961D01*
X104347443Y-88460961D02*
X104442681Y-88413342D01*
X104918872Y-88841914D02*
X104918872Y-87841914D01*
X104918872Y-88222866D02*
X105014110Y-88175247D01*
X105014110Y-88175247D02*
X105204586Y-88175247D01*
X105204586Y-88175247D02*
X105299824Y-88222866D01*
X105299824Y-88222866D02*
X105347443Y-88270485D01*
X105347443Y-88270485D02*
X105395062Y-88365723D01*
X105395062Y-88365723D02*
X105395062Y-88651437D01*
X105395062Y-88651437D02*
X105347443Y-88746675D01*
X105347443Y-88746675D02*
X105299824Y-88794295D01*
X105299824Y-88794295D02*
X105204586Y-88841914D01*
X105204586Y-88841914D02*
X105014110Y-88841914D01*
X105014110Y-88841914D02*
X104918872Y-88794295D01*
X105966491Y-88841914D02*
X105871253Y-88794295D01*
X105871253Y-88794295D02*
X105823634Y-88699056D01*
X105823634Y-88699056D02*
X105823634Y-87841914D01*
X106728396Y-88794295D02*
X106633158Y-88841914D01*
X106633158Y-88841914D02*
X106442682Y-88841914D01*
X106442682Y-88841914D02*
X106347444Y-88794295D01*
X106347444Y-88794295D02*
X106299825Y-88699056D01*
X106299825Y-88699056D02*
X106299825Y-88318104D01*
X106299825Y-88318104D02*
X106347444Y-88222866D01*
X106347444Y-88222866D02*
X106442682Y-88175247D01*
X106442682Y-88175247D02*
X106633158Y-88175247D01*
X106633158Y-88175247D02*
X106728396Y-88222866D01*
X106728396Y-88222866D02*
X106776015Y-88318104D01*
X106776015Y-88318104D02*
X106776015Y-88413342D01*
X106776015Y-88413342D02*
X106299825Y-88508580D01*
X106966492Y-88937152D02*
X107728396Y-88937152D01*
X108395063Y-88841914D02*
X108395063Y-88318104D01*
X108395063Y-88318104D02*
X108347444Y-88222866D01*
X108347444Y-88222866D02*
X108252206Y-88175247D01*
X108252206Y-88175247D02*
X108061730Y-88175247D01*
X108061730Y-88175247D02*
X107966492Y-88222866D01*
X108395063Y-88794295D02*
X108299825Y-88841914D01*
X108299825Y-88841914D02*
X108061730Y-88841914D01*
X108061730Y-88841914D02*
X107966492Y-88794295D01*
X107966492Y-88794295D02*
X107918873Y-88699056D01*
X107918873Y-88699056D02*
X107918873Y-88603818D01*
X107918873Y-88603818D02*
X107966492Y-88508580D01*
X107966492Y-88508580D02*
X108061730Y-88460961D01*
X108061730Y-88460961D02*
X108299825Y-88460961D01*
X108299825Y-88460961D02*
X108395063Y-88413342D01*
X108871254Y-88841914D02*
X108871254Y-88175247D01*
X108871254Y-88365723D02*
X108918873Y-88270485D01*
X108918873Y-88270485D02*
X108966492Y-88222866D01*
X108966492Y-88222866D02*
X109061730Y-88175247D01*
X109061730Y-88175247D02*
X109156968Y-88175247D01*
X109490302Y-88841914D02*
X109490302Y-88175247D01*
X109490302Y-88270485D02*
X109537921Y-88222866D01*
X109537921Y-88222866D02*
X109633159Y-88175247D01*
X109633159Y-88175247D02*
X109776016Y-88175247D01*
X109776016Y-88175247D02*
X109871254Y-88222866D01*
X109871254Y-88222866D02*
X109918873Y-88318104D01*
X109918873Y-88318104D02*
X109918873Y-88841914D01*
X109918873Y-88318104D02*
X109966492Y-88222866D01*
X109966492Y-88222866D02*
X110061730Y-88175247D01*
X110061730Y-88175247D02*
X110204587Y-88175247D01*
X110204587Y-88175247D02*
X110299826Y-88222866D01*
X110299826Y-88222866D02*
X110347445Y-88318104D01*
X110347445Y-88318104D02*
X110347445Y-88841914D01*
X122662644Y-80497452D02*
X122186453Y-80830785D01*
X122662644Y-81068880D02*
X121662644Y-81068880D01*
X121662644Y-81068880D02*
X121662644Y-80687928D01*
X121662644Y-80687928D02*
X121710263Y-80592690D01*
X121710263Y-80592690D02*
X121757882Y-80545071D01*
X121757882Y-80545071D02*
X121853120Y-80497452D01*
X121853120Y-80497452D02*
X121995977Y-80497452D01*
X121995977Y-80497452D02*
X122091215Y-80545071D01*
X122091215Y-80545071D02*
X122138834Y-80592690D01*
X122138834Y-80592690D02*
X122186453Y-80687928D01*
X122186453Y-80687928D02*
X122186453Y-81068880D01*
X121995977Y-79640309D02*
X122662644Y-79640309D01*
X121615025Y-79878404D02*
X122329310Y-80116499D01*
X122329310Y-80116499D02*
X122329310Y-79497452D01*
X121995977Y-78687928D02*
X122662644Y-78687928D01*
X121615025Y-78926023D02*
X122329310Y-79164118D01*
X122329310Y-79164118D02*
X122329310Y-78545071D01*
D14*
X159113881Y-118795507D02*
X159828166Y-118795507D01*
X159828166Y-118795507D02*
X159971023Y-118843126D01*
X159971023Y-118843126D02*
X160066262Y-118938364D01*
X160066262Y-118938364D02*
X160113881Y-119081221D01*
X160113881Y-119081221D02*
X160113881Y-119176459D01*
X159113881Y-117843126D02*
X159113881Y-118319316D01*
X159113881Y-118319316D02*
X159590071Y-118366935D01*
X159590071Y-118366935D02*
X159542452Y-118319316D01*
X159542452Y-118319316D02*
X159494833Y-118224078D01*
X159494833Y-118224078D02*
X159494833Y-117985983D01*
X159494833Y-117985983D02*
X159542452Y-117890745D01*
X159542452Y-117890745D02*
X159590071Y-117843126D01*
X159590071Y-117843126D02*
X159685309Y-117795507D01*
X159685309Y-117795507D02*
X159923404Y-117795507D01*
X159923404Y-117795507D02*
X160018642Y-117843126D01*
X160018642Y-117843126D02*
X160066262Y-117890745D01*
X160066262Y-117890745D02*
X160113881Y-117985983D01*
X160113881Y-117985983D02*
X160113881Y-118224078D01*
X160113881Y-118224078D02*
X160066262Y-118319316D01*
X160066262Y-118319316D02*
X160018642Y-118366935D01*
X159113881Y-117176459D02*
X159113881Y-117081221D01*
X159113881Y-117081221D02*
X159161500Y-116985983D01*
X159161500Y-116985983D02*
X159209119Y-116938364D01*
X159209119Y-116938364D02*
X159304357Y-116890745D01*
X159304357Y-116890745D02*
X159494833Y-116843126D01*
X159494833Y-116843126D02*
X159732928Y-116843126D01*
X159732928Y-116843126D02*
X159923404Y-116890745D01*
X159923404Y-116890745D02*
X160018642Y-116938364D01*
X160018642Y-116938364D02*
X160066262Y-116985983D01*
X160066262Y-116985983D02*
X160113881Y-117081221D01*
X160113881Y-117081221D02*
X160113881Y-117176459D01*
X160113881Y-117176459D02*
X160066262Y-117271697D01*
X160066262Y-117271697D02*
X160018642Y-117319316D01*
X160018642Y-117319316D02*
X159923404Y-117366935D01*
X159923404Y-117366935D02*
X159732928Y-117414554D01*
X159732928Y-117414554D02*
X159494833Y-117414554D01*
X159494833Y-117414554D02*
X159304357Y-117366935D01*
X159304357Y-117366935D02*
X159209119Y-117319316D01*
X159209119Y-117319316D02*
X159161500Y-117271697D01*
X159161500Y-117271697D02*
X159113881Y-117176459D01*
D13*
X136178644Y-89176618D02*
X136892929Y-89176618D01*
X136892929Y-89176618D02*
X137035786Y-89224237D01*
X137035786Y-89224237D02*
X137131025Y-89319475D01*
X137131025Y-89319475D02*
X137178644Y-89462332D01*
X137178644Y-89462332D02*
X137178644Y-89557570D01*
X136178644Y-88795665D02*
X136178644Y-88176618D01*
X136178644Y-88176618D02*
X136559596Y-88509951D01*
X136559596Y-88509951D02*
X136559596Y-88367094D01*
X136559596Y-88367094D02*
X136607215Y-88271856D01*
X136607215Y-88271856D02*
X136654834Y-88224237D01*
X136654834Y-88224237D02*
X136750072Y-88176618D01*
X136750072Y-88176618D02*
X136988167Y-88176618D01*
X136988167Y-88176618D02*
X137083405Y-88224237D01*
X137083405Y-88224237D02*
X137131025Y-88271856D01*
X137131025Y-88271856D02*
X137178644Y-88367094D01*
X137178644Y-88367094D02*
X137178644Y-88652808D01*
X137178644Y-88652808D02*
X137131025Y-88748046D01*
X137131025Y-88748046D02*
X137083405Y-88795665D01*
X136178644Y-87319475D02*
X136178644Y-87509951D01*
X136178644Y-87509951D02*
X136226263Y-87605189D01*
X136226263Y-87605189D02*
X136273882Y-87652808D01*
X136273882Y-87652808D02*
X136416739Y-87748046D01*
X136416739Y-87748046D02*
X136607215Y-87795665D01*
X136607215Y-87795665D02*
X136988167Y-87795665D01*
X136988167Y-87795665D02*
X137083405Y-87748046D01*
X137083405Y-87748046D02*
X137131025Y-87700427D01*
X137131025Y-87700427D02*
X137178644Y-87605189D01*
X137178644Y-87605189D02*
X137178644Y-87414713D01*
X137178644Y-87414713D02*
X137131025Y-87319475D01*
X137131025Y-87319475D02*
X137083405Y-87271856D01*
X137083405Y-87271856D02*
X136988167Y-87224237D01*
X136988167Y-87224237D02*
X136750072Y-87224237D01*
X136750072Y-87224237D02*
X136654834Y-87271856D01*
X136654834Y-87271856D02*
X136607215Y-87319475D01*
X136607215Y-87319475D02*
X136559596Y-87414713D01*
X136559596Y-87414713D02*
X136559596Y-87605189D01*
X136559596Y-87605189D02*
X136607215Y-87700427D01*
X136607215Y-87700427D02*
X136654834Y-87748046D01*
X136654834Y-87748046D02*
X136750072Y-87795665D01*
X123231025Y-92033762D02*
X123278644Y-92129000D01*
X123278644Y-92129000D02*
X123278644Y-92319476D01*
X123278644Y-92319476D02*
X123231025Y-92414714D01*
X123231025Y-92414714D02*
X123135786Y-92462333D01*
X123135786Y-92462333D02*
X122754834Y-92462333D01*
X122754834Y-92462333D02*
X122659596Y-92414714D01*
X122659596Y-92414714D02*
X122611977Y-92319476D01*
X122611977Y-92319476D02*
X122611977Y-92129000D01*
X122611977Y-92129000D02*
X122659596Y-92033762D01*
X122659596Y-92033762D02*
X122754834Y-91986143D01*
X122754834Y-91986143D02*
X122850072Y-91986143D01*
X122850072Y-91986143D02*
X122945310Y-92462333D01*
X122611977Y-91557571D02*
X123278644Y-91557571D01*
X122707215Y-91557571D02*
X122659596Y-91509952D01*
X122659596Y-91509952D02*
X122611977Y-91414714D01*
X122611977Y-91414714D02*
X122611977Y-91271857D01*
X122611977Y-91271857D02*
X122659596Y-91176619D01*
X122659596Y-91176619D02*
X122754834Y-91129000D01*
X122754834Y-91129000D02*
X123278644Y-91129000D01*
X123278644Y-90224238D02*
X122754834Y-90224238D01*
X122754834Y-90224238D02*
X122659596Y-90271857D01*
X122659596Y-90271857D02*
X122611977Y-90367095D01*
X122611977Y-90367095D02*
X122611977Y-90557571D01*
X122611977Y-90557571D02*
X122659596Y-90652809D01*
X123231025Y-90224238D02*
X123278644Y-90319476D01*
X123278644Y-90319476D02*
X123278644Y-90557571D01*
X123278644Y-90557571D02*
X123231025Y-90652809D01*
X123231025Y-90652809D02*
X123135786Y-90700428D01*
X123135786Y-90700428D02*
X123040548Y-90700428D01*
X123040548Y-90700428D02*
X122945310Y-90652809D01*
X122945310Y-90652809D02*
X122897691Y-90557571D01*
X122897691Y-90557571D02*
X122897691Y-90319476D01*
X122897691Y-90319476D02*
X122850072Y-90224238D01*
X123278644Y-89748047D02*
X122278644Y-89748047D01*
X122659596Y-89748047D02*
X122611977Y-89652809D01*
X122611977Y-89652809D02*
X122611977Y-89462333D01*
X122611977Y-89462333D02*
X122659596Y-89367095D01*
X122659596Y-89367095D02*
X122707215Y-89319476D01*
X122707215Y-89319476D02*
X122802453Y-89271857D01*
X122802453Y-89271857D02*
X123088167Y-89271857D01*
X123088167Y-89271857D02*
X123183405Y-89319476D01*
X123183405Y-89319476D02*
X123231025Y-89367095D01*
X123231025Y-89367095D02*
X123278644Y-89462333D01*
X123278644Y-89462333D02*
X123278644Y-89652809D01*
X123278644Y-89652809D02*
X123231025Y-89748047D01*
X123278644Y-88700428D02*
X123231025Y-88795666D01*
X123231025Y-88795666D02*
X123135786Y-88843285D01*
X123135786Y-88843285D02*
X122278644Y-88843285D01*
X123231025Y-87938523D02*
X123278644Y-88033761D01*
X123278644Y-88033761D02*
X123278644Y-88224237D01*
X123278644Y-88224237D02*
X123231025Y-88319475D01*
X123231025Y-88319475D02*
X123135786Y-88367094D01*
X123135786Y-88367094D02*
X122754834Y-88367094D01*
X122754834Y-88367094D02*
X122659596Y-88319475D01*
X122659596Y-88319475D02*
X122611977Y-88224237D01*
X122611977Y-88224237D02*
X122611977Y-88033761D01*
X122611977Y-88033761D02*
X122659596Y-87938523D01*
X122659596Y-87938523D02*
X122754834Y-87890904D01*
X122754834Y-87890904D02*
X122850072Y-87890904D01*
X122850072Y-87890904D02*
X122945310Y-88367094D01*
X123373882Y-87700428D02*
X123373882Y-86938523D01*
X123278644Y-86271856D02*
X122754834Y-86271856D01*
X122754834Y-86271856D02*
X122659596Y-86319475D01*
X122659596Y-86319475D02*
X122611977Y-86414713D01*
X122611977Y-86414713D02*
X122611977Y-86605189D01*
X122611977Y-86605189D02*
X122659596Y-86700427D01*
X123231025Y-86271856D02*
X123278644Y-86367094D01*
X123278644Y-86367094D02*
X123278644Y-86605189D01*
X123278644Y-86605189D02*
X123231025Y-86700427D01*
X123231025Y-86700427D02*
X123135786Y-86748046D01*
X123135786Y-86748046D02*
X123040548Y-86748046D01*
X123040548Y-86748046D02*
X122945310Y-86700427D01*
X122945310Y-86700427D02*
X122897691Y-86605189D01*
X122897691Y-86605189D02*
X122897691Y-86367094D01*
X122897691Y-86367094D02*
X122850072Y-86271856D01*
X123278644Y-85795665D02*
X122611977Y-85795665D01*
X122802453Y-85795665D02*
X122707215Y-85748046D01*
X122707215Y-85748046D02*
X122659596Y-85700427D01*
X122659596Y-85700427D02*
X122611977Y-85605189D01*
X122611977Y-85605189D02*
X122611977Y-85509951D01*
X123278644Y-85176617D02*
X122611977Y-85176617D01*
X122707215Y-85176617D02*
X122659596Y-85128998D01*
X122659596Y-85128998D02*
X122611977Y-85033760D01*
X122611977Y-85033760D02*
X122611977Y-84890903D01*
X122611977Y-84890903D02*
X122659596Y-84795665D01*
X122659596Y-84795665D02*
X122754834Y-84748046D01*
X122754834Y-84748046D02*
X123278644Y-84748046D01*
X122754834Y-84748046D02*
X122659596Y-84700427D01*
X122659596Y-84700427D02*
X122611977Y-84605189D01*
X122611977Y-84605189D02*
X122611977Y-84462332D01*
X122611977Y-84462332D02*
X122659596Y-84367093D01*
X122659596Y-84367093D02*
X122754834Y-84319474D01*
X122754834Y-84319474D02*
X123278644Y-84319474D01*
X157052301Y-60663914D02*
X157052301Y-61378199D01*
X157052301Y-61378199D02*
X157004682Y-61521056D01*
X157004682Y-61521056D02*
X156909444Y-61616295D01*
X156909444Y-61616295D02*
X156766587Y-61663914D01*
X156766587Y-61663914D02*
X156671349Y-61663914D01*
X158052301Y-61663914D02*
X157480873Y-61663914D01*
X157766587Y-61663914D02*
X157766587Y-60663914D01*
X157766587Y-60663914D02*
X157671349Y-60806771D01*
X157671349Y-60806771D02*
X157576111Y-60902009D01*
X157576111Y-60902009D02*
X157480873Y-60949628D01*
X158909444Y-60663914D02*
X158718968Y-60663914D01*
X158718968Y-60663914D02*
X158623730Y-60711533D01*
X158623730Y-60711533D02*
X158576111Y-60759152D01*
X158576111Y-60759152D02*
X158480873Y-60902009D01*
X158480873Y-60902009D02*
X158433254Y-61092485D01*
X158433254Y-61092485D02*
X158433254Y-61473437D01*
X158433254Y-61473437D02*
X158480873Y-61568675D01*
X158480873Y-61568675D02*
X158528492Y-61616295D01*
X158528492Y-61616295D02*
X158623730Y-61663914D01*
X158623730Y-61663914D02*
X158814206Y-61663914D01*
X158814206Y-61663914D02*
X158909444Y-61616295D01*
X158909444Y-61616295D02*
X158957063Y-61568675D01*
X158957063Y-61568675D02*
X159004682Y-61473437D01*
X159004682Y-61473437D02*
X159004682Y-61235342D01*
X159004682Y-61235342D02*
X158957063Y-61140104D01*
X158957063Y-61140104D02*
X158909444Y-61092485D01*
X158909444Y-61092485D02*
X158814206Y-61044866D01*
X158814206Y-61044866D02*
X158623730Y-61044866D01*
X158623730Y-61044866D02*
X158528492Y-61092485D01*
X158528492Y-61092485D02*
X158480873Y-61140104D01*
X158480873Y-61140104D02*
X158433254Y-61235342D01*
D14*
X98691381Y-56402428D02*
X99405666Y-56402428D01*
X99405666Y-56402428D02*
X99548523Y-56450047D01*
X99548523Y-56450047D02*
X99643762Y-56545285D01*
X99643762Y-56545285D02*
X99691381Y-56688142D01*
X99691381Y-56688142D02*
X99691381Y-56783380D01*
X98786619Y-55973856D02*
X98739000Y-55926237D01*
X98739000Y-55926237D02*
X98691381Y-55830999D01*
X98691381Y-55830999D02*
X98691381Y-55592904D01*
X98691381Y-55592904D02*
X98739000Y-55497666D01*
X98739000Y-55497666D02*
X98786619Y-55450047D01*
X98786619Y-55450047D02*
X98881857Y-55402428D01*
X98881857Y-55402428D02*
X98977095Y-55402428D01*
X98977095Y-55402428D02*
X99119952Y-55450047D01*
X99119952Y-55450047D02*
X99691381Y-56021475D01*
X99691381Y-56021475D02*
X99691381Y-55402428D01*
D13*
X108626644Y-72924452D02*
X108150453Y-73257785D01*
X108626644Y-73495880D02*
X107626644Y-73495880D01*
X107626644Y-73495880D02*
X107626644Y-73114928D01*
X107626644Y-73114928D02*
X107674263Y-73019690D01*
X107674263Y-73019690D02*
X107721882Y-72972071D01*
X107721882Y-72972071D02*
X107817120Y-72924452D01*
X107817120Y-72924452D02*
X107959977Y-72924452D01*
X107959977Y-72924452D02*
X108055215Y-72972071D01*
X108055215Y-72972071D02*
X108102834Y-73019690D01*
X108102834Y-73019690D02*
X108150453Y-73114928D01*
X108150453Y-73114928D02*
X108150453Y-73495880D01*
X107626644Y-72591118D02*
X107626644Y-71972071D01*
X107626644Y-71972071D02*
X108007596Y-72305404D01*
X108007596Y-72305404D02*
X108007596Y-72162547D01*
X108007596Y-72162547D02*
X108055215Y-72067309D01*
X108055215Y-72067309D02*
X108102834Y-72019690D01*
X108102834Y-72019690D02*
X108198072Y-71972071D01*
X108198072Y-71972071D02*
X108436167Y-71972071D01*
X108436167Y-71972071D02*
X108531405Y-72019690D01*
X108531405Y-72019690D02*
X108579025Y-72067309D01*
X108579025Y-72067309D02*
X108626644Y-72162547D01*
X108626644Y-72162547D02*
X108626644Y-72448261D01*
X108626644Y-72448261D02*
X108579025Y-72543499D01*
X108579025Y-72543499D02*
X108531405Y-72591118D01*
X108626644Y-71495880D02*
X108626644Y-71305404D01*
X108626644Y-71305404D02*
X108579025Y-71210166D01*
X108579025Y-71210166D02*
X108531405Y-71162547D01*
X108531405Y-71162547D02*
X108388548Y-71067309D01*
X108388548Y-71067309D02*
X108198072Y-71019690D01*
X108198072Y-71019690D02*
X107817120Y-71019690D01*
X107817120Y-71019690D02*
X107721882Y-71067309D01*
X107721882Y-71067309D02*
X107674263Y-71114928D01*
X107674263Y-71114928D02*
X107626644Y-71210166D01*
X107626644Y-71210166D02*
X107626644Y-71400642D01*
X107626644Y-71400642D02*
X107674263Y-71495880D01*
X107674263Y-71495880D02*
X107721882Y-71543499D01*
X107721882Y-71543499D02*
X107817120Y-71591118D01*
X107817120Y-71591118D02*
X108055215Y-71591118D01*
X108055215Y-71591118D02*
X108150453Y-71543499D01*
X108150453Y-71543499D02*
X108198072Y-71495880D01*
X108198072Y-71495880D02*
X108245691Y-71400642D01*
X108245691Y-71400642D02*
X108245691Y-71210166D01*
X108245691Y-71210166D02*
X108198072Y-71114928D01*
X108198072Y-71114928D02*
X108150453Y-71067309D01*
X108150453Y-71067309D02*
X108055215Y-71019690D01*
X119962644Y-70233952D02*
X119486453Y-70567285D01*
X119962644Y-70805380D02*
X118962644Y-70805380D01*
X118962644Y-70805380D02*
X118962644Y-70424428D01*
X118962644Y-70424428D02*
X119010263Y-70329190D01*
X119010263Y-70329190D02*
X119057882Y-70281571D01*
X119057882Y-70281571D02*
X119153120Y-70233952D01*
X119153120Y-70233952D02*
X119295977Y-70233952D01*
X119295977Y-70233952D02*
X119391215Y-70281571D01*
X119391215Y-70281571D02*
X119438834Y-70329190D01*
X119438834Y-70329190D02*
X119486453Y-70424428D01*
X119486453Y-70424428D02*
X119486453Y-70805380D01*
X119295977Y-69376809D02*
X119962644Y-69376809D01*
X118915025Y-69614904D02*
X119629310Y-69852999D01*
X119629310Y-69852999D02*
X119629310Y-69233952D01*
X119962644Y-68329190D02*
X119962644Y-68900618D01*
X119962644Y-68614904D02*
X118962644Y-68614904D01*
X118962644Y-68614904D02*
X119105501Y-68710142D01*
X119105501Y-68710142D02*
X119200739Y-68805380D01*
X119200739Y-68805380D02*
X119248358Y-68900618D01*
X129376644Y-68368618D02*
X130090929Y-68368618D01*
X130090929Y-68368618D02*
X130233786Y-68416237D01*
X130233786Y-68416237D02*
X130329025Y-68511475D01*
X130329025Y-68511475D02*
X130376644Y-68654332D01*
X130376644Y-68654332D02*
X130376644Y-68749570D01*
X129471882Y-67940046D02*
X129424263Y-67892427D01*
X129424263Y-67892427D02*
X129376644Y-67797189D01*
X129376644Y-67797189D02*
X129376644Y-67559094D01*
X129376644Y-67559094D02*
X129424263Y-67463856D01*
X129424263Y-67463856D02*
X129471882Y-67416237D01*
X129471882Y-67416237D02*
X129567120Y-67368618D01*
X129567120Y-67368618D02*
X129662358Y-67368618D01*
X129662358Y-67368618D02*
X129805215Y-67416237D01*
X129805215Y-67416237D02*
X130376644Y-67987665D01*
X130376644Y-67987665D02*
X130376644Y-67368618D01*
X129376644Y-66511475D02*
X129376644Y-66701951D01*
X129376644Y-66701951D02*
X129424263Y-66797189D01*
X129424263Y-66797189D02*
X129471882Y-66844808D01*
X129471882Y-66844808D02*
X129614739Y-66940046D01*
X129614739Y-66940046D02*
X129805215Y-66987665D01*
X129805215Y-66987665D02*
X130186167Y-66987665D01*
X130186167Y-66987665D02*
X130281405Y-66940046D01*
X130281405Y-66940046D02*
X130329025Y-66892427D01*
X130329025Y-66892427D02*
X130376644Y-66797189D01*
X130376644Y-66797189D02*
X130376644Y-66606713D01*
X130376644Y-66606713D02*
X130329025Y-66511475D01*
X130329025Y-66511475D02*
X130281405Y-66463856D01*
X130281405Y-66463856D02*
X130186167Y-66416237D01*
X130186167Y-66416237D02*
X129948072Y-66416237D01*
X129948072Y-66416237D02*
X129852834Y-66463856D01*
X129852834Y-66463856D02*
X129805215Y-66511475D01*
X129805215Y-66511475D02*
X129757596Y-66606713D01*
X129757596Y-66606713D02*
X129757596Y-66797189D01*
X129757596Y-66797189D02*
X129805215Y-66892427D01*
X129805215Y-66892427D02*
X129852834Y-66940046D01*
X129852834Y-66940046D02*
X129948072Y-66987665D01*
X122010644Y-71130523D02*
X123010644Y-70797190D01*
X123010644Y-70797190D02*
X122010644Y-70463857D01*
X123010644Y-70130523D02*
X122343977Y-70130523D01*
X122010644Y-70130523D02*
X122058263Y-70178142D01*
X122058263Y-70178142D02*
X122105882Y-70130523D01*
X122105882Y-70130523D02*
X122058263Y-70082904D01*
X122058263Y-70082904D02*
X122010644Y-70130523D01*
X122010644Y-70130523D02*
X122105882Y-70130523D01*
X122343977Y-69654333D02*
X123010644Y-69654333D01*
X122439215Y-69654333D02*
X122391596Y-69606714D01*
X122391596Y-69606714D02*
X122343977Y-69511476D01*
X122343977Y-69511476D02*
X122343977Y-69368619D01*
X122343977Y-69368619D02*
X122391596Y-69273381D01*
X122391596Y-69273381D02*
X122486834Y-69225762D01*
X122486834Y-69225762D02*
X123010644Y-69225762D01*
X123105882Y-68987667D02*
X123105882Y-68225762D01*
X123010644Y-67987666D02*
X122343977Y-67987666D01*
X122439215Y-67987666D02*
X122391596Y-67940047D01*
X122391596Y-67940047D02*
X122343977Y-67844809D01*
X122343977Y-67844809D02*
X122343977Y-67701952D01*
X122343977Y-67701952D02*
X122391596Y-67606714D01*
X122391596Y-67606714D02*
X122486834Y-67559095D01*
X122486834Y-67559095D02*
X123010644Y-67559095D01*
X122486834Y-67559095D02*
X122391596Y-67511476D01*
X122391596Y-67511476D02*
X122343977Y-67416238D01*
X122343977Y-67416238D02*
X122343977Y-67273381D01*
X122343977Y-67273381D02*
X122391596Y-67178142D01*
X122391596Y-67178142D02*
X122486834Y-67130523D01*
X122486834Y-67130523D02*
X123010644Y-67130523D01*
X123010644Y-66511476D02*
X122963025Y-66606714D01*
X122963025Y-66606714D02*
X122915405Y-66654333D01*
X122915405Y-66654333D02*
X122820167Y-66701952D01*
X122820167Y-66701952D02*
X122534453Y-66701952D01*
X122534453Y-66701952D02*
X122439215Y-66654333D01*
X122439215Y-66654333D02*
X122391596Y-66606714D01*
X122391596Y-66606714D02*
X122343977Y-66511476D01*
X122343977Y-66511476D02*
X122343977Y-66368619D01*
X122343977Y-66368619D02*
X122391596Y-66273381D01*
X122391596Y-66273381D02*
X122439215Y-66225762D01*
X122439215Y-66225762D02*
X122534453Y-66178143D01*
X122534453Y-66178143D02*
X122820167Y-66178143D01*
X122820167Y-66178143D02*
X122915405Y-66225762D01*
X122915405Y-66225762D02*
X122963025Y-66273381D01*
X122963025Y-66273381D02*
X123010644Y-66368619D01*
X123010644Y-66368619D02*
X123010644Y-66511476D01*
X122343977Y-65892428D02*
X122343977Y-65511476D01*
X122010644Y-65749571D02*
X122867786Y-65749571D01*
X122867786Y-65749571D02*
X122963025Y-65701952D01*
X122963025Y-65701952D02*
X123010644Y-65606714D01*
X123010644Y-65606714D02*
X123010644Y-65511476D01*
X123010644Y-65035285D02*
X122963025Y-65130523D01*
X122963025Y-65130523D02*
X122915405Y-65178142D01*
X122915405Y-65178142D02*
X122820167Y-65225761D01*
X122820167Y-65225761D02*
X122534453Y-65225761D01*
X122534453Y-65225761D02*
X122439215Y-65178142D01*
X122439215Y-65178142D02*
X122391596Y-65130523D01*
X122391596Y-65130523D02*
X122343977Y-65035285D01*
X122343977Y-65035285D02*
X122343977Y-64892428D01*
X122343977Y-64892428D02*
X122391596Y-64797190D01*
X122391596Y-64797190D02*
X122439215Y-64749571D01*
X122439215Y-64749571D02*
X122534453Y-64701952D01*
X122534453Y-64701952D02*
X122820167Y-64701952D01*
X122820167Y-64701952D02*
X122915405Y-64749571D01*
X122915405Y-64749571D02*
X122963025Y-64797190D01*
X122963025Y-64797190D02*
X123010644Y-64892428D01*
X123010644Y-64892428D02*
X123010644Y-65035285D01*
X123010644Y-64273380D02*
X122343977Y-64273380D01*
X122534453Y-64273380D02*
X122439215Y-64225761D01*
X122439215Y-64225761D02*
X122391596Y-64178142D01*
X122391596Y-64178142D02*
X122343977Y-64082904D01*
X122343977Y-64082904D02*
X122343977Y-63987666D01*
X114003730Y-77082914D02*
X114003730Y-77892437D01*
X114003730Y-77892437D02*
X114051349Y-77987675D01*
X114051349Y-77987675D02*
X114098968Y-78035295D01*
X114098968Y-78035295D02*
X114194206Y-78082914D01*
X114194206Y-78082914D02*
X114384682Y-78082914D01*
X114384682Y-78082914D02*
X114479920Y-78035295D01*
X114479920Y-78035295D02*
X114527539Y-77987675D01*
X114527539Y-77987675D02*
X114575158Y-77892437D01*
X114575158Y-77892437D02*
X114575158Y-77082914D01*
X115575158Y-78082914D02*
X115003730Y-78082914D01*
X115289444Y-78082914D02*
X115289444Y-77082914D01*
X115289444Y-77082914D02*
X115194206Y-77225771D01*
X115194206Y-77225771D02*
X115098968Y-77321009D01*
X115098968Y-77321009D02*
X115003730Y-77368628D01*
X116479920Y-77082914D02*
X116003730Y-77082914D01*
X116003730Y-77082914D02*
X115956111Y-77559104D01*
X115956111Y-77559104D02*
X116003730Y-77511485D01*
X116003730Y-77511485D02*
X116098968Y-77463866D01*
X116098968Y-77463866D02*
X116337063Y-77463866D01*
X116337063Y-77463866D02*
X116432301Y-77511485D01*
X116432301Y-77511485D02*
X116479920Y-77559104D01*
X116479920Y-77559104D02*
X116527539Y-77654342D01*
X116527539Y-77654342D02*
X116527539Y-77892437D01*
X116527539Y-77892437D02*
X116479920Y-77987675D01*
X116479920Y-77987675D02*
X116432301Y-78035295D01*
X116432301Y-78035295D02*
X116337063Y-78082914D01*
X116337063Y-78082914D02*
X116098968Y-78082914D01*
X116098968Y-78082914D02*
X116003730Y-78035295D01*
X116003730Y-78035295D02*
X115956111Y-77987675D01*
X114003730Y-69462914D02*
X114003730Y-70272437D01*
X114003730Y-70272437D02*
X114051349Y-70367675D01*
X114051349Y-70367675D02*
X114098968Y-70415295D01*
X114098968Y-70415295D02*
X114194206Y-70462914D01*
X114194206Y-70462914D02*
X114384682Y-70462914D01*
X114384682Y-70462914D02*
X114479920Y-70415295D01*
X114479920Y-70415295D02*
X114527539Y-70367675D01*
X114527539Y-70367675D02*
X114575158Y-70272437D01*
X114575158Y-70272437D02*
X114575158Y-69462914D01*
X115575158Y-70462914D02*
X115003730Y-70462914D01*
X115289444Y-70462914D02*
X115289444Y-69462914D01*
X115289444Y-69462914D02*
X115194206Y-69605771D01*
X115194206Y-69605771D02*
X115098968Y-69701009D01*
X115098968Y-69701009D02*
X115003730Y-69748628D01*
X115908492Y-69462914D02*
X116527539Y-69462914D01*
X116527539Y-69462914D02*
X116194206Y-69843866D01*
X116194206Y-69843866D02*
X116337063Y-69843866D01*
X116337063Y-69843866D02*
X116432301Y-69891485D01*
X116432301Y-69891485D02*
X116479920Y-69939104D01*
X116479920Y-69939104D02*
X116527539Y-70034342D01*
X116527539Y-70034342D02*
X116527539Y-70272437D01*
X116527539Y-70272437D02*
X116479920Y-70367675D01*
X116479920Y-70367675D02*
X116432301Y-70415295D01*
X116432301Y-70415295D02*
X116337063Y-70462914D01*
X116337063Y-70462914D02*
X116051349Y-70462914D01*
X116051349Y-70462914D02*
X115956111Y-70415295D01*
X115956111Y-70415295D02*
X115908492Y-70367675D01*
X185849025Y-56842427D02*
X185896644Y-56699570D01*
X185896644Y-56699570D02*
X185896644Y-56461475D01*
X185896644Y-56461475D02*
X185849025Y-56366237D01*
X185849025Y-56366237D02*
X185801405Y-56318618D01*
X185801405Y-56318618D02*
X185706167Y-56270999D01*
X185706167Y-56270999D02*
X185610929Y-56270999D01*
X185610929Y-56270999D02*
X185515691Y-56318618D01*
X185515691Y-56318618D02*
X185468072Y-56366237D01*
X185468072Y-56366237D02*
X185420453Y-56461475D01*
X185420453Y-56461475D02*
X185372834Y-56651951D01*
X185372834Y-56651951D02*
X185325215Y-56747189D01*
X185325215Y-56747189D02*
X185277596Y-56794808D01*
X185277596Y-56794808D02*
X185182358Y-56842427D01*
X185182358Y-56842427D02*
X185087120Y-56842427D01*
X185087120Y-56842427D02*
X184991882Y-56794808D01*
X184991882Y-56794808D02*
X184944263Y-56747189D01*
X184944263Y-56747189D02*
X184896644Y-56651951D01*
X184896644Y-56651951D02*
X184896644Y-56413856D01*
X184896644Y-56413856D02*
X184944263Y-56270999D01*
X184896644Y-55937665D02*
X185896644Y-55699570D01*
X185896644Y-55699570D02*
X185182358Y-55509094D01*
X185182358Y-55509094D02*
X185896644Y-55318618D01*
X185896644Y-55318618D02*
X184896644Y-55080523D01*
X184991882Y-54747189D02*
X184944263Y-54699570D01*
X184944263Y-54699570D02*
X184896644Y-54604332D01*
X184896644Y-54604332D02*
X184896644Y-54366237D01*
X184896644Y-54366237D02*
X184944263Y-54270999D01*
X184944263Y-54270999D02*
X184991882Y-54223380D01*
X184991882Y-54223380D02*
X185087120Y-54175761D01*
X185087120Y-54175761D02*
X185182358Y-54175761D01*
X185182358Y-54175761D02*
X185325215Y-54223380D01*
X185325215Y-54223380D02*
X185896644Y-54794808D01*
X185896644Y-54794808D02*
X185896644Y-54175761D01*
X122662644Y-84561452D02*
X122186453Y-84894785D01*
X122662644Y-85132880D02*
X121662644Y-85132880D01*
X121662644Y-85132880D02*
X121662644Y-84751928D01*
X121662644Y-84751928D02*
X121710263Y-84656690D01*
X121710263Y-84656690D02*
X121757882Y-84609071D01*
X121757882Y-84609071D02*
X121853120Y-84561452D01*
X121853120Y-84561452D02*
X121995977Y-84561452D01*
X121995977Y-84561452D02*
X122091215Y-84609071D01*
X122091215Y-84609071D02*
X122138834Y-84656690D01*
X122138834Y-84656690D02*
X122186453Y-84751928D01*
X122186453Y-84751928D02*
X122186453Y-85132880D01*
X121662644Y-83656690D02*
X121662644Y-84132880D01*
X121662644Y-84132880D02*
X122138834Y-84180499D01*
X122138834Y-84180499D02*
X122091215Y-84132880D01*
X122091215Y-84132880D02*
X122043596Y-84037642D01*
X122043596Y-84037642D02*
X122043596Y-83799547D01*
X122043596Y-83799547D02*
X122091215Y-83704309D01*
X122091215Y-83704309D02*
X122138834Y-83656690D01*
X122138834Y-83656690D02*
X122234072Y-83609071D01*
X122234072Y-83609071D02*
X122472167Y-83609071D01*
X122472167Y-83609071D02*
X122567405Y-83656690D01*
X122567405Y-83656690D02*
X122615025Y-83704309D01*
X122615025Y-83704309D02*
X122662644Y-83799547D01*
X122662644Y-83799547D02*
X122662644Y-84037642D01*
X122662644Y-84037642D02*
X122615025Y-84132880D01*
X122615025Y-84132880D02*
X122567405Y-84180499D01*
X121662644Y-82990023D02*
X121662644Y-82894785D01*
X121662644Y-82894785D02*
X121710263Y-82799547D01*
X121710263Y-82799547D02*
X121757882Y-82751928D01*
X121757882Y-82751928D02*
X121853120Y-82704309D01*
X121853120Y-82704309D02*
X122043596Y-82656690D01*
X122043596Y-82656690D02*
X122281691Y-82656690D01*
X122281691Y-82656690D02*
X122472167Y-82704309D01*
X122472167Y-82704309D02*
X122567405Y-82751928D01*
X122567405Y-82751928D02*
X122615025Y-82799547D01*
X122615025Y-82799547D02*
X122662644Y-82894785D01*
X122662644Y-82894785D02*
X122662644Y-82990023D01*
X122662644Y-82990023D02*
X122615025Y-83085261D01*
X122615025Y-83085261D02*
X122567405Y-83132880D01*
X122567405Y-83132880D02*
X122472167Y-83180499D01*
X122472167Y-83180499D02*
X122281691Y-83228118D01*
X122281691Y-83228118D02*
X122043596Y-83228118D01*
X122043596Y-83228118D02*
X121853120Y-83180499D01*
X121853120Y-83180499D02*
X121757882Y-83132880D01*
X121757882Y-83132880D02*
X121710263Y-83085261D01*
X121710263Y-83085261D02*
X121662644Y-82990023D01*
X108626644Y-80544452D02*
X108150453Y-80877785D01*
X108626644Y-81115880D02*
X107626644Y-81115880D01*
X107626644Y-81115880D02*
X107626644Y-80734928D01*
X107626644Y-80734928D02*
X107674263Y-80639690D01*
X107674263Y-80639690D02*
X107721882Y-80592071D01*
X107721882Y-80592071D02*
X107817120Y-80544452D01*
X107817120Y-80544452D02*
X107959977Y-80544452D01*
X107959977Y-80544452D02*
X108055215Y-80592071D01*
X108055215Y-80592071D02*
X108102834Y-80639690D01*
X108102834Y-80639690D02*
X108150453Y-80734928D01*
X108150453Y-80734928D02*
X108150453Y-81115880D01*
X107959977Y-79687309D02*
X108626644Y-79687309D01*
X107579025Y-79925404D02*
X108293310Y-80163499D01*
X108293310Y-80163499D02*
X108293310Y-79544452D01*
X107721882Y-79211118D02*
X107674263Y-79163499D01*
X107674263Y-79163499D02*
X107626644Y-79068261D01*
X107626644Y-79068261D02*
X107626644Y-78830166D01*
X107626644Y-78830166D02*
X107674263Y-78734928D01*
X107674263Y-78734928D02*
X107721882Y-78687309D01*
X107721882Y-78687309D02*
X107817120Y-78639690D01*
X107817120Y-78639690D02*
X107912358Y-78639690D01*
X107912358Y-78639690D02*
X108055215Y-78687309D01*
X108055215Y-78687309D02*
X108626644Y-79258737D01*
X108626644Y-79258737D02*
X108626644Y-78639690D01*
X161406644Y-56187752D02*
X160930453Y-56521085D01*
X161406644Y-56759180D02*
X160406644Y-56759180D01*
X160406644Y-56759180D02*
X160406644Y-56378228D01*
X160406644Y-56378228D02*
X160454263Y-56282990D01*
X160454263Y-56282990D02*
X160501882Y-56235371D01*
X160501882Y-56235371D02*
X160597120Y-56187752D01*
X160597120Y-56187752D02*
X160739977Y-56187752D01*
X160739977Y-56187752D02*
X160835215Y-56235371D01*
X160835215Y-56235371D02*
X160882834Y-56282990D01*
X160882834Y-56282990D02*
X160930453Y-56378228D01*
X160930453Y-56378228D02*
X160930453Y-56759180D01*
X161406644Y-55235371D02*
X161406644Y-55806799D01*
X161406644Y-55521085D02*
X160406644Y-55521085D01*
X160406644Y-55521085D02*
X160549501Y-55616323D01*
X160549501Y-55616323D02*
X160644739Y-55711561D01*
X160644739Y-55711561D02*
X160692358Y-55806799D01*
X160739977Y-54378228D02*
X161406644Y-54378228D01*
X160359025Y-54616323D02*
X161073310Y-54854418D01*
X161073310Y-54854418D02*
X161073310Y-54235371D01*
X112101644Y-55152428D02*
X112815929Y-55152428D01*
X112815929Y-55152428D02*
X112958786Y-55200047D01*
X112958786Y-55200047D02*
X113054025Y-55295285D01*
X113054025Y-55295285D02*
X113101644Y-55438142D01*
X113101644Y-55438142D02*
X113101644Y-55533380D01*
X112434977Y-54247666D02*
X113101644Y-54247666D01*
X112054025Y-54485761D02*
X112768310Y-54723856D01*
X112768310Y-54723856D02*
X112768310Y-54104809D01*
X150669344Y-60242218D02*
X151383629Y-60242218D01*
X151383629Y-60242218D02*
X151526486Y-60289837D01*
X151526486Y-60289837D02*
X151621725Y-60385075D01*
X151621725Y-60385075D02*
X151669344Y-60527932D01*
X151669344Y-60527932D02*
X151669344Y-60623170D01*
X151002677Y-59337456D02*
X151669344Y-59337456D01*
X150621725Y-59575551D02*
X151336010Y-59813646D01*
X151336010Y-59813646D02*
X151336010Y-59194599D01*
X150669344Y-58623170D02*
X150669344Y-58527932D01*
X150669344Y-58527932D02*
X150716963Y-58432694D01*
X150716963Y-58432694D02*
X150764582Y-58385075D01*
X150764582Y-58385075D02*
X150859820Y-58337456D01*
X150859820Y-58337456D02*
X151050296Y-58289837D01*
X151050296Y-58289837D02*
X151288391Y-58289837D01*
X151288391Y-58289837D02*
X151478867Y-58337456D01*
X151478867Y-58337456D02*
X151574105Y-58385075D01*
X151574105Y-58385075D02*
X151621725Y-58432694D01*
X151621725Y-58432694D02*
X151669344Y-58527932D01*
X151669344Y-58527932D02*
X151669344Y-58623170D01*
X151669344Y-58623170D02*
X151621725Y-58718408D01*
X151621725Y-58718408D02*
X151574105Y-58766027D01*
X151574105Y-58766027D02*
X151478867Y-58813646D01*
X151478867Y-58813646D02*
X151288391Y-58861265D01*
X151288391Y-58861265D02*
X151050296Y-58861265D01*
X151050296Y-58861265D02*
X150859820Y-58813646D01*
X150859820Y-58813646D02*
X150764582Y-58766027D01*
X150764582Y-58766027D02*
X150716963Y-58718408D01*
X150716963Y-58718408D02*
X150669344Y-58623170D01*
X130294967Y-83253914D02*
X129961634Y-82777723D01*
X129723539Y-83253914D02*
X129723539Y-82253914D01*
X129723539Y-82253914D02*
X130104491Y-82253914D01*
X130104491Y-82253914D02*
X130199729Y-82301533D01*
X130199729Y-82301533D02*
X130247348Y-82349152D01*
X130247348Y-82349152D02*
X130294967Y-82444390D01*
X130294967Y-82444390D02*
X130294967Y-82587247D01*
X130294967Y-82587247D02*
X130247348Y-82682485D01*
X130247348Y-82682485D02*
X130199729Y-82730104D01*
X130199729Y-82730104D02*
X130104491Y-82777723D01*
X130104491Y-82777723D02*
X129723539Y-82777723D01*
X130675920Y-82349152D02*
X130723539Y-82301533D01*
X130723539Y-82301533D02*
X130818777Y-82253914D01*
X130818777Y-82253914D02*
X131056872Y-82253914D01*
X131056872Y-82253914D02*
X131152110Y-82301533D01*
X131152110Y-82301533D02*
X131199729Y-82349152D01*
X131199729Y-82349152D02*
X131247348Y-82444390D01*
X131247348Y-82444390D02*
X131247348Y-82539628D01*
X131247348Y-82539628D02*
X131199729Y-82682485D01*
X131199729Y-82682485D02*
X130628301Y-83253914D01*
X130628301Y-83253914D02*
X131247348Y-83253914D01*
X131723539Y-83253914D02*
X131914015Y-83253914D01*
X131914015Y-83253914D02*
X132009253Y-83206295D01*
X132009253Y-83206295D02*
X132056872Y-83158675D01*
X132056872Y-83158675D02*
X132152110Y-83015818D01*
X132152110Y-83015818D02*
X132199729Y-82825342D01*
X132199729Y-82825342D02*
X132199729Y-82444390D01*
X132199729Y-82444390D02*
X132152110Y-82349152D01*
X132152110Y-82349152D02*
X132104491Y-82301533D01*
X132104491Y-82301533D02*
X132009253Y-82253914D01*
X132009253Y-82253914D02*
X131818777Y-82253914D01*
X131818777Y-82253914D02*
X131723539Y-82301533D01*
X131723539Y-82301533D02*
X131675920Y-82349152D01*
X131675920Y-82349152D02*
X131628301Y-82444390D01*
X131628301Y-82444390D02*
X131628301Y-82682485D01*
X131628301Y-82682485D02*
X131675920Y-82777723D01*
X131675920Y-82777723D02*
X131723539Y-82825342D01*
X131723539Y-82825342D02*
X131818777Y-82872961D01*
X131818777Y-82872961D02*
X132009253Y-82872961D01*
X132009253Y-82872961D02*
X132104491Y-82825342D01*
X132104491Y-82825342D02*
X132152110Y-82777723D01*
X132152110Y-82777723D02*
X132199729Y-82682485D01*
X130294967Y-80713914D02*
X129961634Y-80237723D01*
X129723539Y-80713914D02*
X129723539Y-79713914D01*
X129723539Y-79713914D02*
X130104491Y-79713914D01*
X130104491Y-79713914D02*
X130199729Y-79761533D01*
X130199729Y-79761533D02*
X130247348Y-79809152D01*
X130247348Y-79809152D02*
X130294967Y-79904390D01*
X130294967Y-79904390D02*
X130294967Y-80047247D01*
X130294967Y-80047247D02*
X130247348Y-80142485D01*
X130247348Y-80142485D02*
X130199729Y-80190104D01*
X130199729Y-80190104D02*
X130104491Y-80237723D01*
X130104491Y-80237723D02*
X129723539Y-80237723D01*
X130628301Y-79713914D02*
X131247348Y-79713914D01*
X131247348Y-79713914D02*
X130914015Y-80094866D01*
X130914015Y-80094866D02*
X131056872Y-80094866D01*
X131056872Y-80094866D02*
X131152110Y-80142485D01*
X131152110Y-80142485D02*
X131199729Y-80190104D01*
X131199729Y-80190104D02*
X131247348Y-80285342D01*
X131247348Y-80285342D02*
X131247348Y-80523437D01*
X131247348Y-80523437D02*
X131199729Y-80618675D01*
X131199729Y-80618675D02*
X131152110Y-80666295D01*
X131152110Y-80666295D02*
X131056872Y-80713914D01*
X131056872Y-80713914D02*
X130771158Y-80713914D01*
X130771158Y-80713914D02*
X130675920Y-80666295D01*
X130675920Y-80666295D02*
X130628301Y-80618675D01*
X131866396Y-79713914D02*
X131961634Y-79713914D01*
X131961634Y-79713914D02*
X132056872Y-79761533D01*
X132056872Y-79761533D02*
X132104491Y-79809152D01*
X132104491Y-79809152D02*
X132152110Y-79904390D01*
X132152110Y-79904390D02*
X132199729Y-80094866D01*
X132199729Y-80094866D02*
X132199729Y-80332961D01*
X132199729Y-80332961D02*
X132152110Y-80523437D01*
X132152110Y-80523437D02*
X132104491Y-80618675D01*
X132104491Y-80618675D02*
X132056872Y-80666295D01*
X132056872Y-80666295D02*
X131961634Y-80713914D01*
X131961634Y-80713914D02*
X131866396Y-80713914D01*
X131866396Y-80713914D02*
X131771158Y-80666295D01*
X131771158Y-80666295D02*
X131723539Y-80618675D01*
X131723539Y-80618675D02*
X131675920Y-80523437D01*
X131675920Y-80523437D02*
X131628301Y-80332961D01*
X131628301Y-80332961D02*
X131628301Y-80094866D01*
X131628301Y-80094866D02*
X131675920Y-79904390D01*
X131675920Y-79904390D02*
X131723539Y-79809152D01*
X131723539Y-79809152D02*
X131771158Y-79761533D01*
X131771158Y-79761533D02*
X131866396Y-79713914D01*
X115038781Y-115364841D02*
X114562590Y-115698174D01*
X115038781Y-115936269D02*
X114038781Y-115936269D01*
X114038781Y-115936269D02*
X114038781Y-115555317D01*
X114038781Y-115555317D02*
X114086400Y-115460079D01*
X114086400Y-115460079D02*
X114134019Y-115412460D01*
X114134019Y-115412460D02*
X114229257Y-115364841D01*
X114229257Y-115364841D02*
X114372114Y-115364841D01*
X114372114Y-115364841D02*
X114467352Y-115412460D01*
X114467352Y-115412460D02*
X114514971Y-115460079D01*
X114514971Y-115460079D02*
X114562590Y-115555317D01*
X114562590Y-115555317D02*
X114562590Y-115936269D01*
X114038781Y-115031507D02*
X114038781Y-114412460D01*
X114038781Y-114412460D02*
X114419733Y-114745793D01*
X114419733Y-114745793D02*
X114419733Y-114602936D01*
X114419733Y-114602936D02*
X114467352Y-114507698D01*
X114467352Y-114507698D02*
X114514971Y-114460079D01*
X114514971Y-114460079D02*
X114610209Y-114412460D01*
X114610209Y-114412460D02*
X114848304Y-114412460D01*
X114848304Y-114412460D02*
X114943542Y-114460079D01*
X114943542Y-114460079D02*
X114991162Y-114507698D01*
X114991162Y-114507698D02*
X115038781Y-114602936D01*
X115038781Y-114602936D02*
X115038781Y-114888650D01*
X115038781Y-114888650D02*
X114991162Y-114983888D01*
X114991162Y-114983888D02*
X114943542Y-115031507D01*
X114467352Y-113841031D02*
X114419733Y-113936269D01*
X114419733Y-113936269D02*
X114372114Y-113983888D01*
X114372114Y-113983888D02*
X114276876Y-114031507D01*
X114276876Y-114031507D02*
X114229257Y-114031507D01*
X114229257Y-114031507D02*
X114134019Y-113983888D01*
X114134019Y-113983888D02*
X114086400Y-113936269D01*
X114086400Y-113936269D02*
X114038781Y-113841031D01*
X114038781Y-113841031D02*
X114038781Y-113650555D01*
X114038781Y-113650555D02*
X114086400Y-113555317D01*
X114086400Y-113555317D02*
X114134019Y-113507698D01*
X114134019Y-113507698D02*
X114229257Y-113460079D01*
X114229257Y-113460079D02*
X114276876Y-113460079D01*
X114276876Y-113460079D02*
X114372114Y-113507698D01*
X114372114Y-113507698D02*
X114419733Y-113555317D01*
X114419733Y-113555317D02*
X114467352Y-113650555D01*
X114467352Y-113650555D02*
X114467352Y-113841031D01*
X114467352Y-113841031D02*
X114514971Y-113936269D01*
X114514971Y-113936269D02*
X114562590Y-113983888D01*
X114562590Y-113983888D02*
X114657828Y-114031507D01*
X114657828Y-114031507D02*
X114848304Y-114031507D01*
X114848304Y-114031507D02*
X114943542Y-113983888D01*
X114943542Y-113983888D02*
X114991162Y-113936269D01*
X114991162Y-113936269D02*
X115038781Y-113841031D01*
X115038781Y-113841031D02*
X115038781Y-113650555D01*
X115038781Y-113650555D02*
X114991162Y-113555317D01*
X114991162Y-113555317D02*
X114943542Y-113507698D01*
X114943542Y-113507698D02*
X114848304Y-113460079D01*
X114848304Y-113460079D02*
X114657828Y-113460079D01*
X114657828Y-113460079D02*
X114562590Y-113507698D01*
X114562590Y-113507698D02*
X114514971Y-113555317D01*
X114514971Y-113555317D02*
X114467352Y-113650555D01*
X154512301Y-56853914D02*
X154512301Y-57568199D01*
X154512301Y-57568199D02*
X154464682Y-57711056D01*
X154464682Y-57711056D02*
X154369444Y-57806295D01*
X154369444Y-57806295D02*
X154226587Y-57853914D01*
X154226587Y-57853914D02*
X154131349Y-57853914D01*
X155512301Y-57853914D02*
X154940873Y-57853914D01*
X155226587Y-57853914D02*
X155226587Y-56853914D01*
X155226587Y-56853914D02*
X155131349Y-56996771D01*
X155131349Y-56996771D02*
X155036111Y-57092009D01*
X155036111Y-57092009D02*
X154940873Y-57139628D01*
X156369444Y-57187247D02*
X156369444Y-57853914D01*
X156131349Y-56806295D02*
X155893254Y-57520580D01*
X155893254Y-57520580D02*
X156512301Y-57520580D01*
X119351644Y-55152428D02*
X120065929Y-55152428D01*
X120065929Y-55152428D02*
X120208786Y-55200047D01*
X120208786Y-55200047D02*
X120304025Y-55295285D01*
X120304025Y-55295285D02*
X120351644Y-55438142D01*
X120351644Y-55438142D02*
X120351644Y-55533380D01*
X119351644Y-54771475D02*
X119351644Y-54104809D01*
X119351644Y-54104809D02*
X120351644Y-54533380D01*
X167969920Y-54364714D02*
X167969920Y-55174237D01*
X167969920Y-55174237D02*
X168017539Y-55269475D01*
X168017539Y-55269475D02*
X168065158Y-55317095D01*
X168065158Y-55317095D02*
X168160396Y-55364714D01*
X168160396Y-55364714D02*
X168350872Y-55364714D01*
X168350872Y-55364714D02*
X168446110Y-55317095D01*
X168446110Y-55317095D02*
X168493729Y-55269475D01*
X168493729Y-55269475D02*
X168541348Y-55174237D01*
X168541348Y-55174237D02*
X168541348Y-54364714D01*
X169493729Y-54364714D02*
X169017539Y-54364714D01*
X169017539Y-54364714D02*
X168969920Y-54840904D01*
X168969920Y-54840904D02*
X169017539Y-54793285D01*
X169017539Y-54793285D02*
X169112777Y-54745666D01*
X169112777Y-54745666D02*
X169350872Y-54745666D01*
X169350872Y-54745666D02*
X169446110Y-54793285D01*
X169446110Y-54793285D02*
X169493729Y-54840904D01*
X169493729Y-54840904D02*
X169541348Y-54936142D01*
X169541348Y-54936142D02*
X169541348Y-55174237D01*
X169541348Y-55174237D02*
X169493729Y-55269475D01*
X169493729Y-55269475D02*
X169446110Y-55317095D01*
X169446110Y-55317095D02*
X169350872Y-55364714D01*
X169350872Y-55364714D02*
X169112777Y-55364714D01*
X169112777Y-55364714D02*
X169017539Y-55317095D01*
X169017539Y-55317095D02*
X168969920Y-55269475D01*
X122662644Y-76687452D02*
X122186453Y-77020785D01*
X122662644Y-77258880D02*
X121662644Y-77258880D01*
X121662644Y-77258880D02*
X121662644Y-76877928D01*
X121662644Y-76877928D02*
X121710263Y-76782690D01*
X121710263Y-76782690D02*
X121757882Y-76735071D01*
X121757882Y-76735071D02*
X121853120Y-76687452D01*
X121853120Y-76687452D02*
X121995977Y-76687452D01*
X121995977Y-76687452D02*
X122091215Y-76735071D01*
X122091215Y-76735071D02*
X122138834Y-76782690D01*
X122138834Y-76782690D02*
X122186453Y-76877928D01*
X122186453Y-76877928D02*
X122186453Y-77258880D01*
X121662644Y-76354118D02*
X121662644Y-75735071D01*
X121662644Y-75735071D02*
X122043596Y-76068404D01*
X122043596Y-76068404D02*
X122043596Y-75925547D01*
X122043596Y-75925547D02*
X122091215Y-75830309D01*
X122091215Y-75830309D02*
X122138834Y-75782690D01*
X122138834Y-75782690D02*
X122234072Y-75735071D01*
X122234072Y-75735071D02*
X122472167Y-75735071D01*
X122472167Y-75735071D02*
X122567405Y-75782690D01*
X122567405Y-75782690D02*
X122615025Y-75830309D01*
X122615025Y-75830309D02*
X122662644Y-75925547D01*
X122662644Y-75925547D02*
X122662644Y-76211261D01*
X122662644Y-76211261D02*
X122615025Y-76306499D01*
X122615025Y-76306499D02*
X122567405Y-76354118D01*
X121662644Y-74877928D02*
X121662644Y-75068404D01*
X121662644Y-75068404D02*
X121710263Y-75163642D01*
X121710263Y-75163642D02*
X121757882Y-75211261D01*
X121757882Y-75211261D02*
X121900739Y-75306499D01*
X121900739Y-75306499D02*
X122091215Y-75354118D01*
X122091215Y-75354118D02*
X122472167Y-75354118D01*
X122472167Y-75354118D02*
X122567405Y-75306499D01*
X122567405Y-75306499D02*
X122615025Y-75258880D01*
X122615025Y-75258880D02*
X122662644Y-75163642D01*
X122662644Y-75163642D02*
X122662644Y-74973166D01*
X122662644Y-74973166D02*
X122615025Y-74877928D01*
X122615025Y-74877928D02*
X122567405Y-74830309D01*
X122567405Y-74830309D02*
X122472167Y-74782690D01*
X122472167Y-74782690D02*
X122234072Y-74782690D01*
X122234072Y-74782690D02*
X122138834Y-74830309D01*
X122138834Y-74830309D02*
X122091215Y-74877928D01*
X122091215Y-74877928D02*
X122043596Y-74973166D01*
X122043596Y-74973166D02*
X122043596Y-75163642D01*
X122043596Y-75163642D02*
X122091215Y-75258880D01*
X122091215Y-75258880D02*
X122138834Y-75306499D01*
X122138834Y-75306499D02*
X122234072Y-75354118D01*
X193038781Y-94724078D02*
X192038781Y-94724078D01*
X192038781Y-94724078D02*
X192038781Y-94343126D01*
X192038781Y-94343126D02*
X192086400Y-94247888D01*
X192086400Y-94247888D02*
X192134019Y-94200269D01*
X192134019Y-94200269D02*
X192229257Y-94152650D01*
X192229257Y-94152650D02*
X192372114Y-94152650D01*
X192372114Y-94152650D02*
X192467352Y-94200269D01*
X192467352Y-94200269D02*
X192514971Y-94247888D01*
X192514971Y-94247888D02*
X192562590Y-94343126D01*
X192562590Y-94343126D02*
X192562590Y-94724078D01*
X193038781Y-93200269D02*
X193038781Y-93771697D01*
X193038781Y-93485983D02*
X192038781Y-93485983D01*
X192038781Y-93485983D02*
X192181638Y-93581221D01*
X192181638Y-93581221D02*
X192276876Y-93676459D01*
X192276876Y-93676459D02*
X192324495Y-93771697D01*
D14*
X122366542Y-113257889D02*
X121557019Y-113257889D01*
X121557019Y-113257889D02*
X121461781Y-113305508D01*
X121461781Y-113305508D02*
X121414162Y-113353127D01*
X121414162Y-113353127D02*
X121366542Y-113448365D01*
X121366542Y-113448365D02*
X121366542Y-113638841D01*
X121366542Y-113638841D02*
X121414162Y-113734079D01*
X121414162Y-113734079D02*
X121461781Y-113781698D01*
X121461781Y-113781698D02*
X121557019Y-113829317D01*
X121557019Y-113829317D02*
X122366542Y-113829317D01*
X121366542Y-114829317D02*
X121366542Y-114257889D01*
X121366542Y-114543603D02*
X122366542Y-114543603D01*
X122366542Y-114543603D02*
X122223685Y-114448365D01*
X122223685Y-114448365D02*
X122128447Y-114353127D01*
X122128447Y-114353127D02*
X122080828Y-114257889D01*
X122033209Y-115686460D02*
X121366542Y-115686460D01*
X122414162Y-115448365D02*
X121699876Y-115210270D01*
X121699876Y-115210270D02*
X121699876Y-115829317D01*
X115649162Y-109672249D02*
X115601542Y-109815106D01*
X115601542Y-109815106D02*
X115601542Y-110053201D01*
X115601542Y-110053201D02*
X115649162Y-110148439D01*
X115649162Y-110148439D02*
X115696781Y-110196058D01*
X115696781Y-110196058D02*
X115792019Y-110243677D01*
X115792019Y-110243677D02*
X115887257Y-110243677D01*
X115887257Y-110243677D02*
X115982495Y-110196058D01*
X115982495Y-110196058D02*
X116030114Y-110148439D01*
X116030114Y-110148439D02*
X116077733Y-110053201D01*
X116077733Y-110053201D02*
X116125352Y-109862725D01*
X116125352Y-109862725D02*
X116172971Y-109767487D01*
X116172971Y-109767487D02*
X116220590Y-109719868D01*
X116220590Y-109719868D02*
X116315828Y-109672249D01*
X116315828Y-109672249D02*
X116411066Y-109672249D01*
X116411066Y-109672249D02*
X116506304Y-109719868D01*
X116506304Y-109719868D02*
X116553923Y-109767487D01*
X116553923Y-109767487D02*
X116601542Y-109862725D01*
X116601542Y-109862725D02*
X116601542Y-110100820D01*
X116601542Y-110100820D02*
X116553923Y-110243677D01*
X115601542Y-110672249D02*
X116601542Y-110672249D01*
X116601542Y-110672249D02*
X116601542Y-110910344D01*
X116601542Y-110910344D02*
X116553923Y-111053201D01*
X116553923Y-111053201D02*
X116458685Y-111148439D01*
X116458685Y-111148439D02*
X116363447Y-111196058D01*
X116363447Y-111196058D02*
X116172971Y-111243677D01*
X116172971Y-111243677D02*
X116030114Y-111243677D01*
X116030114Y-111243677D02*
X115839638Y-111196058D01*
X115839638Y-111196058D02*
X115744400Y-111148439D01*
X115744400Y-111148439D02*
X115649162Y-111053201D01*
X115649162Y-111053201D02*
X115601542Y-110910344D01*
X115601542Y-110910344D02*
X115601542Y-110672249D01*
X115887257Y-111624630D02*
X115887257Y-112100820D01*
X115601542Y-111529392D02*
X116601542Y-111862725D01*
X116601542Y-111862725D02*
X115601542Y-112196058D01*
X113249162Y-109572249D02*
X113201542Y-109715106D01*
X113201542Y-109715106D02*
X113201542Y-109953201D01*
X113201542Y-109953201D02*
X113249162Y-110048439D01*
X113249162Y-110048439D02*
X113296781Y-110096058D01*
X113296781Y-110096058D02*
X113392019Y-110143677D01*
X113392019Y-110143677D02*
X113487257Y-110143677D01*
X113487257Y-110143677D02*
X113582495Y-110096058D01*
X113582495Y-110096058D02*
X113630114Y-110048439D01*
X113630114Y-110048439D02*
X113677733Y-109953201D01*
X113677733Y-109953201D02*
X113725352Y-109762725D01*
X113725352Y-109762725D02*
X113772971Y-109667487D01*
X113772971Y-109667487D02*
X113820590Y-109619868D01*
X113820590Y-109619868D02*
X113915828Y-109572249D01*
X113915828Y-109572249D02*
X114011066Y-109572249D01*
X114011066Y-109572249D02*
X114106304Y-109619868D01*
X114106304Y-109619868D02*
X114153923Y-109667487D01*
X114153923Y-109667487D02*
X114201542Y-109762725D01*
X114201542Y-109762725D02*
X114201542Y-110000820D01*
X114201542Y-110000820D02*
X114153923Y-110143677D01*
X113296781Y-111143677D02*
X113249162Y-111096058D01*
X113249162Y-111096058D02*
X113201542Y-110953201D01*
X113201542Y-110953201D02*
X113201542Y-110857963D01*
X113201542Y-110857963D02*
X113249162Y-110715106D01*
X113249162Y-110715106D02*
X113344400Y-110619868D01*
X113344400Y-110619868D02*
X113439638Y-110572249D01*
X113439638Y-110572249D02*
X113630114Y-110524630D01*
X113630114Y-110524630D02*
X113772971Y-110524630D01*
X113772971Y-110524630D02*
X113963447Y-110572249D01*
X113963447Y-110572249D02*
X114058685Y-110619868D01*
X114058685Y-110619868D02*
X114153923Y-110715106D01*
X114153923Y-110715106D02*
X114201542Y-110857963D01*
X114201542Y-110857963D02*
X114201542Y-110953201D01*
X114201542Y-110953201D02*
X114153923Y-111096058D01*
X114153923Y-111096058D02*
X114106304Y-111143677D01*
X113201542Y-112048439D02*
X113201542Y-111572249D01*
X113201542Y-111572249D02*
X114201542Y-111572249D01*
X130311542Y-109642011D02*
X129311542Y-109975344D01*
X129311542Y-109975344D02*
X130311542Y-110308677D01*
X129311542Y-110642011D02*
X129978209Y-110642011D01*
X130311542Y-110642011D02*
X130263923Y-110594392D01*
X130263923Y-110594392D02*
X130216304Y-110642011D01*
X130216304Y-110642011D02*
X130263923Y-110689630D01*
X130263923Y-110689630D02*
X130311542Y-110642011D01*
X130311542Y-110642011D02*
X130216304Y-110642011D01*
X129978209Y-111118201D02*
X129311542Y-111118201D01*
X129882971Y-111118201D02*
X129930590Y-111165820D01*
X129930590Y-111165820D02*
X129978209Y-111261058D01*
X129978209Y-111261058D02*
X129978209Y-111403915D01*
X129978209Y-111403915D02*
X129930590Y-111499153D01*
X129930590Y-111499153D02*
X129835352Y-111546772D01*
X129835352Y-111546772D02*
X129311542Y-111546772D01*
D13*
X166839158Y-64286475D02*
X166791539Y-64334095D01*
X166791539Y-64334095D02*
X166648682Y-64381714D01*
X166648682Y-64381714D02*
X166553444Y-64381714D01*
X166553444Y-64381714D02*
X166410587Y-64334095D01*
X166410587Y-64334095D02*
X166315349Y-64238856D01*
X166315349Y-64238856D02*
X166267730Y-64143618D01*
X166267730Y-64143618D02*
X166220111Y-63953142D01*
X166220111Y-63953142D02*
X166220111Y-63810285D01*
X166220111Y-63810285D02*
X166267730Y-63619809D01*
X166267730Y-63619809D02*
X166315349Y-63524571D01*
X166315349Y-63524571D02*
X166410587Y-63429333D01*
X166410587Y-63429333D02*
X166553444Y-63381714D01*
X166553444Y-63381714D02*
X166648682Y-63381714D01*
X166648682Y-63381714D02*
X166791539Y-63429333D01*
X166791539Y-63429333D02*
X166839158Y-63476952D01*
X167791539Y-64381714D02*
X167220111Y-64381714D01*
X167505825Y-64381714D02*
X167505825Y-63381714D01*
X167505825Y-63381714D02*
X167410587Y-63524571D01*
X167410587Y-63524571D02*
X167315349Y-63619809D01*
X167315349Y-63619809D02*
X167220111Y-63667428D01*
X154738781Y-115185507D02*
X155453066Y-115185507D01*
X155453066Y-115185507D02*
X155595923Y-115233126D01*
X155595923Y-115233126D02*
X155691162Y-115328364D01*
X155691162Y-115328364D02*
X155738781Y-115471221D01*
X155738781Y-115471221D02*
X155738781Y-115566459D01*
X154738781Y-114233126D02*
X154738781Y-114709316D01*
X154738781Y-114709316D02*
X155214971Y-114756935D01*
X155214971Y-114756935D02*
X155167352Y-114709316D01*
X155167352Y-114709316D02*
X155119733Y-114614078D01*
X155119733Y-114614078D02*
X155119733Y-114375983D01*
X155119733Y-114375983D02*
X155167352Y-114280745D01*
X155167352Y-114280745D02*
X155214971Y-114233126D01*
X155214971Y-114233126D02*
X155310209Y-114185507D01*
X155310209Y-114185507D02*
X155548304Y-114185507D01*
X155548304Y-114185507D02*
X155643542Y-114233126D01*
X155643542Y-114233126D02*
X155691162Y-114280745D01*
X155691162Y-114280745D02*
X155738781Y-114375983D01*
X155738781Y-114375983D02*
X155738781Y-114614078D01*
X155738781Y-114614078D02*
X155691162Y-114709316D01*
X155691162Y-114709316D02*
X155643542Y-114756935D01*
X155738781Y-113233126D02*
X155738781Y-113804554D01*
X155738781Y-113518840D02*
X154738781Y-113518840D01*
X154738781Y-113518840D02*
X154881638Y-113614078D01*
X154881638Y-113614078D02*
X154976876Y-113709316D01*
X154976876Y-113709316D02*
X155024495Y-113804554D01*
X108626644Y-76734452D02*
X108150453Y-77067785D01*
X108626644Y-77305880D02*
X107626644Y-77305880D01*
X107626644Y-77305880D02*
X107626644Y-76924928D01*
X107626644Y-76924928D02*
X107674263Y-76829690D01*
X107674263Y-76829690D02*
X107721882Y-76782071D01*
X107721882Y-76782071D02*
X107817120Y-76734452D01*
X107817120Y-76734452D02*
X107959977Y-76734452D01*
X107959977Y-76734452D02*
X108055215Y-76782071D01*
X108055215Y-76782071D02*
X108102834Y-76829690D01*
X108102834Y-76829690D02*
X108150453Y-76924928D01*
X108150453Y-76924928D02*
X108150453Y-77305880D01*
X107626644Y-76401118D02*
X107626644Y-75782071D01*
X107626644Y-75782071D02*
X108007596Y-76115404D01*
X108007596Y-76115404D02*
X108007596Y-75972547D01*
X108007596Y-75972547D02*
X108055215Y-75877309D01*
X108055215Y-75877309D02*
X108102834Y-75829690D01*
X108102834Y-75829690D02*
X108198072Y-75782071D01*
X108198072Y-75782071D02*
X108436167Y-75782071D01*
X108436167Y-75782071D02*
X108531405Y-75829690D01*
X108531405Y-75829690D02*
X108579025Y-75877309D01*
X108579025Y-75877309D02*
X108626644Y-75972547D01*
X108626644Y-75972547D02*
X108626644Y-76258261D01*
X108626644Y-76258261D02*
X108579025Y-76353499D01*
X108579025Y-76353499D02*
X108531405Y-76401118D01*
X107721882Y-75401118D02*
X107674263Y-75353499D01*
X107674263Y-75353499D02*
X107626644Y-75258261D01*
X107626644Y-75258261D02*
X107626644Y-75020166D01*
X107626644Y-75020166D02*
X107674263Y-74924928D01*
X107674263Y-74924928D02*
X107721882Y-74877309D01*
X107721882Y-74877309D02*
X107817120Y-74829690D01*
X107817120Y-74829690D02*
X107912358Y-74829690D01*
X107912358Y-74829690D02*
X108055215Y-74877309D01*
X108055215Y-74877309D02*
X108626644Y-75448737D01*
X108626644Y-75448737D02*
X108626644Y-74829690D01*
X115038781Y-118920841D02*
X114562590Y-119254174D01*
X115038781Y-119492269D02*
X114038781Y-119492269D01*
X114038781Y-119492269D02*
X114038781Y-119111317D01*
X114038781Y-119111317D02*
X114086400Y-119016079D01*
X114086400Y-119016079D02*
X114134019Y-118968460D01*
X114134019Y-118968460D02*
X114229257Y-118920841D01*
X114229257Y-118920841D02*
X114372114Y-118920841D01*
X114372114Y-118920841D02*
X114467352Y-118968460D01*
X114467352Y-118968460D02*
X114514971Y-119016079D01*
X114514971Y-119016079D02*
X114562590Y-119111317D01*
X114562590Y-119111317D02*
X114562590Y-119492269D01*
X114038781Y-118587507D02*
X114038781Y-117968460D01*
X114038781Y-117968460D02*
X114419733Y-118301793D01*
X114419733Y-118301793D02*
X114419733Y-118158936D01*
X114419733Y-118158936D02*
X114467352Y-118063698D01*
X114467352Y-118063698D02*
X114514971Y-118016079D01*
X114514971Y-118016079D02*
X114610209Y-117968460D01*
X114610209Y-117968460D02*
X114848304Y-117968460D01*
X114848304Y-117968460D02*
X114943542Y-118016079D01*
X114943542Y-118016079D02*
X114991162Y-118063698D01*
X114991162Y-118063698D02*
X115038781Y-118158936D01*
X115038781Y-118158936D02*
X115038781Y-118444650D01*
X115038781Y-118444650D02*
X114991162Y-118539888D01*
X114991162Y-118539888D02*
X114943542Y-118587507D01*
X114038781Y-117635126D02*
X114038781Y-116968460D01*
X114038781Y-116968460D02*
X115038781Y-117397031D01*
X108626644Y-84608452D02*
X108150453Y-84941785D01*
X108626644Y-85179880D02*
X107626644Y-85179880D01*
X107626644Y-85179880D02*
X107626644Y-84798928D01*
X107626644Y-84798928D02*
X107674263Y-84703690D01*
X107674263Y-84703690D02*
X107721882Y-84656071D01*
X107721882Y-84656071D02*
X107817120Y-84608452D01*
X107817120Y-84608452D02*
X107959977Y-84608452D01*
X107959977Y-84608452D02*
X108055215Y-84656071D01*
X108055215Y-84656071D02*
X108102834Y-84703690D01*
X108102834Y-84703690D02*
X108150453Y-84798928D01*
X108150453Y-84798928D02*
X108150453Y-85179880D01*
X107959977Y-83751309D02*
X108626644Y-83751309D01*
X107579025Y-83989404D02*
X108293310Y-84227499D01*
X108293310Y-84227499D02*
X108293310Y-83608452D01*
X107626644Y-82751309D02*
X107626644Y-83227499D01*
X107626644Y-83227499D02*
X108102834Y-83275118D01*
X108102834Y-83275118D02*
X108055215Y-83227499D01*
X108055215Y-83227499D02*
X108007596Y-83132261D01*
X108007596Y-83132261D02*
X108007596Y-82894166D01*
X108007596Y-82894166D02*
X108055215Y-82798928D01*
X108055215Y-82798928D02*
X108102834Y-82751309D01*
X108102834Y-82751309D02*
X108198072Y-82703690D01*
X108198072Y-82703690D02*
X108436167Y-82703690D01*
X108436167Y-82703690D02*
X108531405Y-82751309D01*
X108531405Y-82751309D02*
X108579025Y-82798928D01*
X108579025Y-82798928D02*
X108626644Y-82894166D01*
X108626644Y-82894166D02*
X108626644Y-83132261D01*
X108626644Y-83132261D02*
X108579025Y-83227499D01*
X108579025Y-83227499D02*
X108531405Y-83275118D01*
X133013730Y-72863914D02*
X133013730Y-71863914D01*
X133013730Y-71863914D02*
X133251825Y-71863914D01*
X133251825Y-71863914D02*
X133394682Y-71911533D01*
X133394682Y-71911533D02*
X133489920Y-72006771D01*
X133489920Y-72006771D02*
X133537539Y-72102009D01*
X133537539Y-72102009D02*
X133585158Y-72292485D01*
X133585158Y-72292485D02*
X133585158Y-72435342D01*
X133585158Y-72435342D02*
X133537539Y-72625818D01*
X133537539Y-72625818D02*
X133489920Y-72721056D01*
X133489920Y-72721056D02*
X133394682Y-72816295D01*
X133394682Y-72816295D02*
X133251825Y-72863914D01*
X133251825Y-72863914D02*
X133013730Y-72863914D01*
X134442301Y-71863914D02*
X134251825Y-71863914D01*
X134251825Y-71863914D02*
X134156587Y-71911533D01*
X134156587Y-71911533D02*
X134108968Y-71959152D01*
X134108968Y-71959152D02*
X134013730Y-72102009D01*
X134013730Y-72102009D02*
X133966111Y-72292485D01*
X133966111Y-72292485D02*
X133966111Y-72673437D01*
X133966111Y-72673437D02*
X134013730Y-72768675D01*
X134013730Y-72768675D02*
X134061349Y-72816295D01*
X134061349Y-72816295D02*
X134156587Y-72863914D01*
X134156587Y-72863914D02*
X134347063Y-72863914D01*
X134347063Y-72863914D02*
X134442301Y-72816295D01*
X134442301Y-72816295D02*
X134489920Y-72768675D01*
X134489920Y-72768675D02*
X134537539Y-72673437D01*
X134537539Y-72673437D02*
X134537539Y-72435342D01*
X134537539Y-72435342D02*
X134489920Y-72340104D01*
X134489920Y-72340104D02*
X134442301Y-72292485D01*
X134442301Y-72292485D02*
X134347063Y-72244866D01*
X134347063Y-72244866D02*
X134156587Y-72244866D01*
X134156587Y-72244866D02*
X134061349Y-72292485D01*
X134061349Y-72292485D02*
X134013730Y-72340104D01*
X134013730Y-72340104D02*
X133966111Y-72435342D01*
X187655867Y-123450803D02*
X187655867Y-122450803D01*
X187655867Y-122450803D02*
X187893962Y-122450803D01*
X187893962Y-122450803D02*
X188036819Y-122498422D01*
X188036819Y-122498422D02*
X188132057Y-122593660D01*
X188132057Y-122593660D02*
X188179676Y-122688898D01*
X188179676Y-122688898D02*
X188227295Y-122879374D01*
X188227295Y-122879374D02*
X188227295Y-123022231D01*
X188227295Y-123022231D02*
X188179676Y-123212707D01*
X188179676Y-123212707D02*
X188132057Y-123307945D01*
X188132057Y-123307945D02*
X188036819Y-123403184D01*
X188036819Y-123403184D02*
X187893962Y-123450803D01*
X187893962Y-123450803D02*
X187655867Y-123450803D01*
X188560629Y-122450803D02*
X189179676Y-122450803D01*
X189179676Y-122450803D02*
X188846343Y-122831755D01*
X188846343Y-122831755D02*
X188989200Y-122831755D01*
X188989200Y-122831755D02*
X189084438Y-122879374D01*
X189084438Y-122879374D02*
X189132057Y-122926993D01*
X189132057Y-122926993D02*
X189179676Y-123022231D01*
X189179676Y-123022231D02*
X189179676Y-123260326D01*
X189179676Y-123260326D02*
X189132057Y-123355564D01*
X189132057Y-123355564D02*
X189084438Y-123403184D01*
X189084438Y-123403184D02*
X188989200Y-123450803D01*
X188989200Y-123450803D02*
X188703486Y-123450803D01*
X188703486Y-123450803D02*
X188608248Y-123403184D01*
X188608248Y-123403184D02*
X188560629Y-123355564D01*
X192829676Y-121550803D02*
X192258248Y-121550803D01*
X192543962Y-121550803D02*
X192543962Y-120550803D01*
X192543962Y-120550803D02*
X192448724Y-120693660D01*
X192448724Y-120693660D02*
X192353486Y-120788898D01*
X192353486Y-120788898D02*
X192258248Y-120836517D01*
X161406644Y-59997752D02*
X160930453Y-60331085D01*
X161406644Y-60569180D02*
X160406644Y-60569180D01*
X160406644Y-60569180D02*
X160406644Y-60188228D01*
X160406644Y-60188228D02*
X160454263Y-60092990D01*
X160454263Y-60092990D02*
X160501882Y-60045371D01*
X160501882Y-60045371D02*
X160597120Y-59997752D01*
X160597120Y-59997752D02*
X160739977Y-59997752D01*
X160739977Y-59997752D02*
X160835215Y-60045371D01*
X160835215Y-60045371D02*
X160882834Y-60092990D01*
X160882834Y-60092990D02*
X160930453Y-60188228D01*
X160930453Y-60188228D02*
X160930453Y-60569180D01*
X161406644Y-59045371D02*
X161406644Y-59616799D01*
X161406644Y-59331085D02*
X160406644Y-59331085D01*
X160406644Y-59331085D02*
X160549501Y-59426323D01*
X160549501Y-59426323D02*
X160644739Y-59521561D01*
X160644739Y-59521561D02*
X160692358Y-59616799D01*
X160406644Y-58712037D02*
X160406644Y-58045371D01*
X160406644Y-58045371D02*
X161406644Y-58473942D01*
X168617158Y-62254475D02*
X168569539Y-62302095D01*
X168569539Y-62302095D02*
X168426682Y-62349714D01*
X168426682Y-62349714D02*
X168331444Y-62349714D01*
X168331444Y-62349714D02*
X168188587Y-62302095D01*
X168188587Y-62302095D02*
X168093349Y-62206856D01*
X168093349Y-62206856D02*
X168045730Y-62111618D01*
X168045730Y-62111618D02*
X167998111Y-61921142D01*
X167998111Y-61921142D02*
X167998111Y-61778285D01*
X167998111Y-61778285D02*
X168045730Y-61587809D01*
X168045730Y-61587809D02*
X168093349Y-61492571D01*
X168093349Y-61492571D02*
X168188587Y-61397333D01*
X168188587Y-61397333D02*
X168331444Y-61349714D01*
X168331444Y-61349714D02*
X168426682Y-61349714D01*
X168426682Y-61349714D02*
X168569539Y-61397333D01*
X168569539Y-61397333D02*
X168617158Y-61444952D01*
X169521920Y-61349714D02*
X169045730Y-61349714D01*
X169045730Y-61349714D02*
X168998111Y-61825904D01*
X168998111Y-61825904D02*
X169045730Y-61778285D01*
X169045730Y-61778285D02*
X169140968Y-61730666D01*
X169140968Y-61730666D02*
X169379063Y-61730666D01*
X169379063Y-61730666D02*
X169474301Y-61778285D01*
X169474301Y-61778285D02*
X169521920Y-61825904D01*
X169521920Y-61825904D02*
X169569539Y-61921142D01*
X169569539Y-61921142D02*
X169569539Y-62159237D01*
X169569539Y-62159237D02*
X169521920Y-62254475D01*
X169521920Y-62254475D02*
X169474301Y-62302095D01*
X169474301Y-62302095D02*
X169379063Y-62349714D01*
X169379063Y-62349714D02*
X169140968Y-62349714D01*
X169140968Y-62349714D02*
X169045730Y-62302095D01*
X169045730Y-62302095D02*
X168998111Y-62254475D01*
X114003730Y-73272914D02*
X114003730Y-74082437D01*
X114003730Y-74082437D02*
X114051349Y-74177675D01*
X114051349Y-74177675D02*
X114098968Y-74225295D01*
X114098968Y-74225295D02*
X114194206Y-74272914D01*
X114194206Y-74272914D02*
X114384682Y-74272914D01*
X114384682Y-74272914D02*
X114479920Y-74225295D01*
X114479920Y-74225295D02*
X114527539Y-74177675D01*
X114527539Y-74177675D02*
X114575158Y-74082437D01*
X114575158Y-74082437D02*
X114575158Y-73272914D01*
X115575158Y-74272914D02*
X115003730Y-74272914D01*
X115289444Y-74272914D02*
X115289444Y-73272914D01*
X115289444Y-73272914D02*
X115194206Y-73415771D01*
X115194206Y-73415771D02*
X115098968Y-73511009D01*
X115098968Y-73511009D02*
X115003730Y-73558628D01*
X115956111Y-73368152D02*
X116003730Y-73320533D01*
X116003730Y-73320533D02*
X116098968Y-73272914D01*
X116098968Y-73272914D02*
X116337063Y-73272914D01*
X116337063Y-73272914D02*
X116432301Y-73320533D01*
X116432301Y-73320533D02*
X116479920Y-73368152D01*
X116479920Y-73368152D02*
X116527539Y-73463390D01*
X116527539Y-73463390D02*
X116527539Y-73558628D01*
X116527539Y-73558628D02*
X116479920Y-73701485D01*
X116479920Y-73701485D02*
X115908492Y-74272914D01*
X115908492Y-74272914D02*
X116527539Y-74272914D01*
X102085253Y-90461247D02*
X102085253Y-91461247D01*
X102085253Y-90508866D02*
X102180491Y-90461247D01*
X102180491Y-90461247D02*
X102370967Y-90461247D01*
X102370967Y-90461247D02*
X102466205Y-90508866D01*
X102466205Y-90508866D02*
X102513824Y-90556485D01*
X102513824Y-90556485D02*
X102561443Y-90651723D01*
X102561443Y-90651723D02*
X102561443Y-90937437D01*
X102561443Y-90937437D02*
X102513824Y-91032675D01*
X102513824Y-91032675D02*
X102466205Y-91080295D01*
X102466205Y-91080295D02*
X102370967Y-91127914D01*
X102370967Y-91127914D02*
X102180491Y-91127914D01*
X102180491Y-91127914D02*
X102085253Y-91080295D01*
X103132872Y-91127914D02*
X103037634Y-91080295D01*
X103037634Y-91080295D02*
X102990015Y-91032675D01*
X102990015Y-91032675D02*
X102942396Y-90937437D01*
X102942396Y-90937437D02*
X102942396Y-90651723D01*
X102942396Y-90651723D02*
X102990015Y-90556485D01*
X102990015Y-90556485D02*
X103037634Y-90508866D01*
X103037634Y-90508866D02*
X103132872Y-90461247D01*
X103132872Y-90461247D02*
X103275729Y-90461247D01*
X103275729Y-90461247D02*
X103370967Y-90508866D01*
X103370967Y-90508866D02*
X103418586Y-90556485D01*
X103418586Y-90556485D02*
X103466205Y-90651723D01*
X103466205Y-90651723D02*
X103466205Y-90937437D01*
X103466205Y-90937437D02*
X103418586Y-91032675D01*
X103418586Y-91032675D02*
X103370967Y-91080295D01*
X103370967Y-91080295D02*
X103275729Y-91127914D01*
X103275729Y-91127914D02*
X103132872Y-91127914D01*
X103799539Y-90461247D02*
X103990015Y-91127914D01*
X103990015Y-91127914D02*
X104180491Y-90651723D01*
X104180491Y-90651723D02*
X104370967Y-91127914D01*
X104370967Y-91127914D02*
X104561443Y-90461247D01*
X105323348Y-91080295D02*
X105228110Y-91127914D01*
X105228110Y-91127914D02*
X105037634Y-91127914D01*
X105037634Y-91127914D02*
X104942396Y-91080295D01*
X104942396Y-91080295D02*
X104894777Y-90985056D01*
X104894777Y-90985056D02*
X104894777Y-90604104D01*
X104894777Y-90604104D02*
X104942396Y-90508866D01*
X104942396Y-90508866D02*
X105037634Y-90461247D01*
X105037634Y-90461247D02*
X105228110Y-90461247D01*
X105228110Y-90461247D02*
X105323348Y-90508866D01*
X105323348Y-90508866D02*
X105370967Y-90604104D01*
X105370967Y-90604104D02*
X105370967Y-90699342D01*
X105370967Y-90699342D02*
X104894777Y-90794580D01*
X105799539Y-91127914D02*
X105799539Y-90461247D01*
X105799539Y-90651723D02*
X105847158Y-90556485D01*
X105847158Y-90556485D02*
X105894777Y-90508866D01*
X105894777Y-90508866D02*
X105990015Y-90461247D01*
X105990015Y-90461247D02*
X106085253Y-90461247D01*
X114003730Y-81146914D02*
X114003730Y-81956437D01*
X114003730Y-81956437D02*
X114051349Y-82051675D01*
X114051349Y-82051675D02*
X114098968Y-82099295D01*
X114098968Y-82099295D02*
X114194206Y-82146914D01*
X114194206Y-82146914D02*
X114384682Y-82146914D01*
X114384682Y-82146914D02*
X114479920Y-82099295D01*
X114479920Y-82099295D02*
X114527539Y-82051675D01*
X114527539Y-82051675D02*
X114575158Y-81956437D01*
X114575158Y-81956437D02*
X114575158Y-81146914D01*
X115575158Y-82146914D02*
X115003730Y-82146914D01*
X115289444Y-82146914D02*
X115289444Y-81146914D01*
X115289444Y-81146914D02*
X115194206Y-81289771D01*
X115194206Y-81289771D02*
X115098968Y-81385009D01*
X115098968Y-81385009D02*
X115003730Y-81432628D01*
X116432301Y-81146914D02*
X116241825Y-81146914D01*
X116241825Y-81146914D02*
X116146587Y-81194533D01*
X116146587Y-81194533D02*
X116098968Y-81242152D01*
X116098968Y-81242152D02*
X116003730Y-81385009D01*
X116003730Y-81385009D02*
X115956111Y-81575485D01*
X115956111Y-81575485D02*
X115956111Y-81956437D01*
X115956111Y-81956437D02*
X116003730Y-82051675D01*
X116003730Y-82051675D02*
X116051349Y-82099295D01*
X116051349Y-82099295D02*
X116146587Y-82146914D01*
X116146587Y-82146914D02*
X116337063Y-82146914D01*
X116337063Y-82146914D02*
X116432301Y-82099295D01*
X116432301Y-82099295D02*
X116479920Y-82051675D01*
X116479920Y-82051675D02*
X116527539Y-81956437D01*
X116527539Y-81956437D02*
X116527539Y-81718342D01*
X116527539Y-81718342D02*
X116479920Y-81623104D01*
X116479920Y-81623104D02*
X116432301Y-81575485D01*
X116432301Y-81575485D02*
X116337063Y-81527866D01*
X116337063Y-81527866D02*
X116146587Y-81527866D01*
X116146587Y-81527866D02*
X116051349Y-81575485D01*
X116051349Y-81575485D02*
X116003730Y-81623104D01*
X116003730Y-81623104D02*
X115956111Y-81718342D01*
X172583781Y-94795507D02*
X173298066Y-94795507D01*
X173298066Y-94795507D02*
X173440923Y-94843126D01*
X173440923Y-94843126D02*
X173536162Y-94938364D01*
X173536162Y-94938364D02*
X173583781Y-95081221D01*
X173583781Y-95081221D02*
X173583781Y-95176459D01*
X172917114Y-93890745D02*
X173583781Y-93890745D01*
X172536162Y-94128840D02*
X173250447Y-94366935D01*
X173250447Y-94366935D02*
X173250447Y-93747888D01*
X172583781Y-93462173D02*
X172583781Y-92843126D01*
X172583781Y-92843126D02*
X172964733Y-93176459D01*
X172964733Y-93176459D02*
X172964733Y-93033602D01*
X172964733Y-93033602D02*
X173012352Y-92938364D01*
X173012352Y-92938364D02*
X173059971Y-92890745D01*
X173059971Y-92890745D02*
X173155209Y-92843126D01*
X173155209Y-92843126D02*
X173393304Y-92843126D01*
X173393304Y-92843126D02*
X173488542Y-92890745D01*
X173488542Y-92890745D02*
X173536162Y-92938364D01*
X173536162Y-92938364D02*
X173583781Y-93033602D01*
X173583781Y-93033602D02*
X173583781Y-93319316D01*
X173583781Y-93319316D02*
X173536162Y-93414554D01*
X173536162Y-93414554D02*
X173488542Y-93462173D01*
X130548967Y-76903914D02*
X130215634Y-76427723D01*
X129977539Y-76903914D02*
X129977539Y-75903914D01*
X129977539Y-75903914D02*
X130358491Y-75903914D01*
X130358491Y-75903914D02*
X130453729Y-75951533D01*
X130453729Y-75951533D02*
X130501348Y-75999152D01*
X130501348Y-75999152D02*
X130548967Y-76094390D01*
X130548967Y-76094390D02*
X130548967Y-76237247D01*
X130548967Y-76237247D02*
X130501348Y-76332485D01*
X130501348Y-76332485D02*
X130453729Y-76380104D01*
X130453729Y-76380104D02*
X130358491Y-76427723D01*
X130358491Y-76427723D02*
X129977539Y-76427723D01*
X130882301Y-75903914D02*
X131501348Y-75903914D01*
X131501348Y-75903914D02*
X131168015Y-76284866D01*
X131168015Y-76284866D02*
X131310872Y-76284866D01*
X131310872Y-76284866D02*
X131406110Y-76332485D01*
X131406110Y-76332485D02*
X131453729Y-76380104D01*
X131453729Y-76380104D02*
X131501348Y-76475342D01*
X131501348Y-76475342D02*
X131501348Y-76713437D01*
X131501348Y-76713437D02*
X131453729Y-76808675D01*
X131453729Y-76808675D02*
X131406110Y-76856295D01*
X131406110Y-76856295D02*
X131310872Y-76903914D01*
X131310872Y-76903914D02*
X131025158Y-76903914D01*
X131025158Y-76903914D02*
X130929920Y-76856295D01*
X130929920Y-76856295D02*
X130882301Y-76808675D01*
X132453729Y-76903914D02*
X131882301Y-76903914D01*
X132168015Y-76903914D02*
X132168015Y-75903914D01*
X132168015Y-75903914D02*
X132072777Y-76046771D01*
X132072777Y-76046771D02*
X131977539Y-76142009D01*
X131977539Y-76142009D02*
X131882301Y-76189628D01*
X167111644Y-49984418D02*
X167825929Y-49984418D01*
X167825929Y-49984418D02*
X167968786Y-50032037D01*
X167968786Y-50032037D02*
X168064025Y-50127275D01*
X168064025Y-50127275D02*
X168111644Y-50270132D01*
X168111644Y-50270132D02*
X168111644Y-50365370D01*
X167206882Y-49555846D02*
X167159263Y-49508227D01*
X167159263Y-49508227D02*
X167111644Y-49412989D01*
X167111644Y-49412989D02*
X167111644Y-49174894D01*
X167111644Y-49174894D02*
X167159263Y-49079656D01*
X167159263Y-49079656D02*
X167206882Y-49032037D01*
X167206882Y-49032037D02*
X167302120Y-48984418D01*
X167302120Y-48984418D02*
X167397358Y-48984418D01*
X167397358Y-48984418D02*
X167540215Y-49032037D01*
X167540215Y-49032037D02*
X168111644Y-49603465D01*
X168111644Y-49603465D02*
X168111644Y-48984418D01*
X168111644Y-48032037D02*
X168111644Y-48603465D01*
X168111644Y-48317751D02*
X167111644Y-48317751D01*
X167111644Y-48317751D02*
X167254501Y-48412989D01*
X167254501Y-48412989D02*
X167349739Y-48508227D01*
X167349739Y-48508227D02*
X167397358Y-48603465D01*
D15*
%TO.C,J31*%
X101071962Y-122260984D02*
X101071962Y-128230984D01*
X101071962Y-128230984D02*
X111191962Y-128230984D01*
X101081962Y-125970984D02*
X101831962Y-125970984D01*
X101081962Y-127470984D02*
X101081962Y-128220984D01*
X101081962Y-128220984D02*
X102881962Y-128220984D01*
X101831962Y-123020984D02*
X106131962Y-123020984D01*
X101831962Y-125970984D02*
X101831962Y-123020984D01*
X102881962Y-127470984D02*
X101081962Y-127470984D01*
X102881962Y-128220984D02*
X102881962Y-127470984D01*
X104381962Y-127470984D02*
X104381962Y-128220984D01*
X104381962Y-128220984D02*
X107881962Y-128220984D01*
X107881962Y-127470984D02*
X104381962Y-127470984D01*
X107881962Y-128220984D02*
X107881962Y-127470984D01*
X109381962Y-127470984D02*
X109381962Y-128220984D01*
X109381962Y-128220984D02*
X111181962Y-128220984D01*
X110231962Y-128520984D02*
X111481962Y-128520984D01*
X110431962Y-123020984D02*
X106131962Y-123020984D01*
X110431962Y-125970984D02*
X110431962Y-123020984D01*
X111181962Y-125970984D02*
X110431962Y-125970984D01*
X111181962Y-127470984D02*
X109381962Y-127470984D01*
X111181962Y-128220984D02*
X111181962Y-127470984D01*
X111191962Y-122260984D02*
X101071962Y-122260984D01*
X111191962Y-128230984D02*
X111191962Y-122260984D01*
X111481962Y-128520984D02*
X111481962Y-127270984D01*
%TO.C,J3*%
X106196825Y-57669095D02*
X106196825Y-58919095D01*
X106196825Y-58919095D02*
X107446825Y-58919095D01*
X106486825Y-51009095D02*
X106486825Y-58629095D01*
X106486825Y-58629095D02*
X112456825Y-58629095D01*
X106496825Y-51019095D02*
X106496825Y-52819095D01*
X106496825Y-52819095D02*
X107246825Y-52819095D01*
X106496825Y-54319095D02*
X106496825Y-55319095D01*
X106496825Y-55319095D02*
X107246825Y-55319095D01*
X106496825Y-56819095D02*
X106496825Y-58619095D01*
X106496825Y-58619095D02*
X107246825Y-58619095D01*
X107246825Y-51019095D02*
X106496825Y-51019095D01*
X107246825Y-52819095D02*
X107246825Y-51019095D01*
X107246825Y-54319095D02*
X106496825Y-54319095D01*
X107246825Y-55319095D02*
X107246825Y-54319095D01*
X107246825Y-56819095D02*
X106496825Y-56819095D01*
X107246825Y-58619095D02*
X107246825Y-56819095D01*
X108746825Y-51019095D02*
X108746825Y-51769095D01*
X108746825Y-51769095D02*
X111696825Y-51769095D01*
X108746825Y-57869095D02*
X111696825Y-57869095D01*
X108746825Y-58619095D02*
X108746825Y-57869095D01*
X111696825Y-51769095D02*
X111696825Y-54819095D01*
X111696825Y-57869095D02*
X111696825Y-54819095D01*
X112456825Y-51009095D02*
X106486825Y-51009095D01*
X112456825Y-58629095D02*
X112456825Y-51009095D01*
%TO.C,U9*%
X166346825Y-57944895D02*
X166346825Y-58184895D01*
X166346825Y-60764895D02*
X166346825Y-60524895D01*
X168731825Y-57944895D02*
X166346825Y-57944895D01*
X168731825Y-57944895D02*
X171116825Y-57944895D01*
X168731825Y-60764895D02*
X166346825Y-60764895D01*
X168731825Y-60764895D02*
X171116825Y-60764895D01*
X171116825Y-57944895D02*
X171116825Y-58184895D01*
X171116825Y-60764895D02*
X171116825Y-60524895D01*
X165569325Y-58184895D02*
X165329325Y-57854895D01*
X165809325Y-57854895D01*
X165569325Y-58184895D01*
G36*
X165569325Y-58184895D02*
G01*
X165329325Y-57854895D01*
X165809325Y-57854895D01*
X165569325Y-58184895D01*
G37*
%TO.C,R26*%
X134344049Y-77831595D02*
X133834601Y-77831595D01*
X134344049Y-78876595D02*
X133834601Y-78876595D01*
%TO.C,J38*%
X96375825Y-69199095D02*
X108095825Y-69199095D01*
X96375825Y-78009095D02*
X96375825Y-69199095D01*
X96375825Y-78009095D02*
X96375825Y-86819095D01*
X96375825Y-86819095D02*
X108095825Y-86819095D01*
X96985825Y-71509095D02*
X96985825Y-72009095D01*
X96985825Y-72009095D02*
X102485825Y-72009095D01*
X96985825Y-74009095D02*
X96985825Y-74509095D01*
X96985825Y-74509095D02*
X102485825Y-74509095D01*
X96985825Y-76509095D02*
X96985825Y-77009095D01*
X96985825Y-77009095D02*
X102485825Y-77009095D01*
X96985825Y-79009095D02*
X96985825Y-79509095D01*
X96985825Y-79509095D02*
X102485825Y-79509095D01*
X96985825Y-81509095D02*
X96985825Y-82009095D01*
X96985825Y-82009095D02*
X102485825Y-82009095D01*
X96985825Y-84009095D02*
X96985825Y-84509095D01*
X96985825Y-84509095D02*
X102485825Y-84509095D01*
X102485825Y-71509095D02*
X96985825Y-71509095D01*
X102485825Y-72009095D02*
X102485825Y-71509095D01*
X102485825Y-74009095D02*
X96985825Y-74009095D01*
X102485825Y-74509095D02*
X102485825Y-74009095D01*
X102485825Y-76509095D02*
X96985825Y-76509095D01*
X102485825Y-77009095D02*
X102485825Y-76509095D01*
X102485825Y-79009095D02*
X96985825Y-79009095D01*
X102485825Y-79509095D02*
X102485825Y-79009095D01*
X102485825Y-81509095D02*
X96985825Y-81509095D01*
X102485825Y-82009095D02*
X102485825Y-81509095D01*
X102485825Y-84009095D02*
X96985825Y-84009095D01*
X102485825Y-84509095D02*
X102485825Y-84009095D01*
X103595825Y-70619095D02*
X103595825Y-78009095D01*
X103595825Y-85399095D02*
X103595825Y-78009095D01*
X107185825Y-71759095D02*
X107785825Y-71459095D01*
X107785825Y-71459095D02*
X107785825Y-72059095D01*
X107785825Y-72059095D02*
X107185825Y-71759095D01*
X108095825Y-69199095D02*
X108095825Y-70619095D01*
X108095825Y-70619095D02*
X103595825Y-70619095D01*
X108095825Y-85399095D02*
X103595825Y-85399095D01*
X108095825Y-86819095D02*
X108095825Y-85399095D01*
%TO.C,J12*%
X161801825Y-65684895D02*
X161801825Y-67104895D01*
X161801825Y-67104895D02*
X166301825Y-67104895D01*
X161801825Y-71884895D02*
X166301825Y-71884895D01*
X161801825Y-73304895D02*
X161801825Y-71884895D01*
X162111825Y-70444895D02*
X162711825Y-70744895D01*
X162111825Y-71044895D02*
X162111825Y-70444895D01*
X162711825Y-70744895D02*
X162111825Y-71044895D01*
X166301825Y-67104895D02*
X166301825Y-69494895D01*
X166301825Y-71884895D02*
X166301825Y-69494895D01*
X167411825Y-67994895D02*
X167411825Y-68494895D01*
X167411825Y-68494895D02*
X172911825Y-68494895D01*
X167411825Y-70494895D02*
X167411825Y-70994895D01*
X167411825Y-70994895D02*
X172911825Y-70994895D01*
X172911825Y-67994895D02*
X167411825Y-67994895D01*
X172911825Y-68494895D02*
X172911825Y-67994895D01*
X172911825Y-70494895D02*
X167411825Y-70494895D01*
X172911825Y-70994895D02*
X172911825Y-70494895D01*
X173521825Y-65684895D02*
X161801825Y-65684895D01*
X173521825Y-69494895D02*
X173521825Y-65684895D01*
X173521825Y-69494895D02*
X173521825Y-73304895D01*
X173521825Y-73304895D02*
X161801825Y-73304895D01*
%TO.C,D4*%
X98430825Y-87652095D02*
X98430825Y-89122095D01*
X98430825Y-89122095D02*
X100890825Y-89122095D01*
X100890825Y-87652095D02*
X98430825Y-87652095D01*
%TO.C,J42*%
X112505962Y-95969984D02*
X112505962Y-97219984D01*
X112795962Y-96259984D02*
X112795962Y-102229984D01*
X112795962Y-102229984D02*
X125415962Y-102229984D01*
X112805962Y-96269984D02*
X112805962Y-97019984D01*
X112805962Y-97019984D02*
X114605962Y-97019984D01*
X112805962Y-98519984D02*
X113555962Y-98519984D01*
X113555962Y-98519984D02*
X113555962Y-101469984D01*
X113555962Y-101469984D02*
X119105962Y-101469984D01*
X113755962Y-95969984D02*
X112505962Y-95969984D01*
X114605962Y-96269984D02*
X112805962Y-96269984D01*
X114605962Y-97019984D02*
X114605962Y-96269984D01*
X116105962Y-96269984D02*
X116105962Y-97019984D01*
X116105962Y-97019984D02*
X122105962Y-97019984D01*
X122105962Y-96269984D02*
X116105962Y-96269984D01*
X122105962Y-97019984D02*
X122105962Y-96269984D01*
X123605962Y-96269984D02*
X123605962Y-97019984D01*
X123605962Y-97019984D02*
X125405962Y-97019984D01*
X124655962Y-98519984D02*
X124655962Y-101469984D01*
X124655962Y-101469984D02*
X119105962Y-101469984D01*
X125405962Y-96269984D02*
X123605962Y-96269984D01*
X125405962Y-97019984D02*
X125405962Y-96269984D01*
X125405962Y-98519984D02*
X124655962Y-98519984D01*
X125415962Y-96259984D02*
X112795962Y-96259984D01*
X125415962Y-102229984D02*
X125415962Y-96259984D01*
%TO.C,R44*%
X120255325Y-79599871D02*
X120255325Y-80109319D01*
X121300325Y-79599871D02*
X121300325Y-80109319D01*
%TO.C,J50*%
X161156462Y-117485984D02*
X161156462Y-118485984D01*
X161156462Y-118485984D02*
X161656462Y-117985984D01*
X161656462Y-117985984D02*
X161156462Y-117485984D01*
X162036462Y-121845984D02*
X162036462Y-107125984D01*
X162036462Y-121845984D02*
X164016462Y-121845984D01*
X164016462Y-107125984D02*
X162036462Y-107125984D01*
X167716462Y-107125984D02*
X176256462Y-107125984D01*
X167716462Y-121845984D02*
X176256462Y-121845984D01*
X176256462Y-121845984D02*
X176256462Y-107125984D01*
%TO.C,J24*%
X127713962Y-98875984D02*
X127713962Y-100125984D01*
X128003962Y-99165984D02*
X128003962Y-105135984D01*
X128003962Y-105135984D02*
X145623962Y-105135984D01*
X128013962Y-99175984D02*
X128013962Y-99925984D01*
X128013962Y-99925984D02*
X129813962Y-99925984D01*
X128013962Y-101425984D02*
X128763962Y-101425984D01*
X128763962Y-101425984D02*
X128763962Y-104375984D01*
X128763962Y-104375984D02*
X136813962Y-104375984D01*
X128963962Y-98875984D02*
X127713962Y-98875984D01*
X129813962Y-99175984D02*
X128013962Y-99175984D01*
X129813962Y-99925984D02*
X129813962Y-99175984D01*
X131313962Y-99175984D02*
X131313962Y-99925984D01*
X131313962Y-99925984D02*
X142313962Y-99925984D01*
X142313962Y-99175984D02*
X131313962Y-99175984D01*
X142313962Y-99925984D02*
X142313962Y-99175984D01*
X143813962Y-99175984D02*
X143813962Y-99925984D01*
X143813962Y-99925984D02*
X145613962Y-99925984D01*
X144863962Y-101425984D02*
X144863962Y-104375984D01*
X144863962Y-104375984D02*
X136813962Y-104375984D01*
X145613962Y-99175984D02*
X143813962Y-99175984D01*
X145613962Y-99925984D02*
X145613962Y-99175984D01*
X145613962Y-101425984D02*
X144863962Y-101425984D01*
X145623962Y-99165984D02*
X128003962Y-99165984D01*
X145623962Y-105135984D02*
X145623962Y-99165984D01*
%TO.C,J36*%
X123913825Y-84557095D02*
X135633825Y-84557095D01*
X123913825Y-88367095D02*
X123913825Y-84557095D01*
X123913825Y-88367095D02*
X123913825Y-92177095D01*
X123913825Y-92177095D02*
X135633825Y-92177095D01*
X124523825Y-86867095D02*
X124523825Y-87367095D01*
X124523825Y-87367095D02*
X130023825Y-87367095D01*
X124523825Y-89367095D02*
X124523825Y-89867095D01*
X124523825Y-89867095D02*
X130023825Y-89867095D01*
X130023825Y-86867095D02*
X124523825Y-86867095D01*
X130023825Y-87367095D02*
X130023825Y-86867095D01*
X130023825Y-89367095D02*
X124523825Y-89367095D01*
X130023825Y-89867095D02*
X130023825Y-89367095D01*
X131133825Y-85977095D02*
X131133825Y-88367095D01*
X131133825Y-90757095D02*
X131133825Y-88367095D01*
X134723825Y-87117095D02*
X135323825Y-86817095D01*
X135323825Y-86817095D02*
X135323825Y-87417095D01*
X135323825Y-87417095D02*
X134723825Y-87117095D01*
X135633825Y-84557095D02*
X135633825Y-85977095D01*
X135633825Y-85977095D02*
X131133825Y-85977095D01*
X135633825Y-90757095D02*
X131133825Y-90757095D01*
X135633825Y-92177095D02*
X135633825Y-90757095D01*
%TO.C,J16*%
X152801825Y-60704095D02*
X154221825Y-60704095D01*
X152801825Y-72424095D02*
X152801825Y-60704095D01*
X154221825Y-60704095D02*
X154221825Y-65204095D01*
X154221825Y-65204095D02*
X156611825Y-65204095D01*
X155061825Y-61014095D02*
X155661825Y-61014095D01*
X155111825Y-66314095D02*
X155111825Y-71814095D01*
X155111825Y-71814095D02*
X155611825Y-71814095D01*
X155361825Y-61614095D02*
X155061825Y-61014095D01*
X155611825Y-66314095D02*
X155111825Y-66314095D01*
X155611825Y-71814095D02*
X155611825Y-66314095D01*
X155661825Y-61014095D02*
X155361825Y-61614095D01*
X156611825Y-72424095D02*
X152801825Y-72424095D01*
X156611825Y-72424095D02*
X160421825Y-72424095D01*
X157611825Y-66314095D02*
X157611825Y-71814095D01*
X157611825Y-71814095D02*
X158111825Y-71814095D01*
X158111825Y-66314095D02*
X157611825Y-66314095D01*
X158111825Y-71814095D02*
X158111825Y-66314095D01*
X159001825Y-60704095D02*
X159001825Y-65204095D01*
X159001825Y-65204095D02*
X156611825Y-65204095D01*
X160421825Y-60704095D02*
X159001825Y-60704095D01*
X160421825Y-72424095D02*
X160421825Y-60704095D01*
%TO.C,R39*%
X109079325Y-72536319D02*
X109079325Y-72026871D01*
X110124325Y-72536319D02*
X110124325Y-72026871D01*
%TO.C,R41*%
X120255325Y-71979871D02*
X120255325Y-72489319D01*
X121300325Y-71979871D02*
X121300325Y-72489319D01*
%TO.C,J26*%
X124061825Y-63749095D02*
X124061825Y-65169095D01*
X124061825Y-65169095D02*
X128561825Y-65169095D01*
X124061825Y-69949095D02*
X128561825Y-69949095D01*
X124061825Y-71369095D02*
X124061825Y-69949095D01*
X124371825Y-68509095D02*
X124971825Y-68809095D01*
X124371825Y-69109095D02*
X124371825Y-68509095D01*
X124971825Y-68809095D02*
X124371825Y-69109095D01*
X128561825Y-65169095D02*
X128561825Y-67559095D01*
X128561825Y-69949095D02*
X128561825Y-67559095D01*
X129671825Y-66059095D02*
X129671825Y-66559095D01*
X129671825Y-66559095D02*
X135171825Y-66559095D01*
X129671825Y-68559095D02*
X129671825Y-69059095D01*
X129671825Y-69059095D02*
X135171825Y-69059095D01*
X135171825Y-66059095D02*
X129671825Y-66059095D01*
X135171825Y-66559095D02*
X135171825Y-66059095D01*
X135171825Y-68559095D02*
X129671825Y-68559095D01*
X135171825Y-69059095D02*
X135171825Y-68559095D01*
X135781825Y-63749095D02*
X124061825Y-63749095D01*
X135781825Y-67559095D02*
X135781825Y-63749095D01*
X135781825Y-67559095D02*
X135781825Y-71369095D01*
X135781825Y-71369095D02*
X124061825Y-71369095D01*
%TO.C,J17*%
X101289962Y-103081984D02*
X101289962Y-104331984D01*
X101579962Y-103371984D02*
X101579962Y-109341984D01*
X101579962Y-109341984D02*
X111699962Y-109341984D01*
X101589962Y-103381984D02*
X101589962Y-104131984D01*
X101589962Y-104131984D02*
X103389962Y-104131984D01*
X101589962Y-105631984D02*
X102339962Y-105631984D01*
X102339962Y-105631984D02*
X102339962Y-108581984D01*
X102339962Y-108581984D02*
X106639962Y-108581984D01*
X102539962Y-103081984D02*
X101289962Y-103081984D01*
X103389962Y-103381984D02*
X101589962Y-103381984D01*
X103389962Y-104131984D02*
X103389962Y-103381984D01*
X104889962Y-103381984D02*
X104889962Y-104131984D01*
X104889962Y-104131984D02*
X108389962Y-104131984D01*
X108389962Y-103381984D02*
X104889962Y-103381984D01*
X108389962Y-104131984D02*
X108389962Y-103381984D01*
X109889962Y-103381984D02*
X109889962Y-104131984D01*
X109889962Y-104131984D02*
X111689962Y-104131984D01*
X110939962Y-105631984D02*
X110939962Y-108581984D01*
X110939962Y-108581984D02*
X106639962Y-108581984D01*
X111689962Y-103381984D02*
X109889962Y-103381984D01*
X111689962Y-104131984D02*
X111689962Y-103381984D01*
X111689962Y-105631984D02*
X110939962Y-105631984D01*
X111699962Y-103371984D02*
X101579962Y-103371984D01*
X111699962Y-109341984D02*
X111699962Y-103371984D01*
%TO.C,J25*%
X139553962Y-113035984D02*
X139553962Y-130655984D01*
X139553962Y-130655984D02*
X145523962Y-130655984D01*
X140313962Y-113795984D02*
X140313962Y-121845984D01*
X140313962Y-129895984D02*
X140313962Y-121845984D01*
X143263962Y-113045984D02*
X143263962Y-113795984D01*
X143263962Y-113795984D02*
X140313962Y-113795984D01*
X143263962Y-129895984D02*
X140313962Y-129895984D01*
X143263962Y-130645984D02*
X143263962Y-129895984D01*
X144763962Y-113045984D02*
X144763962Y-114845984D01*
X144763962Y-114845984D02*
X145513962Y-114845984D01*
X144763962Y-116345984D02*
X144763962Y-127345984D01*
X144763962Y-127345984D02*
X145513962Y-127345984D01*
X144763962Y-128845984D02*
X144763962Y-130645984D01*
X144763962Y-130645984D02*
X145513962Y-130645984D01*
X145513962Y-113045984D02*
X144763962Y-113045984D01*
X145513962Y-114845984D02*
X145513962Y-113045984D01*
X145513962Y-116345984D02*
X144763962Y-116345984D01*
X145513962Y-127345984D02*
X145513962Y-116345984D01*
X145513962Y-128845984D02*
X144763962Y-128845984D01*
X145513962Y-130645984D02*
X145513962Y-128845984D01*
X145523962Y-113035984D02*
X139553962Y-113035984D01*
X145523962Y-130655984D02*
X145523962Y-113035984D01*
X145813962Y-112745984D02*
X144563962Y-112745984D01*
X145813962Y-113995984D02*
X145813962Y-112745984D01*
%TO.C,U15*%
X112856825Y-78468095D02*
X112856825Y-78708095D01*
X112856825Y-81288095D02*
X112856825Y-81048095D01*
X115241825Y-78468095D02*
X112856825Y-78468095D01*
X115241825Y-78468095D02*
X117626825Y-78468095D01*
X115241825Y-81288095D02*
X112856825Y-81288095D01*
X115241825Y-81288095D02*
X117626825Y-81288095D01*
X117626825Y-78468095D02*
X117626825Y-78708095D01*
X117626825Y-81288095D02*
X117626825Y-81048095D01*
X112079325Y-78708095D02*
X111839325Y-78378095D01*
X112319325Y-78378095D01*
X112079325Y-78708095D01*
G36*
X112079325Y-78708095D02*
G01*
X111839325Y-78378095D01*
X112319325Y-78378095D01*
X112079325Y-78708095D01*
G37*
%TO.C,U13*%
X112856825Y-70848095D02*
X112856825Y-71088095D01*
X112856825Y-73668095D02*
X112856825Y-73428095D01*
X115241825Y-70848095D02*
X112856825Y-70848095D01*
X115241825Y-70848095D02*
X117626825Y-70848095D01*
X115241825Y-73668095D02*
X112856825Y-73668095D01*
X115241825Y-73668095D02*
X117626825Y-73668095D01*
X117626825Y-70848095D02*
X117626825Y-71088095D01*
X117626825Y-73668095D02*
X117626825Y-73428095D01*
X112079325Y-71088095D02*
X111839325Y-70758095D01*
X112319325Y-70758095D01*
X112079325Y-71088095D01*
G36*
X112079325Y-71088095D02*
G01*
X111839325Y-70758095D01*
X112319325Y-70758095D01*
X112079325Y-71088095D01*
G37*
%TO.C,SW2*%
X182191825Y-53259095D02*
X182191825Y-57759095D01*
X184691825Y-59009095D02*
X186191825Y-59009095D01*
X186191825Y-52009095D02*
X184691825Y-52009095D01*
X188691825Y-57759095D02*
X188691825Y-53259095D01*
%TO.C,R50*%
X120255325Y-83663871D02*
X120255325Y-84173319D01*
X121300325Y-83663871D02*
X121300325Y-84173319D01*
%TO.C,R42*%
X109079325Y-80156319D02*
X109079325Y-79646871D01*
X110124325Y-80156319D02*
X110124325Y-79646871D01*
%TO.C,R14*%
X161859325Y-55799619D02*
X161859325Y-55290171D01*
X162904325Y-55799619D02*
X162904325Y-55290171D01*
%TO.C,J4*%
X113446825Y-57669095D02*
X113446825Y-58919095D01*
X113446825Y-58919095D02*
X114696825Y-58919095D01*
X113736825Y-51009095D02*
X113736825Y-58629095D01*
X113736825Y-58629095D02*
X119706825Y-58629095D01*
X113746825Y-51019095D02*
X113746825Y-52819095D01*
X113746825Y-52819095D02*
X114496825Y-52819095D01*
X113746825Y-54319095D02*
X113746825Y-55319095D01*
X113746825Y-55319095D02*
X114496825Y-55319095D01*
X113746825Y-56819095D02*
X113746825Y-58619095D01*
X113746825Y-58619095D02*
X114496825Y-58619095D01*
X114496825Y-51019095D02*
X113746825Y-51019095D01*
X114496825Y-52819095D02*
X114496825Y-51019095D01*
X114496825Y-54319095D02*
X113746825Y-54319095D01*
X114496825Y-55319095D02*
X114496825Y-54319095D01*
X114496825Y-56819095D02*
X113746825Y-56819095D01*
X114496825Y-58619095D02*
X114496825Y-56819095D01*
X115996825Y-51019095D02*
X115996825Y-51769095D01*
X115996825Y-51769095D02*
X118946825Y-51769095D01*
X115996825Y-57869095D02*
X118946825Y-57869095D01*
X115996825Y-58619095D02*
X115996825Y-57869095D01*
X118946825Y-51769095D02*
X118946825Y-54819095D01*
X118946825Y-57869095D02*
X118946825Y-54819095D01*
X119706825Y-51009095D02*
X113736825Y-51009095D01*
X119706825Y-58629095D02*
X119706825Y-51009095D01*
%TO.C,J40*%
X138404525Y-50622695D02*
X150124525Y-50622695D01*
X138404525Y-59432695D02*
X138404525Y-50622695D01*
X138404525Y-59432695D02*
X138404525Y-68242695D01*
X138404525Y-68242695D02*
X150124525Y-68242695D01*
X139014525Y-52932695D02*
X139014525Y-53432695D01*
X139014525Y-53432695D02*
X144514525Y-53432695D01*
X139014525Y-55432695D02*
X139014525Y-55932695D01*
X139014525Y-55932695D02*
X144514525Y-55932695D01*
X139014525Y-57932695D02*
X139014525Y-58432695D01*
X139014525Y-58432695D02*
X144514525Y-58432695D01*
X139014525Y-60432695D02*
X139014525Y-60932695D01*
X139014525Y-60932695D02*
X144514525Y-60932695D01*
X139014525Y-62932695D02*
X139014525Y-63432695D01*
X139014525Y-63432695D02*
X144514525Y-63432695D01*
X139014525Y-65432695D02*
X139014525Y-65932695D01*
X139014525Y-65932695D02*
X144514525Y-65932695D01*
X144514525Y-52932695D02*
X139014525Y-52932695D01*
X144514525Y-53432695D02*
X144514525Y-52932695D01*
X144514525Y-55432695D02*
X139014525Y-55432695D01*
X144514525Y-55932695D02*
X144514525Y-55432695D01*
X144514525Y-57932695D02*
X139014525Y-57932695D01*
X144514525Y-58432695D02*
X144514525Y-57932695D01*
X144514525Y-60432695D02*
X139014525Y-60432695D01*
X144514525Y-60932695D02*
X144514525Y-60432695D01*
X144514525Y-62932695D02*
X139014525Y-62932695D01*
X144514525Y-63432695D02*
X144514525Y-62932695D01*
X144514525Y-65432695D02*
X139014525Y-65432695D01*
X144514525Y-65932695D02*
X144514525Y-65432695D01*
X145624525Y-52042695D02*
X145624525Y-59432695D01*
X145624525Y-66822695D02*
X145624525Y-59432695D01*
X149214525Y-53182695D02*
X149814525Y-52882695D01*
X149814525Y-52882695D02*
X149814525Y-53482695D01*
X149814525Y-53482695D02*
X149214525Y-53182695D01*
X150124525Y-50622695D02*
X150124525Y-52042695D01*
X150124525Y-52042695D02*
X145624525Y-52042695D01*
X150124525Y-66822695D02*
X145624525Y-66822695D01*
X150124525Y-68242695D02*
X150124525Y-66822695D01*
%TO.C,R29*%
X133834601Y-82276595D02*
X134344049Y-82276595D01*
X133834601Y-83321595D02*
X134344049Y-83321595D01*
%TO.C,R30*%
X134264049Y-79736595D02*
X133754601Y-79736595D01*
X134264049Y-80781595D02*
X133754601Y-80781595D01*
%TO.C,R38*%
X112427462Y-114976708D02*
X112427462Y-114467260D01*
X113472462Y-114976708D02*
X113472462Y-114467260D01*
%TO.C,J37*%
X137673962Y-105860984D02*
X137673962Y-107110984D01*
X137963962Y-106150984D02*
X137963962Y-112120984D01*
X137963962Y-112120984D02*
X145583962Y-112120984D01*
X137973962Y-106160984D02*
X137973962Y-106910984D01*
X137973962Y-106910984D02*
X139773962Y-106910984D01*
X137973962Y-108410984D02*
X138723962Y-108410984D01*
X138723962Y-108410984D02*
X138723962Y-111360984D01*
X138723962Y-111360984D02*
X141773962Y-111360984D01*
X138923962Y-105860984D02*
X137673962Y-105860984D01*
X139773962Y-106160984D02*
X137973962Y-106160984D01*
X139773962Y-106910984D02*
X139773962Y-106160984D01*
X141273962Y-106160984D02*
X141273962Y-106910984D01*
X141273962Y-106910984D02*
X142273962Y-106910984D01*
X142273962Y-106160984D02*
X141273962Y-106160984D01*
X142273962Y-106910984D02*
X142273962Y-106160984D01*
X143773962Y-106160984D02*
X143773962Y-106910984D01*
X143773962Y-106910984D02*
X145573962Y-106910984D01*
X144823962Y-108410984D02*
X144823962Y-111360984D01*
X144823962Y-111360984D02*
X141773962Y-111360984D01*
X145573962Y-106160984D02*
X143773962Y-106160984D01*
X145573962Y-106910984D02*
X145573962Y-106160984D01*
X145573962Y-108410984D02*
X144823962Y-108410984D01*
X145583962Y-106150984D02*
X137963962Y-106150984D01*
X145583962Y-112120984D02*
X145583962Y-106150984D01*
%TO.C,J14*%
X152801825Y-46184095D02*
X152801825Y-57904095D01*
X152801825Y-57904095D02*
X154221825Y-57904095D01*
X154221825Y-53404095D02*
X156611825Y-53404095D01*
X154221825Y-57904095D02*
X154221825Y-53404095D01*
X155111825Y-46794095D02*
X155111825Y-52294095D01*
X155111825Y-52294095D02*
X155611825Y-52294095D01*
X155611825Y-46794095D02*
X155111825Y-46794095D01*
X155611825Y-52294095D02*
X155611825Y-46794095D01*
X156611825Y-46184095D02*
X152801825Y-46184095D01*
X156611825Y-46184095D02*
X160421825Y-46184095D01*
X157561825Y-57594095D02*
X157861825Y-56994095D01*
X157611825Y-46794095D02*
X157611825Y-52294095D01*
X157611825Y-52294095D02*
X158111825Y-52294095D01*
X157861825Y-56994095D02*
X158161825Y-57594095D01*
X158111825Y-46794095D02*
X157611825Y-46794095D01*
X158111825Y-52294095D02*
X158111825Y-46794095D01*
X158161825Y-57594095D02*
X157561825Y-57594095D01*
X159001825Y-53404095D02*
X156611825Y-53404095D01*
X159001825Y-57904095D02*
X159001825Y-53404095D01*
X160421825Y-46184095D02*
X160421825Y-57904095D01*
X160421825Y-57904095D02*
X159001825Y-57904095D01*
%TO.C,J7*%
X120696825Y-57669095D02*
X120696825Y-58919095D01*
X120696825Y-58919095D02*
X121946825Y-58919095D01*
X120986825Y-51009095D02*
X120986825Y-58629095D01*
X120986825Y-58629095D02*
X126956825Y-58629095D01*
X120996825Y-51019095D02*
X120996825Y-52819095D01*
X120996825Y-52819095D02*
X121746825Y-52819095D01*
X120996825Y-54319095D02*
X120996825Y-55319095D01*
X120996825Y-55319095D02*
X121746825Y-55319095D01*
X120996825Y-56819095D02*
X120996825Y-58619095D01*
X120996825Y-58619095D02*
X121746825Y-58619095D01*
X121746825Y-51019095D02*
X120996825Y-51019095D01*
X121746825Y-52819095D02*
X121746825Y-51019095D01*
X121746825Y-54319095D02*
X120996825Y-54319095D01*
X121746825Y-55319095D02*
X121746825Y-54319095D01*
X121746825Y-56819095D02*
X120996825Y-56819095D01*
X121746825Y-58619095D02*
X121746825Y-56819095D01*
X123246825Y-51019095D02*
X123246825Y-51769095D01*
X123246825Y-51769095D02*
X126196825Y-51769095D01*
X123246825Y-57869095D02*
X126196825Y-57869095D01*
X123246825Y-58619095D02*
X123246825Y-57869095D01*
X126196825Y-51769095D02*
X126196825Y-54819095D01*
X126196825Y-57869095D02*
X126196825Y-54819095D01*
X126956825Y-51009095D02*
X120986825Y-51009095D01*
X126956825Y-58629095D02*
X126956825Y-51009095D01*
%TO.C,J32*%
X101071962Y-114005984D02*
X101071962Y-119975984D01*
X101071962Y-119975984D02*
X111191962Y-119975984D01*
X101081962Y-117715984D02*
X101831962Y-117715984D01*
X101081962Y-119215984D02*
X101081962Y-119965984D01*
X101081962Y-119965984D02*
X102881962Y-119965984D01*
X101831962Y-114765984D02*
X106131962Y-114765984D01*
X101831962Y-117715984D02*
X101831962Y-114765984D01*
X102881962Y-119215984D02*
X101081962Y-119215984D01*
X102881962Y-119965984D02*
X102881962Y-119215984D01*
X104381962Y-119215984D02*
X104381962Y-119965984D01*
X104381962Y-119965984D02*
X107881962Y-119965984D01*
X107881962Y-119215984D02*
X104381962Y-119215984D01*
X107881962Y-119965984D02*
X107881962Y-119215984D01*
X109381962Y-119215984D02*
X109381962Y-119965984D01*
X109381962Y-119965984D02*
X111181962Y-119965984D01*
X110231962Y-120265984D02*
X111481962Y-120265984D01*
X110431962Y-114765984D02*
X106131962Y-114765984D01*
X110431962Y-117715984D02*
X110431962Y-114765984D01*
X111181962Y-117715984D02*
X110431962Y-117715984D01*
X111181962Y-119215984D02*
X109381962Y-119215984D01*
X111181962Y-119965984D02*
X111181962Y-119215984D01*
X111191962Y-114005984D02*
X101071962Y-114005984D01*
X111191962Y-119975984D02*
X111191962Y-114005984D01*
X111481962Y-120265984D02*
X111481962Y-119015984D01*
%TO.C,U5*%
X166346825Y-54134895D02*
X166346825Y-54374895D01*
X166346825Y-56954895D02*
X166346825Y-56714895D01*
X168731825Y-54134895D02*
X166346825Y-54134895D01*
X168731825Y-54134895D02*
X171116825Y-54134895D01*
X168731825Y-56954895D02*
X166346825Y-56954895D01*
X168731825Y-56954895D02*
X171116825Y-56954895D01*
X171116825Y-54134895D02*
X171116825Y-54374895D01*
X171116825Y-56954895D02*
X171116825Y-56714895D01*
X165569325Y-54374895D02*
X165329325Y-54044895D01*
X165809325Y-54044895D01*
X165569325Y-54374895D01*
G36*
X165569325Y-54374895D02*
G01*
X165329325Y-54044895D01*
X165809325Y-54044895D01*
X165569325Y-54374895D01*
G37*
%TO.C,R36*%
X120255325Y-75789871D02*
X120255325Y-76299319D01*
X121300325Y-75789871D02*
X121300325Y-76299319D01*
%TO.C,P1*%
X190473962Y-98565984D02*
X192393962Y-98565984D01*
X192393962Y-89405984D02*
X190473962Y-89405984D01*
X194403962Y-89405984D02*
X196108962Y-89405984D01*
X196108962Y-89405984D02*
X196108962Y-98565984D01*
X196108962Y-98565984D02*
X194403962Y-98565984D01*
%TO.C,U14*%
D14*
X130823962Y-108995984D02*
X112823962Y-108995984D01*
X112823962Y-119995984D01*
X130823962Y-119995984D01*
X130823962Y-108995984D01*
D15*
%TO.C,C1*%
X171273077Y-63016895D02*
X169850573Y-63016895D01*
X171273077Y-64836895D02*
X169850573Y-64836895D01*
%TO.C,J51*%
X148728962Y-108175984D02*
X160448962Y-108175984D01*
X148728962Y-114485984D02*
X148728962Y-108175984D01*
X148728962Y-114485984D02*
X148728962Y-120795984D01*
X148728962Y-120795984D02*
X160448962Y-120795984D01*
X149338962Y-110485984D02*
X149338962Y-110985984D01*
X149338962Y-110985984D02*
X154838962Y-110985984D01*
X149338962Y-112985984D02*
X149338962Y-113485984D01*
X149338962Y-113485984D02*
X154838962Y-113485984D01*
X149338962Y-115485984D02*
X149338962Y-115985984D01*
X149338962Y-115985984D02*
X154838962Y-115985984D01*
X149338962Y-117985984D02*
X149338962Y-118485984D01*
X149338962Y-118485984D02*
X154838962Y-118485984D01*
X154838962Y-110485984D02*
X149338962Y-110485984D01*
X154838962Y-110985984D02*
X154838962Y-110485984D01*
X154838962Y-112985984D02*
X149338962Y-112985984D01*
X154838962Y-113485984D02*
X154838962Y-112985984D01*
X154838962Y-115485984D02*
X149338962Y-115485984D01*
X154838962Y-115985984D02*
X154838962Y-115485984D01*
X154838962Y-117985984D02*
X149338962Y-117985984D01*
X154838962Y-118485984D02*
X154838962Y-117985984D01*
X155948962Y-109595984D02*
X155948962Y-114485984D01*
X155948962Y-119375984D02*
X155948962Y-114485984D01*
X159538962Y-110735984D02*
X160138962Y-110435984D01*
X160138962Y-110435984D02*
X160138962Y-111035984D01*
X160138962Y-111035984D02*
X159538962Y-110735984D01*
X160448962Y-108175984D02*
X160448962Y-109595984D01*
X160448962Y-109595984D02*
X155948962Y-109595984D01*
X160448962Y-119375984D02*
X155948962Y-119375984D01*
X160448962Y-120795984D02*
X160448962Y-119375984D01*
%TO.C,R32*%
X109079325Y-76346319D02*
X109079325Y-75836871D01*
X110124325Y-76346319D02*
X110124325Y-75836871D01*
%TO.C,R37*%
X112427462Y-118023260D02*
X112427462Y-118532708D01*
X113472462Y-118023260D02*
X113472462Y-118532708D01*
%TO.C,R45*%
X109079325Y-84220319D02*
X109079325Y-83710871D01*
X110124325Y-84220319D02*
X110124325Y-83710871D01*
%TO.C,D6*%
X132651825Y-73109095D02*
X132651825Y-73259095D01*
X132651825Y-74559095D02*
X132651825Y-74709095D01*
X134851825Y-73109095D02*
X132651825Y-73109095D01*
X134851825Y-74709095D02*
X132651825Y-74709095D01*
%TO.C,J23*%
X119497962Y-121877984D02*
X119497962Y-123127984D01*
X119787962Y-122167984D02*
X119787962Y-128137984D01*
X119787962Y-128137984D02*
X137407962Y-128137984D01*
X119797962Y-122177984D02*
X119797962Y-122927984D01*
X119797962Y-122927984D02*
X121597962Y-122927984D01*
X119797962Y-124427984D02*
X120547962Y-124427984D01*
X120547962Y-124427984D02*
X120547962Y-127377984D01*
X120547962Y-127377984D02*
X128597962Y-127377984D01*
X120747962Y-121877984D02*
X119497962Y-121877984D01*
X121597962Y-122177984D02*
X119797962Y-122177984D01*
X121597962Y-122927984D02*
X121597962Y-122177984D01*
X123097962Y-122177984D02*
X123097962Y-122927984D01*
X123097962Y-122927984D02*
X134097962Y-122927984D01*
X134097962Y-122177984D02*
X123097962Y-122177984D01*
X134097962Y-122927984D02*
X134097962Y-122177984D01*
X135597962Y-122177984D02*
X135597962Y-122927984D01*
X135597962Y-122927984D02*
X137397962Y-122927984D01*
X136647962Y-124427984D02*
X136647962Y-127377984D01*
X136647962Y-127377984D02*
X128597962Y-127377984D01*
X137397962Y-122177984D02*
X135597962Y-122177984D01*
X137397962Y-122927984D02*
X137397962Y-122177984D01*
X137397962Y-124427984D02*
X136647962Y-124427984D01*
X137407962Y-122167984D02*
X119787962Y-122167984D01*
X137407962Y-128137984D02*
X137407962Y-122167984D01*
%TO.C,D3*%
X184893962Y-117195984D02*
X184893962Y-122245984D01*
X185343962Y-116745984D02*
X184893962Y-117195984D01*
X185693962Y-118595984D02*
X185693962Y-120395984D01*
X191093962Y-118595984D02*
X191093962Y-120395984D01*
X191893962Y-116745984D02*
X185343962Y-116745984D01*
X191893962Y-122245984D02*
X184893962Y-122245984D01*
X191893962Y-122245984D02*
X191893962Y-116745984D01*
%TO.C,R17*%
X161859325Y-59609619D02*
X161859325Y-59100171D01*
X162904325Y-59609619D02*
X162904325Y-59100171D01*
%TO.C,C5*%
X171570592Y-61384895D02*
X171278058Y-61384895D01*
X171570592Y-62404895D02*
X171278058Y-62404895D01*
%TO.C,U12*%
X112856825Y-74658095D02*
X112856825Y-74898095D01*
X112856825Y-77478095D02*
X112856825Y-77238095D01*
X115241825Y-74658095D02*
X112856825Y-74658095D01*
X115241825Y-74658095D02*
X117626825Y-74658095D01*
X115241825Y-77478095D02*
X112856825Y-77478095D01*
X115241825Y-77478095D02*
X117626825Y-77478095D01*
X117626825Y-74658095D02*
X117626825Y-74898095D01*
X117626825Y-77478095D02*
X117626825Y-77238095D01*
X112079325Y-74898095D02*
X111839325Y-74568095D01*
X112319325Y-74568095D01*
X112079325Y-74898095D01*
G36*
X112079325Y-74898095D02*
G01*
X111839325Y-74568095D01*
X112319325Y-74568095D01*
X112079325Y-74898095D01*
G37*
%TO.C,D5*%
X98289825Y-89938095D02*
X98289825Y-91408095D01*
X98289825Y-91408095D02*
X100749825Y-91408095D01*
X100749825Y-89938095D02*
X98289825Y-89938095D01*
%TO.C,U16*%
X112856825Y-82532095D02*
X112856825Y-82772095D01*
X112856825Y-85352095D02*
X112856825Y-85112095D01*
X115241825Y-82532095D02*
X112856825Y-82532095D01*
X115241825Y-82532095D02*
X117626825Y-82532095D01*
X115241825Y-85352095D02*
X112856825Y-85352095D01*
X115241825Y-85352095D02*
X117626825Y-85352095D01*
X117626825Y-82532095D02*
X117626825Y-82772095D01*
X117626825Y-85352095D02*
X117626825Y-85112095D01*
X112079325Y-82772095D02*
X111839325Y-82442095D01*
X112319325Y-82442095D01*
X112079325Y-82772095D01*
G36*
X112079325Y-82772095D02*
G01*
X111839325Y-82442095D01*
X112319325Y-82442095D01*
X112079325Y-82772095D01*
G37*
%TO.C,J43*%
X167263962Y-87675984D02*
X178983962Y-87675984D01*
X167263962Y-93985984D02*
X167263962Y-87675984D01*
X167263962Y-93985984D02*
X167263962Y-100295984D01*
X167263962Y-100295984D02*
X178983962Y-100295984D01*
X167873962Y-89985984D02*
X167873962Y-90485984D01*
X167873962Y-90485984D02*
X173373962Y-90485984D01*
X167873962Y-92485984D02*
X167873962Y-92985984D01*
X167873962Y-92985984D02*
X173373962Y-92985984D01*
X167873962Y-94985984D02*
X167873962Y-95485984D01*
X167873962Y-95485984D02*
X173373962Y-95485984D01*
X167873962Y-97485984D02*
X167873962Y-97985984D01*
X167873962Y-97985984D02*
X173373962Y-97985984D01*
X173373962Y-89985984D02*
X167873962Y-89985984D01*
X173373962Y-90485984D02*
X173373962Y-89985984D01*
X173373962Y-92485984D02*
X167873962Y-92485984D01*
X173373962Y-92985984D02*
X173373962Y-92485984D01*
X173373962Y-94985984D02*
X167873962Y-94985984D01*
X173373962Y-95485984D02*
X173373962Y-94985984D01*
X173373962Y-97485984D02*
X167873962Y-97485984D01*
X173373962Y-97985984D02*
X173373962Y-97485984D01*
X174483962Y-89095984D02*
X174483962Y-93985984D01*
X174483962Y-98875984D02*
X174483962Y-93985984D01*
X178073962Y-90235984D02*
X178673962Y-89935984D01*
X178673962Y-89935984D02*
X178673962Y-90535984D01*
X178673962Y-90535984D02*
X178073962Y-90235984D01*
X178983962Y-87675984D02*
X178983962Y-89095984D01*
X178983962Y-89095984D02*
X174483962Y-89095984D01*
X178983962Y-98875984D02*
X174483962Y-98875984D01*
X178983962Y-100295984D02*
X178983962Y-98875984D01*
%TO.C,R31*%
X134344049Y-75926595D02*
X133834601Y-75926595D01*
X134344049Y-76971595D02*
X133834601Y-76971595D01*
%TO.C,J5*%
X128211825Y-45989095D02*
X128211825Y-58839095D01*
X128211825Y-58839095D02*
X130761825Y-61689095D01*
X130761825Y-61689095D02*
X133911825Y-61689095D01*
X133911825Y-61689095D02*
X136511825Y-58839095D01*
X136511825Y-45989095D02*
X128211825Y-45989095D01*
X136511825Y-58839095D02*
X136511825Y-45989095D01*
%TO.C,J21*%
X161801825Y-45364895D02*
X161801825Y-46784895D01*
X161801825Y-46784895D02*
X166301825Y-46784895D01*
X161801825Y-51564895D02*
X166301825Y-51564895D01*
X161801825Y-52984895D02*
X161801825Y-51564895D01*
X162111825Y-50124895D02*
X162711825Y-50424895D01*
X162111825Y-50724895D02*
X162111825Y-50124895D01*
X162711825Y-50424895D02*
X162111825Y-50724895D01*
X166301825Y-46784895D02*
X166301825Y-49174895D01*
X166301825Y-51564895D02*
X166301825Y-49174895D01*
X167411825Y-47674895D02*
X167411825Y-48174895D01*
X167411825Y-48174895D02*
X172911825Y-48174895D01*
X167411825Y-50174895D02*
X167411825Y-50674895D01*
X167411825Y-50674895D02*
X172911825Y-50674895D01*
X172911825Y-47674895D02*
X167411825Y-47674895D01*
X172911825Y-48174895D02*
X172911825Y-47674895D01*
X172911825Y-50174895D02*
X167411825Y-50174895D01*
X172911825Y-50674895D02*
X172911825Y-50174895D01*
X173521825Y-45364895D02*
X161801825Y-45364895D01*
X173521825Y-49174895D02*
X173521825Y-45364895D01*
X173521825Y-49174895D02*
X173521825Y-52984895D01*
X173521825Y-52984895D02*
X161801825Y-52984895D01*
%TD*%
M02*
