%TF.GenerationSoftware,KiCad,Pcbnew,9.0.1*%
%TF.CreationDate,2025-04-22T12:55:48+09:00*%
%TF.ProjectId,ORCA_CORE_A,4f524341-5f43-44f5-9245-5f412e6b6963,rev?*%
%TF.SameCoordinates,Original*%
%TF.FileFunction,Soldermask,Bot*%
%TF.FilePolarity,Negative*%
%FSLAX46Y46*%
G04 Gerber Fmt 4.6, Leading zero omitted, Abs format (unit mm)*
G04 Created by KiCad (PCBNEW 9.0.1) date 2025-04-22 12:55:48*
%MOMM*%
%LPD*%
G01*
G04 APERTURE LIST*
G04 Aperture macros list*
%AMRoundRect*
0 Rectangle with rounded corners*
0 $1 Rounding radius*
0 $2 $3 $4 $5 $6 $7 $8 $9 X,Y pos of 4 corners*
0 Add a 4 corners polygon primitive as box body*
4,1,4,$2,$3,$4,$5,$6,$7,$8,$9,$2,$3,0*
0 Add four circle primitives for the rounded corners*
1,1,$1+$1,$2,$3*
1,1,$1+$1,$4,$5*
1,1,$1+$1,$6,$7*
1,1,$1+$1,$8,$9*
0 Add four rect primitives between the rounded corners*
20,1,$1+$1,$2,$3,$4,$5,0*
20,1,$1+$1,$4,$5,$6,$7,0*
20,1,$1+$1,$6,$7,$8,$9,0*
20,1,$1+$1,$8,$9,$2,$3,0*%
%AMHorizOval*
0 Thick line with rounded ends*
0 $1 width*
0 $2 $3 position (X,Y) of the first rounded end (center of the circle)*
0 $4 $5 position (X,Y) of the second rounded end (center of the circle)*
0 Add line between two ends*
20,1,$1,$2,$3,$4,$5,0*
0 Add two circle primitives to create the rounded ends*
1,1,$1,$2,$3*
1,1,$1,$4,$5*%
%AMRotRect*
0 Rectangle, with rotation*
0 The origin of the aperture is its center*
0 $1 length*
0 $2 width*
0 $3 Rotation angle, in degrees counterclockwise*
0 Add horizontal line*
21,1,$1,$2,0,0,$3*%
G04 Aperture macros list end*
%ADD10C,1.700000*%
%ADD11RotRect,1.700000X1.700000X330.000000*%
%ADD12RoundRect,0.250000X0.725000X-0.600000X0.725000X0.600000X-0.725000X0.600000X-0.725000X-0.600000X0*%
%ADD13O,1.950000X1.700000*%
%ADD14RoundRect,0.250000X-0.750000X0.600000X-0.750000X-0.600000X0.750000X-0.600000X0.750000X0.600000X0*%
%ADD15O,2.000000X1.700000*%
%ADD16RotRect,1.700000X1.700000X210.000000*%
%ADD17C,6.000000*%
%ADD18R,1.700000X1.700000*%
%ADD19O,1.700000X1.700000*%
%ADD20RoundRect,0.250000X-0.600000X-0.750000X0.600000X-0.750000X0.600000X0.750000X-0.600000X0.750000X0*%
%ADD21O,1.700000X2.000000*%
%ADD22R,5.000000X5.000000*%
%ADD23C,5.000000*%
%ADD24R,1.200000X1.200000*%
%ADD25O,1.200000X1.200000*%
%ADD26RoundRect,0.250000X-0.327868X0.882115X-0.927868X-0.157115X0.327868X-0.882115X0.927868X0.157115X0*%
%ADD27HorizOval,1.700000X-0.108253X0.062500X0.108253X-0.062500X0*%
%ADD28C,3.200000*%
%ADD29RotRect,1.700000X1.700000X60.000000*%
%ADD30RoundRect,0.250000X0.600000X0.750000X-0.600000X0.750000X-0.600000X-0.750000X0.600000X-0.750000X0*%
%ADD31RoundRect,1.500000X-1.500000X1.500000X-1.500000X-1.500000X1.500000X-1.500000X1.500000X1.500000X0*%
%ADD32RotRect,1.700000X1.700000X30.000000*%
%ADD33RoundRect,0.237500X-0.080681X0.335256X-0.330681X-0.097756X0.080681X-0.335256X0.330681X0.097756X0*%
%ADD34RoundRect,0.137500X0.137500X-0.662500X0.137500X0.662500X-0.137500X0.662500X-0.137500X-0.662500X0*%
%ADD35RoundRect,0.250000X-0.475000X0.337500X-0.475000X-0.337500X0.475000X-0.337500X0.475000X0.337500X0*%
%ADD36RoundRect,0.237500X-0.250000X-0.237500X0.250000X-0.237500X0.250000X0.237500X-0.250000X0.237500X0*%
%ADD37RoundRect,0.237500X0.237500X-0.250000X0.237500X0.250000X-0.237500X0.250000X-0.237500X-0.250000X0*%
%ADD38RoundRect,0.237500X0.335256X0.080681X-0.097756X0.330681X-0.335256X-0.080681X0.097756X-0.330681X0*%
%ADD39RoundRect,0.150000X0.150000X-0.675000X0.150000X0.675000X-0.150000X0.675000X-0.150000X-0.675000X0*%
%ADD40RoundRect,0.250000X0.650000X-0.412500X0.650000X0.412500X-0.650000X0.412500X-0.650000X-0.412500X0*%
%ADD41RoundRect,0.150000X0.583790X-0.163846X-0.433790X0.423654X-0.583790X0.163846X0.433790X-0.423654X0*%
%ADD42R,3.250000X0.350000*%
%ADD43O,2.400000X1.100000*%
%ADD44O,2.800000X1.100000*%
%ADD45RoundRect,0.250000X0.475000X-0.337500X0.475000X0.337500X-0.475000X0.337500X-0.475000X-0.337500X0*%
%ADD46RoundRect,0.375000X0.625000X0.375000X-0.625000X0.375000X-0.625000X-0.375000X0.625000X-0.375000X0*%
%ADD47RoundRect,0.500000X0.500000X1.400000X-0.500000X1.400000X-0.500000X-1.400000X0.500000X-1.400000X0*%
%ADD48RoundRect,0.250000X-0.650000X0.412500X-0.650000X-0.412500X0.650000X-0.412500X0.650000X0.412500X0*%
%ADD49RoundRect,0.237500X-0.300000X-0.237500X0.300000X-0.237500X0.300000X0.237500X-0.300000X0.237500X0*%
%ADD50RoundRect,0.375000X-0.625000X-0.375000X0.625000X-0.375000X0.625000X0.375000X-0.625000X0.375000X0*%
%ADD51RoundRect,0.500000X-0.500000X-1.400000X0.500000X-1.400000X0.500000X1.400000X-0.500000X1.400000X0*%
%ADD52RoundRect,0.250000X-0.412500X-0.650000X0.412500X-0.650000X0.412500X0.650000X-0.412500X0.650000X0*%
%ADD53RoundRect,0.110000X-0.890000X-0.440000X0.890000X-0.440000X0.890000X0.440000X-0.890000X0.440000X0*%
%ADD54RoundRect,0.080000X-0.320000X-0.470000X0.320000X-0.470000X0.320000X0.470000X-0.320000X0.470000X0*%
G04 APERTURE END LIST*
D10*
%TO.C,J11*%
X168609951Y-98793971D03*
X169879951Y-96594267D03*
D11*
X171149951Y-94394562D03*
%TD*%
D12*
%TO.C,J39*%
X125789637Y-129086889D03*
D13*
X125789637Y-126586889D03*
X125789637Y-124086889D03*
X125789637Y-121586889D03*
X125789637Y-119086889D03*
X125789637Y-116586889D03*
%TD*%
D14*
%TO.C,J13*%
X109279637Y-111506889D03*
D15*
X109279637Y-114006889D03*
%TD*%
D16*
%TO.C,J9*%
X141897259Y-93834710D03*
D10*
X140627259Y-91635005D03*
X139357259Y-89435301D03*
%TD*%
D12*
%TO.C,J46*%
X178787137Y-50754989D03*
D13*
X178787137Y-48254989D03*
X178787137Y-45754989D03*
%TD*%
D17*
%TO.C,J10*%
X162320000Y-70440000D03*
X139320000Y-128440000D03*
X139320000Y-70440000D03*
D18*
X161050000Y-123570000D03*
D19*
X163590000Y-123570000D03*
X161050000Y-121030000D03*
X163590000Y-121030000D03*
X161050000Y-118490000D03*
X163590000Y-118490000D03*
X161050000Y-115950000D03*
X163590000Y-115950000D03*
X161050000Y-113410000D03*
X163590000Y-113410000D03*
X161050000Y-110870000D03*
X163590000Y-110870000D03*
X161050000Y-108330000D03*
X163590000Y-108330000D03*
X161050000Y-105790000D03*
X163590000Y-105790000D03*
X161050000Y-103250000D03*
X163590000Y-103250000D03*
X161050000Y-100710000D03*
X163590000Y-100710000D03*
X161050000Y-98170000D03*
X163590000Y-98170000D03*
X161050000Y-95630000D03*
X163590000Y-95630000D03*
X161050000Y-93090000D03*
X163590000Y-93090000D03*
X161050000Y-90550000D03*
X163590000Y-90550000D03*
X161050000Y-88010000D03*
X163590000Y-88010000D03*
X161050000Y-85470000D03*
X163590000Y-85470000D03*
X161050000Y-82930000D03*
X163590000Y-82930000D03*
X161050000Y-80390000D03*
X163590000Y-80390000D03*
X161050000Y-77850000D03*
X163590000Y-77850000D03*
X161050000Y-75310000D03*
X163590000Y-75310000D03*
%TD*%
D14*
%TO.C,J22*%
X109279637Y-131826889D03*
D15*
X109279637Y-134326889D03*
%TD*%
D20*
%TO.C,J15*%
X115669637Y-126706889D03*
D21*
X118169637Y-126706889D03*
%TD*%
D22*
%TO.C,J18*%
X169956000Y-71500000D03*
D23*
X169956000Y-64090000D03*
%TD*%
D22*
%TO.C,J19*%
X147010000Y-127590000D03*
D23*
X154420000Y-127590000D03*
%TD*%
D24*
%TO.C,U26*%
X145520000Y-79740000D03*
D25*
X145520000Y-81490000D03*
X145520000Y-83300000D03*
X145520000Y-85080000D03*
X145520000Y-86860000D03*
X145520000Y-88640000D03*
X145520000Y-90420000D03*
X145520000Y-92200000D03*
X156220000Y-93090000D03*
X156220000Y-91310000D03*
X156220000Y-89530000D03*
X156220000Y-87750000D03*
X156220000Y-85970000D03*
X156220000Y-84190000D03*
X156220000Y-82410000D03*
X156220000Y-80630000D03*
%TD*%
D26*
%TO.C,J52*%
X112770000Y-59130000D03*
D27*
X111520000Y-61295064D03*
X110270000Y-63460127D03*
X109020000Y-65625191D03*
%TD*%
D28*
%TO.C,H7*%
X173915986Y-136006893D03*
%TD*%
D18*
%TO.C,J54*%
X194512137Y-66835468D03*
D10*
X194512137Y-64295468D03*
X194512137Y-61755468D03*
X194512137Y-59215468D03*
X194512137Y-56675468D03*
X194512137Y-54135468D03*
X194512137Y-51595468D03*
%TD*%
D28*
%TO.C,H8*%
X173915987Y-113006893D03*
%TD*%
D29*
%TO.C,J44*%
X125810295Y-70560000D03*
D10*
X128010000Y-71830000D03*
X130209704Y-73100000D03*
%TD*%
D12*
%TO.C,J47*%
X185687137Y-50706889D03*
D13*
X185687137Y-48206889D03*
X185687137Y-45706889D03*
%TD*%
D30*
%TO.C,J20*%
X118169637Y-119086889D03*
D21*
X115669637Y-119086889D03*
%TD*%
D11*
%TO.C,J34*%
X126741522Y-61133962D03*
D10*
X124541817Y-59863962D03*
X125471522Y-63333667D03*
X123271817Y-62063667D03*
X124201522Y-65533371D03*
X122001817Y-64263371D03*
X122931522Y-67733076D03*
X120731817Y-66463076D03*
X121661522Y-69932780D03*
X119461817Y-68662780D03*
X120391522Y-72132485D03*
X118191817Y-70862485D03*
X119121522Y-74332189D03*
X116921817Y-73062189D03*
X117851522Y-76531894D03*
X115651817Y-75261895D03*
X116581522Y-78731598D03*
X114381817Y-77461598D03*
X115311522Y-80931303D03*
X113111817Y-79661303D03*
%TD*%
D31*
%TO.C,J1*%
X177112137Y-121056889D03*
D17*
X177112137Y-128256889D03*
%TD*%
D22*
%TO.C,J6*%
X169362137Y-121223889D03*
D23*
X169362137Y-128633889D03*
%TD*%
D18*
%TO.C,J59*%
X99512137Y-80358790D03*
D10*
X102052137Y-80358790D03*
X99512137Y-77818790D03*
X102052137Y-77818790D03*
X99512137Y-75278790D03*
X102052137Y-75278790D03*
X99512137Y-72738790D03*
X102052137Y-72738790D03*
X99512137Y-70198790D03*
X102052137Y-70198790D03*
X99512137Y-67658790D03*
X102052137Y-67658790D03*
X99512137Y-65118790D03*
X102052137Y-65118790D03*
X99512137Y-62578790D03*
X102052137Y-62578790D03*
X99512137Y-60038790D03*
X102052137Y-60038790D03*
X99512137Y-57498790D03*
X102052137Y-57498790D03*
%TD*%
D28*
%TO.C,H15*%
X130869637Y-135486889D03*
%TD*%
D32*
%TO.C,J33*%
X177319018Y-59913962D03*
D10*
X175119313Y-61183962D03*
X178589018Y-62113667D03*
X176389313Y-63383667D03*
X179859018Y-64313371D03*
X177659313Y-65583371D03*
X181129018Y-66513076D03*
X178929313Y-67783076D03*
X182399018Y-68712780D03*
X180199313Y-69982780D03*
%TD*%
D28*
%TO.C,H16*%
X130869637Y-109986889D03*
%TD*%
D18*
%TO.C,J8*%
X148280000Y-73913962D03*
D10*
X150820000Y-73913962D03*
X153360000Y-73913962D03*
%TD*%
D33*
%TO.C,R5*%
X125760000Y-81339752D03*
X124847500Y-82920248D03*
%TD*%
D34*
%TO.C,U18*%
X148188999Y-121131025D03*
X146918999Y-121131025D03*
X146918999Y-114631025D03*
X148188999Y-114631025D03*
%TD*%
D35*
%TO.C,C12*%
X149128000Y-66622000D03*
X149128000Y-68697000D03*
%TD*%
D36*
%TO.C,R25*%
X113804637Y-116546889D03*
X115629637Y-116546889D03*
%TD*%
D37*
%TO.C,R49*%
X144175000Y-66636000D03*
X144175000Y-64811000D03*
%TD*%
D38*
%TO.C,R8*%
X124367748Y-77788498D03*
X122787252Y-76875998D03*
%TD*%
D39*
%TO.C,U4*%
X104834637Y-122981889D03*
X103564637Y-122981889D03*
X102294637Y-122981889D03*
X101024637Y-122981889D03*
X101024637Y-117731889D03*
X102294637Y-117731889D03*
X103564637Y-117731889D03*
X104834637Y-117731889D03*
%TD*%
D36*
%TO.C,R19*%
X129957137Y-124166889D03*
X131782137Y-124166889D03*
%TD*%
D40*
%TO.C,C3*%
X125154637Y-136866889D03*
X125154637Y-133741889D03*
%TD*%
D41*
%TO.C,Q2*%
X123261899Y-80026274D03*
X122311899Y-81671722D03*
X121163101Y-79911498D03*
%TD*%
D36*
%TO.C,R13*%
X103287137Y-127976889D03*
X105112137Y-127976889D03*
%TD*%
%TO.C,R11*%
X129957137Y-126706889D03*
X131782137Y-126706889D03*
%TD*%
D33*
%TO.C,R4*%
X133022500Y-85629504D03*
X132110000Y-87210000D03*
%TD*%
D38*
%TO.C,R7*%
X132420496Y-81316250D03*
X130840000Y-80403750D03*
%TD*%
D36*
%TO.C,R23*%
X116344637Y-122896889D03*
X118169637Y-122896889D03*
%TD*%
D34*
%TO.C,U20*%
X156073999Y-121131025D03*
X154803999Y-121131025D03*
X154803999Y-114631025D03*
X156073999Y-114631025D03*
%TD*%
%TO.C,U19*%
X140708999Y-121131025D03*
X139438999Y-121131025D03*
X139438999Y-114631025D03*
X140708999Y-114631025D03*
%TD*%
D36*
%TO.C,R21*%
X103287137Y-125436889D03*
X105112137Y-125436889D03*
%TD*%
D42*
%TO.C,J49*%
X105137137Y-51008530D03*
X105137137Y-50358530D03*
X105137137Y-49708530D03*
X105132137Y-49058530D03*
X105132137Y-48408530D03*
D43*
X100862137Y-45608530D03*
X100862137Y-53808530D03*
D44*
X104912137Y-45608530D03*
X104912137Y-53808530D03*
%TD*%
D11*
%TO.C,J35*%
X105890615Y-79088790D03*
D10*
X108090320Y-80358790D03*
X107160615Y-76889085D03*
X109360320Y-78159085D03*
X108430615Y-74689381D03*
X110630320Y-75959381D03*
X109700615Y-72489676D03*
X111900320Y-73759676D03*
X110970615Y-70289972D03*
X113170320Y-71559972D03*
X112240615Y-68090267D03*
X114440320Y-69360267D03*
X113510615Y-65890563D03*
X115710320Y-67160563D03*
X114780615Y-63690858D03*
X116980320Y-64960857D03*
X116050615Y-61491154D03*
X118250320Y-62761154D03*
X117320615Y-59291449D03*
X119520320Y-60561449D03*
%TD*%
D41*
%TO.C,Q1*%
X130524399Y-84062026D03*
X129574399Y-85707474D03*
X128425601Y-83947250D03*
%TD*%
D45*
%TO.C,C4*%
X122614637Y-136866889D03*
X122614637Y-134791889D03*
%TD*%
D46*
%TO.C,U8*%
X120049637Y-130756889D03*
X120049637Y-133056889D03*
D47*
X113749637Y-133056889D03*
D46*
X120049637Y-135356889D03*
%TD*%
D48*
%TO.C,C11*%
X146969000Y-65169500D03*
X146969000Y-68294500D03*
%TD*%
D32*
%TO.C,J41*%
X185933954Y-66835468D03*
D10*
X188133659Y-65565468D03*
X184663954Y-64635763D03*
X186863659Y-63365763D03*
X183393954Y-62436059D03*
X185593659Y-61166059D03*
X182123954Y-60236354D03*
X184323659Y-58966354D03*
X180853954Y-58036650D03*
X183053659Y-56766650D03*
%TD*%
D49*
%TO.C,C13*%
X140083137Y-82556889D03*
X141808137Y-82556889D03*
%TD*%
D50*
%TO.C,U22*%
X151972000Y-68414000D03*
X151972000Y-66114000D03*
D51*
X158272000Y-66114000D03*
D50*
X151972000Y-63814000D03*
%TD*%
D52*
%TO.C,C14*%
X138683137Y-84588889D03*
X141808137Y-84588889D03*
%TD*%
D53*
%TO.C,D2*%
X109899637Y-136231889D03*
D54*
X111799637Y-136231889D03*
%TD*%
D37*
%TO.C,R35*%
X140365000Y-66636000D03*
X140365000Y-64811000D03*
%TD*%
M02*
