%TF.GenerationSoftware,KiCad,Pcbnew,9.0.1*%
%TF.CreationDate,2025-04-22T12:55:48+09:00*%
%TF.ProjectId,ORCA_CORE_A,4f524341-5f43-44f5-9245-5f412e6b6963,rev?*%
%TF.SameCoordinates,Original*%
%TF.FileFunction,Legend,Top*%
%TF.FilePolarity,Positive*%
%FSLAX46Y46*%
G04 Gerber Fmt 4.6, Leading zero omitted, Abs format (unit mm)*
G04 Created by KiCad (PCBNEW 9.0.1) date 2025-04-22 12:55:48*
%MOMM*%
%LPD*%
G01*
G04 APERTURE LIST*
%ADD10C,0.150000*%
%ADD11C,0.500000*%
%ADD12C,0.160000*%
%ADD13C,0.300000*%
%ADD14C,0.100000*%
%ADD15C,0.120000*%
G04 APERTURE END LIST*
D10*
X172468146Y-91801047D02*
X172379288Y-91859716D01*
X172379288Y-91859716D02*
X172307859Y-91983434D01*
X172307859Y-91983434D02*
X172277670Y-92130961D01*
X172277670Y-92130961D02*
X172312530Y-92261059D01*
X172312530Y-92261059D02*
X172371199Y-92349917D01*
X172371199Y-92349917D02*
X172512346Y-92486395D01*
X172512346Y-92486395D02*
X172636064Y-92557823D01*
X172636064Y-92557823D02*
X172824831Y-92611822D01*
X172824831Y-92611822D02*
X172931119Y-92618202D01*
X172931119Y-92618202D02*
X173061217Y-92583342D01*
X173061217Y-92583342D02*
X173173885Y-92483434D01*
X173173885Y-92483434D02*
X173221504Y-92400955D01*
X173221504Y-92400955D02*
X173251693Y-92253428D01*
X173251693Y-92253428D02*
X173234263Y-92188379D01*
X173234263Y-92188379D02*
X172945588Y-92021712D01*
X172945588Y-92021712D02*
X172850350Y-92186670D01*
X173531027Y-91864844D02*
X172665002Y-91364844D01*
X172665002Y-91364844D02*
X173816742Y-91369973D01*
X173816742Y-91369973D02*
X172950716Y-90869973D01*
X174054837Y-90957580D02*
X173188812Y-90457580D01*
X173188812Y-90457580D02*
X173307859Y-90251383D01*
X173307859Y-90251383D02*
X173420527Y-90151475D01*
X173420527Y-90151475D02*
X173550625Y-90116615D01*
X173550625Y-90116615D02*
X173656913Y-90122995D01*
X173656913Y-90122995D02*
X173845680Y-90176994D01*
X173845680Y-90176994D02*
X173969398Y-90248422D01*
X173969398Y-90248422D02*
X174110545Y-90384900D01*
X174110545Y-90384900D02*
X174169214Y-90473758D01*
X174169214Y-90473758D02*
X174204074Y-90603856D01*
X174204074Y-90603856D02*
X174173885Y-90751383D01*
X174173885Y-90751383D02*
X174054837Y-90957580D01*
D11*
X189689730Y-82354803D02*
X189689734Y-82354805D01*
X107750029Y-51888028D02*
X107750016Y-51888036D01*
X119625540Y-56357090D02*
X119625558Y-56357080D01*
X132903700Y-106500000D02*
X101921732Y-106500000D01*
X135903847Y-136500000D02*
X135903847Y-109517932D01*
X101903800Y-139500000D02*
X132903847Y-139500000D01*
X98903847Y-109500100D02*
X98903847Y-136500000D01*
X132903700Y-106500000D02*
G75*
G02*
X135903848Y-109517932I0J-3000200D01*
G01*
X135903847Y-136500000D02*
G75*
G02*
X132903847Y-139499947I-2999947J0D01*
G01*
X101903800Y-139500000D02*
G75*
G02*
X98903900Y-136500000I0J2999900D01*
G01*
X98903847Y-109500100D02*
G75*
G02*
X101921732Y-106499999I3000153J0D01*
G01*
X177403845Y-136000000D02*
X181903847Y-136000000D01*
X181903847Y-136000000D02*
X181903847Y-113000000D01*
X181903847Y-113000000D02*
X177403853Y-113000000D01*
X170403846Y-113000000D02*
G75*
G02*
X177403854Y-113000000I3500004J-4D01*
G01*
X170403846Y-113000000D02*
X165903847Y-113000000D01*
X165903847Y-113000000D02*
X165903847Y-136000000D01*
X165903847Y-136000000D02*
X170403853Y-136000000D01*
X177403845Y-136000000D02*
G75*
G02*
X170403853Y-136000000I-3499996J-4D01*
G01*
X191500000Y-42694873D02*
X185089700Y-42694873D01*
X189963300Y-72828579D02*
X191485858Y-72828579D01*
X173510099Y-49330853D02*
X185627639Y-70319047D01*
X174278465Y-42999995D02*
X173510098Y-44330845D01*
X182589714Y-42025001D02*
X181118845Y-41175794D01*
X196500000Y-67828600D02*
X196500000Y-47711331D01*
X196500000Y-67828600D02*
G75*
G02*
X191485858Y-72828580I-5000000J0D01*
G01*
X189963300Y-72828579D02*
G75*
G02*
X185627595Y-70319072I0J5000179D01*
G01*
X173510099Y-49330853D02*
G75*
G02*
X173510100Y-44330846I4330131J2500003D01*
G01*
X174278465Y-42999995D02*
G75*
G02*
X181118845Y-41175793I4330135J-2500005D01*
G01*
X185089700Y-42694873D02*
G75*
G02*
X182589713Y-42025003I0J4999973D01*
G01*
X191500000Y-42694873D02*
G75*
G02*
X196500000Y-47711331I0J-5000027D01*
G01*
X113687794Y-54122571D02*
G75*
G02*
X107750029Y-51888028I-1607594J4734571D01*
G01*
X113687794Y-54122571D02*
G75*
G02*
X119625540Y-56357090I1607606J-4734529D01*
G01*
X120489904Y-57854170D02*
G75*
G02*
X120489905Y-62854169I-4330124J-2500000D01*
G01*
X108366832Y-83851945D02*
G75*
G02*
X104036731Y-86351890I-4330032J2499945D01*
G01*
X102500000Y-86351901D02*
G75*
G02*
X97499999Y-81351900I0J5000001D01*
G01*
X107750016Y-51888036D02*
X107500000Y-51454997D01*
X120489904Y-57854170D02*
X119625558Y-56357080D01*
X108366832Y-83851945D02*
X120489905Y-62854169D01*
X102500000Y-86351901D02*
X104036731Y-86351901D01*
X97500000Y-45330600D02*
X97500000Y-81351900D01*
X97500000Y-45330600D02*
G75*
G02*
X100500000Y-42330700I2999900J0D01*
G01*
X107500000Y-51454997D02*
X107500000Y-44346062D01*
X105499900Y-42330641D02*
X100500000Y-42330641D01*
X105499900Y-42330641D02*
G75*
G02*
X107500001Y-44346062I0J-2000159D01*
G01*
X165903847Y-128907100D02*
G75*
G02*
X162882972Y-131907075I-3000047J0D01*
G01*
X138903800Y-131907073D02*
G75*
G02*
X135903846Y-128896423I0J2999973D01*
G01*
X165903847Y-128907100D02*
X165903847Y-108257000D01*
X138903800Y-131907073D02*
X162882972Y-131907073D01*
X135903847Y-108263581D02*
X135903847Y-128896423D01*
X118920069Y-86086404D02*
G75*
G02*
X124857824Y-88320910I1607631J-4734496D01*
G01*
X118920069Y-86086404D02*
G75*
G02*
X112982344Y-83851959I-1607669J4734404D01*
G01*
X112117962Y-82354808D02*
G75*
G02*
X112117961Y-77354793I4330138J2500008D01*
G01*
X124240967Y-56357139D02*
G75*
G02*
X128571200Y-53857078I4330233J-2500061D01*
G01*
X130107900Y-53857073D02*
G75*
G02*
X135011857Y-57882077I0J-4999927D01*
G01*
X139915900Y-61907073D02*
G75*
G02*
X135011826Y-57882084I0J5000073D01*
G01*
X166603847Y-57882073D02*
G75*
G02*
X161681462Y-61907091I-4904047J974973D01*
G01*
X166603847Y-57882073D02*
G75*
G02*
X171520147Y-53857074I4904053J-975027D01*
G01*
X173236600Y-53857073D02*
G75*
G02*
X177566643Y-56357100I0J-4999827D01*
G01*
X189689731Y-77354797D02*
G75*
G02*
X189689731Y-82354803I-4330131J-2500003D01*
G01*
X188921319Y-83685739D02*
G75*
G02*
X182983610Y-85920152I-4330019J2499939D01*
G01*
X177045836Y-88154679D02*
G75*
G02*
X182983612Y-85920145I4330164J-2500021D01*
G01*
X112117962Y-82354808D02*
X112982343Y-83851960D01*
X124240967Y-56357139D02*
X112117964Y-77354795D01*
X130107900Y-53857073D02*
X128571200Y-53857073D01*
X161681462Y-61907073D02*
X139915900Y-61907073D01*
X173236600Y-53857073D02*
X171520147Y-53857073D01*
X189689731Y-77354797D02*
X177566689Y-56357073D01*
X188921319Y-83685739D02*
X189689734Y-82354805D01*
X166305767Y-106757025D02*
X177045836Y-88154679D01*
X124857829Y-88320907D02*
X135501897Y-106756973D01*
X165903847Y-108257000D02*
G75*
G02*
X166305764Y-106757024I2999953J0D01*
G01*
X135501897Y-106756973D02*
G75*
G02*
X135903834Y-108263581I-2598397J-1500127D01*
G01*
D12*
X111458546Y-138476224D02*
X111191879Y-137676224D01*
X111191879Y-137676224D02*
X110925213Y-138476224D01*
X110658546Y-137676224D02*
X110658546Y-138209558D01*
X110658546Y-138476224D02*
X110696642Y-138438129D01*
X110696642Y-138438129D02*
X110658546Y-138400034D01*
X110658546Y-138400034D02*
X110620451Y-138438129D01*
X110620451Y-138438129D02*
X110658546Y-138476224D01*
X110658546Y-138476224D02*
X110658546Y-138400034D01*
X110277594Y-138209558D02*
X110277594Y-137676224D01*
X110277594Y-138133367D02*
X110239499Y-138171462D01*
X110239499Y-138171462D02*
X110163309Y-138209558D01*
X110163309Y-138209558D02*
X110049023Y-138209558D01*
X110049023Y-138209558D02*
X109972832Y-138171462D01*
X109972832Y-138171462D02*
X109934737Y-138095272D01*
X109934737Y-138095272D02*
X109934737Y-137676224D01*
D13*
X104117866Y-61977082D02*
X105169469Y-62584225D01*
X105169469Y-62584225D02*
X105328901Y-62593795D01*
X105328901Y-62593795D02*
X105426474Y-62567650D01*
X105426474Y-62567650D02*
X105559762Y-62479646D01*
X105559762Y-62479646D02*
X105702619Y-62232211D01*
X105702619Y-62232211D02*
X105712188Y-62072778D01*
X105712188Y-62072778D02*
X105686044Y-61975205D01*
X105686044Y-61975205D02*
X105598040Y-61841918D01*
X105598040Y-61841918D02*
X104546438Y-61234775D01*
X106105046Y-61392330D02*
X106274047Y-61242467D01*
X106274047Y-61242467D02*
X106452619Y-60933172D01*
X106452619Y-60933172D02*
X106462189Y-60773740D01*
X106462189Y-60773740D02*
X106436044Y-60676167D01*
X106436044Y-60676167D02*
X106348040Y-60542879D01*
X106348040Y-60542879D02*
X106224322Y-60471451D01*
X106224322Y-60471451D02*
X106064890Y-60461881D01*
X106064890Y-60461881D02*
X105967317Y-60488026D01*
X105967317Y-60488026D02*
X105834029Y-60576029D01*
X105834029Y-60576029D02*
X105629313Y-60787751D01*
X105629313Y-60787751D02*
X105496026Y-60875754D01*
X105496026Y-60875754D02*
X105398452Y-60901899D01*
X105398452Y-60901899D02*
X105239020Y-60892330D01*
X105239020Y-60892330D02*
X105115302Y-60820901D01*
X105115302Y-60820901D02*
X105027299Y-60687613D01*
X105027299Y-60687613D02*
X105001154Y-60590040D01*
X105001154Y-60590040D02*
X105010724Y-60430608D01*
X105010724Y-60430608D02*
X105189295Y-60121313D01*
X105189295Y-60121313D02*
X105358297Y-59971451D01*
X106486456Y-59303136D02*
X106655458Y-59153274D01*
X106655458Y-59153274D02*
X106753031Y-59127129D01*
X106753031Y-59127129D02*
X106912463Y-59136699D01*
X106912463Y-59136699D02*
X107098040Y-59243841D01*
X107098040Y-59243841D02*
X107186044Y-59377129D01*
X107186044Y-59377129D02*
X107212188Y-59474702D01*
X107212188Y-59474702D02*
X107202619Y-59634134D01*
X107202619Y-59634134D02*
X106916904Y-60129006D01*
X106916904Y-60129006D02*
X105617866Y-59379006D01*
X105617866Y-59379006D02*
X105867866Y-58945993D01*
X105867866Y-58945993D02*
X106001154Y-58857990D01*
X106001154Y-58857990D02*
X106098727Y-58831845D01*
X106098727Y-58831845D02*
X106258159Y-58841415D01*
X106258159Y-58841415D02*
X106381877Y-58912843D01*
X106381877Y-58912843D02*
X106469881Y-59046131D01*
X106469881Y-59046131D02*
X106496025Y-59143704D01*
X106496025Y-59143704D02*
X106486456Y-59303136D01*
X106486456Y-59303136D02*
X106236456Y-59736149D01*
X107831465Y-57687798D02*
X108188608Y-57069208D01*
X108131190Y-58025802D02*
X107082152Y-56842789D01*
X107082152Y-56842789D02*
X108631190Y-57159776D01*
X191212965Y-49438092D02*
X191141537Y-49580949D01*
X191141537Y-49580949D02*
X190998679Y-49652378D01*
X190998679Y-49652378D02*
X189712965Y-49652378D01*
X191141537Y-48295235D02*
X191212965Y-48438092D01*
X191212965Y-48438092D02*
X191212965Y-48723807D01*
X191212965Y-48723807D02*
X191141537Y-48866664D01*
X191141537Y-48866664D02*
X190998679Y-48938092D01*
X190998679Y-48938092D02*
X190427251Y-48938092D01*
X190427251Y-48938092D02*
X190284394Y-48866664D01*
X190284394Y-48866664D02*
X190212965Y-48723807D01*
X190212965Y-48723807D02*
X190212965Y-48438092D01*
X190212965Y-48438092D02*
X190284394Y-48295235D01*
X190284394Y-48295235D02*
X190427251Y-48223807D01*
X190427251Y-48223807D02*
X190570108Y-48223807D01*
X190570108Y-48223807D02*
X190712965Y-48938092D01*
X191212965Y-46938093D02*
X189712965Y-46938093D01*
X191141537Y-46938093D02*
X191212965Y-47080950D01*
X191212965Y-47080950D02*
X191212965Y-47366664D01*
X191212965Y-47366664D02*
X191141537Y-47509521D01*
X191141537Y-47509521D02*
X191070108Y-47580950D01*
X191070108Y-47580950D02*
X190927251Y-47652378D01*
X190927251Y-47652378D02*
X190498679Y-47652378D01*
X190498679Y-47652378D02*
X190355822Y-47580950D01*
X190355822Y-47580950D02*
X190284394Y-47509521D01*
X190284394Y-47509521D02*
X190212965Y-47366664D01*
X190212965Y-47366664D02*
X190212965Y-47080950D01*
X190212965Y-47080950D02*
X190284394Y-46938093D01*
X175680828Y-49875489D02*
X174680828Y-49875489D01*
X174966542Y-49875489D02*
X174823685Y-49804060D01*
X174823685Y-49804060D02*
X174752257Y-49732632D01*
X174752257Y-49732632D02*
X174680828Y-49589774D01*
X174680828Y-49589774D02*
X174680828Y-49446917D01*
X175609400Y-48375489D02*
X175680828Y-48518346D01*
X175680828Y-48518346D02*
X175680828Y-48804061D01*
X175680828Y-48804061D02*
X175609400Y-48946918D01*
X175609400Y-48946918D02*
X175466542Y-49018346D01*
X175466542Y-49018346D02*
X174895114Y-49018346D01*
X174895114Y-49018346D02*
X174752257Y-48946918D01*
X174752257Y-48946918D02*
X174680828Y-48804061D01*
X174680828Y-48804061D02*
X174680828Y-48518346D01*
X174680828Y-48518346D02*
X174752257Y-48375489D01*
X174752257Y-48375489D02*
X174895114Y-48304061D01*
X174895114Y-48304061D02*
X175037971Y-48304061D01*
X175037971Y-48304061D02*
X175180828Y-49018346D01*
X175609400Y-47732632D02*
X175680828Y-47589775D01*
X175680828Y-47589775D02*
X175680828Y-47304061D01*
X175680828Y-47304061D02*
X175609400Y-47161204D01*
X175609400Y-47161204D02*
X175466542Y-47089775D01*
X175466542Y-47089775D02*
X175395114Y-47089775D01*
X175395114Y-47089775D02*
X175252257Y-47161204D01*
X175252257Y-47161204D02*
X175180828Y-47304061D01*
X175180828Y-47304061D02*
X175180828Y-47518347D01*
X175180828Y-47518347D02*
X175109400Y-47661204D01*
X175109400Y-47661204D02*
X174966542Y-47732632D01*
X174966542Y-47732632D02*
X174895114Y-47732632D01*
X174895114Y-47732632D02*
X174752257Y-47661204D01*
X174752257Y-47661204D02*
X174680828Y-47518347D01*
X174680828Y-47518347D02*
X174680828Y-47304061D01*
X174680828Y-47304061D02*
X174752257Y-47161204D01*
X175609400Y-45875489D02*
X175680828Y-46018346D01*
X175680828Y-46018346D02*
X175680828Y-46304061D01*
X175680828Y-46304061D02*
X175609400Y-46446918D01*
X175609400Y-46446918D02*
X175466542Y-46518346D01*
X175466542Y-46518346D02*
X174895114Y-46518346D01*
X174895114Y-46518346D02*
X174752257Y-46446918D01*
X174752257Y-46446918D02*
X174680828Y-46304061D01*
X174680828Y-46304061D02*
X174680828Y-46018346D01*
X174680828Y-46018346D02*
X174752257Y-45875489D01*
X174752257Y-45875489D02*
X174895114Y-45804061D01*
X174895114Y-45804061D02*
X175037971Y-45804061D01*
X175037971Y-45804061D02*
X175180828Y-46518346D01*
X174680828Y-45375489D02*
X174680828Y-44804061D01*
X174180828Y-45161204D02*
X175466542Y-45161204D01*
X175466542Y-45161204D02*
X175609400Y-45089775D01*
X175609400Y-45089775D02*
X175680828Y-44946918D01*
X175680828Y-44946918D02*
X175680828Y-44804061D01*
D12*
X119901403Y-137609558D02*
X119901403Y-137076224D01*
X120244260Y-137609558D02*
X120244260Y-137190510D01*
X120244260Y-137190510D02*
X120206165Y-137114320D01*
X120206165Y-137114320D02*
X120129975Y-137076224D01*
X120129975Y-137076224D02*
X120015689Y-137076224D01*
X120015689Y-137076224D02*
X119939498Y-137114320D01*
X119939498Y-137114320D02*
X119901403Y-137152415D01*
X119520450Y-137609558D02*
X119520450Y-136809558D01*
X119520450Y-137571462D02*
X119444260Y-137609558D01*
X119444260Y-137609558D02*
X119291879Y-137609558D01*
X119291879Y-137609558D02*
X119215688Y-137571462D01*
X119215688Y-137571462D02*
X119177593Y-137533367D01*
X119177593Y-137533367D02*
X119139498Y-137457177D01*
X119139498Y-137457177D02*
X119139498Y-137228605D01*
X119139498Y-137228605D02*
X119177593Y-137152415D01*
X119177593Y-137152415D02*
X119215688Y-137114320D01*
X119215688Y-137114320D02*
X119291879Y-137076224D01*
X119291879Y-137076224D02*
X119444260Y-137076224D01*
X119444260Y-137076224D02*
X119520450Y-137114320D01*
X118796640Y-137609558D02*
X118796640Y-136809558D01*
X118796640Y-137571462D02*
X118720450Y-137609558D01*
X118720450Y-137609558D02*
X118568069Y-137609558D01*
X118568069Y-137609558D02*
X118491878Y-137571462D01*
X118491878Y-137571462D02*
X118453783Y-137533367D01*
X118453783Y-137533367D02*
X118415688Y-137457177D01*
X118415688Y-137457177D02*
X118415688Y-137228605D01*
X118415688Y-137228605D02*
X118453783Y-137152415D01*
X118453783Y-137152415D02*
X118491878Y-137114320D01*
X118491878Y-137114320D02*
X118568069Y-137076224D01*
X118568069Y-137076224D02*
X118720450Y-137076224D01*
X118720450Y-137076224D02*
X118796640Y-137114320D01*
X117768068Y-137114320D02*
X117844259Y-137076224D01*
X117844259Y-137076224D02*
X117996640Y-137076224D01*
X117996640Y-137076224D02*
X118072830Y-137114320D01*
X118072830Y-137114320D02*
X118110926Y-137190510D01*
X118110926Y-137190510D02*
X118110926Y-137495272D01*
X118110926Y-137495272D02*
X118072830Y-137571462D01*
X118072830Y-137571462D02*
X117996640Y-137609558D01*
X117996640Y-137609558D02*
X117844259Y-137609558D01*
X117844259Y-137609558D02*
X117768068Y-137571462D01*
X117768068Y-137571462D02*
X117729973Y-137495272D01*
X117729973Y-137495272D02*
X117729973Y-137419081D01*
X117729973Y-137419081D02*
X118110926Y-137342891D01*
X117387116Y-137076224D02*
X117387116Y-137609558D01*
X117387116Y-137457177D02*
X117349021Y-137533367D01*
X117349021Y-137533367D02*
X117310926Y-137571462D01*
X117310926Y-137571462D02*
X117234735Y-137609558D01*
X117234735Y-137609558D02*
X117158545Y-137609558D01*
X116168069Y-137076224D02*
X116244259Y-137114320D01*
X116244259Y-137114320D02*
X116282354Y-137190510D01*
X116282354Y-137190510D02*
X116282354Y-137876224D01*
X115863306Y-137076224D02*
X115863306Y-137609558D01*
X115863306Y-137876224D02*
X115901402Y-137838129D01*
X115901402Y-137838129D02*
X115863306Y-137800034D01*
X115863306Y-137800034D02*
X115825211Y-137838129D01*
X115825211Y-137838129D02*
X115863306Y-137876224D01*
X115863306Y-137876224D02*
X115863306Y-137800034D01*
X115482354Y-137076224D02*
X115482354Y-137609558D01*
X115482354Y-137533367D02*
X115444259Y-137571462D01*
X115444259Y-137571462D02*
X115368069Y-137609558D01*
X115368069Y-137609558D02*
X115253783Y-137609558D01*
X115253783Y-137609558D02*
X115177592Y-137571462D01*
X115177592Y-137571462D02*
X115139497Y-137495272D01*
X115139497Y-137495272D02*
X115139497Y-137076224D01*
X115139497Y-137495272D02*
X115101402Y-137571462D01*
X115101402Y-137571462D02*
X115025211Y-137609558D01*
X115025211Y-137609558D02*
X114910926Y-137609558D01*
X114910926Y-137609558D02*
X114834735Y-137571462D01*
X114834735Y-137571462D02*
X114796640Y-137495272D01*
X114796640Y-137495272D02*
X114796640Y-137076224D01*
X114415687Y-137076224D02*
X114415687Y-137609558D01*
X114415687Y-137876224D02*
X114453783Y-137838129D01*
X114453783Y-137838129D02*
X114415687Y-137800034D01*
X114415687Y-137800034D02*
X114377592Y-137838129D01*
X114377592Y-137838129D02*
X114415687Y-137876224D01*
X114415687Y-137876224D02*
X114415687Y-137800034D01*
X114149021Y-137609558D02*
X113844259Y-137609558D01*
X114034735Y-137876224D02*
X114034735Y-137190510D01*
X114034735Y-137190510D02*
X113996640Y-137114320D01*
X113996640Y-137114320D02*
X113920450Y-137076224D01*
X113920450Y-137076224D02*
X113844259Y-137076224D01*
X113978596Y-108530441D02*
X113978596Y-109063775D01*
X113635739Y-108530441D02*
X113635739Y-108949489D01*
X113635739Y-108949489D02*
X113673834Y-109025680D01*
X113673834Y-109025680D02*
X113750024Y-109063775D01*
X113750024Y-109063775D02*
X113864310Y-109063775D01*
X113864310Y-109063775D02*
X113940501Y-109025680D01*
X113940501Y-109025680D02*
X113978596Y-108987584D01*
X114359549Y-108530441D02*
X114359549Y-109063775D01*
X114359549Y-108606632D02*
X114397644Y-108568537D01*
X114397644Y-108568537D02*
X114473834Y-108530441D01*
X114473834Y-108530441D02*
X114588120Y-108530441D01*
X114588120Y-108530441D02*
X114664311Y-108568537D01*
X114664311Y-108568537D02*
X114702406Y-108644727D01*
X114702406Y-108644727D02*
X114702406Y-109063775D01*
X115426216Y-109063775D02*
X115426216Y-108263775D01*
X115426216Y-109025680D02*
X115350025Y-109063775D01*
X115350025Y-109063775D02*
X115197644Y-109063775D01*
X115197644Y-109063775D02*
X115121454Y-109025680D01*
X115121454Y-109025680D02*
X115083359Y-108987584D01*
X115083359Y-108987584D02*
X115045263Y-108911394D01*
X115045263Y-108911394D02*
X115045263Y-108682822D01*
X115045263Y-108682822D02*
X115083359Y-108606632D01*
X115083359Y-108606632D02*
X115121454Y-108568537D01*
X115121454Y-108568537D02*
X115197644Y-108530441D01*
X115197644Y-108530441D02*
X115350025Y-108530441D01*
X115350025Y-108530441D02*
X115426216Y-108568537D01*
X116111931Y-109025680D02*
X116035740Y-109063775D01*
X116035740Y-109063775D02*
X115883359Y-109063775D01*
X115883359Y-109063775D02*
X115807169Y-109025680D01*
X115807169Y-109025680D02*
X115769073Y-108949489D01*
X115769073Y-108949489D02*
X115769073Y-108644727D01*
X115769073Y-108644727D02*
X115807169Y-108568537D01*
X115807169Y-108568537D02*
X115883359Y-108530441D01*
X115883359Y-108530441D02*
X116035740Y-108530441D01*
X116035740Y-108530441D02*
X116111931Y-108568537D01*
X116111931Y-108568537D02*
X116150026Y-108644727D01*
X116150026Y-108644727D02*
X116150026Y-108720918D01*
X116150026Y-108720918D02*
X115769073Y-108797108D01*
X116492883Y-109063775D02*
X116492883Y-108530441D01*
X116492883Y-108682822D02*
X116530978Y-108606632D01*
X116530978Y-108606632D02*
X116569073Y-108568537D01*
X116569073Y-108568537D02*
X116645264Y-108530441D01*
X116645264Y-108530441D02*
X116721454Y-108530441D01*
X117711930Y-109063775D02*
X117635740Y-109025680D01*
X117635740Y-109025680D02*
X117597645Y-108949489D01*
X117597645Y-108949489D02*
X117597645Y-108263775D01*
X118016693Y-109063775D02*
X118016693Y-108530441D01*
X118016693Y-108263775D02*
X117978597Y-108301870D01*
X117978597Y-108301870D02*
X118016693Y-108339965D01*
X118016693Y-108339965D02*
X118054788Y-108301870D01*
X118054788Y-108301870D02*
X118016693Y-108263775D01*
X118016693Y-108263775D02*
X118016693Y-108339965D01*
X118397645Y-109063775D02*
X118397645Y-108530441D01*
X118397645Y-108606632D02*
X118435740Y-108568537D01*
X118435740Y-108568537D02*
X118511930Y-108530441D01*
X118511930Y-108530441D02*
X118626216Y-108530441D01*
X118626216Y-108530441D02*
X118702407Y-108568537D01*
X118702407Y-108568537D02*
X118740502Y-108644727D01*
X118740502Y-108644727D02*
X118740502Y-109063775D01*
X118740502Y-108644727D02*
X118778597Y-108568537D01*
X118778597Y-108568537D02*
X118854788Y-108530441D01*
X118854788Y-108530441D02*
X118969073Y-108530441D01*
X118969073Y-108530441D02*
X119045264Y-108568537D01*
X119045264Y-108568537D02*
X119083359Y-108644727D01*
X119083359Y-108644727D02*
X119083359Y-109063775D01*
X119464312Y-109063775D02*
X119464312Y-108530441D01*
X119464312Y-108263775D02*
X119426216Y-108301870D01*
X119426216Y-108301870D02*
X119464312Y-108339965D01*
X119464312Y-108339965D02*
X119502407Y-108301870D01*
X119502407Y-108301870D02*
X119464312Y-108263775D01*
X119464312Y-108263775D02*
X119464312Y-108339965D01*
X119730978Y-108530441D02*
X120035740Y-108530441D01*
X119845264Y-108263775D02*
X119845264Y-108949489D01*
X119845264Y-108949489D02*
X119883359Y-109025680D01*
X119883359Y-109025680D02*
X119959549Y-109063775D01*
X119959549Y-109063775D02*
X120035740Y-109063775D01*
X108735739Y-108163775D02*
X108735739Y-107363775D01*
X108735739Y-107363775D02*
X109002405Y-107935203D01*
X109002405Y-107935203D02*
X109269072Y-107363775D01*
X109269072Y-107363775D02*
X109269072Y-108163775D01*
X109764310Y-108163775D02*
X109688120Y-108125680D01*
X109688120Y-108125680D02*
X109650025Y-108087584D01*
X109650025Y-108087584D02*
X109611929Y-108011394D01*
X109611929Y-108011394D02*
X109611929Y-107782822D01*
X109611929Y-107782822D02*
X109650025Y-107706632D01*
X109650025Y-107706632D02*
X109688120Y-107668537D01*
X109688120Y-107668537D02*
X109764310Y-107630441D01*
X109764310Y-107630441D02*
X109878596Y-107630441D01*
X109878596Y-107630441D02*
X109954787Y-107668537D01*
X109954787Y-107668537D02*
X109992882Y-107706632D01*
X109992882Y-107706632D02*
X110030977Y-107782822D01*
X110030977Y-107782822D02*
X110030977Y-108011394D01*
X110030977Y-108011394D02*
X109992882Y-108087584D01*
X109992882Y-108087584D02*
X109954787Y-108125680D01*
X109954787Y-108125680D02*
X109878596Y-108163775D01*
X109878596Y-108163775D02*
X109764310Y-108163775D01*
X110259549Y-107630441D02*
X110564311Y-107630441D01*
X110373835Y-107363775D02*
X110373835Y-108049489D01*
X110373835Y-108049489D02*
X110411930Y-108125680D01*
X110411930Y-108125680D02*
X110488120Y-108163775D01*
X110488120Y-108163775D02*
X110564311Y-108163775D01*
X110945263Y-108163775D02*
X110869073Y-108125680D01*
X110869073Y-108125680D02*
X110830978Y-108087584D01*
X110830978Y-108087584D02*
X110792882Y-108011394D01*
X110792882Y-108011394D02*
X110792882Y-107782822D01*
X110792882Y-107782822D02*
X110830978Y-107706632D01*
X110830978Y-107706632D02*
X110869073Y-107668537D01*
X110869073Y-107668537D02*
X110945263Y-107630441D01*
X110945263Y-107630441D02*
X111059549Y-107630441D01*
X111059549Y-107630441D02*
X111135740Y-107668537D01*
X111135740Y-107668537D02*
X111173835Y-107706632D01*
X111173835Y-107706632D02*
X111211930Y-107782822D01*
X111211930Y-107782822D02*
X111211930Y-108011394D01*
X111211930Y-108011394D02*
X111173835Y-108087584D01*
X111173835Y-108087584D02*
X111135740Y-108125680D01*
X111135740Y-108125680D02*
X111059549Y-108163775D01*
X111059549Y-108163775D02*
X110945263Y-108163775D01*
X111554788Y-108163775D02*
X111554788Y-107630441D01*
X111554788Y-107782822D02*
X111592883Y-107706632D01*
X111592883Y-107706632D02*
X111630978Y-107668537D01*
X111630978Y-107668537D02*
X111707169Y-107630441D01*
X111707169Y-107630441D02*
X111783359Y-107630441D01*
D13*
X141982737Y-63704257D02*
X141911308Y-63561399D01*
X141911308Y-63561399D02*
X141911308Y-63275685D01*
X141911308Y-63275685D02*
X141982737Y-63132828D01*
X141982737Y-63132828D02*
X142054165Y-63061399D01*
X142054165Y-63061399D02*
X142197022Y-62989971D01*
X142197022Y-62989971D02*
X142625594Y-62989971D01*
X142625594Y-62989971D02*
X142768451Y-63061399D01*
X142768451Y-63061399D02*
X142839879Y-63132828D01*
X142839879Y-63132828D02*
X142911308Y-63275685D01*
X142911308Y-63275685D02*
X142911308Y-63561399D01*
X142911308Y-63561399D02*
X142839879Y-63704257D01*
X142911308Y-64347113D02*
X141411308Y-64347113D01*
X142839879Y-64347113D02*
X142911308Y-64489971D01*
X142911308Y-64489971D02*
X142911308Y-64775685D01*
X142911308Y-64775685D02*
X142839879Y-64918542D01*
X142839879Y-64918542D02*
X142768451Y-64989971D01*
X142768451Y-64989971D02*
X142625594Y-65061399D01*
X142625594Y-65061399D02*
X142197022Y-65061399D01*
X142197022Y-65061399D02*
X142054165Y-64989971D01*
X142054165Y-64989971D02*
X141982737Y-64918542D01*
X141982737Y-64918542D02*
X141911308Y-64775685D01*
X141911308Y-64775685D02*
X141911308Y-64489971D01*
X141911308Y-64489971D02*
X141982737Y-64347113D01*
X142911308Y-66347114D02*
X141911308Y-66347114D01*
X142911308Y-65704256D02*
X142125594Y-65704256D01*
X142125594Y-65704256D02*
X141982737Y-65775685D01*
X141982737Y-65775685D02*
X141911308Y-65918542D01*
X141911308Y-65918542D02*
X141911308Y-66132828D01*
X141911308Y-66132828D02*
X141982737Y-66275685D01*
X141982737Y-66275685D02*
X142054165Y-66347114D01*
X146911308Y-63030510D02*
X145411308Y-63030510D01*
X146839879Y-63030510D02*
X146911308Y-63173368D01*
X146911308Y-63173368D02*
X146911308Y-63459082D01*
X146911308Y-63459082D02*
X146839879Y-63601939D01*
X146839879Y-63601939D02*
X146768451Y-63673368D01*
X146768451Y-63673368D02*
X146625594Y-63744796D01*
X146625594Y-63744796D02*
X146197022Y-63744796D01*
X146197022Y-63744796D02*
X146054165Y-63673368D01*
X146054165Y-63673368D02*
X145982737Y-63601939D01*
X145982737Y-63601939D02*
X145911308Y-63459082D01*
X145911308Y-63459082D02*
X145911308Y-63173368D01*
X145911308Y-63173368D02*
X145982737Y-63030510D01*
X146911308Y-64244796D02*
X145911308Y-64530511D01*
X145911308Y-64530511D02*
X146625594Y-64816225D01*
X146625594Y-64816225D02*
X145911308Y-65101939D01*
X145911308Y-65101939D02*
X146911308Y-65387653D01*
X145911308Y-65959082D02*
X146911308Y-65959082D01*
X146625594Y-65959082D02*
X146768451Y-66030511D01*
X146768451Y-66030511D02*
X146839879Y-66101940D01*
X146839879Y-66101940D02*
X146911308Y-66244797D01*
X146911308Y-66244797D02*
X146911308Y-66387654D01*
D12*
X123158546Y-116976224D02*
X122891879Y-116176224D01*
X122891879Y-116176224D02*
X122625213Y-116976224D01*
X122358546Y-116176224D02*
X122358546Y-116709558D01*
X122358546Y-116976224D02*
X122396642Y-116938129D01*
X122396642Y-116938129D02*
X122358546Y-116900034D01*
X122358546Y-116900034D02*
X122320451Y-116938129D01*
X122320451Y-116938129D02*
X122358546Y-116976224D01*
X122358546Y-116976224D02*
X122358546Y-116900034D01*
X121977594Y-116709558D02*
X121977594Y-116176224D01*
X121977594Y-116633367D02*
X121939499Y-116671462D01*
X121939499Y-116671462D02*
X121863309Y-116709558D01*
X121863309Y-116709558D02*
X121749023Y-116709558D01*
X121749023Y-116709558D02*
X121672832Y-116671462D01*
X121672832Y-116671462D02*
X121634737Y-116595272D01*
X121634737Y-116595272D02*
X121634737Y-116176224D01*
X122925213Y-129438129D02*
X123001403Y-129476224D01*
X123001403Y-129476224D02*
X123115689Y-129476224D01*
X123115689Y-129476224D02*
X123229975Y-129438129D01*
X123229975Y-129438129D02*
X123306165Y-129361939D01*
X123306165Y-129361939D02*
X123344260Y-129285748D01*
X123344260Y-129285748D02*
X123382356Y-129133367D01*
X123382356Y-129133367D02*
X123382356Y-129019081D01*
X123382356Y-129019081D02*
X123344260Y-128866700D01*
X123344260Y-128866700D02*
X123306165Y-128790510D01*
X123306165Y-128790510D02*
X123229975Y-128714320D01*
X123229975Y-128714320D02*
X123115689Y-128676224D01*
X123115689Y-128676224D02*
X123039498Y-128676224D01*
X123039498Y-128676224D02*
X122925213Y-128714320D01*
X122925213Y-128714320D02*
X122887117Y-128752415D01*
X122887117Y-128752415D02*
X122887117Y-129019081D01*
X122887117Y-129019081D02*
X123039498Y-129019081D01*
X122544260Y-128676224D02*
X122544260Y-129476224D01*
X122544260Y-129476224D02*
X122087117Y-128676224D01*
X122087117Y-128676224D02*
X122087117Y-129476224D01*
X121706165Y-128676224D02*
X121706165Y-129476224D01*
X121706165Y-129476224D02*
X121515689Y-129476224D01*
X121515689Y-129476224D02*
X121401403Y-129438129D01*
X121401403Y-129438129D02*
X121325213Y-129361939D01*
X121325213Y-129361939D02*
X121287118Y-129285748D01*
X121287118Y-129285748D02*
X121249022Y-129133367D01*
X121249022Y-129133367D02*
X121249022Y-129019081D01*
X121249022Y-129019081D02*
X121287118Y-128866700D01*
X121287118Y-128866700D02*
X121325213Y-128790510D01*
X121325213Y-128790510D02*
X121401403Y-128714320D01*
X121401403Y-128714320D02*
X121515689Y-128676224D01*
X121515689Y-128676224D02*
X121706165Y-128676224D01*
D10*
X135529949Y-99791390D02*
X135523569Y-99685102D01*
X135523569Y-99685102D02*
X135452140Y-99561384D01*
X135452140Y-99561384D02*
X135339472Y-99461476D01*
X135339472Y-99461476D02*
X135209375Y-99426616D01*
X135209375Y-99426616D02*
X135103087Y-99432996D01*
X135103087Y-99432996D02*
X134914320Y-99486995D01*
X134914320Y-99486995D02*
X134790602Y-99558423D01*
X134790602Y-99558423D02*
X134649454Y-99694901D01*
X134649454Y-99694901D02*
X134590785Y-99783759D01*
X134590785Y-99783759D02*
X134555926Y-99913857D01*
X134555926Y-99913857D02*
X134586115Y-100061384D01*
X134586115Y-100061384D02*
X134633734Y-100143863D01*
X134633734Y-100143863D02*
X134746402Y-100243771D01*
X134746402Y-100243771D02*
X134811451Y-100261201D01*
X134811451Y-100261201D02*
X135100126Y-100094534D01*
X135100126Y-100094534D02*
X135004888Y-99929577D01*
X134943258Y-100679974D02*
X135809283Y-100179974D01*
X135809283Y-100179974D02*
X135228972Y-101174845D01*
X135228972Y-101174845D02*
X136094997Y-100674845D01*
X135467067Y-101587238D02*
X136333093Y-101087238D01*
X136333093Y-101087238D02*
X136452140Y-101293435D01*
X136452140Y-101293435D02*
X136482330Y-101440962D01*
X136482330Y-101440962D02*
X136447470Y-101571060D01*
X136447470Y-101571060D02*
X136388801Y-101659918D01*
X136388801Y-101659918D02*
X136247653Y-101796396D01*
X136247653Y-101796396D02*
X136123935Y-101867824D01*
X136123935Y-101867824D02*
X135935169Y-101921823D01*
X135935169Y-101921823D02*
X135828880Y-101928203D01*
X135828880Y-101928203D02*
X135698783Y-101893343D01*
X135698783Y-101893343D02*
X135586115Y-101793435D01*
X135586115Y-101793435D02*
X135467067Y-101587238D01*
X146591904Y-69037561D02*
X146687142Y-69085180D01*
X146687142Y-69085180D02*
X146829999Y-69085180D01*
X146829999Y-69085180D02*
X146972856Y-69037561D01*
X146972856Y-69037561D02*
X147068094Y-68942323D01*
X147068094Y-68942323D02*
X147115713Y-68847085D01*
X147115713Y-68847085D02*
X147163332Y-68656609D01*
X147163332Y-68656609D02*
X147163332Y-68513752D01*
X147163332Y-68513752D02*
X147115713Y-68323276D01*
X147115713Y-68323276D02*
X147068094Y-68228038D01*
X147068094Y-68228038D02*
X146972856Y-68132800D01*
X146972856Y-68132800D02*
X146829999Y-68085180D01*
X146829999Y-68085180D02*
X146734761Y-68085180D01*
X146734761Y-68085180D02*
X146591904Y-68132800D01*
X146591904Y-68132800D02*
X146544285Y-68180419D01*
X146544285Y-68180419D02*
X146544285Y-68513752D01*
X146544285Y-68513752D02*
X146734761Y-68513752D01*
X146115713Y-68085180D02*
X146115713Y-69085180D01*
X146115713Y-69085180D02*
X145544285Y-68085180D01*
X145544285Y-68085180D02*
X145544285Y-69085180D01*
X145068094Y-68085180D02*
X145068094Y-69085180D01*
X145068094Y-69085180D02*
X144829999Y-69085180D01*
X144829999Y-69085180D02*
X144687142Y-69037561D01*
X144687142Y-69037561D02*
X144591904Y-68942323D01*
X144591904Y-68942323D02*
X144544285Y-68847085D01*
X144544285Y-68847085D02*
X144496666Y-68656609D01*
X144496666Y-68656609D02*
X144496666Y-68513752D01*
X144496666Y-68513752D02*
X144544285Y-68323276D01*
X144544285Y-68323276D02*
X144591904Y-68228038D01*
X144591904Y-68228038D02*
X144687142Y-68132800D01*
X144687142Y-68132800D02*
X144829999Y-68085180D01*
X144829999Y-68085180D02*
X145068094Y-68085180D01*
X121744456Y-123646412D02*
X122458741Y-123646412D01*
X122458741Y-123646412D02*
X122601598Y-123694031D01*
X122601598Y-123694031D02*
X122696837Y-123789269D01*
X122696837Y-123789269D02*
X122744456Y-123932126D01*
X122744456Y-123932126D02*
X122744456Y-124027364D01*
X121744456Y-123265459D02*
X121744456Y-122646412D01*
X121744456Y-122646412D02*
X122125408Y-122979745D01*
X122125408Y-122979745D02*
X122125408Y-122836888D01*
X122125408Y-122836888D02*
X122173027Y-122741650D01*
X122173027Y-122741650D02*
X122220646Y-122694031D01*
X122220646Y-122694031D02*
X122315884Y-122646412D01*
X122315884Y-122646412D02*
X122553979Y-122646412D01*
X122553979Y-122646412D02*
X122649217Y-122694031D01*
X122649217Y-122694031D02*
X122696837Y-122741650D01*
X122696837Y-122741650D02*
X122744456Y-122836888D01*
X122744456Y-122836888D02*
X122744456Y-123122602D01*
X122744456Y-123122602D02*
X122696837Y-123217840D01*
X122696837Y-123217840D02*
X122649217Y-123265459D01*
X122744456Y-122170221D02*
X122744456Y-121979745D01*
X122744456Y-121979745D02*
X122696837Y-121884507D01*
X122696837Y-121884507D02*
X122649217Y-121836888D01*
X122649217Y-121836888D02*
X122506360Y-121741650D01*
X122506360Y-121741650D02*
X122315884Y-121694031D01*
X122315884Y-121694031D02*
X121934932Y-121694031D01*
X121934932Y-121694031D02*
X121839694Y-121741650D01*
X121839694Y-121741650D02*
X121792075Y-121789269D01*
X121792075Y-121789269D02*
X121744456Y-121884507D01*
X121744456Y-121884507D02*
X121744456Y-122074983D01*
X121744456Y-122074983D02*
X121792075Y-122170221D01*
X121792075Y-122170221D02*
X121839694Y-122217840D01*
X121839694Y-122217840D02*
X121934932Y-122265459D01*
X121934932Y-122265459D02*
X122173027Y-122265459D01*
X122173027Y-122265459D02*
X122268265Y-122217840D01*
X122268265Y-122217840D02*
X122315884Y-122170221D01*
X122315884Y-122170221D02*
X122363503Y-122074983D01*
X122363503Y-122074983D02*
X122363503Y-121884507D01*
X122363503Y-121884507D02*
X122315884Y-121789269D01*
X122315884Y-121789269D02*
X122268265Y-121741650D01*
X122268265Y-121741650D02*
X122173027Y-121694031D01*
X122284593Y-76691028D02*
X121705533Y-76741608D01*
X121998878Y-77185899D02*
X121132853Y-76685899D01*
X121132853Y-76685899D02*
X121323329Y-76355985D01*
X121323329Y-76355985D02*
X121412188Y-76297316D01*
X121412188Y-76297316D02*
X121477236Y-76279886D01*
X121477236Y-76279886D02*
X121583525Y-76286266D01*
X121583525Y-76286266D02*
X121707242Y-76357694D01*
X121707242Y-76357694D02*
X121765912Y-76446553D01*
X121765912Y-76446553D02*
X121783341Y-76511602D01*
X121783341Y-76511602D02*
X121776962Y-76617890D01*
X121776962Y-76617890D02*
X121586485Y-76947804D01*
X121847139Y-75448720D02*
X121751901Y-75613677D01*
X121751901Y-75613677D02*
X121745521Y-75719966D01*
X121745521Y-75719966D02*
X121762951Y-75785014D01*
X121762951Y-75785014D02*
X121839050Y-75938922D01*
X121839050Y-75938922D02*
X121980197Y-76075399D01*
X121980197Y-76075399D02*
X122310112Y-76265875D01*
X122310112Y-76265875D02*
X122416400Y-76272255D01*
X122416400Y-76272255D02*
X122481449Y-76254825D01*
X122481449Y-76254825D02*
X122570307Y-76196156D01*
X122570307Y-76196156D02*
X122665545Y-76031199D01*
X122665545Y-76031199D02*
X122671925Y-75924911D01*
X122671925Y-75924911D02*
X122654495Y-75859862D01*
X122654495Y-75859862D02*
X122595826Y-75771003D01*
X122595826Y-75771003D02*
X122389629Y-75651956D01*
X122389629Y-75651956D02*
X122283341Y-75645576D01*
X122283341Y-75645576D02*
X122218293Y-75663006D01*
X122218293Y-75663006D02*
X122129434Y-75721675D01*
X122129434Y-75721675D02*
X122034196Y-75886632D01*
X122034196Y-75886632D02*
X122027816Y-75992920D01*
X122027816Y-75992920D02*
X122045246Y-76057969D01*
X122045246Y-76057969D02*
X122103915Y-76146828D01*
X122204282Y-74830131D02*
X122251901Y-74747652D01*
X122251901Y-74747652D02*
X122340759Y-74688983D01*
X122340759Y-74688983D02*
X122405808Y-74671553D01*
X122405808Y-74671553D02*
X122512096Y-74677933D01*
X122512096Y-74677933D02*
X122700863Y-74731932D01*
X122700863Y-74731932D02*
X122907059Y-74850979D01*
X122907059Y-74850979D02*
X123048207Y-74987457D01*
X123048207Y-74987457D02*
X123106876Y-75076315D01*
X123106876Y-75076315D02*
X123124306Y-75141364D01*
X123124306Y-75141364D02*
X123117926Y-75247652D01*
X123117926Y-75247652D02*
X123070307Y-75330131D01*
X123070307Y-75330131D02*
X122981449Y-75388800D01*
X122981449Y-75388800D02*
X122916400Y-75406229D01*
X122916400Y-75406229D02*
X122810112Y-75399850D01*
X122810112Y-75399850D02*
X122621345Y-75345851D01*
X122621345Y-75345851D02*
X122415148Y-75226803D01*
X122415148Y-75226803D02*
X122274001Y-75090326D01*
X122274001Y-75090326D02*
X122215332Y-75001468D01*
X122215332Y-75001468D02*
X122197902Y-74936419D01*
X122197902Y-74936419D02*
X122204282Y-74830131D01*
X111274456Y-114181412D02*
X111988741Y-114181412D01*
X111988741Y-114181412D02*
X112131598Y-114229031D01*
X112131598Y-114229031D02*
X112226837Y-114324269D01*
X112226837Y-114324269D02*
X112274456Y-114467126D01*
X112274456Y-114467126D02*
X112274456Y-114562364D01*
X112274456Y-113181412D02*
X112274456Y-113752840D01*
X112274456Y-113467126D02*
X111274456Y-113467126D01*
X111274456Y-113467126D02*
X111417313Y-113562364D01*
X111417313Y-113562364D02*
X111512551Y-113657602D01*
X111512551Y-113657602D02*
X111560170Y-113752840D01*
X111274456Y-112848078D02*
X111274456Y-112229031D01*
X111274456Y-112229031D02*
X111655408Y-112562364D01*
X111655408Y-112562364D02*
X111655408Y-112419507D01*
X111655408Y-112419507D02*
X111703027Y-112324269D01*
X111703027Y-112324269D02*
X111750646Y-112276650D01*
X111750646Y-112276650D02*
X111845884Y-112229031D01*
X111845884Y-112229031D02*
X112083979Y-112229031D01*
X112083979Y-112229031D02*
X112179217Y-112276650D01*
X112179217Y-112276650D02*
X112226837Y-112324269D01*
X112226837Y-112324269D02*
X112274456Y-112419507D01*
X112274456Y-112419507D02*
X112274456Y-112705221D01*
X112274456Y-112705221D02*
X112226837Y-112800459D01*
X112226837Y-112800459D02*
X112179217Y-112848078D01*
X150351141Y-116430844D02*
X150017808Y-115954653D01*
X149779713Y-116430844D02*
X149779713Y-115430844D01*
X149779713Y-115430844D02*
X150160665Y-115430844D01*
X150160665Y-115430844D02*
X150255903Y-115478463D01*
X150255903Y-115478463D02*
X150303522Y-115526082D01*
X150303522Y-115526082D02*
X150351141Y-115621320D01*
X150351141Y-115621320D02*
X150351141Y-115764177D01*
X150351141Y-115764177D02*
X150303522Y-115859415D01*
X150303522Y-115859415D02*
X150255903Y-115907034D01*
X150255903Y-115907034D02*
X150160665Y-115954653D01*
X150160665Y-115954653D02*
X149779713Y-115954653D01*
X150684475Y-115430844D02*
X151351141Y-115430844D01*
X151351141Y-115430844D02*
X150922570Y-116430844D01*
X152255903Y-116430844D02*
X151684475Y-116430844D01*
X151970189Y-116430844D02*
X151970189Y-115430844D01*
X151970189Y-115430844D02*
X151874951Y-115573701D01*
X151874951Y-115573701D02*
X151779713Y-115668939D01*
X151779713Y-115668939D02*
X151684475Y-115716558D01*
X184322419Y-77845257D02*
X183846228Y-78178590D01*
X184322419Y-78416685D02*
X183322419Y-78416685D01*
X183322419Y-78416685D02*
X183322419Y-78035733D01*
X183322419Y-78035733D02*
X183370038Y-77940495D01*
X183370038Y-77940495D02*
X183417657Y-77892876D01*
X183417657Y-77892876D02*
X183512895Y-77845257D01*
X183512895Y-77845257D02*
X183655752Y-77845257D01*
X183655752Y-77845257D02*
X183750990Y-77892876D01*
X183750990Y-77892876D02*
X183798609Y-77940495D01*
X183798609Y-77940495D02*
X183846228Y-78035733D01*
X183846228Y-78035733D02*
X183846228Y-78416685D01*
X183322419Y-77511923D02*
X183322419Y-76892876D01*
X183322419Y-76892876D02*
X183703371Y-77226209D01*
X183703371Y-77226209D02*
X183703371Y-77083352D01*
X183703371Y-77083352D02*
X183750990Y-76988114D01*
X183750990Y-76988114D02*
X183798609Y-76940495D01*
X183798609Y-76940495D02*
X183893847Y-76892876D01*
X183893847Y-76892876D02*
X184131942Y-76892876D01*
X184131942Y-76892876D02*
X184227180Y-76940495D01*
X184227180Y-76940495D02*
X184274800Y-76988114D01*
X184274800Y-76988114D02*
X184322419Y-77083352D01*
X184322419Y-77083352D02*
X184322419Y-77369066D01*
X184322419Y-77369066D02*
X184274800Y-77464304D01*
X184274800Y-77464304D02*
X184227180Y-77511923D01*
X183655752Y-76035733D02*
X184322419Y-76035733D01*
X183274800Y-76273828D02*
X183989085Y-76511923D01*
X183989085Y-76511923D02*
X183989085Y-75892876D01*
X135316905Y-78767319D02*
X135316905Y-79576842D01*
X135316905Y-79576842D02*
X135364524Y-79672080D01*
X135364524Y-79672080D02*
X135412143Y-79719700D01*
X135412143Y-79719700D02*
X135507381Y-79767319D01*
X135507381Y-79767319D02*
X135697857Y-79767319D01*
X135697857Y-79767319D02*
X135793095Y-79719700D01*
X135793095Y-79719700D02*
X135840714Y-79672080D01*
X135840714Y-79672080D02*
X135888333Y-79576842D01*
X135888333Y-79576842D02*
X135888333Y-78767319D01*
X136316905Y-78862557D02*
X136364524Y-78814938D01*
X136364524Y-78814938D02*
X136459762Y-78767319D01*
X136459762Y-78767319D02*
X136697857Y-78767319D01*
X136697857Y-78767319D02*
X136793095Y-78814938D01*
X136793095Y-78814938D02*
X136840714Y-78862557D01*
X136840714Y-78862557D02*
X136888333Y-78957795D01*
X136888333Y-78957795D02*
X136888333Y-79053033D01*
X136888333Y-79053033D02*
X136840714Y-79195890D01*
X136840714Y-79195890D02*
X136269286Y-79767319D01*
X136269286Y-79767319D02*
X136888333Y-79767319D01*
X137221667Y-78767319D02*
X137840714Y-78767319D01*
X137840714Y-78767319D02*
X137507381Y-79148271D01*
X137507381Y-79148271D02*
X137650238Y-79148271D01*
X137650238Y-79148271D02*
X137745476Y-79195890D01*
X137745476Y-79195890D02*
X137793095Y-79243509D01*
X137793095Y-79243509D02*
X137840714Y-79338747D01*
X137840714Y-79338747D02*
X137840714Y-79576842D01*
X137840714Y-79576842D02*
X137793095Y-79672080D01*
X137793095Y-79672080D02*
X137745476Y-79719700D01*
X137745476Y-79719700D02*
X137650238Y-79767319D01*
X137650238Y-79767319D02*
X137364524Y-79767319D01*
X137364524Y-79767319D02*
X137269286Y-79719700D01*
X137269286Y-79719700D02*
X137221667Y-79672080D01*
X142269279Y-82161708D02*
X141935946Y-81685517D01*
X141697851Y-82161708D02*
X141697851Y-81161708D01*
X141697851Y-81161708D02*
X142078803Y-81161708D01*
X142078803Y-81161708D02*
X142174041Y-81209327D01*
X142174041Y-81209327D02*
X142221660Y-81256946D01*
X142221660Y-81256946D02*
X142269279Y-81352184D01*
X142269279Y-81352184D02*
X142269279Y-81495041D01*
X142269279Y-81495041D02*
X142221660Y-81590279D01*
X142221660Y-81590279D02*
X142174041Y-81637898D01*
X142174041Y-81637898D02*
X142078803Y-81685517D01*
X142078803Y-81685517D02*
X141697851Y-81685517D01*
X143126422Y-81161708D02*
X142935946Y-81161708D01*
X142935946Y-81161708D02*
X142840708Y-81209327D01*
X142840708Y-81209327D02*
X142793089Y-81256946D01*
X142793089Y-81256946D02*
X142697851Y-81399803D01*
X142697851Y-81399803D02*
X142650232Y-81590279D01*
X142650232Y-81590279D02*
X142650232Y-81971231D01*
X142650232Y-81971231D02*
X142697851Y-82066469D01*
X142697851Y-82066469D02*
X142745470Y-82114089D01*
X142745470Y-82114089D02*
X142840708Y-82161708D01*
X142840708Y-82161708D02*
X143031184Y-82161708D01*
X143031184Y-82161708D02*
X143126422Y-82114089D01*
X143126422Y-82114089D02*
X143174041Y-82066469D01*
X143174041Y-82066469D02*
X143221660Y-81971231D01*
X143221660Y-81971231D02*
X143221660Y-81733136D01*
X143221660Y-81733136D02*
X143174041Y-81637898D01*
X143174041Y-81637898D02*
X143126422Y-81590279D01*
X143126422Y-81590279D02*
X143031184Y-81542660D01*
X143031184Y-81542660D02*
X142840708Y-81542660D01*
X142840708Y-81542660D02*
X142745470Y-81590279D01*
X142745470Y-81590279D02*
X142697851Y-81637898D01*
X142697851Y-81637898D02*
X142650232Y-81733136D01*
X143602613Y-81256946D02*
X143650232Y-81209327D01*
X143650232Y-81209327D02*
X143745470Y-81161708D01*
X143745470Y-81161708D02*
X143983565Y-81161708D01*
X143983565Y-81161708D02*
X144078803Y-81209327D01*
X144078803Y-81209327D02*
X144126422Y-81256946D01*
X144126422Y-81256946D02*
X144174041Y-81352184D01*
X144174041Y-81352184D02*
X144174041Y-81447422D01*
X144174041Y-81447422D02*
X144126422Y-81590279D01*
X144126422Y-81590279D02*
X143554994Y-82161708D01*
X143554994Y-82161708D02*
X144174041Y-82161708D01*
X180781956Y-49064512D02*
X181496241Y-49064512D01*
X181496241Y-49064512D02*
X181639098Y-49112131D01*
X181639098Y-49112131D02*
X181734337Y-49207369D01*
X181734337Y-49207369D02*
X181781956Y-49350226D01*
X181781956Y-49350226D02*
X181781956Y-49445464D01*
X181115289Y-48159750D02*
X181781956Y-48159750D01*
X180734337Y-48397845D02*
X181448622Y-48635940D01*
X181448622Y-48635940D02*
X181448622Y-48016893D01*
X180781956Y-47207369D02*
X180781956Y-47397845D01*
X180781956Y-47397845D02*
X180829575Y-47493083D01*
X180829575Y-47493083D02*
X180877194Y-47540702D01*
X180877194Y-47540702D02*
X181020051Y-47635940D01*
X181020051Y-47635940D02*
X181210527Y-47683559D01*
X181210527Y-47683559D02*
X181591479Y-47683559D01*
X181591479Y-47683559D02*
X181686717Y-47635940D01*
X181686717Y-47635940D02*
X181734337Y-47588321D01*
X181734337Y-47588321D02*
X181781956Y-47493083D01*
X181781956Y-47493083D02*
X181781956Y-47302607D01*
X181781956Y-47302607D02*
X181734337Y-47207369D01*
X181734337Y-47207369D02*
X181686717Y-47159750D01*
X181686717Y-47159750D02*
X181591479Y-47112131D01*
X181591479Y-47112131D02*
X181353384Y-47112131D01*
X181353384Y-47112131D02*
X181258146Y-47159750D01*
X181258146Y-47159750D02*
X181210527Y-47207369D01*
X181210527Y-47207369D02*
X181162908Y-47302607D01*
X181162908Y-47302607D02*
X181162908Y-47493083D01*
X181162908Y-47493083D02*
X181210527Y-47588321D01*
X181210527Y-47588321D02*
X181258146Y-47635940D01*
X181258146Y-47635940D02*
X181353384Y-47683559D01*
D14*
X166777580Y-98445312D02*
X167253771Y-98111979D01*
X166777580Y-97873884D02*
X167777580Y-97873884D01*
X167777580Y-97873884D02*
X167777580Y-98254836D01*
X167777580Y-98254836D02*
X167729961Y-98350074D01*
X167729961Y-98350074D02*
X167682342Y-98397693D01*
X167682342Y-98397693D02*
X167587104Y-98445312D01*
X167587104Y-98445312D02*
X167444247Y-98445312D01*
X167444247Y-98445312D02*
X167349009Y-98397693D01*
X167349009Y-98397693D02*
X167301390Y-98350074D01*
X167301390Y-98350074D02*
X167253771Y-98254836D01*
X167253771Y-98254836D02*
X167253771Y-97873884D01*
X167301390Y-98873884D02*
X167301390Y-99207217D01*
X166777580Y-99350074D02*
X166777580Y-98873884D01*
X166777580Y-98873884D02*
X167777580Y-98873884D01*
X167777580Y-98873884D02*
X167777580Y-99350074D01*
X167301390Y-100111979D02*
X167301390Y-99778646D01*
X166777580Y-99778646D02*
X167777580Y-99778646D01*
X167777580Y-99778646D02*
X167777580Y-100254836D01*
X167777580Y-100778646D02*
X167539485Y-100778646D01*
X167634723Y-100540551D02*
X167539485Y-100778646D01*
X167539485Y-100778646D02*
X167634723Y-101016741D01*
X167349009Y-100635789D02*
X167539485Y-100778646D01*
X167539485Y-100778646D02*
X167349009Y-100921503D01*
X167777580Y-101540551D02*
X167539485Y-101540551D01*
X167634723Y-101302456D02*
X167539485Y-101540551D01*
X167539485Y-101540551D02*
X167634723Y-101778646D01*
X167349009Y-101397694D02*
X167539485Y-101540551D01*
X167539485Y-101540551D02*
X167349009Y-101683408D01*
D10*
X112234456Y-133886412D02*
X112948741Y-133886412D01*
X112948741Y-133886412D02*
X113091598Y-133934031D01*
X113091598Y-133934031D02*
X113186837Y-134029269D01*
X113186837Y-134029269D02*
X113234456Y-134172126D01*
X113234456Y-134172126D02*
X113234456Y-134267364D01*
X112329694Y-133457840D02*
X112282075Y-133410221D01*
X112282075Y-133410221D02*
X112234456Y-133314983D01*
X112234456Y-133314983D02*
X112234456Y-133076888D01*
X112234456Y-133076888D02*
X112282075Y-132981650D01*
X112282075Y-132981650D02*
X112329694Y-132934031D01*
X112329694Y-132934031D02*
X112424932Y-132886412D01*
X112424932Y-132886412D02*
X112520170Y-132886412D01*
X112520170Y-132886412D02*
X112663027Y-132934031D01*
X112663027Y-132934031D02*
X113234456Y-133505459D01*
X113234456Y-133505459D02*
X113234456Y-132886412D01*
X112329694Y-132505459D02*
X112282075Y-132457840D01*
X112282075Y-132457840D02*
X112234456Y-132362602D01*
X112234456Y-132362602D02*
X112234456Y-132124507D01*
X112234456Y-132124507D02*
X112282075Y-132029269D01*
X112282075Y-132029269D02*
X112329694Y-131981650D01*
X112329694Y-131981650D02*
X112424932Y-131934031D01*
X112424932Y-131934031D02*
X112520170Y-131934031D01*
X112520170Y-131934031D02*
X112663027Y-131981650D01*
X112663027Y-131981650D02*
X113234456Y-132553078D01*
X113234456Y-132553078D02*
X113234456Y-131934031D01*
X172071905Y-83199819D02*
X172071905Y-84009342D01*
X172071905Y-84009342D02*
X172119524Y-84104580D01*
X172119524Y-84104580D02*
X172167143Y-84152200D01*
X172167143Y-84152200D02*
X172262381Y-84199819D01*
X172262381Y-84199819D02*
X172452857Y-84199819D01*
X172452857Y-84199819D02*
X172548095Y-84152200D01*
X172548095Y-84152200D02*
X172595714Y-84104580D01*
X172595714Y-84104580D02*
X172643333Y-84009342D01*
X172643333Y-84009342D02*
X172643333Y-83199819D01*
X173071905Y-83295057D02*
X173119524Y-83247438D01*
X173119524Y-83247438D02*
X173214762Y-83199819D01*
X173214762Y-83199819D02*
X173452857Y-83199819D01*
X173452857Y-83199819D02*
X173548095Y-83247438D01*
X173548095Y-83247438D02*
X173595714Y-83295057D01*
X173595714Y-83295057D02*
X173643333Y-83390295D01*
X173643333Y-83390295D02*
X173643333Y-83485533D01*
X173643333Y-83485533D02*
X173595714Y-83628390D01*
X173595714Y-83628390D02*
X173024286Y-84199819D01*
X173024286Y-84199819D02*
X173643333Y-84199819D01*
X174548095Y-83199819D02*
X174071905Y-83199819D01*
X174071905Y-83199819D02*
X174024286Y-83676009D01*
X174024286Y-83676009D02*
X174071905Y-83628390D01*
X174071905Y-83628390D02*
X174167143Y-83580771D01*
X174167143Y-83580771D02*
X174405238Y-83580771D01*
X174405238Y-83580771D02*
X174500476Y-83628390D01*
X174500476Y-83628390D02*
X174548095Y-83676009D01*
X174548095Y-83676009D02*
X174595714Y-83771247D01*
X174595714Y-83771247D02*
X174595714Y-84009342D01*
X174595714Y-84009342D02*
X174548095Y-84104580D01*
X174548095Y-84104580D02*
X174500476Y-84152200D01*
X174500476Y-84152200D02*
X174405238Y-84199819D01*
X174405238Y-84199819D02*
X174167143Y-84199819D01*
X174167143Y-84199819D02*
X174071905Y-84152200D01*
X174071905Y-84152200D02*
X174024286Y-84104580D01*
X112994456Y-127349746D02*
X112518265Y-127683079D01*
X112994456Y-127921174D02*
X111994456Y-127921174D01*
X111994456Y-127921174D02*
X111994456Y-127540222D01*
X111994456Y-127540222D02*
X112042075Y-127444984D01*
X112042075Y-127444984D02*
X112089694Y-127397365D01*
X112089694Y-127397365D02*
X112184932Y-127349746D01*
X112184932Y-127349746D02*
X112327789Y-127349746D01*
X112327789Y-127349746D02*
X112423027Y-127397365D01*
X112423027Y-127397365D02*
X112470646Y-127444984D01*
X112470646Y-127444984D02*
X112518265Y-127540222D01*
X112518265Y-127540222D02*
X112518265Y-127921174D01*
X112994456Y-126397365D02*
X112994456Y-126968793D01*
X112994456Y-126683079D02*
X111994456Y-126683079D01*
X111994456Y-126683079D02*
X112137313Y-126778317D01*
X112137313Y-126778317D02*
X112232551Y-126873555D01*
X112232551Y-126873555D02*
X112280170Y-126968793D01*
X111994456Y-125492603D02*
X111994456Y-125968793D01*
X111994456Y-125968793D02*
X112470646Y-126016412D01*
X112470646Y-126016412D02*
X112423027Y-125968793D01*
X112423027Y-125968793D02*
X112375408Y-125873555D01*
X112375408Y-125873555D02*
X112375408Y-125635460D01*
X112375408Y-125635460D02*
X112423027Y-125540222D01*
X112423027Y-125540222D02*
X112470646Y-125492603D01*
X112470646Y-125492603D02*
X112565884Y-125444984D01*
X112565884Y-125444984D02*
X112803979Y-125444984D01*
X112803979Y-125444984D02*
X112899217Y-125492603D01*
X112899217Y-125492603D02*
X112946837Y-125540222D01*
X112946837Y-125540222D02*
X112994456Y-125635460D01*
X112994456Y-125635460D02*
X112994456Y-125873555D01*
X112994456Y-125873555D02*
X112946837Y-125968793D01*
X112946837Y-125968793D02*
X112899217Y-126016412D01*
X141349642Y-74561708D02*
X141016309Y-74085517D01*
X140778214Y-74561708D02*
X140778214Y-73561708D01*
X140778214Y-73561708D02*
X141159166Y-73561708D01*
X141159166Y-73561708D02*
X141254404Y-73609327D01*
X141254404Y-73609327D02*
X141302023Y-73656946D01*
X141302023Y-73656946D02*
X141349642Y-73752184D01*
X141349642Y-73752184D02*
X141349642Y-73895041D01*
X141349642Y-73895041D02*
X141302023Y-73990279D01*
X141302023Y-73990279D02*
X141254404Y-74037898D01*
X141254404Y-74037898D02*
X141159166Y-74085517D01*
X141159166Y-74085517D02*
X140778214Y-74085517D01*
X142206785Y-73561708D02*
X142016309Y-73561708D01*
X142016309Y-73561708D02*
X141921071Y-73609327D01*
X141921071Y-73609327D02*
X141873452Y-73656946D01*
X141873452Y-73656946D02*
X141778214Y-73799803D01*
X141778214Y-73799803D02*
X141730595Y-73990279D01*
X141730595Y-73990279D02*
X141730595Y-74371231D01*
X141730595Y-74371231D02*
X141778214Y-74466469D01*
X141778214Y-74466469D02*
X141825833Y-74514089D01*
X141825833Y-74514089D02*
X141921071Y-74561708D01*
X141921071Y-74561708D02*
X142111547Y-74561708D01*
X142111547Y-74561708D02*
X142206785Y-74514089D01*
X142206785Y-74514089D02*
X142254404Y-74466469D01*
X142254404Y-74466469D02*
X142302023Y-74371231D01*
X142302023Y-74371231D02*
X142302023Y-74133136D01*
X142302023Y-74133136D02*
X142254404Y-74037898D01*
X142254404Y-74037898D02*
X142206785Y-73990279D01*
X142206785Y-73990279D02*
X142111547Y-73942660D01*
X142111547Y-73942660D02*
X141921071Y-73942660D01*
X141921071Y-73942660D02*
X141825833Y-73990279D01*
X141825833Y-73990279D02*
X141778214Y-74037898D01*
X141778214Y-74037898D02*
X141730595Y-74133136D01*
X142635357Y-73561708D02*
X143254404Y-73561708D01*
X143254404Y-73561708D02*
X142921071Y-73942660D01*
X142921071Y-73942660D02*
X143063928Y-73942660D01*
X143063928Y-73942660D02*
X143159166Y-73990279D01*
X143159166Y-73990279D02*
X143206785Y-74037898D01*
X143206785Y-74037898D02*
X143254404Y-74133136D01*
X143254404Y-74133136D02*
X143254404Y-74371231D01*
X143254404Y-74371231D02*
X143206785Y-74466469D01*
X143206785Y-74466469D02*
X143159166Y-74514089D01*
X143159166Y-74514089D02*
X143063928Y-74561708D01*
X143063928Y-74561708D02*
X142778214Y-74561708D01*
X142778214Y-74561708D02*
X142682976Y-74514089D01*
X142682976Y-74514089D02*
X142635357Y-74466469D01*
X159307248Y-64617764D02*
X159307248Y-63617764D01*
X159307248Y-63617764D02*
X159545343Y-63617764D01*
X159545343Y-63617764D02*
X159688200Y-63665383D01*
X159688200Y-63665383D02*
X159783438Y-63760621D01*
X159783438Y-63760621D02*
X159831057Y-63855859D01*
X159831057Y-63855859D02*
X159878676Y-64046335D01*
X159878676Y-64046335D02*
X159878676Y-64189192D01*
X159878676Y-64189192D02*
X159831057Y-64379668D01*
X159831057Y-64379668D02*
X159783438Y-64474906D01*
X159783438Y-64474906D02*
X159688200Y-64570145D01*
X159688200Y-64570145D02*
X159545343Y-64617764D01*
X159545343Y-64617764D02*
X159307248Y-64617764D01*
X160212010Y-63617764D02*
X160878676Y-63617764D01*
X160878676Y-63617764D02*
X160450105Y-64617764D01*
X106318970Y-118684469D02*
X106271351Y-118732089D01*
X106271351Y-118732089D02*
X106128494Y-118779708D01*
X106128494Y-118779708D02*
X106033256Y-118779708D01*
X106033256Y-118779708D02*
X105890399Y-118732089D01*
X105890399Y-118732089D02*
X105795161Y-118636850D01*
X105795161Y-118636850D02*
X105747542Y-118541612D01*
X105747542Y-118541612D02*
X105699923Y-118351136D01*
X105699923Y-118351136D02*
X105699923Y-118208279D01*
X105699923Y-118208279D02*
X105747542Y-118017803D01*
X105747542Y-118017803D02*
X105795161Y-117922565D01*
X105795161Y-117922565D02*
X105890399Y-117827327D01*
X105890399Y-117827327D02*
X106033256Y-117779708D01*
X106033256Y-117779708D02*
X106128494Y-117779708D01*
X106128494Y-117779708D02*
X106271351Y-117827327D01*
X106271351Y-117827327D02*
X106318970Y-117874946D01*
X106890399Y-118208279D02*
X106795161Y-118160660D01*
X106795161Y-118160660D02*
X106747542Y-118113041D01*
X106747542Y-118113041D02*
X106699923Y-118017803D01*
X106699923Y-118017803D02*
X106699923Y-117970184D01*
X106699923Y-117970184D02*
X106747542Y-117874946D01*
X106747542Y-117874946D02*
X106795161Y-117827327D01*
X106795161Y-117827327D02*
X106890399Y-117779708D01*
X106890399Y-117779708D02*
X107080875Y-117779708D01*
X107080875Y-117779708D02*
X107176113Y-117827327D01*
X107176113Y-117827327D02*
X107223732Y-117874946D01*
X107223732Y-117874946D02*
X107271351Y-117970184D01*
X107271351Y-117970184D02*
X107271351Y-118017803D01*
X107271351Y-118017803D02*
X107223732Y-118113041D01*
X107223732Y-118113041D02*
X107176113Y-118160660D01*
X107176113Y-118160660D02*
X107080875Y-118208279D01*
X107080875Y-118208279D02*
X106890399Y-118208279D01*
X106890399Y-118208279D02*
X106795161Y-118255898D01*
X106795161Y-118255898D02*
X106747542Y-118303517D01*
X106747542Y-118303517D02*
X106699923Y-118398755D01*
X106699923Y-118398755D02*
X106699923Y-118589231D01*
X106699923Y-118589231D02*
X106747542Y-118684469D01*
X106747542Y-118684469D02*
X106795161Y-118732089D01*
X106795161Y-118732089D02*
X106890399Y-118779708D01*
X106890399Y-118779708D02*
X107080875Y-118779708D01*
X107080875Y-118779708D02*
X107176113Y-118732089D01*
X107176113Y-118732089D02*
X107223732Y-118684469D01*
X107223732Y-118684469D02*
X107271351Y-118589231D01*
X107271351Y-118589231D02*
X107271351Y-118398755D01*
X107271351Y-118398755D02*
X107223732Y-118303517D01*
X107223732Y-118303517D02*
X107176113Y-118255898D01*
X107176113Y-118255898D02*
X107080875Y-118208279D01*
X129969279Y-83861708D02*
X129635946Y-83385517D01*
X129397851Y-83861708D02*
X129397851Y-82861708D01*
X129397851Y-82861708D02*
X129778803Y-82861708D01*
X129778803Y-82861708D02*
X129874041Y-82909327D01*
X129874041Y-82909327D02*
X129921660Y-82956946D01*
X129921660Y-82956946D02*
X129969279Y-83052184D01*
X129969279Y-83052184D02*
X129969279Y-83195041D01*
X129969279Y-83195041D02*
X129921660Y-83290279D01*
X129921660Y-83290279D02*
X129874041Y-83337898D01*
X129874041Y-83337898D02*
X129778803Y-83385517D01*
X129778803Y-83385517D02*
X129397851Y-83385517D01*
X130826422Y-82861708D02*
X130635946Y-82861708D01*
X130635946Y-82861708D02*
X130540708Y-82909327D01*
X130540708Y-82909327D02*
X130493089Y-82956946D01*
X130493089Y-82956946D02*
X130397851Y-83099803D01*
X130397851Y-83099803D02*
X130350232Y-83290279D01*
X130350232Y-83290279D02*
X130350232Y-83671231D01*
X130350232Y-83671231D02*
X130397851Y-83766469D01*
X130397851Y-83766469D02*
X130445470Y-83814089D01*
X130445470Y-83814089D02*
X130540708Y-83861708D01*
X130540708Y-83861708D02*
X130731184Y-83861708D01*
X130731184Y-83861708D02*
X130826422Y-83814089D01*
X130826422Y-83814089D02*
X130874041Y-83766469D01*
X130874041Y-83766469D02*
X130921660Y-83671231D01*
X130921660Y-83671231D02*
X130921660Y-83433136D01*
X130921660Y-83433136D02*
X130874041Y-83337898D01*
X130874041Y-83337898D02*
X130826422Y-83290279D01*
X130826422Y-83290279D02*
X130731184Y-83242660D01*
X130731184Y-83242660D02*
X130540708Y-83242660D01*
X130540708Y-83242660D02*
X130445470Y-83290279D01*
X130445470Y-83290279D02*
X130397851Y-83337898D01*
X130397851Y-83337898D02*
X130350232Y-83433136D01*
X131778803Y-83195041D02*
X131778803Y-83861708D01*
X131540708Y-82814089D02*
X131302613Y-83528374D01*
X131302613Y-83528374D02*
X131921660Y-83528374D01*
X112994456Y-123539746D02*
X112518265Y-123873079D01*
X112994456Y-124111174D02*
X111994456Y-124111174D01*
X111994456Y-124111174D02*
X111994456Y-123730222D01*
X111994456Y-123730222D02*
X112042075Y-123634984D01*
X112042075Y-123634984D02*
X112089694Y-123587365D01*
X112089694Y-123587365D02*
X112184932Y-123539746D01*
X112184932Y-123539746D02*
X112327789Y-123539746D01*
X112327789Y-123539746D02*
X112423027Y-123587365D01*
X112423027Y-123587365D02*
X112470646Y-123634984D01*
X112470646Y-123634984D02*
X112518265Y-123730222D01*
X112518265Y-123730222D02*
X112518265Y-124111174D01*
X112089694Y-123158793D02*
X112042075Y-123111174D01*
X112042075Y-123111174D02*
X111994456Y-123015936D01*
X111994456Y-123015936D02*
X111994456Y-122777841D01*
X111994456Y-122777841D02*
X112042075Y-122682603D01*
X112042075Y-122682603D02*
X112089694Y-122634984D01*
X112089694Y-122634984D02*
X112184932Y-122587365D01*
X112184932Y-122587365D02*
X112280170Y-122587365D01*
X112280170Y-122587365D02*
X112423027Y-122634984D01*
X112423027Y-122634984D02*
X112994456Y-123206412D01*
X112994456Y-123206412D02*
X112994456Y-122587365D01*
X111994456Y-121968317D02*
X111994456Y-121873079D01*
X111994456Y-121873079D02*
X112042075Y-121777841D01*
X112042075Y-121777841D02*
X112089694Y-121730222D01*
X112089694Y-121730222D02*
X112184932Y-121682603D01*
X112184932Y-121682603D02*
X112375408Y-121634984D01*
X112375408Y-121634984D02*
X112613503Y-121634984D01*
X112613503Y-121634984D02*
X112803979Y-121682603D01*
X112803979Y-121682603D02*
X112899217Y-121730222D01*
X112899217Y-121730222D02*
X112946837Y-121777841D01*
X112946837Y-121777841D02*
X112994456Y-121873079D01*
X112994456Y-121873079D02*
X112994456Y-121968317D01*
X112994456Y-121968317D02*
X112946837Y-122063555D01*
X112946837Y-122063555D02*
X112899217Y-122111174D01*
X112899217Y-122111174D02*
X112803979Y-122158793D01*
X112803979Y-122158793D02*
X112613503Y-122206412D01*
X112613503Y-122206412D02*
X112375408Y-122206412D01*
X112375408Y-122206412D02*
X112184932Y-122158793D01*
X112184932Y-122158793D02*
X112089694Y-122111174D01*
X112089694Y-122111174D02*
X112042075Y-122063555D01*
X112042075Y-122063555D02*
X111994456Y-121968317D01*
X142913641Y-116625844D02*
X142580308Y-116149653D01*
X142342213Y-116625844D02*
X142342213Y-115625844D01*
X142342213Y-115625844D02*
X142723165Y-115625844D01*
X142723165Y-115625844D02*
X142818403Y-115673463D01*
X142818403Y-115673463D02*
X142866022Y-115721082D01*
X142866022Y-115721082D02*
X142913641Y-115816320D01*
X142913641Y-115816320D02*
X142913641Y-115959177D01*
X142913641Y-115959177D02*
X142866022Y-116054415D01*
X142866022Y-116054415D02*
X142818403Y-116102034D01*
X142818403Y-116102034D02*
X142723165Y-116149653D01*
X142723165Y-116149653D02*
X142342213Y-116149653D01*
X143770784Y-115959177D02*
X143770784Y-116625844D01*
X143532689Y-115578225D02*
X143294594Y-116292510D01*
X143294594Y-116292510D02*
X143913641Y-116292510D01*
X144199356Y-115625844D02*
X144866022Y-115625844D01*
X144866022Y-115625844D02*
X144437451Y-116625844D01*
X117360113Y-124256708D02*
X117360113Y-124970993D01*
X117360113Y-124970993D02*
X117312494Y-125113850D01*
X117312494Y-125113850D02*
X117217256Y-125209089D01*
X117217256Y-125209089D02*
X117074399Y-125256708D01*
X117074399Y-125256708D02*
X116979161Y-125256708D01*
X118360113Y-125256708D02*
X117788685Y-125256708D01*
X118074399Y-125256708D02*
X118074399Y-124256708D01*
X118074399Y-124256708D02*
X117979161Y-124399565D01*
X117979161Y-124399565D02*
X117883923Y-124494803D01*
X117883923Y-124494803D02*
X117788685Y-124542422D01*
X119264875Y-124256708D02*
X118788685Y-124256708D01*
X118788685Y-124256708D02*
X118741066Y-124732898D01*
X118741066Y-124732898D02*
X118788685Y-124685279D01*
X118788685Y-124685279D02*
X118883923Y-124637660D01*
X118883923Y-124637660D02*
X119122018Y-124637660D01*
X119122018Y-124637660D02*
X119217256Y-124685279D01*
X119217256Y-124685279D02*
X119264875Y-124732898D01*
X119264875Y-124732898D02*
X119312494Y-124828136D01*
X119312494Y-124828136D02*
X119312494Y-125066231D01*
X119312494Y-125066231D02*
X119264875Y-125161469D01*
X119264875Y-125161469D02*
X119217256Y-125209089D01*
X119217256Y-125209089D02*
X119122018Y-125256708D01*
X119122018Y-125256708D02*
X118883923Y-125256708D01*
X118883923Y-125256708D02*
X118788685Y-125209089D01*
X118788685Y-125209089D02*
X118741066Y-125161469D01*
X150351141Y-118335844D02*
X150017808Y-117859653D01*
X149779713Y-118335844D02*
X149779713Y-117335844D01*
X149779713Y-117335844D02*
X150160665Y-117335844D01*
X150160665Y-117335844D02*
X150255903Y-117383463D01*
X150255903Y-117383463D02*
X150303522Y-117431082D01*
X150303522Y-117431082D02*
X150351141Y-117526320D01*
X150351141Y-117526320D02*
X150351141Y-117669177D01*
X150351141Y-117669177D02*
X150303522Y-117764415D01*
X150303522Y-117764415D02*
X150255903Y-117812034D01*
X150255903Y-117812034D02*
X150160665Y-117859653D01*
X150160665Y-117859653D02*
X149779713Y-117859653D01*
X151255903Y-117335844D02*
X150779713Y-117335844D01*
X150779713Y-117335844D02*
X150732094Y-117812034D01*
X150732094Y-117812034D02*
X150779713Y-117764415D01*
X150779713Y-117764415D02*
X150874951Y-117716796D01*
X150874951Y-117716796D02*
X151113046Y-117716796D01*
X151113046Y-117716796D02*
X151208284Y-117764415D01*
X151208284Y-117764415D02*
X151255903Y-117812034D01*
X151255903Y-117812034D02*
X151303522Y-117907272D01*
X151303522Y-117907272D02*
X151303522Y-118145367D01*
X151303522Y-118145367D02*
X151255903Y-118240605D01*
X151255903Y-118240605D02*
X151208284Y-118288225D01*
X151208284Y-118288225D02*
X151113046Y-118335844D01*
X151113046Y-118335844D02*
X150874951Y-118335844D01*
X150874951Y-118335844D02*
X150779713Y-118288225D01*
X150779713Y-118288225D02*
X150732094Y-118240605D01*
X152255903Y-118335844D02*
X151684475Y-118335844D01*
X151970189Y-118335844D02*
X151970189Y-117335844D01*
X151970189Y-117335844D02*
X151874951Y-117478701D01*
X151874951Y-117478701D02*
X151779713Y-117573939D01*
X151779713Y-117573939D02*
X151684475Y-117621558D01*
X151856779Y-96821708D02*
X151523446Y-96345517D01*
X151285351Y-96821708D02*
X151285351Y-95821708D01*
X151285351Y-95821708D02*
X151666303Y-95821708D01*
X151666303Y-95821708D02*
X151761541Y-95869327D01*
X151761541Y-95869327D02*
X151809160Y-95916946D01*
X151809160Y-95916946D02*
X151856779Y-96012184D01*
X151856779Y-96012184D02*
X151856779Y-96155041D01*
X151856779Y-96155041D02*
X151809160Y-96250279D01*
X151809160Y-96250279D02*
X151761541Y-96297898D01*
X151761541Y-96297898D02*
X151666303Y-96345517D01*
X151666303Y-96345517D02*
X151285351Y-96345517D01*
X152761541Y-95821708D02*
X152285351Y-95821708D01*
X152285351Y-95821708D02*
X152237732Y-96297898D01*
X152237732Y-96297898D02*
X152285351Y-96250279D01*
X152285351Y-96250279D02*
X152380589Y-96202660D01*
X152380589Y-96202660D02*
X152618684Y-96202660D01*
X152618684Y-96202660D02*
X152713922Y-96250279D01*
X152713922Y-96250279D02*
X152761541Y-96297898D01*
X152761541Y-96297898D02*
X152809160Y-96393136D01*
X152809160Y-96393136D02*
X152809160Y-96631231D01*
X152809160Y-96631231D02*
X152761541Y-96726469D01*
X152761541Y-96726469D02*
X152713922Y-96774089D01*
X152713922Y-96774089D02*
X152618684Y-96821708D01*
X152618684Y-96821708D02*
X152380589Y-96821708D01*
X152380589Y-96821708D02*
X152285351Y-96774089D01*
X152285351Y-96774089D02*
X152237732Y-96726469D01*
X153142494Y-95821708D02*
X153809160Y-95821708D01*
X153809160Y-95821708D02*
X153380589Y-96821708D01*
X157717141Y-114779844D02*
X157383808Y-114303653D01*
X157145713Y-114779844D02*
X157145713Y-113779844D01*
X157145713Y-113779844D02*
X157526665Y-113779844D01*
X157526665Y-113779844D02*
X157621903Y-113827463D01*
X157621903Y-113827463D02*
X157669522Y-113875082D01*
X157669522Y-113875082D02*
X157717141Y-113970320D01*
X157717141Y-113970320D02*
X157717141Y-114113177D01*
X157717141Y-114113177D02*
X157669522Y-114208415D01*
X157669522Y-114208415D02*
X157621903Y-114256034D01*
X157621903Y-114256034D02*
X157526665Y-114303653D01*
X157526665Y-114303653D02*
X157145713Y-114303653D01*
X158621903Y-113779844D02*
X158145713Y-113779844D01*
X158145713Y-113779844D02*
X158098094Y-114256034D01*
X158098094Y-114256034D02*
X158145713Y-114208415D01*
X158145713Y-114208415D02*
X158240951Y-114160796D01*
X158240951Y-114160796D02*
X158479046Y-114160796D01*
X158479046Y-114160796D02*
X158574284Y-114208415D01*
X158574284Y-114208415D02*
X158621903Y-114256034D01*
X158621903Y-114256034D02*
X158669522Y-114351272D01*
X158669522Y-114351272D02*
X158669522Y-114589367D01*
X158669522Y-114589367D02*
X158621903Y-114684605D01*
X158621903Y-114684605D02*
X158574284Y-114732225D01*
X158574284Y-114732225D02*
X158479046Y-114779844D01*
X158479046Y-114779844D02*
X158240951Y-114779844D01*
X158240951Y-114779844D02*
X158145713Y-114732225D01*
X158145713Y-114732225D02*
X158098094Y-114684605D01*
X159526665Y-113779844D02*
X159336189Y-113779844D01*
X159336189Y-113779844D02*
X159240951Y-113827463D01*
X159240951Y-113827463D02*
X159193332Y-113875082D01*
X159193332Y-113875082D02*
X159098094Y-114017939D01*
X159098094Y-114017939D02*
X159050475Y-114208415D01*
X159050475Y-114208415D02*
X159050475Y-114589367D01*
X159050475Y-114589367D02*
X159098094Y-114684605D01*
X159098094Y-114684605D02*
X159145713Y-114732225D01*
X159145713Y-114732225D02*
X159240951Y-114779844D01*
X159240951Y-114779844D02*
X159431427Y-114779844D01*
X159431427Y-114779844D02*
X159526665Y-114732225D01*
X159526665Y-114732225D02*
X159574284Y-114684605D01*
X159574284Y-114684605D02*
X159621903Y-114589367D01*
X159621903Y-114589367D02*
X159621903Y-114351272D01*
X159621903Y-114351272D02*
X159574284Y-114256034D01*
X159574284Y-114256034D02*
X159526665Y-114208415D01*
X159526665Y-114208415D02*
X159431427Y-114160796D01*
X159431427Y-114160796D02*
X159240951Y-114160796D01*
X159240951Y-114160796D02*
X159145713Y-114208415D01*
X159145713Y-114208415D02*
X159098094Y-114256034D01*
X159098094Y-114256034D02*
X159050475Y-114351272D01*
X179790057Y-76812738D02*
X179742438Y-76907976D01*
X179742438Y-76907976D02*
X179647200Y-77003214D01*
X179647200Y-77003214D02*
X179504342Y-77146071D01*
X179504342Y-77146071D02*
X179456723Y-77241309D01*
X179456723Y-77241309D02*
X179456723Y-77336547D01*
X179694819Y-77288928D02*
X179647200Y-77384166D01*
X179647200Y-77384166D02*
X179551961Y-77479404D01*
X179551961Y-77479404D02*
X179361485Y-77527023D01*
X179361485Y-77527023D02*
X179028152Y-77527023D01*
X179028152Y-77527023D02*
X178837676Y-77479404D01*
X178837676Y-77479404D02*
X178742438Y-77384166D01*
X178742438Y-77384166D02*
X178694819Y-77288928D01*
X178694819Y-77288928D02*
X178694819Y-77098452D01*
X178694819Y-77098452D02*
X178742438Y-77003214D01*
X178742438Y-77003214D02*
X178837676Y-76907976D01*
X178837676Y-76907976D02*
X179028152Y-76860357D01*
X179028152Y-76860357D02*
X179361485Y-76860357D01*
X179361485Y-76860357D02*
X179551961Y-76907976D01*
X179551961Y-76907976D02*
X179647200Y-77003214D01*
X179647200Y-77003214D02*
X179694819Y-77098452D01*
X179694819Y-77098452D02*
X179694819Y-77288928D01*
X179123390Y-76288928D02*
X179075771Y-76384166D01*
X179075771Y-76384166D02*
X179028152Y-76431785D01*
X179028152Y-76431785D02*
X178932914Y-76479404D01*
X178932914Y-76479404D02*
X178885295Y-76479404D01*
X178885295Y-76479404D02*
X178790057Y-76431785D01*
X178790057Y-76431785D02*
X178742438Y-76384166D01*
X178742438Y-76384166D02*
X178694819Y-76288928D01*
X178694819Y-76288928D02*
X178694819Y-76098452D01*
X178694819Y-76098452D02*
X178742438Y-76003214D01*
X178742438Y-76003214D02*
X178790057Y-75955595D01*
X178790057Y-75955595D02*
X178885295Y-75907976D01*
X178885295Y-75907976D02*
X178932914Y-75907976D01*
X178932914Y-75907976D02*
X179028152Y-75955595D01*
X179028152Y-75955595D02*
X179075771Y-76003214D01*
X179075771Y-76003214D02*
X179123390Y-76098452D01*
X179123390Y-76098452D02*
X179123390Y-76288928D01*
X179123390Y-76288928D02*
X179171009Y-76384166D01*
X179171009Y-76384166D02*
X179218628Y-76431785D01*
X179218628Y-76431785D02*
X179313866Y-76479404D01*
X179313866Y-76479404D02*
X179504342Y-76479404D01*
X179504342Y-76479404D02*
X179599580Y-76431785D01*
X179599580Y-76431785D02*
X179647200Y-76384166D01*
X179647200Y-76384166D02*
X179694819Y-76288928D01*
X179694819Y-76288928D02*
X179694819Y-76098452D01*
X179694819Y-76098452D02*
X179647200Y-76003214D01*
X179647200Y-76003214D02*
X179599580Y-75955595D01*
X179599580Y-75955595D02*
X179504342Y-75907976D01*
X179504342Y-75907976D02*
X179313866Y-75907976D01*
X179313866Y-75907976D02*
X179218628Y-75955595D01*
X179218628Y-75955595D02*
X179171009Y-76003214D01*
X179171009Y-76003214D02*
X179123390Y-76098452D01*
X148300779Y-96821708D02*
X147967446Y-96345517D01*
X147729351Y-96821708D02*
X147729351Y-95821708D01*
X147729351Y-95821708D02*
X148110303Y-95821708D01*
X148110303Y-95821708D02*
X148205541Y-95869327D01*
X148205541Y-95869327D02*
X148253160Y-95916946D01*
X148253160Y-95916946D02*
X148300779Y-96012184D01*
X148300779Y-96012184D02*
X148300779Y-96155041D01*
X148300779Y-96155041D02*
X148253160Y-96250279D01*
X148253160Y-96250279D02*
X148205541Y-96297898D01*
X148205541Y-96297898D02*
X148110303Y-96345517D01*
X148110303Y-96345517D02*
X147729351Y-96345517D01*
X149205541Y-95821708D02*
X148729351Y-95821708D01*
X148729351Y-95821708D02*
X148681732Y-96297898D01*
X148681732Y-96297898D02*
X148729351Y-96250279D01*
X148729351Y-96250279D02*
X148824589Y-96202660D01*
X148824589Y-96202660D02*
X149062684Y-96202660D01*
X149062684Y-96202660D02*
X149157922Y-96250279D01*
X149157922Y-96250279D02*
X149205541Y-96297898D01*
X149205541Y-96297898D02*
X149253160Y-96393136D01*
X149253160Y-96393136D02*
X149253160Y-96631231D01*
X149253160Y-96631231D02*
X149205541Y-96726469D01*
X149205541Y-96726469D02*
X149157922Y-96774089D01*
X149157922Y-96774089D02*
X149062684Y-96821708D01*
X149062684Y-96821708D02*
X148824589Y-96821708D01*
X148824589Y-96821708D02*
X148729351Y-96774089D01*
X148729351Y-96774089D02*
X148681732Y-96726469D01*
X149824589Y-96250279D02*
X149729351Y-96202660D01*
X149729351Y-96202660D02*
X149681732Y-96155041D01*
X149681732Y-96155041D02*
X149634113Y-96059803D01*
X149634113Y-96059803D02*
X149634113Y-96012184D01*
X149634113Y-96012184D02*
X149681732Y-95916946D01*
X149681732Y-95916946D02*
X149729351Y-95869327D01*
X149729351Y-95869327D02*
X149824589Y-95821708D01*
X149824589Y-95821708D02*
X150015065Y-95821708D01*
X150015065Y-95821708D02*
X150110303Y-95869327D01*
X150110303Y-95869327D02*
X150157922Y-95916946D01*
X150157922Y-95916946D02*
X150205541Y-96012184D01*
X150205541Y-96012184D02*
X150205541Y-96059803D01*
X150205541Y-96059803D02*
X150157922Y-96155041D01*
X150157922Y-96155041D02*
X150110303Y-96202660D01*
X150110303Y-96202660D02*
X150015065Y-96250279D01*
X150015065Y-96250279D02*
X149824589Y-96250279D01*
X149824589Y-96250279D02*
X149729351Y-96297898D01*
X149729351Y-96297898D02*
X149681732Y-96345517D01*
X149681732Y-96345517D02*
X149634113Y-96440755D01*
X149634113Y-96440755D02*
X149634113Y-96631231D01*
X149634113Y-96631231D02*
X149681732Y-96726469D01*
X149681732Y-96726469D02*
X149729351Y-96774089D01*
X149729351Y-96774089D02*
X149824589Y-96821708D01*
X149824589Y-96821708D02*
X150015065Y-96821708D01*
X150015065Y-96821708D02*
X150110303Y-96774089D01*
X150110303Y-96774089D02*
X150157922Y-96726469D01*
X150157922Y-96726469D02*
X150205541Y-96631231D01*
X150205541Y-96631231D02*
X150205541Y-96440755D01*
X150205541Y-96440755D02*
X150157922Y-96345517D01*
X150157922Y-96345517D02*
X150110303Y-96297898D01*
X150110303Y-96297898D02*
X150015065Y-96250279D01*
X104540970Y-120716469D02*
X104493351Y-120764089D01*
X104493351Y-120764089D02*
X104350494Y-120811708D01*
X104350494Y-120811708D02*
X104255256Y-120811708D01*
X104255256Y-120811708D02*
X104112399Y-120764089D01*
X104112399Y-120764089D02*
X104017161Y-120668850D01*
X104017161Y-120668850D02*
X103969542Y-120573612D01*
X103969542Y-120573612D02*
X103921923Y-120383136D01*
X103921923Y-120383136D02*
X103921923Y-120240279D01*
X103921923Y-120240279D02*
X103969542Y-120049803D01*
X103969542Y-120049803D02*
X104017161Y-119954565D01*
X104017161Y-119954565D02*
X104112399Y-119859327D01*
X104112399Y-119859327D02*
X104255256Y-119811708D01*
X104255256Y-119811708D02*
X104350494Y-119811708D01*
X104350494Y-119811708D02*
X104493351Y-119859327D01*
X104493351Y-119859327D02*
X104540970Y-119906946D01*
X105398113Y-119811708D02*
X105207637Y-119811708D01*
X105207637Y-119811708D02*
X105112399Y-119859327D01*
X105112399Y-119859327D02*
X105064780Y-119906946D01*
X105064780Y-119906946D02*
X104969542Y-120049803D01*
X104969542Y-120049803D02*
X104921923Y-120240279D01*
X104921923Y-120240279D02*
X104921923Y-120621231D01*
X104921923Y-120621231D02*
X104969542Y-120716469D01*
X104969542Y-120716469D02*
X105017161Y-120764089D01*
X105017161Y-120764089D02*
X105112399Y-120811708D01*
X105112399Y-120811708D02*
X105302875Y-120811708D01*
X105302875Y-120811708D02*
X105398113Y-120764089D01*
X105398113Y-120764089D02*
X105445732Y-120716469D01*
X105445732Y-120716469D02*
X105493351Y-120621231D01*
X105493351Y-120621231D02*
X105493351Y-120383136D01*
X105493351Y-120383136D02*
X105445732Y-120287898D01*
X105445732Y-120287898D02*
X105398113Y-120240279D01*
X105398113Y-120240279D02*
X105302875Y-120192660D01*
X105302875Y-120192660D02*
X105112399Y-120192660D01*
X105112399Y-120192660D02*
X105017161Y-120240279D01*
X105017161Y-120240279D02*
X104969542Y-120287898D01*
X104969542Y-120287898D02*
X104921923Y-120383136D01*
X159186956Y-103877246D02*
X158710765Y-104210579D01*
X159186956Y-104448674D02*
X158186956Y-104448674D01*
X158186956Y-104448674D02*
X158186956Y-104067722D01*
X158186956Y-104067722D02*
X158234575Y-103972484D01*
X158234575Y-103972484D02*
X158282194Y-103924865D01*
X158282194Y-103924865D02*
X158377432Y-103877246D01*
X158377432Y-103877246D02*
X158520289Y-103877246D01*
X158520289Y-103877246D02*
X158615527Y-103924865D01*
X158615527Y-103924865D02*
X158663146Y-103972484D01*
X158663146Y-103972484D02*
X158710765Y-104067722D01*
X158710765Y-104067722D02*
X158710765Y-104448674D01*
X158186956Y-103543912D02*
X158186956Y-102877246D01*
X158186956Y-102877246D02*
X159186956Y-103305817D01*
X158186956Y-102591531D02*
X158186956Y-101972484D01*
X158186956Y-101972484D02*
X158567908Y-102305817D01*
X158567908Y-102305817D02*
X158567908Y-102162960D01*
X158567908Y-102162960D02*
X158615527Y-102067722D01*
X158615527Y-102067722D02*
X158663146Y-102020103D01*
X158663146Y-102020103D02*
X158758384Y-101972484D01*
X158758384Y-101972484D02*
X158996479Y-101972484D01*
X158996479Y-101972484D02*
X159091717Y-102020103D01*
X159091717Y-102020103D02*
X159139337Y-102067722D01*
X159139337Y-102067722D02*
X159186956Y-102162960D01*
X159186956Y-102162960D02*
X159186956Y-102448674D01*
X159186956Y-102448674D02*
X159139337Y-102543912D01*
X159139337Y-102543912D02*
X159091717Y-102591531D01*
X179449642Y-82424819D02*
X179116309Y-81948628D01*
X178878214Y-82424819D02*
X178878214Y-81424819D01*
X178878214Y-81424819D02*
X179259166Y-81424819D01*
X179259166Y-81424819D02*
X179354404Y-81472438D01*
X179354404Y-81472438D02*
X179402023Y-81520057D01*
X179402023Y-81520057D02*
X179449642Y-81615295D01*
X179449642Y-81615295D02*
X179449642Y-81758152D01*
X179449642Y-81758152D02*
X179402023Y-81853390D01*
X179402023Y-81853390D02*
X179354404Y-81901009D01*
X179354404Y-81901009D02*
X179259166Y-81948628D01*
X179259166Y-81948628D02*
X178878214Y-81948628D01*
X180306785Y-81424819D02*
X180116309Y-81424819D01*
X180116309Y-81424819D02*
X180021071Y-81472438D01*
X180021071Y-81472438D02*
X179973452Y-81520057D01*
X179973452Y-81520057D02*
X179878214Y-81662914D01*
X179878214Y-81662914D02*
X179830595Y-81853390D01*
X179830595Y-81853390D02*
X179830595Y-82234342D01*
X179830595Y-82234342D02*
X179878214Y-82329580D01*
X179878214Y-82329580D02*
X179925833Y-82377200D01*
X179925833Y-82377200D02*
X180021071Y-82424819D01*
X180021071Y-82424819D02*
X180211547Y-82424819D01*
X180211547Y-82424819D02*
X180306785Y-82377200D01*
X180306785Y-82377200D02*
X180354404Y-82329580D01*
X180354404Y-82329580D02*
X180402023Y-82234342D01*
X180402023Y-82234342D02*
X180402023Y-81996247D01*
X180402023Y-81996247D02*
X180354404Y-81901009D01*
X180354404Y-81901009D02*
X180306785Y-81853390D01*
X180306785Y-81853390D02*
X180211547Y-81805771D01*
X180211547Y-81805771D02*
X180021071Y-81805771D01*
X180021071Y-81805771D02*
X179925833Y-81853390D01*
X179925833Y-81853390D02*
X179878214Y-81901009D01*
X179878214Y-81901009D02*
X179830595Y-81996247D01*
X180878214Y-82424819D02*
X181068690Y-82424819D01*
X181068690Y-82424819D02*
X181163928Y-82377200D01*
X181163928Y-82377200D02*
X181211547Y-82329580D01*
X181211547Y-82329580D02*
X181306785Y-82186723D01*
X181306785Y-82186723D02*
X181354404Y-81996247D01*
X181354404Y-81996247D02*
X181354404Y-81615295D01*
X181354404Y-81615295D02*
X181306785Y-81520057D01*
X181306785Y-81520057D02*
X181259166Y-81472438D01*
X181259166Y-81472438D02*
X181163928Y-81424819D01*
X181163928Y-81424819D02*
X180973452Y-81424819D01*
X180973452Y-81424819D02*
X180878214Y-81472438D01*
X180878214Y-81472438D02*
X180830595Y-81520057D01*
X180830595Y-81520057D02*
X180782976Y-81615295D01*
X180782976Y-81615295D02*
X180782976Y-81853390D01*
X180782976Y-81853390D02*
X180830595Y-81948628D01*
X180830595Y-81948628D02*
X180878214Y-81996247D01*
X180878214Y-81996247D02*
X180973452Y-82043866D01*
X180973452Y-82043866D02*
X181163928Y-82043866D01*
X181163928Y-82043866D02*
X181259166Y-81996247D01*
X181259166Y-81996247D02*
X181306785Y-81948628D01*
X181306785Y-81948628D02*
X181354404Y-81853390D01*
X103521542Y-122986708D02*
X103521542Y-123796231D01*
X103521542Y-123796231D02*
X103569161Y-123891469D01*
X103569161Y-123891469D02*
X103616780Y-123939089D01*
X103616780Y-123939089D02*
X103712018Y-123986708D01*
X103712018Y-123986708D02*
X103902494Y-123986708D01*
X103902494Y-123986708D02*
X103997732Y-123939089D01*
X103997732Y-123939089D02*
X104045351Y-123891469D01*
X104045351Y-123891469D02*
X104092970Y-123796231D01*
X104092970Y-123796231D02*
X104092970Y-122986708D01*
X105092970Y-123986708D02*
X104521542Y-123986708D01*
X104807256Y-123986708D02*
X104807256Y-122986708D01*
X104807256Y-122986708D02*
X104712018Y-123129565D01*
X104712018Y-123129565D02*
X104616780Y-123224803D01*
X104616780Y-123224803D02*
X104521542Y-123272422D01*
X105712018Y-122986708D02*
X105807256Y-122986708D01*
X105807256Y-122986708D02*
X105902494Y-123034327D01*
X105902494Y-123034327D02*
X105950113Y-123081946D01*
X105950113Y-123081946D02*
X105997732Y-123177184D01*
X105997732Y-123177184D02*
X106045351Y-123367660D01*
X106045351Y-123367660D02*
X106045351Y-123605755D01*
X106045351Y-123605755D02*
X105997732Y-123796231D01*
X105997732Y-123796231D02*
X105950113Y-123891469D01*
X105950113Y-123891469D02*
X105902494Y-123939089D01*
X105902494Y-123939089D02*
X105807256Y-123986708D01*
X105807256Y-123986708D02*
X105712018Y-123986708D01*
X105712018Y-123986708D02*
X105616780Y-123939089D01*
X105616780Y-123939089D02*
X105569161Y-123891469D01*
X105569161Y-123891469D02*
X105521542Y-123796231D01*
X105521542Y-123796231D02*
X105473923Y-123605755D01*
X105473923Y-123605755D02*
X105473923Y-123367660D01*
X105473923Y-123367660D02*
X105521542Y-123177184D01*
X105521542Y-123177184D02*
X105569161Y-123081946D01*
X105569161Y-123081946D02*
X105616780Y-123034327D01*
X105616780Y-123034327D02*
X105712018Y-122986708D01*
D14*
X152108094Y-95149469D02*
X152108094Y-94339946D01*
X152108094Y-94339946D02*
X152060475Y-94244708D01*
X152060475Y-94244708D02*
X152012856Y-94197089D01*
X152012856Y-94197089D02*
X151917618Y-94149469D01*
X151917618Y-94149469D02*
X151727142Y-94149469D01*
X151727142Y-94149469D02*
X151631904Y-94197089D01*
X151631904Y-94197089D02*
X151584285Y-94244708D01*
X151584285Y-94244708D02*
X151536666Y-94339946D01*
X151536666Y-94339946D02*
X151536666Y-95149469D01*
X151108094Y-95054231D02*
X151060475Y-95101850D01*
X151060475Y-95101850D02*
X150965237Y-95149469D01*
X150965237Y-95149469D02*
X150727142Y-95149469D01*
X150727142Y-95149469D02*
X150631904Y-95101850D01*
X150631904Y-95101850D02*
X150584285Y-95054231D01*
X150584285Y-95054231D02*
X150536666Y-94958993D01*
X150536666Y-94958993D02*
X150536666Y-94863755D01*
X150536666Y-94863755D02*
X150584285Y-94720898D01*
X150584285Y-94720898D02*
X151155713Y-94149469D01*
X151155713Y-94149469D02*
X150536666Y-94149469D01*
X149679523Y-95149469D02*
X149869999Y-95149469D01*
X149869999Y-95149469D02*
X149965237Y-95101850D01*
X149965237Y-95101850D02*
X150012856Y-95054231D01*
X150012856Y-95054231D02*
X150108094Y-94911374D01*
X150108094Y-94911374D02*
X150155713Y-94720898D01*
X150155713Y-94720898D02*
X150155713Y-94339946D01*
X150155713Y-94339946D02*
X150108094Y-94244708D01*
X150108094Y-94244708D02*
X150060475Y-94197089D01*
X150060475Y-94197089D02*
X149965237Y-94149469D01*
X149965237Y-94149469D02*
X149774761Y-94149469D01*
X149774761Y-94149469D02*
X149679523Y-94197089D01*
X149679523Y-94197089D02*
X149631904Y-94244708D01*
X149631904Y-94244708D02*
X149584285Y-94339946D01*
X149584285Y-94339946D02*
X149584285Y-94578041D01*
X149584285Y-94578041D02*
X149631904Y-94673279D01*
X149631904Y-94673279D02*
X149679523Y-94720898D01*
X149679523Y-94720898D02*
X149774761Y-94768517D01*
X149774761Y-94768517D02*
X149965237Y-94768517D01*
X149965237Y-94768517D02*
X150060475Y-94720898D01*
X150060475Y-94720898D02*
X150108094Y-94673279D01*
X150108094Y-94673279D02*
X150155713Y-94578041D01*
D10*
X145282815Y-106222202D02*
X144756045Y-105976476D01*
X144787944Y-106507916D02*
X144287944Y-105641891D01*
X144287944Y-105641891D02*
X144617858Y-105451415D01*
X144617858Y-105451415D02*
X144724146Y-105445035D01*
X144724146Y-105445035D02*
X144789195Y-105462465D01*
X144789195Y-105462465D02*
X144878053Y-105521134D01*
X144878053Y-105521134D02*
X144949482Y-105644852D01*
X144949482Y-105644852D02*
X144955862Y-105751140D01*
X144955862Y-105751140D02*
X144938432Y-105816189D01*
X144938432Y-105816189D02*
X144879763Y-105905047D01*
X144879763Y-105905047D02*
X144549848Y-106095523D01*
X145525123Y-104927605D02*
X145360166Y-105022843D01*
X145360166Y-105022843D02*
X145301497Y-105111702D01*
X145301497Y-105111702D02*
X145284067Y-105176750D01*
X145284067Y-105176750D02*
X145273017Y-105348087D01*
X145273017Y-105348087D02*
X145327016Y-105536854D01*
X145327016Y-105536854D02*
X145517492Y-105866769D01*
X145517492Y-105866769D02*
X145606350Y-105925438D01*
X145606350Y-105925438D02*
X145671399Y-105942867D01*
X145671399Y-105942867D02*
X145777687Y-105936488D01*
X145777687Y-105936488D02*
X145942644Y-105841250D01*
X145942644Y-105841250D02*
X146001313Y-105752391D01*
X146001313Y-105752391D02*
X146018743Y-105687342D01*
X146018743Y-105687342D02*
X146012363Y-105581054D01*
X146012363Y-105581054D02*
X145893316Y-105374858D01*
X145893316Y-105374858D02*
X145804457Y-105316189D01*
X145804457Y-105316189D02*
X145739409Y-105298759D01*
X145739409Y-105298759D02*
X145633120Y-105305139D01*
X145633120Y-105305139D02*
X145468163Y-105400377D01*
X145468163Y-105400377D02*
X145409494Y-105489235D01*
X145409494Y-105489235D02*
X145392064Y-105554284D01*
X145392064Y-105554284D02*
X145398444Y-105660572D01*
X146391148Y-104427605D02*
X145978755Y-104665700D01*
X145978755Y-104665700D02*
X146175611Y-105101903D01*
X146175611Y-105101903D02*
X146193041Y-105036854D01*
X146193041Y-105036854D02*
X146251710Y-104947996D01*
X146251710Y-104947996D02*
X146457907Y-104828948D01*
X146457907Y-104828948D02*
X146564195Y-104822568D01*
X146564195Y-104822568D02*
X146629244Y-104839998D01*
X146629244Y-104839998D02*
X146718102Y-104898667D01*
X146718102Y-104898667D02*
X146837150Y-105104864D01*
X146837150Y-105104864D02*
X146843529Y-105211152D01*
X146843529Y-105211152D02*
X146826099Y-105276201D01*
X146826099Y-105276201D02*
X146767430Y-105365059D01*
X146767430Y-105365059D02*
X146561234Y-105484107D01*
X146561234Y-105484107D02*
X146454946Y-105490486D01*
X146454946Y-105490486D02*
X146389897Y-105473057D01*
X123920949Y-82506520D02*
X124622017Y-82911281D01*
X124622017Y-82911281D02*
X124728305Y-82917661D01*
X124728305Y-82917661D02*
X124793354Y-82900231D01*
X124793354Y-82900231D02*
X124882212Y-82841562D01*
X124882212Y-82841562D02*
X124977450Y-82676605D01*
X124977450Y-82676605D02*
X124983830Y-82570317D01*
X124983830Y-82570317D02*
X124966400Y-82505268D01*
X124966400Y-82505268D02*
X124907731Y-82416410D01*
X124907731Y-82416410D02*
X124206663Y-82011648D01*
X124503427Y-81688113D02*
X124485997Y-81623064D01*
X124485997Y-81623064D02*
X124492377Y-81516776D01*
X124492377Y-81516776D02*
X124611425Y-81310580D01*
X124611425Y-81310580D02*
X124700283Y-81251911D01*
X124700283Y-81251911D02*
X124765332Y-81234481D01*
X124765332Y-81234481D02*
X124871620Y-81240861D01*
X124871620Y-81240861D02*
X124954099Y-81288480D01*
X124954099Y-81288480D02*
X125054007Y-81401148D01*
X125054007Y-81401148D02*
X125263164Y-82181733D01*
X125263164Y-82181733D02*
X125572688Y-81645623D01*
X126048879Y-80820836D02*
X125763164Y-81315708D01*
X125906022Y-81068272D02*
X125039996Y-80568272D01*
X125039996Y-80568272D02*
X125116095Y-80722179D01*
X125116095Y-80722179D02*
X125150955Y-80852277D01*
X125150955Y-80852277D02*
X125144575Y-80958565D01*
X130084593Y-77691029D02*
X129505533Y-77741609D01*
X129798878Y-78185900D02*
X128932853Y-77685900D01*
X128932853Y-77685900D02*
X129123329Y-77355986D01*
X129123329Y-77355986D02*
X129212188Y-77297317D01*
X129212188Y-77297317D02*
X129277236Y-77279887D01*
X129277236Y-77279887D02*
X129383525Y-77286267D01*
X129383525Y-77286267D02*
X129507242Y-77357695D01*
X129507242Y-77357695D02*
X129565912Y-77446554D01*
X129565912Y-77446554D02*
X129583341Y-77511603D01*
X129583341Y-77511603D02*
X129576962Y-77617891D01*
X129576962Y-77617891D02*
X129386485Y-77947805D01*
X129670948Y-76407482D02*
X129432853Y-76819875D01*
X129432853Y-76819875D02*
X129821437Y-77099209D01*
X129821437Y-77099209D02*
X129804007Y-77034161D01*
X129804007Y-77034161D02*
X129810387Y-76927873D01*
X129810387Y-76927873D02*
X129929434Y-76721676D01*
X129929434Y-76721676D02*
X130018293Y-76663007D01*
X130018293Y-76663007D02*
X130083341Y-76645577D01*
X130083341Y-76645577D02*
X130189629Y-76651957D01*
X130189629Y-76651957D02*
X130395826Y-76771004D01*
X130395826Y-76771004D02*
X130454495Y-76859863D01*
X130454495Y-76859863D02*
X130471925Y-76924912D01*
X130471925Y-76924912D02*
X130465545Y-77031200D01*
X130465545Y-77031200D02*
X130346498Y-77237396D01*
X130346498Y-77237396D02*
X130257639Y-77296065D01*
X130257639Y-77296065D02*
X130192590Y-77313495D01*
X130798878Y-76453849D02*
X130894117Y-76288892D01*
X130894117Y-76288892D02*
X130900496Y-76182604D01*
X130900496Y-76182604D02*
X130883067Y-76117555D01*
X130883067Y-76117555D02*
X130806968Y-75963648D01*
X130806968Y-75963648D02*
X130665820Y-75827171D01*
X130665820Y-75827171D02*
X130335906Y-75636695D01*
X130335906Y-75636695D02*
X130229617Y-75630315D01*
X130229617Y-75630315D02*
X130164569Y-75647745D01*
X130164569Y-75647745D02*
X130075710Y-75706414D01*
X130075710Y-75706414D02*
X129980472Y-75871371D01*
X129980472Y-75871371D02*
X129974092Y-75977659D01*
X129974092Y-75977659D02*
X129991522Y-76042708D01*
X129991522Y-76042708D02*
X130050191Y-76131566D01*
X130050191Y-76131566D02*
X130256388Y-76250614D01*
X130256388Y-76250614D02*
X130362676Y-76256994D01*
X130362676Y-76256994D02*
X130427725Y-76239564D01*
X130427725Y-76239564D02*
X130516583Y-76180895D01*
X130516583Y-76180895D02*
X130611821Y-76015937D01*
X130611821Y-76015937D02*
X130618201Y-75909649D01*
X130618201Y-75909649D02*
X130600771Y-75844601D01*
X130600771Y-75844601D02*
X130542102Y-75755742D01*
X142913641Y-114779844D02*
X142580308Y-114303653D01*
X142342213Y-114779844D02*
X142342213Y-113779844D01*
X142342213Y-113779844D02*
X142723165Y-113779844D01*
X142723165Y-113779844D02*
X142818403Y-113827463D01*
X142818403Y-113827463D02*
X142866022Y-113875082D01*
X142866022Y-113875082D02*
X142913641Y-113970320D01*
X142913641Y-113970320D02*
X142913641Y-114113177D01*
X142913641Y-114113177D02*
X142866022Y-114208415D01*
X142866022Y-114208415D02*
X142818403Y-114256034D01*
X142818403Y-114256034D02*
X142723165Y-114303653D01*
X142723165Y-114303653D02*
X142342213Y-114303653D01*
X143818403Y-113779844D02*
X143342213Y-113779844D01*
X143342213Y-113779844D02*
X143294594Y-114256034D01*
X143294594Y-114256034D02*
X143342213Y-114208415D01*
X143342213Y-114208415D02*
X143437451Y-114160796D01*
X143437451Y-114160796D02*
X143675546Y-114160796D01*
X143675546Y-114160796D02*
X143770784Y-114208415D01*
X143770784Y-114208415D02*
X143818403Y-114256034D01*
X143818403Y-114256034D02*
X143866022Y-114351272D01*
X143866022Y-114351272D02*
X143866022Y-114589367D01*
X143866022Y-114589367D02*
X143818403Y-114684605D01*
X143818403Y-114684605D02*
X143770784Y-114732225D01*
X143770784Y-114732225D02*
X143675546Y-114779844D01*
X143675546Y-114779844D02*
X143437451Y-114779844D01*
X143437451Y-114779844D02*
X143342213Y-114732225D01*
X143342213Y-114732225D02*
X143294594Y-114684605D01*
X144723165Y-114113177D02*
X144723165Y-114779844D01*
X144485070Y-113732225D02*
X144246975Y-114446510D01*
X144246975Y-114446510D02*
X144866022Y-114446510D01*
X108083097Y-62098477D02*
X108701687Y-62455620D01*
X108701687Y-62455620D02*
X108801595Y-62568288D01*
X108801595Y-62568288D02*
X108836455Y-62698385D01*
X108836455Y-62698385D02*
X108806265Y-62845913D01*
X108806265Y-62845913D02*
X108758646Y-62928391D01*
X108559288Y-61273691D02*
X108321193Y-61686084D01*
X108321193Y-61686084D02*
X108709776Y-61965418D01*
X108709776Y-61965418D02*
X108692346Y-61900369D01*
X108692346Y-61900369D02*
X108698726Y-61794081D01*
X108698726Y-61794081D02*
X108817774Y-61587885D01*
X108817774Y-61587885D02*
X108906632Y-61529216D01*
X108906632Y-61529216D02*
X108971681Y-61511786D01*
X108971681Y-61511786D02*
X109077969Y-61518166D01*
X109077969Y-61518166D02*
X109284166Y-61637213D01*
X109284166Y-61637213D02*
X109342835Y-61726072D01*
X109342835Y-61726072D02*
X109360264Y-61791120D01*
X109360264Y-61791120D02*
X109353885Y-61897409D01*
X109353885Y-61897409D02*
X109234837Y-62103605D01*
X109234837Y-62103605D02*
X109145979Y-62162274D01*
X109145979Y-62162274D02*
X109080930Y-62179704D01*
X108856052Y-60950156D02*
X108838622Y-60885107D01*
X108838622Y-60885107D02*
X108845002Y-60778819D01*
X108845002Y-60778819D02*
X108964050Y-60572622D01*
X108964050Y-60572622D02*
X109052908Y-60513953D01*
X109052908Y-60513953D02*
X109117957Y-60496524D01*
X109117957Y-60496524D02*
X109224245Y-60502903D01*
X109224245Y-60502903D02*
X109306724Y-60550522D01*
X109306724Y-60550522D02*
X109406632Y-60663190D01*
X109406632Y-60663190D02*
X109615789Y-61443776D01*
X109615789Y-61443776D02*
X109925313Y-60907665D01*
X173457456Y-87994140D02*
X172878396Y-88044720D01*
X173171741Y-88489011D02*
X172305716Y-87989011D01*
X172305716Y-87989011D02*
X172496192Y-87659097D01*
X172496192Y-87659097D02*
X172585051Y-87600428D01*
X172585051Y-87600428D02*
X172650099Y-87582998D01*
X172650099Y-87582998D02*
X172756388Y-87589378D01*
X172756388Y-87589378D02*
X172880105Y-87660806D01*
X172880105Y-87660806D02*
X172938775Y-87749665D01*
X172938775Y-87749665D02*
X172956204Y-87814714D01*
X172956204Y-87814714D02*
X172949825Y-87921002D01*
X172949825Y-87921002D02*
X172759348Y-88250916D01*
X173020002Y-86751832D02*
X172924764Y-86916789D01*
X172924764Y-86916789D02*
X172918384Y-87023078D01*
X172918384Y-87023078D02*
X172935814Y-87088126D01*
X172935814Y-87088126D02*
X173011913Y-87242034D01*
X173011913Y-87242034D02*
X173153060Y-87378511D01*
X173153060Y-87378511D02*
X173482975Y-87568987D01*
X173482975Y-87568987D02*
X173589263Y-87575367D01*
X173589263Y-87575367D02*
X173654312Y-87557937D01*
X173654312Y-87557937D02*
X173743170Y-87499268D01*
X173743170Y-87499268D02*
X173838408Y-87334311D01*
X173838408Y-87334311D02*
X173844788Y-87228023D01*
X173844788Y-87228023D02*
X173827358Y-87162974D01*
X173827358Y-87162974D02*
X173768689Y-87074115D01*
X173768689Y-87074115D02*
X173562492Y-86955068D01*
X173562492Y-86955068D02*
X173456204Y-86948688D01*
X173456204Y-86948688D02*
X173391156Y-86966118D01*
X173391156Y-86966118D02*
X173302297Y-87024787D01*
X173302297Y-87024787D02*
X173207059Y-87189744D01*
X173207059Y-87189744D02*
X173200679Y-87296032D01*
X173200679Y-87296032D02*
X173218109Y-87361081D01*
X173218109Y-87361081D02*
X173276778Y-87449940D01*
X173724489Y-86388768D02*
X173635631Y-86447437D01*
X173635631Y-86447437D02*
X173570582Y-86464866D01*
X173570582Y-86464866D02*
X173464294Y-86458487D01*
X173464294Y-86458487D02*
X173423054Y-86434677D01*
X173423054Y-86434677D02*
X173364385Y-86345819D01*
X173364385Y-86345819D02*
X173346955Y-86280770D01*
X173346955Y-86280770D02*
X173353335Y-86174482D01*
X173353335Y-86174482D02*
X173448573Y-86009525D01*
X173448573Y-86009525D02*
X173537432Y-85950856D01*
X173537432Y-85950856D02*
X173602480Y-85933426D01*
X173602480Y-85933426D02*
X173708769Y-85939806D01*
X173708769Y-85939806D02*
X173750008Y-85963615D01*
X173750008Y-85963615D02*
X173808677Y-86052473D01*
X173808677Y-86052473D02*
X173826107Y-86117522D01*
X173826107Y-86117522D02*
X173819727Y-86223810D01*
X173819727Y-86223810D02*
X173724489Y-86388768D01*
X173724489Y-86388768D02*
X173718109Y-86495056D01*
X173718109Y-86495056D02*
X173735539Y-86560105D01*
X173735539Y-86560105D02*
X173794208Y-86648963D01*
X173794208Y-86648963D02*
X173959165Y-86744201D01*
X173959165Y-86744201D02*
X174065453Y-86750581D01*
X174065453Y-86750581D02*
X174130502Y-86733151D01*
X174130502Y-86733151D02*
X174219361Y-86674482D01*
X174219361Y-86674482D02*
X174314599Y-86509525D01*
X174314599Y-86509525D02*
X174320978Y-86403237D01*
X174320978Y-86403237D02*
X174303549Y-86338188D01*
X174303549Y-86338188D02*
X174244880Y-86249329D01*
X174244880Y-86249329D02*
X174079922Y-86154091D01*
X174079922Y-86154091D02*
X173973634Y-86147712D01*
X173973634Y-86147712D02*
X173908585Y-86165141D01*
X173908585Y-86165141D02*
X173819727Y-86223810D01*
X181830833Y-79884819D02*
X181497500Y-79408628D01*
X181259405Y-79884819D02*
X181259405Y-78884819D01*
X181259405Y-78884819D02*
X181640357Y-78884819D01*
X181640357Y-78884819D02*
X181735595Y-78932438D01*
X181735595Y-78932438D02*
X181783214Y-78980057D01*
X181783214Y-78980057D02*
X181830833Y-79075295D01*
X181830833Y-79075295D02*
X181830833Y-79218152D01*
X181830833Y-79218152D02*
X181783214Y-79313390D01*
X181783214Y-79313390D02*
X181735595Y-79361009D01*
X181735595Y-79361009D02*
X181640357Y-79408628D01*
X181640357Y-79408628D02*
X181259405Y-79408628D01*
X182687976Y-78884819D02*
X182497500Y-78884819D01*
X182497500Y-78884819D02*
X182402262Y-78932438D01*
X182402262Y-78932438D02*
X182354643Y-78980057D01*
X182354643Y-78980057D02*
X182259405Y-79122914D01*
X182259405Y-79122914D02*
X182211786Y-79313390D01*
X182211786Y-79313390D02*
X182211786Y-79694342D01*
X182211786Y-79694342D02*
X182259405Y-79789580D01*
X182259405Y-79789580D02*
X182307024Y-79837200D01*
X182307024Y-79837200D02*
X182402262Y-79884819D01*
X182402262Y-79884819D02*
X182592738Y-79884819D01*
X182592738Y-79884819D02*
X182687976Y-79837200D01*
X182687976Y-79837200D02*
X182735595Y-79789580D01*
X182735595Y-79789580D02*
X182783214Y-79694342D01*
X182783214Y-79694342D02*
X182783214Y-79456247D01*
X182783214Y-79456247D02*
X182735595Y-79361009D01*
X182735595Y-79361009D02*
X182687976Y-79313390D01*
X182687976Y-79313390D02*
X182592738Y-79265771D01*
X182592738Y-79265771D02*
X182402262Y-79265771D01*
X182402262Y-79265771D02*
X182307024Y-79313390D01*
X182307024Y-79313390D02*
X182259405Y-79361009D01*
X182259405Y-79361009D02*
X182211786Y-79456247D01*
X193702613Y-69060287D02*
X193702613Y-69774572D01*
X193702613Y-69774572D02*
X193654994Y-69917429D01*
X193654994Y-69917429D02*
X193559756Y-70012668D01*
X193559756Y-70012668D02*
X193416899Y-70060287D01*
X193416899Y-70060287D02*
X193321661Y-70060287D01*
X194654994Y-69060287D02*
X194178804Y-69060287D01*
X194178804Y-69060287D02*
X194131185Y-69536477D01*
X194131185Y-69536477D02*
X194178804Y-69488858D01*
X194178804Y-69488858D02*
X194274042Y-69441239D01*
X194274042Y-69441239D02*
X194512137Y-69441239D01*
X194512137Y-69441239D02*
X194607375Y-69488858D01*
X194607375Y-69488858D02*
X194654994Y-69536477D01*
X194654994Y-69536477D02*
X194702613Y-69631715D01*
X194702613Y-69631715D02*
X194702613Y-69869810D01*
X194702613Y-69869810D02*
X194654994Y-69965048D01*
X194654994Y-69965048D02*
X194607375Y-70012668D01*
X194607375Y-70012668D02*
X194512137Y-70060287D01*
X194512137Y-70060287D02*
X194274042Y-70060287D01*
X194274042Y-70060287D02*
X194178804Y-70012668D01*
X194178804Y-70012668D02*
X194131185Y-69965048D01*
X195559756Y-69393620D02*
X195559756Y-70060287D01*
X195321661Y-69012668D02*
X195083566Y-69726953D01*
X195083566Y-69726953D02*
X195702613Y-69726953D01*
X168790859Y-88552455D02*
X168740279Y-87973395D01*
X168295988Y-88266740D02*
X168795988Y-87400715D01*
X168795988Y-87400715D02*
X169125902Y-87591191D01*
X169125902Y-87591191D02*
X169184571Y-87680050D01*
X169184571Y-87680050D02*
X169202001Y-87745098D01*
X169202001Y-87745098D02*
X169195621Y-87851387D01*
X169195621Y-87851387D02*
X169124193Y-87975104D01*
X169124193Y-87975104D02*
X169035334Y-88033774D01*
X169035334Y-88033774D02*
X168970285Y-88051203D01*
X168970285Y-88051203D02*
X168863997Y-88044824D01*
X168863997Y-88044824D02*
X168534083Y-87854347D01*
X169579534Y-87853096D02*
X170156885Y-88186429D01*
X170156885Y-88186429D02*
X169285731Y-88838169D01*
X170651756Y-88472144D02*
X170734235Y-88519763D01*
X170734235Y-88519763D02*
X170792904Y-88608621D01*
X170792904Y-88608621D02*
X170810334Y-88673670D01*
X170810334Y-88673670D02*
X170803954Y-88779958D01*
X170803954Y-88779958D02*
X170749955Y-88968725D01*
X170749955Y-88968725D02*
X170630908Y-89174921D01*
X170630908Y-89174921D02*
X170494430Y-89316069D01*
X170494430Y-89316069D02*
X170405572Y-89374738D01*
X170405572Y-89374738D02*
X170340523Y-89392168D01*
X170340523Y-89392168D02*
X170234235Y-89385788D01*
X170234235Y-89385788D02*
X170151756Y-89338169D01*
X170151756Y-89338169D02*
X170093087Y-89249311D01*
X170093087Y-89249311D02*
X170075658Y-89184262D01*
X170075658Y-89184262D02*
X170082037Y-89077974D01*
X170082037Y-89077974D02*
X170136036Y-88889207D01*
X170136036Y-88889207D02*
X170255084Y-88683010D01*
X170255084Y-88683010D02*
X170391561Y-88541863D01*
X170391561Y-88541863D02*
X170480419Y-88483194D01*
X170480419Y-88483194D02*
X170545468Y-88465764D01*
X170545468Y-88465764D02*
X170651756Y-88472144D01*
X145277956Y-97066246D02*
X144801765Y-97399579D01*
X145277956Y-97637674D02*
X144277956Y-97637674D01*
X144277956Y-97637674D02*
X144277956Y-97256722D01*
X144277956Y-97256722D02*
X144325575Y-97161484D01*
X144325575Y-97161484D02*
X144373194Y-97113865D01*
X144373194Y-97113865D02*
X144468432Y-97066246D01*
X144468432Y-97066246D02*
X144611289Y-97066246D01*
X144611289Y-97066246D02*
X144706527Y-97113865D01*
X144706527Y-97113865D02*
X144754146Y-97161484D01*
X144754146Y-97161484D02*
X144801765Y-97256722D01*
X144801765Y-97256722D02*
X144801765Y-97637674D01*
X144277956Y-96732912D02*
X144277956Y-96066246D01*
X144277956Y-96066246D02*
X145277956Y-96494817D01*
X144373194Y-95732912D02*
X144325575Y-95685293D01*
X144325575Y-95685293D02*
X144277956Y-95590055D01*
X144277956Y-95590055D02*
X144277956Y-95351960D01*
X144277956Y-95351960D02*
X144325575Y-95256722D01*
X144325575Y-95256722D02*
X144373194Y-95209103D01*
X144373194Y-95209103D02*
X144468432Y-95161484D01*
X144468432Y-95161484D02*
X144563670Y-95161484D01*
X144563670Y-95161484D02*
X144706527Y-95209103D01*
X144706527Y-95209103D02*
X145277956Y-95780531D01*
X145277956Y-95780531D02*
X145277956Y-95161484D01*
X150351141Y-114844844D02*
X150017808Y-114368653D01*
X149779713Y-114844844D02*
X149779713Y-113844844D01*
X149779713Y-113844844D02*
X150160665Y-113844844D01*
X150160665Y-113844844D02*
X150255903Y-113892463D01*
X150255903Y-113892463D02*
X150303522Y-113940082D01*
X150303522Y-113940082D02*
X150351141Y-114035320D01*
X150351141Y-114035320D02*
X150351141Y-114178177D01*
X150351141Y-114178177D02*
X150303522Y-114273415D01*
X150303522Y-114273415D02*
X150255903Y-114321034D01*
X150255903Y-114321034D02*
X150160665Y-114368653D01*
X150160665Y-114368653D02*
X149779713Y-114368653D01*
X151255903Y-113844844D02*
X150779713Y-113844844D01*
X150779713Y-113844844D02*
X150732094Y-114321034D01*
X150732094Y-114321034D02*
X150779713Y-114273415D01*
X150779713Y-114273415D02*
X150874951Y-114225796D01*
X150874951Y-114225796D02*
X151113046Y-114225796D01*
X151113046Y-114225796D02*
X151208284Y-114273415D01*
X151208284Y-114273415D02*
X151255903Y-114321034D01*
X151255903Y-114321034D02*
X151303522Y-114416272D01*
X151303522Y-114416272D02*
X151303522Y-114654367D01*
X151303522Y-114654367D02*
X151255903Y-114749605D01*
X151255903Y-114749605D02*
X151208284Y-114797225D01*
X151208284Y-114797225D02*
X151113046Y-114844844D01*
X151113046Y-114844844D02*
X150874951Y-114844844D01*
X150874951Y-114844844D02*
X150779713Y-114797225D01*
X150779713Y-114797225D02*
X150732094Y-114749605D01*
X151636856Y-113844844D02*
X152255903Y-113844844D01*
X152255903Y-113844844D02*
X151922570Y-114225796D01*
X151922570Y-114225796D02*
X152065427Y-114225796D01*
X152065427Y-114225796D02*
X152160665Y-114273415D01*
X152160665Y-114273415D02*
X152208284Y-114321034D01*
X152208284Y-114321034D02*
X152255903Y-114416272D01*
X152255903Y-114416272D02*
X152255903Y-114654367D01*
X152255903Y-114654367D02*
X152208284Y-114749605D01*
X152208284Y-114749605D02*
X152160665Y-114797225D01*
X152160665Y-114797225D02*
X152065427Y-114844844D01*
X152065427Y-114844844D02*
X151779713Y-114844844D01*
X151779713Y-114844844D02*
X151684475Y-114797225D01*
X151684475Y-114797225D02*
X151636856Y-114749605D01*
X187681956Y-49016412D02*
X188396241Y-49016412D01*
X188396241Y-49016412D02*
X188539098Y-49064031D01*
X188539098Y-49064031D02*
X188634337Y-49159269D01*
X188634337Y-49159269D02*
X188681956Y-49302126D01*
X188681956Y-49302126D02*
X188681956Y-49397364D01*
X188015289Y-48111650D02*
X188681956Y-48111650D01*
X187634337Y-48349745D02*
X188348622Y-48587840D01*
X188348622Y-48587840D02*
X188348622Y-47968793D01*
X187681956Y-47683078D02*
X187681956Y-47016412D01*
X187681956Y-47016412D02*
X188681956Y-47444983D01*
X142913641Y-118335844D02*
X142580308Y-117859653D01*
X142342213Y-118335844D02*
X142342213Y-117335844D01*
X142342213Y-117335844D02*
X142723165Y-117335844D01*
X142723165Y-117335844D02*
X142818403Y-117383463D01*
X142818403Y-117383463D02*
X142866022Y-117431082D01*
X142866022Y-117431082D02*
X142913641Y-117526320D01*
X142913641Y-117526320D02*
X142913641Y-117669177D01*
X142913641Y-117669177D02*
X142866022Y-117764415D01*
X142866022Y-117764415D02*
X142818403Y-117812034D01*
X142818403Y-117812034D02*
X142723165Y-117859653D01*
X142723165Y-117859653D02*
X142342213Y-117859653D01*
X143818403Y-117335844D02*
X143342213Y-117335844D01*
X143342213Y-117335844D02*
X143294594Y-117812034D01*
X143294594Y-117812034D02*
X143342213Y-117764415D01*
X143342213Y-117764415D02*
X143437451Y-117716796D01*
X143437451Y-117716796D02*
X143675546Y-117716796D01*
X143675546Y-117716796D02*
X143770784Y-117764415D01*
X143770784Y-117764415D02*
X143818403Y-117812034D01*
X143818403Y-117812034D02*
X143866022Y-117907272D01*
X143866022Y-117907272D02*
X143866022Y-118145367D01*
X143866022Y-118145367D02*
X143818403Y-118240605D01*
X143818403Y-118240605D02*
X143770784Y-118288225D01*
X143770784Y-118288225D02*
X143675546Y-118335844D01*
X143675546Y-118335844D02*
X143437451Y-118335844D01*
X143437451Y-118335844D02*
X143342213Y-118288225D01*
X143342213Y-118288225D02*
X143294594Y-118240605D01*
X144246975Y-117431082D02*
X144294594Y-117383463D01*
X144294594Y-117383463D02*
X144389832Y-117335844D01*
X144389832Y-117335844D02*
X144627927Y-117335844D01*
X144627927Y-117335844D02*
X144723165Y-117383463D01*
X144723165Y-117383463D02*
X144770784Y-117431082D01*
X144770784Y-117431082D02*
X144818403Y-117526320D01*
X144818403Y-117526320D02*
X144818403Y-117621558D01*
X144818403Y-117621558D02*
X144770784Y-117764415D01*
X144770784Y-117764415D02*
X144199356Y-118335844D01*
X144199356Y-118335844D02*
X144818403Y-118335844D01*
X139063105Y-101766980D02*
X139467866Y-102468049D01*
X139467866Y-102468049D02*
X139556725Y-102526718D01*
X139556725Y-102526718D02*
X139621774Y-102544147D01*
X139621774Y-102544147D02*
X139728062Y-102537768D01*
X139728062Y-102537768D02*
X139893019Y-102442530D01*
X139893019Y-102442530D02*
X139951688Y-102353671D01*
X139951688Y-102353671D02*
X139969118Y-102288622D01*
X139969118Y-102288622D02*
X139962738Y-102182334D01*
X139962738Y-102182334D02*
X139557976Y-101481266D01*
X139976749Y-101349459D02*
X139994179Y-101284410D01*
X139994179Y-101284410D02*
X140052848Y-101195552D01*
X140052848Y-101195552D02*
X140259044Y-101076504D01*
X140259044Y-101076504D02*
X140365332Y-101070124D01*
X140365332Y-101070124D02*
X140430381Y-101087554D01*
X140430381Y-101087554D02*
X140519240Y-101146223D01*
X140519240Y-101146223D02*
X140566859Y-101228702D01*
X140566859Y-101228702D02*
X140597048Y-101376229D01*
X140597048Y-101376229D02*
X140387891Y-102156815D01*
X140387891Y-102156815D02*
X140924002Y-101847291D01*
X141332976Y-100841370D02*
X141666309Y-101418720D01*
X140936303Y-100630503D02*
X141087249Y-101368140D01*
X141087249Y-101368140D02*
X141623360Y-101058616D01*
X138482815Y-108622202D02*
X137956045Y-108376476D01*
X137987944Y-108907916D02*
X137487944Y-108041891D01*
X137487944Y-108041891D02*
X137817858Y-107851415D01*
X137817858Y-107851415D02*
X137924146Y-107845035D01*
X137924146Y-107845035D02*
X137989195Y-107862465D01*
X137989195Y-107862465D02*
X138078053Y-107921134D01*
X138078053Y-107921134D02*
X138149482Y-108044852D01*
X138149482Y-108044852D02*
X138155862Y-108151140D01*
X138155862Y-108151140D02*
X138138432Y-108216189D01*
X138138432Y-108216189D02*
X138079763Y-108305047D01*
X138079763Y-108305047D02*
X137749848Y-108495523D01*
X138725123Y-107327605D02*
X138560166Y-107422843D01*
X138560166Y-107422843D02*
X138501497Y-107511702D01*
X138501497Y-107511702D02*
X138484067Y-107576750D01*
X138484067Y-107576750D02*
X138473017Y-107748087D01*
X138473017Y-107748087D02*
X138527016Y-107936854D01*
X138527016Y-107936854D02*
X138717492Y-108266769D01*
X138717492Y-108266769D02*
X138806350Y-108325438D01*
X138806350Y-108325438D02*
X138871399Y-108342867D01*
X138871399Y-108342867D02*
X138977687Y-108336488D01*
X138977687Y-108336488D02*
X139142644Y-108241250D01*
X139142644Y-108241250D02*
X139201313Y-108152391D01*
X139201313Y-108152391D02*
X139218743Y-108087342D01*
X139218743Y-108087342D02*
X139212363Y-107981054D01*
X139212363Y-107981054D02*
X139093316Y-107774858D01*
X139093316Y-107774858D02*
X139004457Y-107716189D01*
X139004457Y-107716189D02*
X138939409Y-107698759D01*
X138939409Y-107698759D02*
X138833120Y-107705139D01*
X138833120Y-107705139D02*
X138668163Y-107800377D01*
X138668163Y-107800377D02*
X138609494Y-107889235D01*
X138609494Y-107889235D02*
X138592064Y-107954284D01*
X138592064Y-107954284D02*
X138598444Y-108060572D01*
X139096277Y-107113319D02*
X139673627Y-106779986D01*
X139673627Y-106779986D02*
X139802473Y-107860297D01*
X114820113Y-120446708D02*
X114820113Y-121160993D01*
X114820113Y-121160993D02*
X114772494Y-121303850D01*
X114772494Y-121303850D02*
X114677256Y-121399089D01*
X114677256Y-121399089D02*
X114534399Y-121446708D01*
X114534399Y-121446708D02*
X114439161Y-121446708D01*
X115248685Y-120541946D02*
X115296304Y-120494327D01*
X115296304Y-120494327D02*
X115391542Y-120446708D01*
X115391542Y-120446708D02*
X115629637Y-120446708D01*
X115629637Y-120446708D02*
X115724875Y-120494327D01*
X115724875Y-120494327D02*
X115772494Y-120541946D01*
X115772494Y-120541946D02*
X115820113Y-120637184D01*
X115820113Y-120637184D02*
X115820113Y-120732422D01*
X115820113Y-120732422D02*
X115772494Y-120875279D01*
X115772494Y-120875279D02*
X115201066Y-121446708D01*
X115201066Y-121446708D02*
X115820113Y-121446708D01*
X116439161Y-120446708D02*
X116534399Y-120446708D01*
X116534399Y-120446708D02*
X116629637Y-120494327D01*
X116629637Y-120494327D02*
X116677256Y-120541946D01*
X116677256Y-120541946D02*
X116724875Y-120637184D01*
X116724875Y-120637184D02*
X116772494Y-120827660D01*
X116772494Y-120827660D02*
X116772494Y-121065755D01*
X116772494Y-121065755D02*
X116724875Y-121256231D01*
X116724875Y-121256231D02*
X116677256Y-121351469D01*
X116677256Y-121351469D02*
X116629637Y-121399089D01*
X116629637Y-121399089D02*
X116534399Y-121446708D01*
X116534399Y-121446708D02*
X116439161Y-121446708D01*
X116439161Y-121446708D02*
X116343923Y-121399089D01*
X116343923Y-121399089D02*
X116296304Y-121351469D01*
X116296304Y-121351469D02*
X116248685Y-121256231D01*
X116248685Y-121256231D02*
X116201066Y-121065755D01*
X116201066Y-121065755D02*
X116201066Y-120827660D01*
X116201066Y-120827660D02*
X116248685Y-120637184D01*
X116248685Y-120637184D02*
X116296304Y-120541946D01*
X116296304Y-120541946D02*
X116343923Y-120494327D01*
X116343923Y-120494327D02*
X116439161Y-120446708D01*
X126598192Y-57223169D02*
X126241049Y-57841759D01*
X126241049Y-57841759D02*
X126128381Y-57941667D01*
X126128381Y-57941667D02*
X125998284Y-57976527D01*
X125998284Y-57976527D02*
X125850756Y-57946337D01*
X125850756Y-57946337D02*
X125768278Y-57898718D01*
X126928107Y-57413646D02*
X127464218Y-57723169D01*
X127464218Y-57723169D02*
X126985066Y-57886417D01*
X126985066Y-57886417D02*
X127108784Y-57957846D01*
X127108784Y-57957846D02*
X127167453Y-58046704D01*
X127167453Y-58046704D02*
X127184883Y-58111753D01*
X127184883Y-58111753D02*
X127178503Y-58218041D01*
X127178503Y-58218041D02*
X127059456Y-58424238D01*
X127059456Y-58424238D02*
X126970597Y-58482907D01*
X126970597Y-58482907D02*
X126905549Y-58500336D01*
X126905549Y-58500336D02*
X126799260Y-58493957D01*
X126799260Y-58493957D02*
X126551825Y-58351099D01*
X126551825Y-58351099D02*
X126493156Y-58262241D01*
X126493156Y-58262241D02*
X126475726Y-58197192D01*
X128039859Y-58440416D02*
X127706525Y-59017766D01*
X128024138Y-57991454D02*
X127460799Y-58490996D01*
X127460799Y-58490996D02*
X127996910Y-58800520D01*
X157463141Y-116430844D02*
X157129808Y-115954653D01*
X156891713Y-116430844D02*
X156891713Y-115430844D01*
X156891713Y-115430844D02*
X157272665Y-115430844D01*
X157272665Y-115430844D02*
X157367903Y-115478463D01*
X157367903Y-115478463D02*
X157415522Y-115526082D01*
X157415522Y-115526082D02*
X157463141Y-115621320D01*
X157463141Y-115621320D02*
X157463141Y-115764177D01*
X157463141Y-115764177D02*
X157415522Y-115859415D01*
X157415522Y-115859415D02*
X157367903Y-115907034D01*
X157367903Y-115907034D02*
X157272665Y-115954653D01*
X157272665Y-115954653D02*
X156891713Y-115954653D01*
X158320284Y-115764177D02*
X158320284Y-116430844D01*
X158082189Y-115383225D02*
X157844094Y-116097510D01*
X157844094Y-116097510D02*
X158463141Y-116097510D01*
X158986951Y-115859415D02*
X158891713Y-115811796D01*
X158891713Y-115811796D02*
X158844094Y-115764177D01*
X158844094Y-115764177D02*
X158796475Y-115668939D01*
X158796475Y-115668939D02*
X158796475Y-115621320D01*
X158796475Y-115621320D02*
X158844094Y-115526082D01*
X158844094Y-115526082D02*
X158891713Y-115478463D01*
X158891713Y-115478463D02*
X158986951Y-115430844D01*
X158986951Y-115430844D02*
X159177427Y-115430844D01*
X159177427Y-115430844D02*
X159272665Y-115478463D01*
X159272665Y-115478463D02*
X159320284Y-115526082D01*
X159320284Y-115526082D02*
X159367903Y-115621320D01*
X159367903Y-115621320D02*
X159367903Y-115668939D01*
X159367903Y-115668939D02*
X159320284Y-115764177D01*
X159320284Y-115764177D02*
X159272665Y-115811796D01*
X159272665Y-115811796D02*
X159177427Y-115859415D01*
X159177427Y-115859415D02*
X158986951Y-115859415D01*
X158986951Y-115859415D02*
X158891713Y-115907034D01*
X158891713Y-115907034D02*
X158844094Y-115954653D01*
X158844094Y-115954653D02*
X158796475Y-116049891D01*
X158796475Y-116049891D02*
X158796475Y-116240367D01*
X158796475Y-116240367D02*
X158844094Y-116335605D01*
X158844094Y-116335605D02*
X158891713Y-116383225D01*
X158891713Y-116383225D02*
X158986951Y-116430844D01*
X158986951Y-116430844D02*
X159177427Y-116430844D01*
X159177427Y-116430844D02*
X159272665Y-116383225D01*
X159272665Y-116383225D02*
X159320284Y-116335605D01*
X159320284Y-116335605D02*
X159367903Y-116240367D01*
X159367903Y-116240367D02*
X159367903Y-116049891D01*
X159367903Y-116049891D02*
X159320284Y-115954653D01*
X159320284Y-115954653D02*
X159272665Y-115907034D01*
X159272665Y-115907034D02*
X159177427Y-115859415D01*
X159166956Y-107349746D02*
X158690765Y-107683079D01*
X159166956Y-107921174D02*
X158166956Y-107921174D01*
X158166956Y-107921174D02*
X158166956Y-107540222D01*
X158166956Y-107540222D02*
X158214575Y-107444984D01*
X158214575Y-107444984D02*
X158262194Y-107397365D01*
X158262194Y-107397365D02*
X158357432Y-107349746D01*
X158357432Y-107349746D02*
X158500289Y-107349746D01*
X158500289Y-107349746D02*
X158595527Y-107397365D01*
X158595527Y-107397365D02*
X158643146Y-107444984D01*
X158643146Y-107444984D02*
X158690765Y-107540222D01*
X158690765Y-107540222D02*
X158690765Y-107921174D01*
X158166956Y-107016412D02*
X158166956Y-106349746D01*
X158166956Y-106349746D02*
X159166956Y-106778317D01*
X158500289Y-105540222D02*
X159166956Y-105540222D01*
X158119337Y-105778317D02*
X158833622Y-106016412D01*
X158833622Y-106016412D02*
X158833622Y-105397365D01*
X99972613Y-82583609D02*
X99972613Y-83297894D01*
X99972613Y-83297894D02*
X99924994Y-83440751D01*
X99924994Y-83440751D02*
X99829756Y-83535990D01*
X99829756Y-83535990D02*
X99686899Y-83583609D01*
X99686899Y-83583609D02*
X99591661Y-83583609D01*
X100924994Y-82583609D02*
X100448804Y-82583609D01*
X100448804Y-82583609D02*
X100401185Y-83059799D01*
X100401185Y-83059799D02*
X100448804Y-83012180D01*
X100448804Y-83012180D02*
X100544042Y-82964561D01*
X100544042Y-82964561D02*
X100782137Y-82964561D01*
X100782137Y-82964561D02*
X100877375Y-83012180D01*
X100877375Y-83012180D02*
X100924994Y-83059799D01*
X100924994Y-83059799D02*
X100972613Y-83155037D01*
X100972613Y-83155037D02*
X100972613Y-83393132D01*
X100972613Y-83393132D02*
X100924994Y-83488370D01*
X100924994Y-83488370D02*
X100877375Y-83535990D01*
X100877375Y-83535990D02*
X100782137Y-83583609D01*
X100782137Y-83583609D02*
X100544042Y-83583609D01*
X100544042Y-83583609D02*
X100448804Y-83535990D01*
X100448804Y-83535990D02*
X100401185Y-83488370D01*
X101448804Y-83583609D02*
X101639280Y-83583609D01*
X101639280Y-83583609D02*
X101734518Y-83535990D01*
X101734518Y-83535990D02*
X101782137Y-83488370D01*
X101782137Y-83488370D02*
X101877375Y-83345513D01*
X101877375Y-83345513D02*
X101924994Y-83155037D01*
X101924994Y-83155037D02*
X101924994Y-82774085D01*
X101924994Y-82774085D02*
X101877375Y-82678847D01*
X101877375Y-82678847D02*
X101829756Y-82631228D01*
X101829756Y-82631228D02*
X101734518Y-82583609D01*
X101734518Y-82583609D02*
X101544042Y-82583609D01*
X101544042Y-82583609D02*
X101448804Y-82631228D01*
X101448804Y-82631228D02*
X101401185Y-82678847D01*
X101401185Y-82678847D02*
X101353566Y-82774085D01*
X101353566Y-82774085D02*
X101353566Y-83012180D01*
X101353566Y-83012180D02*
X101401185Y-83107418D01*
X101401185Y-83107418D02*
X101448804Y-83155037D01*
X101448804Y-83155037D02*
X101544042Y-83202656D01*
X101544042Y-83202656D02*
X101734518Y-83202656D01*
X101734518Y-83202656D02*
X101829756Y-83155037D01*
X101829756Y-83155037D02*
X101877375Y-83107418D01*
X101877375Y-83107418D02*
X101924994Y-83012180D01*
X103997732Y-126796708D02*
X103997732Y-127606231D01*
X103997732Y-127606231D02*
X104045351Y-127701469D01*
X104045351Y-127701469D02*
X104092970Y-127749089D01*
X104092970Y-127749089D02*
X104188208Y-127796708D01*
X104188208Y-127796708D02*
X104378684Y-127796708D01*
X104378684Y-127796708D02*
X104473922Y-127749089D01*
X104473922Y-127749089D02*
X104521541Y-127701469D01*
X104521541Y-127701469D02*
X104569160Y-127606231D01*
X104569160Y-127606231D02*
X104569160Y-126796708D01*
X105473922Y-126796708D02*
X105283446Y-126796708D01*
X105283446Y-126796708D02*
X105188208Y-126844327D01*
X105188208Y-126844327D02*
X105140589Y-126891946D01*
X105140589Y-126891946D02*
X105045351Y-127034803D01*
X105045351Y-127034803D02*
X104997732Y-127225279D01*
X104997732Y-127225279D02*
X104997732Y-127606231D01*
X104997732Y-127606231D02*
X105045351Y-127701469D01*
X105045351Y-127701469D02*
X105092970Y-127749089D01*
X105092970Y-127749089D02*
X105188208Y-127796708D01*
X105188208Y-127796708D02*
X105378684Y-127796708D01*
X105378684Y-127796708D02*
X105473922Y-127749089D01*
X105473922Y-127749089D02*
X105521541Y-127701469D01*
X105521541Y-127701469D02*
X105569160Y-127606231D01*
X105569160Y-127606231D02*
X105569160Y-127368136D01*
X105569160Y-127368136D02*
X105521541Y-127272898D01*
X105521541Y-127272898D02*
X105473922Y-127225279D01*
X105473922Y-127225279D02*
X105378684Y-127177660D01*
X105378684Y-127177660D02*
X105188208Y-127177660D01*
X105188208Y-127177660D02*
X105092970Y-127225279D01*
X105092970Y-127225279D02*
X105045351Y-127272898D01*
X105045351Y-127272898D02*
X104997732Y-127368136D01*
X128884593Y-89291028D02*
X128305533Y-89341608D01*
X128598878Y-89785899D02*
X127732853Y-89285899D01*
X127732853Y-89285899D02*
X127923329Y-88955985D01*
X127923329Y-88955985D02*
X128012188Y-88897316D01*
X128012188Y-88897316D02*
X128077236Y-88879886D01*
X128077236Y-88879886D02*
X128183525Y-88886266D01*
X128183525Y-88886266D02*
X128307242Y-88957694D01*
X128307242Y-88957694D02*
X128365912Y-89046553D01*
X128365912Y-89046553D02*
X128383341Y-89111602D01*
X128383341Y-89111602D02*
X128376962Y-89217890D01*
X128376962Y-89217890D02*
X128186485Y-89547804D01*
X128447139Y-88048720D02*
X128351901Y-88213677D01*
X128351901Y-88213677D02*
X128345521Y-88319966D01*
X128345521Y-88319966D02*
X128362951Y-88385014D01*
X128362951Y-88385014D02*
X128439050Y-88538922D01*
X128439050Y-88538922D02*
X128580197Y-88675399D01*
X128580197Y-88675399D02*
X128910112Y-88865875D01*
X128910112Y-88865875D02*
X129016400Y-88872255D01*
X129016400Y-88872255D02*
X129081449Y-88854825D01*
X129081449Y-88854825D02*
X129170307Y-88796156D01*
X129170307Y-88796156D02*
X129265545Y-88631199D01*
X129265545Y-88631199D02*
X129271925Y-88524911D01*
X129271925Y-88524911D02*
X129254495Y-88459862D01*
X129254495Y-88459862D02*
X129195826Y-88371003D01*
X129195826Y-88371003D02*
X128989629Y-88251956D01*
X128989629Y-88251956D02*
X128883341Y-88245576D01*
X128883341Y-88245576D02*
X128818293Y-88263006D01*
X128818293Y-88263006D02*
X128729434Y-88321675D01*
X128729434Y-88321675D02*
X128634196Y-88486632D01*
X128634196Y-88486632D02*
X128627816Y-88592920D01*
X128627816Y-88592920D02*
X128645246Y-88657969D01*
X128645246Y-88657969D02*
X128703915Y-88746828D01*
X129836974Y-87641455D02*
X129551259Y-88136327D01*
X129694117Y-87888891D02*
X128828091Y-87388891D01*
X128828091Y-87388891D02*
X128904190Y-87542798D01*
X128904190Y-87542798D02*
X128939050Y-87672896D01*
X128939050Y-87672896D02*
X128932670Y-87779184D01*
X157463141Y-118317708D02*
X157129808Y-117841517D01*
X156891713Y-118317708D02*
X156891713Y-117317708D01*
X156891713Y-117317708D02*
X157272665Y-117317708D01*
X157272665Y-117317708D02*
X157367903Y-117365327D01*
X157367903Y-117365327D02*
X157415522Y-117412946D01*
X157415522Y-117412946D02*
X157463141Y-117508184D01*
X157463141Y-117508184D02*
X157463141Y-117651041D01*
X157463141Y-117651041D02*
X157415522Y-117746279D01*
X157415522Y-117746279D02*
X157367903Y-117793898D01*
X157367903Y-117793898D02*
X157272665Y-117841517D01*
X157272665Y-117841517D02*
X156891713Y-117841517D01*
X158367903Y-117317708D02*
X157891713Y-117317708D01*
X157891713Y-117317708D02*
X157844094Y-117793898D01*
X157844094Y-117793898D02*
X157891713Y-117746279D01*
X157891713Y-117746279D02*
X157986951Y-117698660D01*
X157986951Y-117698660D02*
X158225046Y-117698660D01*
X158225046Y-117698660D02*
X158320284Y-117746279D01*
X158320284Y-117746279D02*
X158367903Y-117793898D01*
X158367903Y-117793898D02*
X158415522Y-117889136D01*
X158415522Y-117889136D02*
X158415522Y-118127231D01*
X158415522Y-118127231D02*
X158367903Y-118222469D01*
X158367903Y-118222469D02*
X158320284Y-118270089D01*
X158320284Y-118270089D02*
X158225046Y-118317708D01*
X158225046Y-118317708D02*
X157986951Y-118317708D01*
X157986951Y-118317708D02*
X157891713Y-118270089D01*
X157891713Y-118270089D02*
X157844094Y-118222469D01*
X159320284Y-117317708D02*
X158844094Y-117317708D01*
X158844094Y-117317708D02*
X158796475Y-117793898D01*
X158796475Y-117793898D02*
X158844094Y-117746279D01*
X158844094Y-117746279D02*
X158939332Y-117698660D01*
X158939332Y-117698660D02*
X159177427Y-117698660D01*
X159177427Y-117698660D02*
X159272665Y-117746279D01*
X159272665Y-117746279D02*
X159320284Y-117793898D01*
X159320284Y-117793898D02*
X159367903Y-117889136D01*
X159367903Y-117889136D02*
X159367903Y-118127231D01*
X159367903Y-118127231D02*
X159320284Y-118222469D01*
X159320284Y-118222469D02*
X159272665Y-118270089D01*
X159272665Y-118270089D02*
X159177427Y-118317708D01*
X159177427Y-118317708D02*
X158939332Y-118317708D01*
X158939332Y-118317708D02*
X158844094Y-118270089D01*
X158844094Y-118270089D02*
X158796475Y-118222469D01*
X173860507Y-58082693D02*
X174217650Y-58701282D01*
X174217650Y-58701282D02*
X174247839Y-58848810D01*
X174247839Y-58848810D02*
X174212980Y-58978907D01*
X174212980Y-58978907D02*
X174113071Y-59091575D01*
X174113071Y-59091575D02*
X174030593Y-59139194D01*
X174190422Y-57892216D02*
X174726533Y-57582693D01*
X174726533Y-57582693D02*
X174628334Y-58079274D01*
X174628334Y-58079274D02*
X174752052Y-58007845D01*
X174752052Y-58007845D02*
X174858340Y-58001465D01*
X174858340Y-58001465D02*
X174923389Y-58018895D01*
X174923389Y-58018895D02*
X175012247Y-58077564D01*
X175012247Y-58077564D02*
X175131295Y-58283761D01*
X175131295Y-58283761D02*
X175137674Y-58390049D01*
X175137674Y-58390049D02*
X175120245Y-58455098D01*
X175120245Y-58455098D02*
X175061576Y-58543956D01*
X175061576Y-58543956D02*
X174814140Y-58686813D01*
X174814140Y-58686813D02*
X174707852Y-58693193D01*
X174707852Y-58693193D02*
X174642803Y-58675763D01*
X175015208Y-57416026D02*
X175551319Y-57106502D01*
X175551319Y-57106502D02*
X175453120Y-57603083D01*
X175453120Y-57603083D02*
X175576838Y-57531655D01*
X175576838Y-57531655D02*
X175683126Y-57525275D01*
X175683126Y-57525275D02*
X175748175Y-57542705D01*
X175748175Y-57542705D02*
X175837033Y-57601374D01*
X175837033Y-57601374D02*
X175956081Y-57807570D01*
X175956081Y-57807570D02*
X175962461Y-57913858D01*
X175962461Y-57913858D02*
X175945031Y-57978907D01*
X175945031Y-57978907D02*
X175886362Y-58067766D01*
X175886362Y-58067766D02*
X175638926Y-58210623D01*
X175638926Y-58210623D02*
X175532638Y-58217002D01*
X175532638Y-58217002D02*
X175467589Y-58199573D01*
X152744832Y-100395844D02*
X152411499Y-99919653D01*
X152173404Y-100395844D02*
X152173404Y-99395844D01*
X152173404Y-99395844D02*
X152554356Y-99395844D01*
X152554356Y-99395844D02*
X152649594Y-99443463D01*
X152649594Y-99443463D02*
X152697213Y-99491082D01*
X152697213Y-99491082D02*
X152744832Y-99586320D01*
X152744832Y-99586320D02*
X152744832Y-99729177D01*
X152744832Y-99729177D02*
X152697213Y-99824415D01*
X152697213Y-99824415D02*
X152649594Y-99872034D01*
X152649594Y-99872034D02*
X152554356Y-99919653D01*
X152554356Y-99919653D02*
X152173404Y-99919653D01*
X153221023Y-100395844D02*
X153411499Y-100395844D01*
X153411499Y-100395844D02*
X153506737Y-100348225D01*
X153506737Y-100348225D02*
X153554356Y-100300605D01*
X153554356Y-100300605D02*
X153649594Y-100157748D01*
X153649594Y-100157748D02*
X153697213Y-99967272D01*
X153697213Y-99967272D02*
X153697213Y-99586320D01*
X153697213Y-99586320D02*
X153649594Y-99491082D01*
X153649594Y-99491082D02*
X153601975Y-99443463D01*
X153601975Y-99443463D02*
X153506737Y-99395844D01*
X153506737Y-99395844D02*
X153316261Y-99395844D01*
X153316261Y-99395844D02*
X153221023Y-99443463D01*
X153221023Y-99443463D02*
X153173404Y-99491082D01*
X153173404Y-99491082D02*
X153125785Y-99586320D01*
X153125785Y-99586320D02*
X153125785Y-99824415D01*
X153125785Y-99824415D02*
X153173404Y-99919653D01*
X153173404Y-99919653D02*
X153221023Y-99967272D01*
X153221023Y-99967272D02*
X153316261Y-100014891D01*
X153316261Y-100014891D02*
X153506737Y-100014891D01*
X153506737Y-100014891D02*
X153601975Y-99967272D01*
X153601975Y-99967272D02*
X153649594Y-99919653D01*
X153649594Y-99919653D02*
X153697213Y-99824415D01*
X142660752Y-109190809D02*
X142133982Y-108945083D01*
X142165881Y-109476523D02*
X141665881Y-108610498D01*
X141665881Y-108610498D02*
X141995795Y-108420022D01*
X141995795Y-108420022D02*
X142102083Y-108413642D01*
X142102083Y-108413642D02*
X142167132Y-108431072D01*
X142167132Y-108431072D02*
X142255990Y-108489741D01*
X142255990Y-108489741D02*
X142327419Y-108613459D01*
X142327419Y-108613459D02*
X142333799Y-108719747D01*
X142333799Y-108719747D02*
X142316369Y-108784796D01*
X142316369Y-108784796D02*
X142257700Y-108873654D01*
X142257700Y-108873654D02*
X141927785Y-109064130D01*
X142903060Y-107896212D02*
X142738103Y-107991450D01*
X142738103Y-107991450D02*
X142679434Y-108080309D01*
X142679434Y-108080309D02*
X142662004Y-108145357D01*
X142662004Y-108145357D02*
X142650954Y-108316694D01*
X142650954Y-108316694D02*
X142704953Y-108505461D01*
X142704953Y-108505461D02*
X142895429Y-108835376D01*
X142895429Y-108835376D02*
X142984287Y-108894045D01*
X142984287Y-108894045D02*
X143049336Y-108911474D01*
X143049336Y-108911474D02*
X143155624Y-108905095D01*
X143155624Y-108905095D02*
X143320581Y-108809857D01*
X143320581Y-108809857D02*
X143379250Y-108720998D01*
X143379250Y-108720998D02*
X143396680Y-108655949D01*
X143396680Y-108655949D02*
X143390300Y-108549661D01*
X143390300Y-108549661D02*
X143271253Y-108343465D01*
X143271253Y-108343465D02*
X143182394Y-108284796D01*
X143182394Y-108284796D02*
X143117346Y-108267366D01*
X143117346Y-108267366D02*
X143011057Y-108273746D01*
X143011057Y-108273746D02*
X142846100Y-108368984D01*
X142846100Y-108368984D02*
X142787431Y-108457842D01*
X142787431Y-108457842D02*
X142770001Y-108522891D01*
X142770001Y-108522891D02*
X142776381Y-108629179D01*
X143727846Y-107420022D02*
X143562889Y-107515260D01*
X143562889Y-107515260D02*
X143504220Y-107604118D01*
X143504220Y-107604118D02*
X143486790Y-107669167D01*
X143486790Y-107669167D02*
X143475740Y-107840504D01*
X143475740Y-107840504D02*
X143529739Y-108029271D01*
X143529739Y-108029271D02*
X143720215Y-108359185D01*
X143720215Y-108359185D02*
X143809073Y-108417854D01*
X143809073Y-108417854D02*
X143874122Y-108435284D01*
X143874122Y-108435284D02*
X143980410Y-108428904D01*
X143980410Y-108428904D02*
X144145367Y-108333666D01*
X144145367Y-108333666D02*
X144204036Y-108244808D01*
X144204036Y-108244808D02*
X144221466Y-108179759D01*
X144221466Y-108179759D02*
X144215087Y-108073471D01*
X144215087Y-108073471D02*
X144096039Y-107867274D01*
X144096039Y-107867274D02*
X144007181Y-107808605D01*
X144007181Y-107808605D02*
X143942132Y-107791175D01*
X143942132Y-107791175D02*
X143835844Y-107797555D01*
X143835844Y-107797555D02*
X143670886Y-107892793D01*
X143670886Y-107892793D02*
X143612217Y-107981652D01*
X143612217Y-107981652D02*
X143594787Y-108046700D01*
X143594787Y-108046700D02*
X143601167Y-108152989D01*
D15*
%TO.C,J11*%
X171710066Y-96184414D02*
X169115066Y-100679086D01*
X170644836Y-92509447D02*
X171839951Y-93199447D01*
X169954836Y-93704562D02*
X170644836Y-92509447D01*
X169319836Y-94804414D02*
X171710066Y-96184414D01*
X169319836Y-94804414D02*
X166724836Y-99299086D01*
X166724836Y-99299086D02*
X169115066Y-100679086D01*
%TO.C,J39*%
X123379637Y-114026889D02*
X123379637Y-115446889D01*
X123379637Y-115446889D02*
X127879637Y-115446889D01*
X123379637Y-130226889D02*
X127879637Y-130226889D01*
X123379637Y-131646889D02*
X123379637Y-130226889D01*
X123689637Y-128786889D02*
X124289637Y-129086889D01*
X123689637Y-129386889D02*
X123689637Y-128786889D01*
X124289637Y-129086889D02*
X123689637Y-129386889D01*
X127879637Y-115446889D02*
X127879637Y-122836889D01*
X127879637Y-130226889D02*
X127879637Y-122836889D01*
X128989637Y-116336889D02*
X128989637Y-116836889D01*
X128989637Y-116836889D02*
X134489637Y-116836889D01*
X128989637Y-118836889D02*
X128989637Y-119336889D01*
X128989637Y-119336889D02*
X134489637Y-119336889D01*
X128989637Y-121336889D02*
X128989637Y-121836889D01*
X128989637Y-121836889D02*
X134489637Y-121836889D01*
X128989637Y-123836889D02*
X128989637Y-124336889D01*
X128989637Y-124336889D02*
X134489637Y-124336889D01*
X128989637Y-126336889D02*
X128989637Y-126836889D01*
X128989637Y-126836889D02*
X134489637Y-126836889D01*
X128989637Y-128836889D02*
X128989637Y-129336889D01*
X128989637Y-129336889D02*
X134489637Y-129336889D01*
X134489637Y-116336889D02*
X128989637Y-116336889D01*
X134489637Y-116836889D02*
X134489637Y-116336889D01*
X134489637Y-118836889D02*
X128989637Y-118836889D01*
X134489637Y-119336889D02*
X134489637Y-118836889D01*
X134489637Y-121336889D02*
X128989637Y-121336889D01*
X134489637Y-121836889D02*
X134489637Y-121336889D01*
X134489637Y-123836889D02*
X128989637Y-123836889D01*
X134489637Y-124336889D02*
X134489637Y-123836889D01*
X134489637Y-126336889D02*
X128989637Y-126336889D01*
X134489637Y-126836889D02*
X134489637Y-126336889D01*
X134489637Y-128836889D02*
X128989637Y-128836889D01*
X134489637Y-129336889D02*
X134489637Y-128836889D01*
X135099637Y-114026889D02*
X123379637Y-114026889D01*
X135099637Y-122836889D02*
X135099637Y-114026889D01*
X135099637Y-122836889D02*
X135099637Y-131646889D01*
X135099637Y-131646889D02*
X123379637Y-131646889D01*
%TO.C,R60*%
X123252364Y-76210653D02*
X122997640Y-76651847D01*
X124157360Y-76733153D02*
X123902636Y-77174347D01*
%TO.C,J13*%
X99969637Y-108946889D02*
X111689637Y-108946889D01*
X99969637Y-112756889D02*
X99969637Y-108946889D01*
X99969637Y-112756889D02*
X99969637Y-116566889D01*
X99969637Y-116566889D02*
X111689637Y-116566889D01*
X100579637Y-111256889D02*
X100579637Y-111756889D01*
X100579637Y-111756889D02*
X106079637Y-111756889D01*
X100579637Y-113756889D02*
X100579637Y-114256889D01*
X100579637Y-114256889D02*
X106079637Y-114256889D01*
X106079637Y-111256889D02*
X100579637Y-111256889D01*
X106079637Y-111756889D02*
X106079637Y-111256889D01*
X106079637Y-113756889D02*
X100579637Y-113756889D01*
X106079637Y-114256889D02*
X106079637Y-113756889D01*
X107189637Y-110366889D02*
X107189637Y-112756889D01*
X107189637Y-115146889D02*
X107189637Y-112756889D01*
X110779637Y-111506889D02*
X111379637Y-111206889D01*
X111379637Y-111206889D02*
X111379637Y-111806889D01*
X111379637Y-111806889D02*
X110779637Y-111506889D01*
X111689637Y-108946889D02*
X111689637Y-110366889D01*
X111689637Y-110366889D02*
X107189637Y-110366889D01*
X111689637Y-115146889D02*
X107189637Y-115146889D01*
X111689637Y-116566889D02*
X111689637Y-115146889D01*
%TO.C,R71*%
X147796223Y-115453525D02*
X147286775Y-115453525D01*
X147796223Y-116498525D02*
X147286775Y-116498525D01*
%TO.C,R34*%
X184775100Y-77457124D02*
X184775100Y-76947676D01*
X185820100Y-77457124D02*
X185820100Y-76947676D01*
%TO.C,U23*%
X134170000Y-77902500D02*
X134170000Y-78142500D01*
X134170000Y-80722500D02*
X134170000Y-80482500D01*
X136555000Y-77902500D02*
X134170000Y-77902500D01*
X136555000Y-77902500D02*
X138940000Y-77902500D01*
X136555000Y-80722500D02*
X134170000Y-80722500D01*
X136555000Y-80722500D02*
X138940000Y-80722500D01*
X138940000Y-77902500D02*
X138940000Y-78142500D01*
X138940000Y-80722500D02*
X138940000Y-80482500D01*
X139957500Y-80812500D02*
X139477500Y-80812500D01*
X139717500Y-80482500D01*
X139957500Y-80812500D01*
G36*
X139957500Y-80812500D02*
G01*
X139477500Y-80812500D01*
X139717500Y-80482500D01*
X139957500Y-80812500D01*
G37*
%TO.C,D8*%
X143440000Y-62436000D02*
X143440000Y-64896000D01*
X144910000Y-62436000D02*
X143440000Y-62436000D01*
X144910000Y-64896000D02*
X144910000Y-62436000D01*
%TO.C,J9*%
X130352101Y-94137910D02*
X135548254Y-91137910D01*
X130782101Y-94882692D02*
X130352101Y-94137910D01*
X131622101Y-96337615D02*
X136818254Y-93337615D01*
X132052101Y-97082396D02*
X131622101Y-96337615D01*
X135073254Y-90315186D02*
X138993254Y-97104825D01*
X135978254Y-91882692D02*
X130782101Y-94882692D01*
X137248254Y-94082396D02*
X132052101Y-97082396D01*
X137463484Y-88935186D02*
X135073254Y-90315186D01*
X138209240Y-89601589D02*
X137938484Y-89757910D01*
X138639240Y-90346371D02*
X138368484Y-90502692D01*
X138788484Y-91230153D02*
X136398254Y-92610153D01*
X138993254Y-97104825D02*
X141383484Y-95724825D01*
X139479240Y-91801294D02*
X139208484Y-91957615D01*
X139909240Y-92546075D02*
X139638484Y-92702396D01*
X140058484Y-93429858D02*
X137668254Y-94809858D01*
X140677670Y-94042319D02*
X140478484Y-94157319D01*
X141107670Y-94787101D02*
X140908484Y-94902101D01*
X141383484Y-95724825D02*
X137463484Y-88935186D01*
X142997111Y-93199710D02*
X143632111Y-94299562D01*
X143632111Y-94299562D02*
X142532259Y-94934562D01*
X138518254Y-96282101D02*
X133322101Y-99282101D01*
X132892101Y-98537319D01*
X138088254Y-95537319D01*
X138518254Y-96282101D01*
G36*
X138518254Y-96282101D02*
G01*
X133322101Y-99282101D01*
X132892101Y-98537319D01*
X138088254Y-95537319D01*
X138518254Y-96282101D01*
G37*
%TO.C,R62*%
X142382500Y-79567224D02*
X142382500Y-79057776D01*
X143427500Y-79567224D02*
X143427500Y-79057776D01*
%TO.C,J46*%
X176037137Y-52354989D02*
X176037137Y-53604989D01*
X176037137Y-53604989D02*
X177287137Y-53604989D01*
X176327137Y-43194989D02*
X176327137Y-53314989D01*
X176327137Y-53314989D02*
X182297137Y-53314989D01*
X176337137Y-43204989D02*
X176337137Y-45004989D01*
X176337137Y-45004989D02*
X177087137Y-45004989D01*
X176337137Y-46504989D02*
X176337137Y-50004989D01*
X176337137Y-50004989D02*
X177087137Y-50004989D01*
X176337137Y-51504989D02*
X176337137Y-53304989D01*
X176337137Y-53304989D02*
X177087137Y-53304989D01*
X177087137Y-43204989D02*
X176337137Y-43204989D01*
X177087137Y-45004989D02*
X177087137Y-43204989D01*
X177087137Y-46504989D02*
X176337137Y-46504989D01*
X177087137Y-50004989D02*
X177087137Y-46504989D01*
X177087137Y-51504989D02*
X176337137Y-51504989D01*
X177087137Y-53304989D02*
X177087137Y-51504989D01*
X178587137Y-43204989D02*
X178587137Y-43954989D01*
X178587137Y-43954989D02*
X181537137Y-43954989D01*
X178587137Y-52554989D02*
X181537137Y-52554989D01*
X178587137Y-53304989D02*
X178587137Y-52554989D01*
X181537137Y-43954989D02*
X181537137Y-48254989D01*
X181537137Y-52554989D02*
X181537137Y-48254989D01*
X182297137Y-43194989D02*
X176327137Y-43194989D01*
X182297137Y-53314989D02*
X182297137Y-43194989D01*
%TO.C,J10*%
X133960000Y-73880000D02*
X133960000Y-82000000D01*
X133960000Y-82000000D02*
X135760000Y-82000000D01*
X133960000Y-86480000D02*
X133960000Y-94600000D01*
X133960000Y-94600000D02*
X135760000Y-94600000D01*
X135060000Y-113830000D02*
X135060000Y-125250000D01*
X135060000Y-125250000D02*
X135760000Y-125250000D01*
X135760000Y-69940000D02*
X135760000Y-73880000D01*
X135760000Y-73880000D02*
X133960000Y-73880000D01*
X135760000Y-82000000D02*
X135760000Y-86480000D01*
X135760000Y-86480000D02*
X133960000Y-86480000D01*
X135760000Y-94600000D02*
X135760000Y-113830000D01*
X135760000Y-113830000D02*
X135060000Y-113830000D01*
X135760000Y-125250000D02*
X135760000Y-128940000D01*
X142260000Y-65680000D02*
X142260000Y-66880000D01*
X142260000Y-66880000D02*
X138820000Y-66880000D01*
X159380000Y-65680000D02*
X142260000Y-65680000D01*
X159380000Y-66880000D02*
X159380000Y-65680000D01*
X159380000Y-66880000D02*
X162820000Y-66880000D01*
X159720000Y-122300000D02*
X159720000Y-73980000D01*
X159720000Y-124900000D02*
X159720000Y-123570000D01*
X161050000Y-124900000D02*
X159720000Y-124900000D01*
X162320000Y-122300000D02*
X159720000Y-122300000D01*
X162320000Y-124900000D02*
X162320000Y-122300000D01*
X162820000Y-132000000D02*
X138820000Y-132000000D01*
X164920000Y-73980000D02*
X159720000Y-73980000D01*
X164920000Y-124900000D02*
X162320000Y-124900000D01*
X164920000Y-124900000D02*
X164920000Y-73980000D01*
X165880000Y-69940000D02*
X165880000Y-128940000D01*
X135760000Y-69940000D02*
G75*
G02*
X138820000Y-66880000I3060000J0D01*
G01*
X138820000Y-132000000D02*
G75*
G02*
X135760000Y-128940000I0J3060000D01*
G01*
X162820000Y-66880000D02*
G75*
G02*
X165880000Y-69940000I1J-3059999D01*
G01*
X165880000Y-128940000D02*
G75*
G02*
X162820000Y-132000000I-3059999J-1D01*
G01*
%TO.C,J22*%
X99969637Y-129266889D02*
X111689637Y-129266889D01*
X99969637Y-133076889D02*
X99969637Y-129266889D01*
X99969637Y-133076889D02*
X99969637Y-136886889D01*
X99969637Y-136886889D02*
X111689637Y-136886889D01*
X100579637Y-131576889D02*
X100579637Y-132076889D01*
X100579637Y-132076889D02*
X106079637Y-132076889D01*
X100579637Y-134076889D02*
X100579637Y-134576889D01*
X100579637Y-134576889D02*
X106079637Y-134576889D01*
X106079637Y-131576889D02*
X100579637Y-131576889D01*
X106079637Y-132076889D02*
X106079637Y-131576889D01*
X106079637Y-134076889D02*
X100579637Y-134076889D01*
X106079637Y-134576889D02*
X106079637Y-134076889D01*
X107189637Y-130686889D02*
X107189637Y-133076889D01*
X107189637Y-135466889D02*
X107189637Y-133076889D01*
X110779637Y-131826889D02*
X111379637Y-131526889D01*
X111379637Y-131526889D02*
X111379637Y-132126889D01*
X111379637Y-132126889D02*
X110779637Y-131826889D01*
X111689637Y-129266889D02*
X111689637Y-130686889D01*
X111689637Y-130686889D02*
X107189637Y-130686889D01*
X111689637Y-135466889D02*
X107189637Y-135466889D01*
X111689637Y-136886889D02*
X111689637Y-135466889D01*
%TO.C,U25*%
X170925000Y-80085000D02*
X170925000Y-80325000D01*
X170925000Y-82905000D02*
X170925000Y-82665000D01*
X173310000Y-80085000D02*
X170925000Y-80085000D01*
X173310000Y-80085000D02*
X175695000Y-80085000D01*
X173310000Y-82905000D02*
X170925000Y-82905000D01*
X173310000Y-82905000D02*
X175695000Y-82905000D01*
X175695000Y-80085000D02*
X175695000Y-80325000D01*
X175695000Y-82905000D02*
X175695000Y-82665000D01*
X176712500Y-82995000D02*
X176232500Y-82995000D01*
X176472500Y-82665000D01*
X176712500Y-82995000D01*
G36*
X176712500Y-82995000D02*
G01*
X176232500Y-82995000D01*
X176472500Y-82665000D01*
X176712500Y-82995000D01*
G37*
%TO.C,R15*%
X110587137Y-126452165D02*
X110587137Y-126961613D01*
X111632137Y-126452165D02*
X111632137Y-126961613D01*
%TO.C,R63*%
X141737776Y-74980000D02*
X142247224Y-74980000D01*
X141737776Y-76025000D02*
X142247224Y-76025000D01*
%TO.C,D7*%
X156093206Y-63384056D02*
X156093206Y-63534056D01*
X156093206Y-64834056D02*
X156093206Y-64984056D01*
X158293206Y-63384056D02*
X156093206Y-63384056D01*
X158293206Y-64984056D02*
X156093206Y-64984056D01*
%TO.C,C8*%
X102218385Y-117414889D02*
X103640889Y-117414889D01*
X102218385Y-119234889D02*
X103640889Y-119234889D01*
%TO.C,R64*%
X132222500Y-83145276D02*
X132222500Y-83654724D01*
X133267500Y-83145276D02*
X133267500Y-83654724D01*
D14*
%TO.C,U2*%
X149863999Y-103121025D02*
X149863999Y-103221025D01*
X149863999Y-103221025D02*
X148963999Y-103221025D01*
X149863999Y-112821025D02*
X149863999Y-112421025D01*
X150263999Y-102721025D02*
X149863999Y-103121025D01*
X150263999Y-112821025D02*
X149863999Y-112821025D01*
X150663999Y-102721025D02*
X150263999Y-102721025D01*
X154663999Y-102621025D02*
X154163999Y-102621025D01*
X154663999Y-103121025D02*
X154663999Y-102621025D01*
X154663999Y-112321025D02*
X154663999Y-112821025D01*
X154663999Y-112821025D02*
X154163999Y-112821025D01*
D15*
%TO.C,R20*%
X110587137Y-122642165D02*
X110587137Y-123151613D01*
X111632137Y-122642165D02*
X111632137Y-123151613D01*
%TO.C,R47*%
X140358723Y-115648525D02*
X139849275Y-115648525D01*
X140358723Y-116693525D02*
X139849275Y-116693525D01*
%TO.C,J15*%
X113109637Y-124296889D02*
X114529637Y-124296889D01*
X113109637Y-136016889D02*
X113109637Y-124296889D01*
X114529637Y-124296889D02*
X114529637Y-128796889D01*
X114529637Y-128796889D02*
X116919637Y-128796889D01*
X115369637Y-124606889D02*
X115969637Y-124606889D01*
X115419637Y-129906889D02*
X115419637Y-135406889D01*
X115419637Y-135406889D02*
X115919637Y-135406889D01*
X115669637Y-125206889D02*
X115369637Y-124606889D01*
X115919637Y-129906889D02*
X115419637Y-129906889D01*
X115919637Y-135406889D02*
X115919637Y-129906889D01*
X115969637Y-124606889D02*
X115669637Y-125206889D01*
X116919637Y-136016889D02*
X113109637Y-136016889D01*
X116919637Y-136016889D02*
X120729637Y-136016889D01*
X117919637Y-129906889D02*
X117919637Y-135406889D01*
X117919637Y-135406889D02*
X118419637Y-135406889D01*
X118419637Y-129906889D02*
X117919637Y-129906889D01*
X118419637Y-135406889D02*
X118419637Y-129906889D01*
X119309637Y-124296889D02*
X119309637Y-128796889D01*
X119309637Y-128796889D02*
X116919637Y-128796889D01*
X120729637Y-124296889D02*
X119309637Y-124296889D01*
X120729637Y-136016889D02*
X120729637Y-124296889D01*
%TO.C,R51*%
X147286775Y-117358525D02*
X147796223Y-117358525D01*
X147286775Y-118403525D02*
X147796223Y-118403525D01*
%TO.C,R57*%
X152244913Y-97274389D02*
X152754361Y-97274389D01*
X152244913Y-98319389D02*
X152754361Y-98319389D01*
%TO.C,R56*%
X155566723Y-113802525D02*
X155057275Y-113802525D01*
X155566723Y-114847525D02*
X155057275Y-114847525D01*
%TO.C,Q8*%
X180080000Y-76717500D02*
X180080000Y-76067500D01*
X180080000Y-76717500D02*
X180080000Y-77367500D01*
X183200000Y-76717500D02*
X183200000Y-76067500D01*
X183200000Y-76717500D02*
X183200000Y-77367500D01*
X180130000Y-77880000D02*
X179800000Y-78120000D01*
X179800000Y-77640000D01*
X180130000Y-77880000D01*
G36*
X180130000Y-77880000D02*
G01*
X179800000Y-78120000D01*
X179800000Y-77640000D01*
X180130000Y-77880000D01*
G37*
%TO.C,R58*%
X148688913Y-97274389D02*
X149198361Y-97274389D01*
X148688913Y-98319389D02*
X149198361Y-98319389D01*
%TO.C,C6*%
X101920870Y-119846889D02*
X102213404Y-119846889D01*
X101920870Y-120866889D02*
X102213404Y-120866889D01*
%TO.C,R73*%
X156779637Y-102979665D02*
X156779637Y-103489113D01*
X157824637Y-102979665D02*
X157824637Y-103489113D01*
%TO.C,R69*%
X179837776Y-82877500D02*
X180347224Y-82877500D01*
X179837776Y-83922500D02*
X180347224Y-83922500D01*
%TO.C,U10*%
X102374637Y-121486889D02*
X102374637Y-121726889D01*
X102374637Y-124306889D02*
X102374637Y-124066889D01*
X104759637Y-121486889D02*
X102374637Y-121486889D01*
X104759637Y-121486889D02*
X107144637Y-121486889D01*
X104759637Y-124306889D02*
X102374637Y-124306889D01*
X104759637Y-124306889D02*
X107144637Y-124306889D01*
X107144637Y-121486889D02*
X107144637Y-121726889D01*
X107144637Y-124306889D02*
X107144637Y-124066889D01*
X108162137Y-124396889D02*
X107682137Y-124396889D01*
X107922137Y-124066889D01*
X108162137Y-124396889D01*
G36*
X108162137Y-124396889D02*
G01*
X107682137Y-124396889D01*
X107922137Y-124066889D01*
X108162137Y-124396889D01*
G37*
D14*
%TO.C,U26*%
X144870000Y-77400000D02*
X144870000Y-78400000D01*
X144870000Y-78400000D02*
X145870000Y-77900000D01*
X145870000Y-77900000D02*
X144870000Y-77400000D01*
X155420000Y-93500000D02*
X146320000Y-93500000D01*
X146320000Y-77300000D01*
X155420000Y-77300000D01*
X155420000Y-93500000D01*
D15*
%TO.C,R65*%
X143671114Y-104230095D02*
X143416390Y-103788901D01*
X144576110Y-103707595D02*
X144321386Y-103266401D01*
%TO.C,U21*%
X122711404Y-82855471D02*
X122919250Y-82975471D01*
X123903904Y-80790000D02*
X122711404Y-82855471D01*
X123903904Y-80790000D02*
X125096404Y-78724529D01*
X125096404Y-78724529D02*
X125304250Y-78844529D01*
X125153596Y-84265471D02*
X124945750Y-84145471D01*
X126346096Y-82200000D02*
X125153596Y-84265471D01*
X126346096Y-82200000D02*
X127538596Y-80134529D01*
X127538596Y-80134529D02*
X127330750Y-80014529D01*
X127885288Y-79714041D02*
X127719500Y-79341195D01*
X128125288Y-79298349D01*
X127885288Y-79714041D01*
G36*
X127885288Y-79714041D02*
G01*
X127719500Y-79341195D01*
X128125288Y-79298349D01*
X127885288Y-79714041D01*
G37*
%TO.C,R59*%
X127704347Y-76359860D02*
X127263153Y-76105136D01*
X128226847Y-75454864D02*
X127785653Y-75200140D01*
%TO.C,R54*%
X140358723Y-113802525D02*
X139849275Y-113802525D01*
X140358723Y-114847525D02*
X139849275Y-114847525D01*
%TO.C,J52*%
X104700251Y-66087216D02*
X109870422Y-69072216D01*
X105738430Y-65809036D02*
X108513430Y-61002595D01*
X107918205Y-67933555D02*
X108293205Y-67284036D01*
X108293205Y-67284036D02*
X105738430Y-65809036D01*
X109217243Y-68683555D02*
X109866762Y-69058555D01*
X109866762Y-69058555D02*
X110766762Y-67499710D01*
X109870422Y-69072216D02*
X116180422Y-58142975D01*
X110117243Y-67124710D02*
X109217243Y-68683555D01*
X110766762Y-67499710D02*
X110117243Y-67124710D01*
X110867243Y-65825671D02*
X111516762Y-66200671D01*
X111010251Y-55157975D02*
X104700251Y-66087216D01*
X111288430Y-56196154D02*
X108513430Y-61002595D01*
X111516762Y-66200671D02*
X114516762Y-61004519D01*
X113843205Y-57671154D02*
X111288430Y-56196154D01*
X113867243Y-60629519D02*
X110867243Y-65825671D01*
X114218205Y-57021635D02*
X113843205Y-57671154D01*
X114516762Y-61004519D02*
X113867243Y-60629519D01*
X114617243Y-59330481D02*
X115266762Y-59705481D01*
X115266762Y-59705481D02*
X116166762Y-58146635D01*
X115517243Y-57771635D02*
X114617243Y-59330481D01*
X115951570Y-59119359D02*
X116576570Y-58036828D01*
X116166762Y-58146635D02*
X115517243Y-57771635D01*
X116180422Y-58142975D02*
X111010251Y-55157975D01*
X116576570Y-58036828D02*
X115494038Y-57411828D01*
%TO.C,R68*%
X174253890Y-87959595D02*
X174508614Y-87518401D01*
X175158886Y-88482095D02*
X175413610Y-88040901D01*
%TO.C,R6*%
X181742776Y-80337500D02*
X182252224Y-80337500D01*
X181742776Y-81382500D02*
X182252224Y-81382500D01*
%TO.C,J54*%
X193182137Y-65565468D02*
X193182137Y-50265468D01*
X193182137Y-68165468D02*
X193182137Y-66835468D01*
X194512137Y-68165468D02*
X193182137Y-68165468D01*
X195842137Y-50265468D02*
X193182137Y-50265468D01*
X195842137Y-65565468D02*
X193182137Y-65565468D01*
X195842137Y-65565468D02*
X195842137Y-50265468D01*
%TO.C,R70*%
X170207905Y-87078886D02*
X170649099Y-87333610D01*
X170730405Y-86173890D02*
X171171599Y-86428614D01*
%TO.C,J44*%
X124075443Y-71024852D02*
X124710443Y-69925000D01*
X125175295Y-71659852D02*
X124075443Y-71024852D01*
X125310180Y-68666225D02*
X132099819Y-72586225D01*
X126017904Y-69340411D02*
X126132904Y-69141225D01*
X126690180Y-66275995D02*
X125310180Y-68666225D01*
X126762686Y-69770411D02*
X126877686Y-69571225D01*
X127605147Y-69991225D02*
X128985147Y-67600995D01*
X128176288Y-70681981D02*
X128332609Y-70411225D01*
X128921069Y-71111981D02*
X129077390Y-70841225D01*
X129712609Y-68020995D02*
X132712609Y-62824842D01*
X129804852Y-71261225D02*
X131184852Y-68870995D01*
X130375992Y-71951981D02*
X130532313Y-71681225D01*
X131120774Y-72381981D02*
X131277095Y-72111225D01*
X131912313Y-69290995D02*
X134912313Y-64094842D01*
X132099819Y-72586225D02*
X133479819Y-70195995D01*
X132712609Y-62824842D02*
X133457390Y-63254842D01*
X133457390Y-63254842D02*
X130457390Y-68450995D01*
X133479819Y-70195995D02*
X126690180Y-66275995D01*
X134912313Y-64094842D02*
X135657095Y-64524842D01*
X135657095Y-64524842D02*
X132657095Y-69720995D01*
X131257686Y-61984842D02*
X128257686Y-67180995D01*
X127512904Y-66750995D01*
X130512904Y-61554842D01*
X131257686Y-61984842D01*
G36*
X131257686Y-61984842D02*
G01*
X128257686Y-67180995D01*
X127512904Y-66750995D01*
X130512904Y-61554842D01*
X131257686Y-61984842D01*
G37*
%TO.C,R72*%
X145730637Y-96678113D02*
X145730637Y-96168665D01*
X146775637Y-96678113D02*
X146775637Y-96168665D01*
%TO.C,R53*%
X147692723Y-113802525D02*
X147183275Y-113802525D01*
X147692723Y-114847525D02*
X147183275Y-114847525D01*
%TO.C,J47*%
X182937137Y-52306889D02*
X182937137Y-53556889D01*
X182937137Y-53556889D02*
X184187137Y-53556889D01*
X183227137Y-43146889D02*
X183227137Y-53266889D01*
X183227137Y-53266889D02*
X189197137Y-53266889D01*
X183237137Y-43156889D02*
X183237137Y-44956889D01*
X183237137Y-44956889D02*
X183987137Y-44956889D01*
X183237137Y-46456889D02*
X183237137Y-49956889D01*
X183237137Y-49956889D02*
X183987137Y-49956889D01*
X183237137Y-51456889D02*
X183237137Y-53256889D01*
X183237137Y-53256889D02*
X183987137Y-53256889D01*
X183987137Y-43156889D02*
X183237137Y-43156889D01*
X183987137Y-44956889D02*
X183987137Y-43156889D01*
X183987137Y-46456889D02*
X183237137Y-46456889D01*
X183987137Y-49956889D02*
X183987137Y-46456889D01*
X183987137Y-51456889D02*
X183237137Y-51456889D01*
X183987137Y-53256889D02*
X183987137Y-51456889D01*
X185487137Y-43156889D02*
X185487137Y-43906889D01*
X185487137Y-43906889D02*
X188437137Y-43906889D01*
X185487137Y-52506889D02*
X188437137Y-52506889D01*
X185487137Y-53256889D02*
X185487137Y-52506889D01*
X188437137Y-43906889D02*
X188437137Y-48206889D01*
X188437137Y-52506889D02*
X188437137Y-48206889D01*
X189197137Y-43146889D02*
X183227137Y-43146889D01*
X189197137Y-53266889D02*
X189197137Y-43146889D01*
%TO.C,R52*%
X139849275Y-117358525D02*
X140358723Y-117358525D01*
X139849275Y-118403525D02*
X140358723Y-118403525D01*
%TO.C,U24*%
X137637446Y-101591478D02*
X137757446Y-101799324D01*
X139047446Y-104033670D02*
X138927446Y-103825824D01*
X139702917Y-100398978D02*
X137637446Y-101591478D01*
X139702917Y-100398978D02*
X141768388Y-99206478D01*
X141112917Y-102841170D02*
X139047446Y-104033670D01*
X141112917Y-102841170D02*
X143178388Y-101648670D01*
X141768388Y-99206478D02*
X141888388Y-99414324D01*
X143178388Y-101648670D02*
X143058388Y-101440824D01*
X144104568Y-101217862D02*
X143688876Y-101457862D01*
X143731722Y-101052074D01*
X144104568Y-101217862D01*
G36*
X144104568Y-101217862D02*
G01*
X143688876Y-101457862D01*
X143731722Y-101052074D01*
X144104568Y-101217862D01*
G37*
%TO.C,R67*%
X139248153Y-105299864D02*
X139689347Y-105045140D01*
X139770653Y-106204860D02*
X140211847Y-105950136D01*
%TO.C,J20*%
X113109637Y-109776889D02*
X113109637Y-121496889D01*
X113109637Y-121496889D02*
X114529637Y-121496889D01*
X114529637Y-116996889D02*
X116919637Y-116996889D01*
X114529637Y-121496889D02*
X114529637Y-116996889D01*
X115419637Y-110386889D02*
X115419637Y-115886889D01*
X115419637Y-115886889D02*
X115919637Y-115886889D01*
X115919637Y-110386889D02*
X115419637Y-110386889D01*
X115919637Y-115886889D02*
X115919637Y-110386889D01*
X116919637Y-109776889D02*
X113109637Y-109776889D01*
X116919637Y-109776889D02*
X120729637Y-109776889D01*
X117869637Y-121186889D02*
X118169637Y-120586889D01*
X117919637Y-110386889D02*
X117919637Y-115886889D01*
X117919637Y-115886889D02*
X118419637Y-115886889D01*
X118169637Y-120586889D02*
X118469637Y-121186889D01*
X118419637Y-110386889D02*
X117919637Y-110386889D01*
X118419637Y-115886889D02*
X118419637Y-110386889D01*
X118469637Y-121186889D02*
X117869637Y-121186889D01*
X119309637Y-116996889D02*
X116919637Y-116996889D01*
X119309637Y-121496889D02*
X119309637Y-116996889D01*
X120729637Y-109776889D02*
X120729637Y-121496889D01*
X120729637Y-121496889D02*
X119309637Y-121496889D01*
%TO.C,J34*%
X111295005Y-80148117D02*
X115798336Y-82748117D01*
X124055004Y-58047148D02*
X111295005Y-80148117D01*
X124055004Y-58047148D02*
X126306670Y-59347148D01*
X125006670Y-61598814D02*
X127258336Y-62898814D01*
X126306670Y-59347148D02*
X125006670Y-61598814D01*
X127258336Y-62898814D02*
X115798336Y-82748117D01*
X127406522Y-59982148D02*
X128558336Y-60647148D01*
X128558336Y-60647148D02*
X127893336Y-61798962D01*
%TO.C,J1*%
X172962137Y-119656889D02*
X172962137Y-132506889D01*
X172962137Y-132506889D02*
X181262137Y-132506889D01*
X175562137Y-116806889D02*
X172962137Y-119656889D01*
X178712137Y-116806889D02*
X175562137Y-116806889D01*
X181262137Y-119656889D02*
X178712137Y-116806889D01*
X181262137Y-132506889D02*
X181262137Y-119656889D01*
%TO.C,R48*%
X155416223Y-115453525D02*
X154906775Y-115453525D01*
X155416223Y-116498525D02*
X154906775Y-116498525D01*
%TO.C,R74*%
X156779637Y-106838113D02*
X156779637Y-106328665D01*
X157824637Y-106838113D02*
X157824637Y-106328665D01*
%TO.C,J59*%
X98182137Y-79088790D02*
X98182137Y-56168790D01*
X98182137Y-81688790D02*
X98182137Y-80358790D01*
X99512137Y-81688790D02*
X98182137Y-81688790D01*
X100782137Y-79088790D02*
X98182137Y-79088790D01*
X100782137Y-81688790D02*
X100782137Y-79088790D01*
X103382137Y-56168790D02*
X98182137Y-56168790D01*
X103382137Y-81688790D02*
X100782137Y-81688790D01*
X103382137Y-81688790D02*
X103382137Y-56168790D01*
%TO.C,U6*%
X102374637Y-125296889D02*
X102374637Y-125536889D01*
X102374637Y-128116889D02*
X102374637Y-127876889D01*
X104759637Y-125296889D02*
X102374637Y-125296889D01*
X104759637Y-125296889D02*
X107144637Y-125296889D01*
X104759637Y-128116889D02*
X102374637Y-128116889D01*
X104759637Y-128116889D02*
X107144637Y-128116889D01*
X107144637Y-125296889D02*
X107144637Y-125536889D01*
X107144637Y-128116889D02*
X107144637Y-127876889D01*
X108162137Y-128206889D02*
X107682137Y-128206889D01*
X107922137Y-127876889D01*
X108162137Y-128206889D01*
G36*
X108162137Y-128206889D02*
G01*
X107682137Y-128206889D01*
X107922137Y-127876889D01*
X108162137Y-128206889D01*
G37*
%TO.C,R61*%
X126548153Y-86900136D02*
X126989347Y-87154860D01*
X127070653Y-85995140D02*
X127511847Y-86249864D01*
%TO.C,R55*%
X154906775Y-117358525D02*
X155416223Y-117358525D01*
X154906775Y-118403525D02*
X155416223Y-118403525D01*
%TO.C,J33*%
X173302500Y-60697148D02*
X175554166Y-59397148D01*
X173302500Y-60697148D02*
X179712500Y-71799594D01*
X175554166Y-59397148D02*
X176854166Y-61648814D01*
X176654018Y-58762148D02*
X177805832Y-58097148D01*
X176854166Y-61648814D02*
X179105832Y-60348814D01*
X177805832Y-58097148D02*
X178470832Y-59248962D01*
X179105832Y-60348814D02*
X184215832Y-69199594D01*
X179712500Y-71799594D02*
X184215832Y-69199594D01*
%TO.C,R9*%
X152656775Y-100848525D02*
X153166223Y-100848525D01*
X152656775Y-101893525D02*
X153166223Y-101893525D01*
%TO.C,R66*%
X142074099Y-106136390D02*
X141632905Y-106391114D01*
X142596599Y-107041386D02*
X142155405Y-107296110D01*
%TO.C,D19*%
X139630000Y-62450000D02*
X139630000Y-64910000D01*
X141100000Y-62450000D02*
X139630000Y-62450000D01*
X141100000Y-64910000D02*
X141100000Y-62450000D01*
%TO.C,J8*%
X146900000Y-69763962D02*
X146900000Y-72523962D01*
X146900000Y-72523962D02*
X154740000Y-72523962D01*
X147010000Y-75183962D02*
X147010000Y-73913962D01*
X147850000Y-72753962D02*
X147850000Y-72523962D01*
X148280000Y-75183962D02*
X147010000Y-75183962D01*
X148710000Y-72753962D02*
X148710000Y-72523962D01*
X149550000Y-72523962D02*
X149550000Y-69763962D01*
X150390000Y-63763962D02*
X151250000Y-63763962D01*
X150390000Y-69763962D02*
X150390000Y-63763962D01*
X150390000Y-72836604D02*
X150390000Y-72523962D01*
X151250000Y-63763962D02*
X151250000Y-69763962D01*
X151250000Y-72836604D02*
X151250000Y-72523962D01*
X152090000Y-72523962D02*
X152090000Y-69763962D01*
X152930000Y-63763962D02*
X153790000Y-63763962D01*
X152930000Y-69763962D02*
X152930000Y-63763962D01*
X152930000Y-72836604D02*
X152930000Y-72523962D01*
X153790000Y-63763962D02*
X153790000Y-69763962D01*
X153790000Y-72836604D02*
X153790000Y-72523962D01*
X154740000Y-69763962D02*
X146900000Y-69763962D01*
X154740000Y-72523962D02*
X154740000Y-69763962D01*
X147850000Y-69763962D02*
X148710000Y-69763962D01*
X148710000Y-63763962D01*
X147850000Y-63763962D01*
X147850000Y-69763962D01*
G36*
X147850000Y-69763962D02*
G01*
X148710000Y-69763962D01*
X148710000Y-63763962D01*
X147850000Y-63763962D01*
X147850000Y-69763962D01*
G37*
%TD*%
M02*
