%TF.GenerationSoftware,KiCad,Pcbnew,9.0.1*%
%TF.CreationDate,2025-04-22T12:55:48+09:00*%
%TF.ProjectId,ORCA_CORE_A,4f524341-5f43-44f5-9245-5f412e6b6963,rev?*%
%TF.SameCoordinates,Original*%
%TF.FileFunction,Legend,Bot*%
%TF.FilePolarity,Positive*%
%FSLAX46Y46*%
G04 Gerber Fmt 4.6, Leading zero omitted, Abs format (unit mm)*
G04 Created by KiCad (PCBNEW 9.0.1) date 2025-04-22 12:55:48*
%MOMM*%
%LPD*%
G01*
G04 APERTURE LIST*
%ADD10C,0.500000*%
%ADD11C,0.160000*%
%ADD12C,0.150000*%
%ADD13C,0.100000*%
%ADD14C,0.120000*%
%ADD15C,0.000000*%
G04 APERTURE END LIST*
D10*
X119625540Y-56357090D02*
X119625558Y-56357080D01*
X107750029Y-51888028D02*
X107750016Y-51888036D01*
X189689730Y-82354803D02*
X189689734Y-82354806D01*
X132903800Y-106500000D02*
X101921732Y-106500000D01*
X135903847Y-136500000D02*
X135903847Y-109517932D01*
X101903800Y-139500000D02*
X132903847Y-139500000D01*
X98903847Y-109500100D02*
X98903847Y-136500000D01*
X132903800Y-106500000D02*
G75*
G02*
X135903848Y-109517932I-100J-3000200D01*
G01*
X135903847Y-136500000D02*
G75*
G02*
X132903847Y-139499947I-2999947J0D01*
G01*
X101903800Y-139500000D02*
G75*
G02*
X98903900Y-136500000I0J2999900D01*
G01*
X98903847Y-109500100D02*
G75*
G02*
X101921732Y-106499999I3000153J0D01*
G01*
X177403847Y-136000000D02*
X181903847Y-136000000D01*
X181903847Y-136000000D02*
X181903847Y-113000000D01*
X181903847Y-113000000D02*
X177403853Y-113000000D01*
X170403846Y-113000000D02*
G75*
G02*
X177403854Y-113000000I3500004J-4D01*
G01*
X170403846Y-113000000D02*
X165903847Y-113000000D01*
X165903847Y-113000000D02*
X165903847Y-136000000D01*
X165903847Y-136000000D02*
X170403853Y-136000000D01*
X177403847Y-136000000D02*
G75*
G02*
X170403853Y-136000000I-3499997J-3D01*
G01*
X191500000Y-42694873D02*
X185089700Y-42694873D01*
X189963300Y-72828579D02*
X191485858Y-72828579D01*
X173510099Y-49330853D02*
X185627872Y-70319450D01*
X174278466Y-42999994D02*
X173510098Y-44330844D01*
X182589714Y-42025001D02*
X181119551Y-41176203D01*
X196500000Y-67828600D02*
X196500000Y-47711331D01*
X196500000Y-67828600D02*
G75*
G02*
X191485858Y-72828580I-5000000J0D01*
G01*
X189963300Y-72828579D02*
G75*
G02*
X185627827Y-70319476I0J5000179D01*
G01*
X173510099Y-49330853D02*
G75*
G02*
X173510100Y-44330845I4330131J2500003D01*
G01*
X174278466Y-42999994D02*
G75*
G02*
X181119551Y-41176203I4330134J-2500006D01*
G01*
X185089700Y-42694873D02*
G75*
G02*
X182589713Y-42025003I0J4999973D01*
G01*
X191500000Y-42694873D02*
G75*
G02*
X196500000Y-47711331I0J-5000027D01*
G01*
X113687794Y-54122571D02*
G75*
G02*
X107750029Y-51888028I-1607594J4734571D01*
G01*
X113687794Y-54122571D02*
G75*
G02*
X119625540Y-56357090I1607606J-4734529D01*
G01*
X120489904Y-57854170D02*
G75*
G02*
X120489905Y-62854169I-4330124J-2500000D01*
G01*
X108366832Y-83851945D02*
G75*
G02*
X104036731Y-86351890I-4330032J2499945D01*
G01*
X102500000Y-86351901D02*
G75*
G02*
X97499999Y-81351900I0J5000001D01*
G01*
X107750016Y-51888036D02*
X107500000Y-51454997D01*
X120489904Y-57854170D02*
X119625558Y-56357080D01*
X108366832Y-83851945D02*
X120489905Y-62854169D01*
X102500000Y-86351901D02*
X104036731Y-86351901D01*
X97500000Y-45330600D02*
X97500000Y-81351900D01*
X97500000Y-45330600D02*
G75*
G02*
X100500000Y-42330700I2999900J0D01*
G01*
X107500000Y-51454997D02*
X107500000Y-44346062D01*
X105500000Y-42330641D02*
X100500000Y-42330641D01*
X105500000Y-42330641D02*
G75*
G02*
X107500001Y-44346062I-100J-2000159D01*
G01*
X165903847Y-128907100D02*
G75*
G02*
X162882972Y-131907075I-3000047J0D01*
G01*
X138903800Y-131907073D02*
G75*
G02*
X135903846Y-128896423I0J2999973D01*
G01*
X165903847Y-128907100D02*
X165903847Y-108257000D01*
X138903800Y-131907073D02*
X162882972Y-131907073D01*
X135903847Y-108263581D02*
X135903847Y-128896423D01*
X118920069Y-86086404D02*
G75*
G02*
X124857824Y-88320910I1607631J-4734496D01*
G01*
X118920069Y-86086404D02*
G75*
G02*
X112982345Y-83851961I-1607669J4734404D01*
G01*
X112117962Y-82354809D02*
G75*
G02*
X112117961Y-77354793I4330138J2500009D01*
G01*
X124240967Y-56357139D02*
G75*
G02*
X128571200Y-53857078I4330233J-2500061D01*
G01*
X130107900Y-53857073D02*
G75*
G02*
X135011857Y-57882077I0J-4999927D01*
G01*
X139915900Y-61907073D02*
G75*
G02*
X135011826Y-57882084I0J5000073D01*
G01*
X166603847Y-57882073D02*
G75*
G02*
X161681462Y-61907091I-4904047J974973D01*
G01*
X166603847Y-57882073D02*
G75*
G02*
X171520147Y-53857074I4904053J-975027D01*
G01*
X173236600Y-53857073D02*
G75*
G02*
X177566643Y-56357100I0J-4999827D01*
G01*
X189689731Y-77354797D02*
G75*
G02*
X189689731Y-82354803I-4330131J-2500003D01*
G01*
X188921369Y-83685652D02*
G75*
G02*
X182983586Y-85920222I-4330169J2499952D01*
G01*
X177045836Y-88154679D02*
G75*
G02*
X182983612Y-85920145I4330164J-2500021D01*
G01*
X112117962Y-82354809D02*
X112982344Y-83851961D01*
X124240967Y-56357139D02*
X112117964Y-77354795D01*
X130107900Y-53857073D02*
X128571200Y-53857073D01*
X161681462Y-61907073D02*
X139915900Y-61907073D01*
X173236600Y-53857073D02*
X171520147Y-53857073D01*
X189689731Y-77354797D02*
X177566689Y-56357073D01*
X188921369Y-83685652D02*
X189689734Y-82354806D01*
X166305767Y-106757025D02*
X177045836Y-88154679D01*
X124857829Y-88320907D02*
X135501872Y-106756929D01*
X165903847Y-108257000D02*
G75*
G02*
X166305764Y-106757024I2999953J0D01*
G01*
X135501872Y-106756929D02*
G75*
G02*
X135903835Y-108263581I-2598372J-1500171D01*
G01*
D11*
X109678875Y-60333717D02*
X109412208Y-60795597D01*
X109975798Y-60505145D02*
X109766274Y-60868051D01*
X109766274Y-60868051D02*
X109695187Y-60914986D01*
X109695187Y-60914986D02*
X109610157Y-60909883D01*
X109610157Y-60909883D02*
X109511183Y-60852740D01*
X109511183Y-60852740D02*
X109464247Y-60781653D01*
X109464247Y-60781653D02*
X109450303Y-60729614D01*
X109134332Y-60591177D02*
X109049302Y-60586073D01*
X109049302Y-60586073D02*
X108917336Y-60509882D01*
X108917336Y-60509882D02*
X108870401Y-60438796D01*
X108870401Y-60438796D02*
X108875505Y-60353765D01*
X108875505Y-60353765D02*
X108894552Y-60320774D01*
X108894552Y-60320774D02*
X108965639Y-60273839D01*
X108965639Y-60273839D02*
X109050669Y-60278942D01*
X109050669Y-60278942D02*
X109149644Y-60336085D01*
X109149644Y-60336085D02*
X109234674Y-60341189D01*
X109234674Y-60341189D02*
X109305761Y-60294254D01*
X109305761Y-60294254D02*
X109324809Y-60261262D01*
X109324809Y-60261262D02*
X109329912Y-60176232D01*
X109329912Y-60176232D02*
X109282977Y-60105145D01*
X109282977Y-60105145D02*
X109184003Y-60048002D01*
X109184003Y-60048002D02*
X109098972Y-60042898D01*
X108521439Y-60281311D02*
X108921439Y-59588491D01*
X108769058Y-59852422D02*
X108722123Y-59781336D01*
X108722123Y-59781336D02*
X108590157Y-59705145D01*
X108590157Y-59705145D02*
X108505126Y-59700041D01*
X108505126Y-59700041D02*
X108453087Y-59713985D01*
X108453087Y-59713985D02*
X108382001Y-59760920D01*
X108382001Y-59760920D02*
X108267715Y-59958869D01*
X108267715Y-59958869D02*
X108262611Y-60043900D01*
X108262611Y-60043900D02*
X108276555Y-60095939D01*
X108276555Y-60095939D02*
X108323490Y-60167025D01*
X108323490Y-60167025D02*
X108455456Y-60243216D01*
X108455456Y-60243216D02*
X108540486Y-60248320D01*
X108021463Y-60080627D02*
X107493600Y-59775865D01*
X107633404Y-59152764D02*
X107233404Y-59845584D01*
X107614357Y-59185755D02*
X107567422Y-59114669D01*
X107567422Y-59114669D02*
X107435456Y-59038478D01*
X107435456Y-59038478D02*
X107350425Y-59033374D01*
X107350425Y-59033374D02*
X107298386Y-59047318D01*
X107298386Y-59047318D02*
X107227300Y-59094253D01*
X107227300Y-59094253D02*
X107113014Y-59292202D01*
X107113014Y-59292202D02*
X107107910Y-59377233D01*
X107107910Y-59377233D02*
X107121854Y-59429272D01*
X107121854Y-59429272D02*
X107168789Y-59500358D01*
X107168789Y-59500358D02*
X107300755Y-59576549D01*
X107300755Y-59576549D02*
X107385785Y-59581653D01*
X107579217Y-64083729D02*
X107909131Y-64274205D01*
X107909131Y-64274205D02*
X107751646Y-64623167D01*
X107751646Y-64623167D02*
X107737703Y-64571128D01*
X107737703Y-64571128D02*
X107690767Y-64500042D01*
X107690767Y-64500042D02*
X107525810Y-64404803D01*
X107525810Y-64404803D02*
X107440780Y-64399700D01*
X107440780Y-64399700D02*
X107388741Y-64413643D01*
X107388741Y-64413643D02*
X107317654Y-64460579D01*
X107317654Y-64460579D02*
X107222416Y-64625536D01*
X107222416Y-64625536D02*
X107217312Y-64710566D01*
X107217312Y-64710566D02*
X107231256Y-64762606D01*
X107231256Y-64762606D02*
X107278191Y-64833692D01*
X107278191Y-64833692D02*
X107443148Y-64928930D01*
X107443148Y-64928930D02*
X107528179Y-64934034D01*
X107528179Y-64934034D02*
X107580218Y-64920090D01*
X107348276Y-63950396D02*
X106717336Y-64509883D01*
X106717336Y-64509883D02*
X106886396Y-63683729D01*
X108678875Y-62233717D02*
X108412208Y-62695597D01*
X108975798Y-62405145D02*
X108766274Y-62768051D01*
X108766274Y-62768051D02*
X108695187Y-62814986D01*
X108695187Y-62814986D02*
X108610157Y-62809883D01*
X108610157Y-62809883D02*
X108511183Y-62752740D01*
X108511183Y-62752740D02*
X108464247Y-62681653D01*
X108464247Y-62681653D02*
X108450303Y-62629614D01*
X108134332Y-62491177D02*
X108049302Y-62486073D01*
X108049302Y-62486073D02*
X107917336Y-62409882D01*
X107917336Y-62409882D02*
X107870401Y-62338796D01*
X107870401Y-62338796D02*
X107875505Y-62253765D01*
X107875505Y-62253765D02*
X107894552Y-62220774D01*
X107894552Y-62220774D02*
X107965639Y-62173839D01*
X107965639Y-62173839D02*
X108050669Y-62178942D01*
X108050669Y-62178942D02*
X108149644Y-62236085D01*
X108149644Y-62236085D02*
X108234674Y-62241189D01*
X108234674Y-62241189D02*
X108305761Y-62194254D01*
X108305761Y-62194254D02*
X108324809Y-62161262D01*
X108324809Y-62161262D02*
X108329912Y-62076232D01*
X108329912Y-62076232D02*
X108282977Y-62005145D01*
X108282977Y-62005145D02*
X108184003Y-61948002D01*
X108184003Y-61948002D02*
X108098972Y-61942898D01*
X107521439Y-62181311D02*
X107921439Y-61488491D01*
X107769058Y-61752422D02*
X107722123Y-61681336D01*
X107722123Y-61681336D02*
X107590157Y-61605145D01*
X107590157Y-61605145D02*
X107505126Y-61600041D01*
X107505126Y-61600041D02*
X107453087Y-61613985D01*
X107453087Y-61613985D02*
X107382001Y-61660920D01*
X107382001Y-61660920D02*
X107267715Y-61858869D01*
X107267715Y-61858869D02*
X107262611Y-61943900D01*
X107262611Y-61943900D02*
X107276555Y-61995939D01*
X107276555Y-61995939D02*
X107323490Y-62067025D01*
X107323490Y-62067025D02*
X107455456Y-62143216D01*
X107455456Y-62143216D02*
X107540486Y-62148320D01*
X107021463Y-61980627D02*
X106493600Y-61675865D01*
X106366738Y-61514644D02*
X106633404Y-61052764D01*
X106595309Y-61118747D02*
X106581365Y-61066708D01*
X106581365Y-61066708D02*
X106534430Y-60995621D01*
X106534430Y-60995621D02*
X106435456Y-60938478D01*
X106435456Y-60938478D02*
X106350425Y-60933374D01*
X106350425Y-60933374D02*
X106279339Y-60980310D01*
X106279339Y-60980310D02*
X106069815Y-61343215D01*
X106279339Y-60980310D02*
X106284442Y-60895279D01*
X106284442Y-60895279D02*
X106237507Y-60824192D01*
X106237507Y-60824192D02*
X106138533Y-60767050D01*
X106138533Y-60767050D02*
X106053502Y-60761946D01*
X106053502Y-60761946D02*
X105982416Y-60808881D01*
X105982416Y-60808881D02*
X105772892Y-61171787D01*
X111027178Y-57497673D02*
X111112208Y-57502777D01*
X111112208Y-57502777D02*
X111211183Y-57559920D01*
X111211183Y-57559920D02*
X111291109Y-57650054D01*
X111291109Y-57650054D02*
X111318997Y-57754132D01*
X111318997Y-57754132D02*
X111313893Y-57839162D01*
X111313893Y-57839162D02*
X111270694Y-57990176D01*
X111270694Y-57990176D02*
X111213551Y-58089150D01*
X111213551Y-58089150D02*
X111104369Y-58202068D01*
X111104369Y-58202068D02*
X111033283Y-58249004D01*
X111033283Y-58249004D02*
X110929205Y-58276891D01*
X110929205Y-58276891D02*
X110811183Y-58252740D01*
X110811183Y-58252740D02*
X110745200Y-58214645D01*
X110745200Y-58214645D02*
X110665273Y-58124510D01*
X110665273Y-58124510D02*
X110651329Y-58072471D01*
X110651329Y-58072471D02*
X110784662Y-57841531D01*
X110784662Y-57841531D02*
X110916628Y-57917722D01*
X110316311Y-57967026D02*
X110716311Y-57274205D01*
X110716311Y-57274205D02*
X109920414Y-57738454D01*
X109920414Y-57738454D02*
X110320414Y-57045634D01*
X109590499Y-57547978D02*
X109990499Y-56855158D01*
X109990499Y-56855158D02*
X109825542Y-56759920D01*
X109825542Y-56759920D02*
X109707520Y-56735768D01*
X109707520Y-56735768D02*
X109603442Y-56763656D01*
X109603442Y-56763656D02*
X109532355Y-56810591D01*
X109532355Y-56810591D02*
X109423173Y-56923509D01*
X109423173Y-56923509D02*
X109366031Y-57022484D01*
X109366031Y-57022484D02*
X109322832Y-57173497D01*
X109322832Y-57173497D02*
X109317728Y-57258528D01*
X109317728Y-57258528D02*
X109345615Y-57362606D01*
X109345615Y-57362606D02*
X109425542Y-57452740D01*
X109425542Y-57452740D02*
X109590499Y-57547978D01*
X143964016Y-108036799D02*
X143811635Y-108036799D01*
X143811635Y-108036799D02*
X143735445Y-108074894D01*
X143735445Y-108074894D02*
X143659254Y-108151084D01*
X143659254Y-108151084D02*
X143621159Y-108303465D01*
X143621159Y-108303465D02*
X143621159Y-108570132D01*
X143621159Y-108570132D02*
X143659254Y-108722513D01*
X143659254Y-108722513D02*
X143735445Y-108798704D01*
X143735445Y-108798704D02*
X143811635Y-108836799D01*
X143811635Y-108836799D02*
X143964016Y-108836799D01*
X143964016Y-108836799D02*
X144040207Y-108798704D01*
X144040207Y-108798704D02*
X144116397Y-108722513D01*
X144116397Y-108722513D02*
X144154493Y-108570132D01*
X144154493Y-108570132D02*
X144154493Y-108303465D01*
X144154493Y-108303465D02*
X144116397Y-108151084D01*
X144116397Y-108151084D02*
X144040207Y-108074894D01*
X144040207Y-108074894D02*
X143964016Y-108036799D01*
X142821159Y-108836799D02*
X143087826Y-108455846D01*
X143278302Y-108836799D02*
X143278302Y-108036799D01*
X143278302Y-108036799D02*
X142973540Y-108036799D01*
X142973540Y-108036799D02*
X142897350Y-108074894D01*
X142897350Y-108074894D02*
X142859255Y-108112989D01*
X142859255Y-108112989D02*
X142821159Y-108189180D01*
X142821159Y-108189180D02*
X142821159Y-108303465D01*
X142821159Y-108303465D02*
X142859255Y-108379656D01*
X142859255Y-108379656D02*
X142897350Y-108417751D01*
X142897350Y-108417751D02*
X142973540Y-108455846D01*
X142973540Y-108455846D02*
X143278302Y-108455846D01*
X142021159Y-108760608D02*
X142059255Y-108798704D01*
X142059255Y-108798704D02*
X142173540Y-108836799D01*
X142173540Y-108836799D02*
X142249731Y-108836799D01*
X142249731Y-108836799D02*
X142364017Y-108798704D01*
X142364017Y-108798704D02*
X142440207Y-108722513D01*
X142440207Y-108722513D02*
X142478302Y-108646323D01*
X142478302Y-108646323D02*
X142516398Y-108493942D01*
X142516398Y-108493942D02*
X142516398Y-108379656D01*
X142516398Y-108379656D02*
X142478302Y-108227275D01*
X142478302Y-108227275D02*
X142440207Y-108151084D01*
X142440207Y-108151084D02*
X142364017Y-108074894D01*
X142364017Y-108074894D02*
X142249731Y-108036799D01*
X142249731Y-108036799D02*
X142173540Y-108036799D01*
X142173540Y-108036799D02*
X142059255Y-108074894D01*
X142059255Y-108074894D02*
X142021159Y-108112989D01*
X141716398Y-108608227D02*
X141335445Y-108608227D01*
X141792588Y-108836799D02*
X141525921Y-108036799D01*
X141525921Y-108036799D02*
X141259255Y-108836799D01*
X141183065Y-108912989D02*
X140573541Y-108912989D01*
X139925921Y-108760608D02*
X139964017Y-108798704D01*
X139964017Y-108798704D02*
X140078302Y-108836799D01*
X140078302Y-108836799D02*
X140154493Y-108836799D01*
X140154493Y-108836799D02*
X140268779Y-108798704D01*
X140268779Y-108798704D02*
X140344969Y-108722513D01*
X140344969Y-108722513D02*
X140383064Y-108646323D01*
X140383064Y-108646323D02*
X140421160Y-108493942D01*
X140421160Y-108493942D02*
X140421160Y-108379656D01*
X140421160Y-108379656D02*
X140383064Y-108227275D01*
X140383064Y-108227275D02*
X140344969Y-108151084D01*
X140344969Y-108151084D02*
X140268779Y-108074894D01*
X140268779Y-108074894D02*
X140154493Y-108036799D01*
X140154493Y-108036799D02*
X140078302Y-108036799D01*
X140078302Y-108036799D02*
X139964017Y-108074894D01*
X139964017Y-108074894D02*
X139925921Y-108112989D01*
X139430683Y-108036799D02*
X139278302Y-108036799D01*
X139278302Y-108036799D02*
X139202112Y-108074894D01*
X139202112Y-108074894D02*
X139125921Y-108151084D01*
X139125921Y-108151084D02*
X139087826Y-108303465D01*
X139087826Y-108303465D02*
X139087826Y-108570132D01*
X139087826Y-108570132D02*
X139125921Y-108722513D01*
X139125921Y-108722513D02*
X139202112Y-108798704D01*
X139202112Y-108798704D02*
X139278302Y-108836799D01*
X139278302Y-108836799D02*
X139430683Y-108836799D01*
X139430683Y-108836799D02*
X139506874Y-108798704D01*
X139506874Y-108798704D02*
X139583064Y-108722513D01*
X139583064Y-108722513D02*
X139621160Y-108570132D01*
X139621160Y-108570132D02*
X139621160Y-108303465D01*
X139621160Y-108303465D02*
X139583064Y-108151084D01*
X139583064Y-108151084D02*
X139506874Y-108074894D01*
X139506874Y-108074894D02*
X139430683Y-108036799D01*
X138287826Y-108836799D02*
X138554493Y-108455846D01*
X138744969Y-108836799D02*
X138744969Y-108036799D01*
X138744969Y-108036799D02*
X138440207Y-108036799D01*
X138440207Y-108036799D02*
X138364017Y-108074894D01*
X138364017Y-108074894D02*
X138325922Y-108112989D01*
X138325922Y-108112989D02*
X138287826Y-108189180D01*
X138287826Y-108189180D02*
X138287826Y-108303465D01*
X138287826Y-108303465D02*
X138325922Y-108379656D01*
X138325922Y-108379656D02*
X138364017Y-108417751D01*
X138364017Y-108417751D02*
X138440207Y-108455846D01*
X138440207Y-108455846D02*
X138744969Y-108455846D01*
X137944969Y-108417751D02*
X137678303Y-108417751D01*
X137564017Y-108836799D02*
X137944969Y-108836799D01*
X137944969Y-108836799D02*
X137944969Y-108036799D01*
X137944969Y-108036799D02*
X137564017Y-108036799D01*
X143773540Y-110086659D02*
X143849731Y-110124754D01*
X143849731Y-110124754D02*
X144002112Y-110124754D01*
X144002112Y-110124754D02*
X144078302Y-110086659D01*
X144078302Y-110086659D02*
X144116397Y-110048563D01*
X144116397Y-110048563D02*
X144154493Y-109972373D01*
X144154493Y-109972373D02*
X144154493Y-109743801D01*
X144154493Y-109743801D02*
X144116397Y-109667611D01*
X144116397Y-109667611D02*
X144078302Y-109629516D01*
X144078302Y-109629516D02*
X144002112Y-109591420D01*
X144002112Y-109591420D02*
X143849731Y-109591420D01*
X143849731Y-109591420D02*
X143773540Y-109629516D01*
X143316398Y-110124754D02*
X143392588Y-110086659D01*
X143392588Y-110086659D02*
X143430683Y-110048563D01*
X143430683Y-110048563D02*
X143468779Y-109972373D01*
X143468779Y-109972373D02*
X143468779Y-109743801D01*
X143468779Y-109743801D02*
X143430683Y-109667611D01*
X143430683Y-109667611D02*
X143392588Y-109629516D01*
X143392588Y-109629516D02*
X143316398Y-109591420D01*
X143316398Y-109591420D02*
X143202112Y-109591420D01*
X143202112Y-109591420D02*
X143125921Y-109629516D01*
X143125921Y-109629516D02*
X143087826Y-109667611D01*
X143087826Y-109667611D02*
X143049731Y-109743801D01*
X143049731Y-109743801D02*
X143049731Y-109972373D01*
X143049731Y-109972373D02*
X143087826Y-110048563D01*
X143087826Y-110048563D02*
X143125921Y-110086659D01*
X143125921Y-110086659D02*
X143202112Y-110124754D01*
X143202112Y-110124754D02*
X143316398Y-110124754D01*
X142706873Y-110124754D02*
X142706873Y-109591420D01*
X142706873Y-109743801D02*
X142668778Y-109667611D01*
X142668778Y-109667611D02*
X142630683Y-109629516D01*
X142630683Y-109629516D02*
X142554492Y-109591420D01*
X142554492Y-109591420D02*
X142478302Y-109591420D01*
X141906873Y-110086659D02*
X141983064Y-110124754D01*
X141983064Y-110124754D02*
X142135445Y-110124754D01*
X142135445Y-110124754D02*
X142211635Y-110086659D01*
X142211635Y-110086659D02*
X142249731Y-110010468D01*
X142249731Y-110010468D02*
X142249731Y-109705706D01*
X142249731Y-109705706D02*
X142211635Y-109629516D01*
X142211635Y-109629516D02*
X142135445Y-109591420D01*
X142135445Y-109591420D02*
X141983064Y-109591420D01*
X141983064Y-109591420D02*
X141906873Y-109629516D01*
X141906873Y-109629516D02*
X141868778Y-109705706D01*
X141868778Y-109705706D02*
X141868778Y-109781897D01*
X141868778Y-109781897D02*
X142249731Y-109858087D01*
X141716398Y-110200944D02*
X141106874Y-110200944D01*
X140916397Y-110124754D02*
X140916397Y-109324754D01*
X140916397Y-109629516D02*
X140840207Y-109591420D01*
X140840207Y-109591420D02*
X140687826Y-109591420D01*
X140687826Y-109591420D02*
X140611635Y-109629516D01*
X140611635Y-109629516D02*
X140573540Y-109667611D01*
X140573540Y-109667611D02*
X140535445Y-109743801D01*
X140535445Y-109743801D02*
X140535445Y-109972373D01*
X140535445Y-109972373D02*
X140573540Y-110048563D01*
X140573540Y-110048563D02*
X140611635Y-110086659D01*
X140611635Y-110086659D02*
X140687826Y-110124754D01*
X140687826Y-110124754D02*
X140840207Y-110124754D01*
X140840207Y-110124754D02*
X140916397Y-110086659D01*
X140078302Y-110124754D02*
X140154492Y-110086659D01*
X140154492Y-110086659D02*
X140192587Y-110048563D01*
X140192587Y-110048563D02*
X140230683Y-109972373D01*
X140230683Y-109972373D02*
X140230683Y-109743801D01*
X140230683Y-109743801D02*
X140192587Y-109667611D01*
X140192587Y-109667611D02*
X140154492Y-109629516D01*
X140154492Y-109629516D02*
X140078302Y-109591420D01*
X140078302Y-109591420D02*
X139964016Y-109591420D01*
X139964016Y-109591420D02*
X139887825Y-109629516D01*
X139887825Y-109629516D02*
X139849730Y-109667611D01*
X139849730Y-109667611D02*
X139811635Y-109743801D01*
X139811635Y-109743801D02*
X139811635Y-109972373D01*
X139811635Y-109972373D02*
X139849730Y-110048563D01*
X139849730Y-110048563D02*
X139887825Y-110086659D01*
X139887825Y-110086659D02*
X139964016Y-110124754D01*
X139964016Y-110124754D02*
X140078302Y-110124754D01*
X139125920Y-110124754D02*
X139125920Y-109705706D01*
X139125920Y-109705706D02*
X139164015Y-109629516D01*
X139164015Y-109629516D02*
X139240206Y-109591420D01*
X139240206Y-109591420D02*
X139392587Y-109591420D01*
X139392587Y-109591420D02*
X139468777Y-109629516D01*
X139125920Y-110086659D02*
X139202111Y-110124754D01*
X139202111Y-110124754D02*
X139392587Y-110124754D01*
X139392587Y-110124754D02*
X139468777Y-110086659D01*
X139468777Y-110086659D02*
X139506873Y-110010468D01*
X139506873Y-110010468D02*
X139506873Y-109934278D01*
X139506873Y-109934278D02*
X139468777Y-109858087D01*
X139468777Y-109858087D02*
X139392587Y-109819992D01*
X139392587Y-109819992D02*
X139202111Y-109819992D01*
X139202111Y-109819992D02*
X139125920Y-109781897D01*
X138744967Y-110124754D02*
X138744967Y-109591420D01*
X138744967Y-109743801D02*
X138706872Y-109667611D01*
X138706872Y-109667611D02*
X138668777Y-109629516D01*
X138668777Y-109629516D02*
X138592586Y-109591420D01*
X138592586Y-109591420D02*
X138516396Y-109591420D01*
X137906872Y-110124754D02*
X137906872Y-109324754D01*
X137906872Y-110086659D02*
X137983063Y-110124754D01*
X137983063Y-110124754D02*
X138135444Y-110124754D01*
X138135444Y-110124754D02*
X138211634Y-110086659D01*
X138211634Y-110086659D02*
X138249729Y-110048563D01*
X138249729Y-110048563D02*
X138287825Y-109972373D01*
X138287825Y-109972373D02*
X138287825Y-109743801D01*
X138287825Y-109743801D02*
X138249729Y-109667611D01*
X138249729Y-109667611D02*
X138211634Y-109629516D01*
X138211634Y-109629516D02*
X138135444Y-109591420D01*
X138135444Y-109591420D02*
X137983063Y-109591420D01*
X137983063Y-109591420D02*
X137906872Y-109629516D01*
X144192588Y-110879375D02*
X144002112Y-111412709D01*
X144002112Y-111412709D02*
X143811635Y-110879375D01*
X143354492Y-110612709D02*
X143278302Y-110612709D01*
X143278302Y-110612709D02*
X143202111Y-110650804D01*
X143202111Y-110650804D02*
X143164016Y-110688899D01*
X143164016Y-110688899D02*
X143125921Y-110765090D01*
X143125921Y-110765090D02*
X143087826Y-110917471D01*
X143087826Y-110917471D02*
X143087826Y-111107947D01*
X143087826Y-111107947D02*
X143125921Y-111260328D01*
X143125921Y-111260328D02*
X143164016Y-111336518D01*
X143164016Y-111336518D02*
X143202111Y-111374614D01*
X143202111Y-111374614D02*
X143278302Y-111412709D01*
X143278302Y-111412709D02*
X143354492Y-111412709D01*
X143354492Y-111412709D02*
X143430683Y-111374614D01*
X143430683Y-111374614D02*
X143468778Y-111336518D01*
X143468778Y-111336518D02*
X143506873Y-111260328D01*
X143506873Y-111260328D02*
X143544969Y-111107947D01*
X143544969Y-111107947D02*
X143544969Y-110917471D01*
X143544969Y-110917471D02*
X143506873Y-110765090D01*
X143506873Y-110765090D02*
X143468778Y-110688899D01*
X143468778Y-110688899D02*
X143430683Y-110650804D01*
X143430683Y-110650804D02*
X143354492Y-110612709D01*
X144154493Y-111976854D02*
X144116397Y-111938759D01*
X144116397Y-111938759D02*
X144040207Y-111900664D01*
X144040207Y-111900664D02*
X143849731Y-111900664D01*
X143849731Y-111900664D02*
X143773540Y-111938759D01*
X143773540Y-111938759D02*
X143735445Y-111976854D01*
X143735445Y-111976854D02*
X143697350Y-112053045D01*
X143697350Y-112053045D02*
X143697350Y-112129235D01*
X143697350Y-112129235D02*
X143735445Y-112243521D01*
X143735445Y-112243521D02*
X144192588Y-112700664D01*
X144192588Y-112700664D02*
X143697350Y-112700664D01*
X143202111Y-111900664D02*
X143125921Y-111900664D01*
X143125921Y-111900664D02*
X143049730Y-111938759D01*
X143049730Y-111938759D02*
X143011635Y-111976854D01*
X143011635Y-111976854D02*
X142973540Y-112053045D01*
X142973540Y-112053045D02*
X142935445Y-112205426D01*
X142935445Y-112205426D02*
X142935445Y-112395902D01*
X142935445Y-112395902D02*
X142973540Y-112548283D01*
X142973540Y-112548283D02*
X143011635Y-112624473D01*
X143011635Y-112624473D02*
X143049730Y-112662569D01*
X143049730Y-112662569D02*
X143125921Y-112700664D01*
X143125921Y-112700664D02*
X143202111Y-112700664D01*
X143202111Y-112700664D02*
X143278302Y-112662569D01*
X143278302Y-112662569D02*
X143316397Y-112624473D01*
X143316397Y-112624473D02*
X143354492Y-112548283D01*
X143354492Y-112548283D02*
X143392588Y-112395902D01*
X143392588Y-112395902D02*
X143392588Y-112205426D01*
X143392588Y-112205426D02*
X143354492Y-112053045D01*
X143354492Y-112053045D02*
X143316397Y-111976854D01*
X143316397Y-111976854D02*
X143278302Y-111938759D01*
X143278302Y-111938759D02*
X143202111Y-111900664D01*
X142630683Y-111976854D02*
X142592587Y-111938759D01*
X142592587Y-111938759D02*
X142516397Y-111900664D01*
X142516397Y-111900664D02*
X142325921Y-111900664D01*
X142325921Y-111900664D02*
X142249730Y-111938759D01*
X142249730Y-111938759D02*
X142211635Y-111976854D01*
X142211635Y-111976854D02*
X142173540Y-112053045D01*
X142173540Y-112053045D02*
X142173540Y-112129235D01*
X142173540Y-112129235D02*
X142211635Y-112243521D01*
X142211635Y-112243521D02*
X142668778Y-112700664D01*
X142668778Y-112700664D02*
X142173540Y-112700664D01*
X141449730Y-111900664D02*
X141830682Y-111900664D01*
X141830682Y-111900664D02*
X141868778Y-112281616D01*
X141868778Y-112281616D02*
X141830682Y-112243521D01*
X141830682Y-112243521D02*
X141754492Y-112205426D01*
X141754492Y-112205426D02*
X141564016Y-112205426D01*
X141564016Y-112205426D02*
X141487825Y-112243521D01*
X141487825Y-112243521D02*
X141449730Y-112281616D01*
X141449730Y-112281616D02*
X141411635Y-112357807D01*
X141411635Y-112357807D02*
X141411635Y-112548283D01*
X141411635Y-112548283D02*
X141449730Y-112624473D01*
X141449730Y-112624473D02*
X141487825Y-112662569D01*
X141487825Y-112662569D02*
X141564016Y-112700664D01*
X141564016Y-112700664D02*
X141754492Y-112700664D01*
X141754492Y-112700664D02*
X141830682Y-112662569D01*
X141830682Y-112662569D02*
X141868778Y-112624473D01*
X140497349Y-111862569D02*
X141183063Y-112891140D01*
X140078301Y-111900664D02*
X140002111Y-111900664D01*
X140002111Y-111900664D02*
X139925920Y-111938759D01*
X139925920Y-111938759D02*
X139887825Y-111976854D01*
X139887825Y-111976854D02*
X139849730Y-112053045D01*
X139849730Y-112053045D02*
X139811635Y-112205426D01*
X139811635Y-112205426D02*
X139811635Y-112395902D01*
X139811635Y-112395902D02*
X139849730Y-112548283D01*
X139849730Y-112548283D02*
X139887825Y-112624473D01*
X139887825Y-112624473D02*
X139925920Y-112662569D01*
X139925920Y-112662569D02*
X140002111Y-112700664D01*
X140002111Y-112700664D02*
X140078301Y-112700664D01*
X140078301Y-112700664D02*
X140154492Y-112662569D01*
X140154492Y-112662569D02*
X140192587Y-112624473D01*
X140192587Y-112624473D02*
X140230682Y-112548283D01*
X140230682Y-112548283D02*
X140268778Y-112395902D01*
X140268778Y-112395902D02*
X140268778Y-112205426D01*
X140268778Y-112205426D02*
X140230682Y-112053045D01*
X140230682Y-112053045D02*
X140192587Y-111976854D01*
X140192587Y-111976854D02*
X140154492Y-111938759D01*
X140154492Y-111938759D02*
X140078301Y-111900664D01*
X139125920Y-112167330D02*
X139125920Y-112700664D01*
X139316396Y-111862569D02*
X139506873Y-112433997D01*
X139506873Y-112433997D02*
X139011634Y-112433997D01*
X138135444Y-111862569D02*
X138821158Y-112891140D01*
X137906873Y-111976854D02*
X137868777Y-111938759D01*
X137868777Y-111938759D02*
X137792587Y-111900664D01*
X137792587Y-111900664D02*
X137602111Y-111900664D01*
X137602111Y-111900664D02*
X137525920Y-111938759D01*
X137525920Y-111938759D02*
X137487825Y-111976854D01*
X137487825Y-111976854D02*
X137449730Y-112053045D01*
X137449730Y-112053045D02*
X137449730Y-112129235D01*
X137449730Y-112129235D02*
X137487825Y-112243521D01*
X137487825Y-112243521D02*
X137944968Y-112700664D01*
X137944968Y-112700664D02*
X137449730Y-112700664D01*
X136687825Y-112700664D02*
X137144968Y-112700664D01*
X136916396Y-112700664D02*
X136916396Y-111900664D01*
X136916396Y-111900664D02*
X136992587Y-112014949D01*
X136992587Y-112014949D02*
X137068777Y-112091140D01*
X137068777Y-112091140D02*
X137144968Y-112129235D01*
D12*
X143266956Y-63168794D02*
X142266956Y-63168794D01*
X142266956Y-63168794D02*
X142266956Y-63406889D01*
X142266956Y-63406889D02*
X142314575Y-63549746D01*
X142314575Y-63549746D02*
X142409813Y-63644984D01*
X142409813Y-63644984D02*
X142505051Y-63692603D01*
X142505051Y-63692603D02*
X142695527Y-63740222D01*
X142695527Y-63740222D02*
X142838384Y-63740222D01*
X142838384Y-63740222D02*
X143028860Y-63692603D01*
X143028860Y-63692603D02*
X143124098Y-63644984D01*
X143124098Y-63644984D02*
X143219337Y-63549746D01*
X143219337Y-63549746D02*
X143266956Y-63406889D01*
X143266956Y-63406889D02*
X143266956Y-63168794D01*
X142695527Y-64311651D02*
X142647908Y-64216413D01*
X142647908Y-64216413D02*
X142600289Y-64168794D01*
X142600289Y-64168794D02*
X142505051Y-64121175D01*
X142505051Y-64121175D02*
X142457432Y-64121175D01*
X142457432Y-64121175D02*
X142362194Y-64168794D01*
X142362194Y-64168794D02*
X142314575Y-64216413D01*
X142314575Y-64216413D02*
X142266956Y-64311651D01*
X142266956Y-64311651D02*
X142266956Y-64502127D01*
X142266956Y-64502127D02*
X142314575Y-64597365D01*
X142314575Y-64597365D02*
X142362194Y-64644984D01*
X142362194Y-64644984D02*
X142457432Y-64692603D01*
X142457432Y-64692603D02*
X142505051Y-64692603D01*
X142505051Y-64692603D02*
X142600289Y-64644984D01*
X142600289Y-64644984D02*
X142647908Y-64597365D01*
X142647908Y-64597365D02*
X142695527Y-64502127D01*
X142695527Y-64502127D02*
X142695527Y-64311651D01*
X142695527Y-64311651D02*
X142743146Y-64216413D01*
X142743146Y-64216413D02*
X142790765Y-64168794D01*
X142790765Y-64168794D02*
X142886003Y-64121175D01*
X142886003Y-64121175D02*
X143076479Y-64121175D01*
X143076479Y-64121175D02*
X143171717Y-64168794D01*
X143171717Y-64168794D02*
X143219337Y-64216413D01*
X143219337Y-64216413D02*
X143266956Y-64311651D01*
X143266956Y-64311651D02*
X143266956Y-64502127D01*
X143266956Y-64502127D02*
X143219337Y-64597365D01*
X143219337Y-64597365D02*
X143171717Y-64644984D01*
X143171717Y-64644984D02*
X143076479Y-64692603D01*
X143076479Y-64692603D02*
X142886003Y-64692603D01*
X142886003Y-64692603D02*
X142790765Y-64644984D01*
X142790765Y-64644984D02*
X142743146Y-64597365D01*
X142743146Y-64597365D02*
X142695527Y-64502127D01*
X139366956Y-62692603D02*
X138366956Y-62692603D01*
X138366956Y-62692603D02*
X138366956Y-62930698D01*
X138366956Y-62930698D02*
X138414575Y-63073555D01*
X138414575Y-63073555D02*
X138509813Y-63168793D01*
X138509813Y-63168793D02*
X138605051Y-63216412D01*
X138605051Y-63216412D02*
X138795527Y-63264031D01*
X138795527Y-63264031D02*
X138938384Y-63264031D01*
X138938384Y-63264031D02*
X139128860Y-63216412D01*
X139128860Y-63216412D02*
X139224098Y-63168793D01*
X139224098Y-63168793D02*
X139319337Y-63073555D01*
X139319337Y-63073555D02*
X139366956Y-62930698D01*
X139366956Y-62930698D02*
X139366956Y-62692603D01*
X139366956Y-64216412D02*
X139366956Y-63644984D01*
X139366956Y-63930698D02*
X138366956Y-63930698D01*
X138366956Y-63930698D02*
X138509813Y-63835460D01*
X138509813Y-63835460D02*
X138605051Y-63740222D01*
X138605051Y-63740222D02*
X138652670Y-63644984D01*
X139366956Y-64692603D02*
X139366956Y-64883079D01*
X139366956Y-64883079D02*
X139319337Y-64978317D01*
X139319337Y-64978317D02*
X139271717Y-65025936D01*
X139271717Y-65025936D02*
X139128860Y-65121174D01*
X139128860Y-65121174D02*
X138938384Y-65168793D01*
X138938384Y-65168793D02*
X138557432Y-65168793D01*
X138557432Y-65168793D02*
X138462194Y-65121174D01*
X138462194Y-65121174D02*
X138414575Y-65073555D01*
X138414575Y-65073555D02*
X138366956Y-64978317D01*
X138366956Y-64978317D02*
X138366956Y-64787841D01*
X138366956Y-64787841D02*
X138414575Y-64692603D01*
X138414575Y-64692603D02*
X138462194Y-64644984D01*
X138462194Y-64644984D02*
X138557432Y-64597365D01*
X138557432Y-64597365D02*
X138795527Y-64597365D01*
X138795527Y-64597365D02*
X138890765Y-64644984D01*
X138890765Y-64644984D02*
X138938384Y-64692603D01*
X138938384Y-64692603D02*
X138986003Y-64787841D01*
X138986003Y-64787841D02*
X138986003Y-64978317D01*
X138986003Y-64978317D02*
X138938384Y-65073555D01*
X138938384Y-65073555D02*
X138890765Y-65121174D01*
X138890765Y-65121174D02*
X138795527Y-65168793D01*
X124542551Y-81498072D02*
X124296825Y-80971301D01*
X124828266Y-81003200D02*
X123962240Y-80503200D01*
X123962240Y-80503200D02*
X123771764Y-80833115D01*
X123771764Y-80833115D02*
X123765384Y-80939403D01*
X123765384Y-80939403D02*
X123782814Y-81004452D01*
X123782814Y-81004452D02*
X123841483Y-81093310D01*
X123841483Y-81093310D02*
X123965201Y-81164739D01*
X123965201Y-81164739D02*
X124071489Y-81171118D01*
X124071489Y-81171118D02*
X124136538Y-81153688D01*
X124136538Y-81153688D02*
X124225396Y-81095019D01*
X124225396Y-81095019D02*
X124415873Y-80765105D01*
X123224145Y-81781619D02*
X123462240Y-81369226D01*
X123462240Y-81369226D02*
X123898443Y-81566082D01*
X123898443Y-81566082D02*
X123833394Y-81583511D01*
X123833394Y-81583511D02*
X123744536Y-81642180D01*
X123744536Y-81642180D02*
X123625488Y-81848377D01*
X123625488Y-81848377D02*
X123619108Y-81954665D01*
X123619108Y-81954665D02*
X123636538Y-82019714D01*
X123636538Y-82019714D02*
X123695207Y-82108572D01*
X123695207Y-82108572D02*
X123901404Y-82227620D01*
X123901404Y-82227620D02*
X124007692Y-82234000D01*
X124007692Y-82234000D02*
X124072741Y-82216570D01*
X124072741Y-82216570D02*
X124161599Y-82157901D01*
X124161599Y-82157901D02*
X124280647Y-81951704D01*
X124280647Y-81951704D02*
X124287026Y-81845416D01*
X124287026Y-81845416D02*
X124269597Y-81780367D01*
X149258818Y-116642930D02*
X150068341Y-116642930D01*
X150068341Y-116642930D02*
X150163579Y-116690549D01*
X150163579Y-116690549D02*
X150211199Y-116738168D01*
X150211199Y-116738168D02*
X150258818Y-116833406D01*
X150258818Y-116833406D02*
X150258818Y-117023882D01*
X150258818Y-117023882D02*
X150211199Y-117119120D01*
X150211199Y-117119120D02*
X150163579Y-117166739D01*
X150163579Y-117166739D02*
X150068341Y-117214358D01*
X150068341Y-117214358D02*
X149258818Y-117214358D01*
X150258818Y-118214358D02*
X150258818Y-117642930D01*
X150258818Y-117928644D02*
X149258818Y-117928644D01*
X149258818Y-117928644D02*
X149401675Y-117833406D01*
X149401675Y-117833406D02*
X149496913Y-117738168D01*
X149496913Y-117738168D02*
X149544532Y-117642930D01*
X149687389Y-118785787D02*
X149639770Y-118690549D01*
X149639770Y-118690549D02*
X149592151Y-118642930D01*
X149592151Y-118642930D02*
X149496913Y-118595311D01*
X149496913Y-118595311D02*
X149449294Y-118595311D01*
X149449294Y-118595311D02*
X149354056Y-118642930D01*
X149354056Y-118642930D02*
X149306437Y-118690549D01*
X149306437Y-118690549D02*
X149258818Y-118785787D01*
X149258818Y-118785787D02*
X149258818Y-118976263D01*
X149258818Y-118976263D02*
X149306437Y-119071501D01*
X149306437Y-119071501D02*
X149354056Y-119119120D01*
X149354056Y-119119120D02*
X149449294Y-119166739D01*
X149449294Y-119166739D02*
X149496913Y-119166739D01*
X149496913Y-119166739D02*
X149592151Y-119119120D01*
X149592151Y-119119120D02*
X149639770Y-119071501D01*
X149639770Y-119071501D02*
X149687389Y-118976263D01*
X149687389Y-118976263D02*
X149687389Y-118785787D01*
X149687389Y-118785787D02*
X149735008Y-118690549D01*
X149735008Y-118690549D02*
X149782627Y-118642930D01*
X149782627Y-118642930D02*
X149877865Y-118595311D01*
X149877865Y-118595311D02*
X150068341Y-118595311D01*
X150068341Y-118595311D02*
X150163579Y-118642930D01*
X150163579Y-118642930D02*
X150211199Y-118690549D01*
X150211199Y-118690549D02*
X150258818Y-118785787D01*
X150258818Y-118785787D02*
X150258818Y-118976263D01*
X150258818Y-118976263D02*
X150211199Y-119071501D01*
X150211199Y-119071501D02*
X150163579Y-119119120D01*
X150163579Y-119119120D02*
X150068341Y-119166739D01*
X150068341Y-119166739D02*
X149877865Y-119166739D01*
X149877865Y-119166739D02*
X149782627Y-119119120D01*
X149782627Y-119119120D02*
X149735008Y-119071501D01*
X149735008Y-119071501D02*
X149687389Y-118976263D01*
X149360580Y-63566142D02*
X149408200Y-63518523D01*
X149408200Y-63518523D02*
X149455819Y-63375666D01*
X149455819Y-63375666D02*
X149455819Y-63280428D01*
X149455819Y-63280428D02*
X149408200Y-63137571D01*
X149408200Y-63137571D02*
X149312961Y-63042333D01*
X149312961Y-63042333D02*
X149217723Y-62994714D01*
X149217723Y-62994714D02*
X149027247Y-62947095D01*
X149027247Y-62947095D02*
X148884390Y-62947095D01*
X148884390Y-62947095D02*
X148693914Y-62994714D01*
X148693914Y-62994714D02*
X148598676Y-63042333D01*
X148598676Y-63042333D02*
X148503438Y-63137571D01*
X148503438Y-63137571D02*
X148455819Y-63280428D01*
X148455819Y-63280428D02*
X148455819Y-63375666D01*
X148455819Y-63375666D02*
X148503438Y-63518523D01*
X148503438Y-63518523D02*
X148551057Y-63566142D01*
X149455819Y-64518523D02*
X149455819Y-63947095D01*
X149455819Y-64232809D02*
X148455819Y-64232809D01*
X148455819Y-64232809D02*
X148598676Y-64137571D01*
X148598676Y-64137571D02*
X148693914Y-64042333D01*
X148693914Y-64042333D02*
X148741533Y-63947095D01*
X148551057Y-64899476D02*
X148503438Y-64947095D01*
X148503438Y-64947095D02*
X148455819Y-65042333D01*
X148455819Y-65042333D02*
X148455819Y-65280428D01*
X148455819Y-65280428D02*
X148503438Y-65375666D01*
X148503438Y-65375666D02*
X148551057Y-65423285D01*
X148551057Y-65423285D02*
X148646295Y-65470904D01*
X148646295Y-65470904D02*
X148741533Y-65470904D01*
X148741533Y-65470904D02*
X148884390Y-65423285D01*
X148884390Y-65423285D02*
X149455819Y-64851857D01*
X149455819Y-64851857D02*
X149455819Y-65470904D01*
X115359994Y-118431708D02*
X115693327Y-117955517D01*
X115931422Y-118431708D02*
X115931422Y-117431708D01*
X115931422Y-117431708D02*
X115550470Y-117431708D01*
X115550470Y-117431708D02*
X115455232Y-117479327D01*
X115455232Y-117479327D02*
X115407613Y-117526946D01*
X115407613Y-117526946D02*
X115359994Y-117622184D01*
X115359994Y-117622184D02*
X115359994Y-117765041D01*
X115359994Y-117765041D02*
X115407613Y-117860279D01*
X115407613Y-117860279D02*
X115455232Y-117907898D01*
X115455232Y-117907898D02*
X115550470Y-117955517D01*
X115550470Y-117955517D02*
X115931422Y-117955517D01*
X114979041Y-117526946D02*
X114931422Y-117479327D01*
X114931422Y-117479327D02*
X114836184Y-117431708D01*
X114836184Y-117431708D02*
X114598089Y-117431708D01*
X114598089Y-117431708D02*
X114502851Y-117479327D01*
X114502851Y-117479327D02*
X114455232Y-117526946D01*
X114455232Y-117526946D02*
X114407613Y-117622184D01*
X114407613Y-117622184D02*
X114407613Y-117717422D01*
X114407613Y-117717422D02*
X114455232Y-117860279D01*
X114455232Y-117860279D02*
X115026660Y-118431708D01*
X115026660Y-118431708D02*
X114407613Y-118431708D01*
X113502851Y-117431708D02*
X113979041Y-117431708D01*
X113979041Y-117431708D02*
X114026660Y-117907898D01*
X114026660Y-117907898D02*
X113979041Y-117860279D01*
X113979041Y-117860279D02*
X113883803Y-117812660D01*
X113883803Y-117812660D02*
X113645708Y-117812660D01*
X113645708Y-117812660D02*
X113550470Y-117860279D01*
X113550470Y-117860279D02*
X113502851Y-117907898D01*
X113502851Y-117907898D02*
X113455232Y-118003136D01*
X113455232Y-118003136D02*
X113455232Y-118241231D01*
X113455232Y-118241231D02*
X113502851Y-118336469D01*
X113502851Y-118336469D02*
X113550470Y-118384089D01*
X113550470Y-118384089D02*
X113645708Y-118431708D01*
X113645708Y-118431708D02*
X113883803Y-118431708D01*
X113883803Y-118431708D02*
X113979041Y-118384089D01*
X113979041Y-118384089D02*
X114026660Y-118336469D01*
X146059819Y-65080642D02*
X145583628Y-64747309D01*
X146059819Y-64509214D02*
X145059819Y-64509214D01*
X145059819Y-64509214D02*
X145059819Y-64890166D01*
X145059819Y-64890166D02*
X145107438Y-64985404D01*
X145107438Y-64985404D02*
X145155057Y-65033023D01*
X145155057Y-65033023D02*
X145250295Y-65080642D01*
X145250295Y-65080642D02*
X145393152Y-65080642D01*
X145393152Y-65080642D02*
X145488390Y-65033023D01*
X145488390Y-65033023D02*
X145536009Y-64985404D01*
X145536009Y-64985404D02*
X145583628Y-64890166D01*
X145583628Y-64890166D02*
X145583628Y-64509214D01*
X145393152Y-65937785D02*
X146059819Y-65937785D01*
X145012200Y-65699690D02*
X145726485Y-65461595D01*
X145726485Y-65461595D02*
X145726485Y-66080642D01*
X146059819Y-66509214D02*
X146059819Y-66699690D01*
X146059819Y-66699690D02*
X146012200Y-66794928D01*
X146012200Y-66794928D02*
X145964580Y-66842547D01*
X145964580Y-66842547D02*
X145821723Y-66937785D01*
X145821723Y-66937785D02*
X145631247Y-66985404D01*
X145631247Y-66985404D02*
X145250295Y-66985404D01*
X145250295Y-66985404D02*
X145155057Y-66937785D01*
X145155057Y-66937785D02*
X145107438Y-66890166D01*
X145107438Y-66890166D02*
X145059819Y-66794928D01*
X145059819Y-66794928D02*
X145059819Y-66604452D01*
X145059819Y-66604452D02*
X145107438Y-66509214D01*
X145107438Y-66509214D02*
X145155057Y-66461595D01*
X145155057Y-66461595D02*
X145250295Y-66413976D01*
X145250295Y-66413976D02*
X145488390Y-66413976D01*
X145488390Y-66413976D02*
X145583628Y-66461595D01*
X145583628Y-66461595D02*
X145631247Y-66509214D01*
X145631247Y-66509214D02*
X145678866Y-66604452D01*
X145678866Y-66604452D02*
X145678866Y-66794928D01*
X145678866Y-66794928D02*
X145631247Y-66890166D01*
X145631247Y-66890166D02*
X145583628Y-66937785D01*
X145583628Y-66937785D02*
X145488390Y-66985404D01*
X124209427Y-76571049D02*
X124736198Y-76325323D01*
X124704299Y-76856764D02*
X125204299Y-75990738D01*
X125204299Y-75990738D02*
X124874384Y-75800262D01*
X124874384Y-75800262D02*
X124768096Y-75793882D01*
X124768096Y-75793882D02*
X124703047Y-75811312D01*
X124703047Y-75811312D02*
X124614189Y-75869981D01*
X124614189Y-75869981D02*
X124542760Y-75993699D01*
X124542760Y-75993699D02*
X124536381Y-76099987D01*
X124536381Y-76099987D02*
X124553811Y-76165036D01*
X124553811Y-76165036D02*
X124612480Y-76253894D01*
X124612480Y-76253894D02*
X124942394Y-76444371D01*
X124000270Y-75790463D02*
X124106558Y-75796843D01*
X124106558Y-75796843D02*
X124171607Y-75779413D01*
X124171607Y-75779413D02*
X124260465Y-75720744D01*
X124260465Y-75720744D02*
X124284275Y-75679505D01*
X124284275Y-75679505D02*
X124290654Y-75573217D01*
X124290654Y-75573217D02*
X124273225Y-75508168D01*
X124273225Y-75508168D02*
X124214555Y-75419310D01*
X124214555Y-75419310D02*
X124049598Y-75324072D01*
X124049598Y-75324072D02*
X123943310Y-75317692D01*
X123943310Y-75317692D02*
X123878261Y-75335122D01*
X123878261Y-75335122D02*
X123789403Y-75393791D01*
X123789403Y-75393791D02*
X123765593Y-75435030D01*
X123765593Y-75435030D02*
X123759214Y-75541318D01*
X123759214Y-75541318D02*
X123776643Y-75606367D01*
X123776643Y-75606367D02*
X123835313Y-75695225D01*
X123835313Y-75695225D02*
X124000270Y-75790463D01*
X124000270Y-75790463D02*
X124058939Y-75879322D01*
X124058939Y-75879322D02*
X124076369Y-75944371D01*
X124076369Y-75944371D02*
X124069989Y-76050659D01*
X124069989Y-76050659D02*
X123974751Y-76215616D01*
X123974751Y-76215616D02*
X123885892Y-76274285D01*
X123885892Y-76274285D02*
X123820844Y-76291715D01*
X123820844Y-76291715D02*
X123714555Y-76285335D01*
X123714555Y-76285335D02*
X123549598Y-76190097D01*
X123549598Y-76190097D02*
X123490929Y-76101239D01*
X123490929Y-76101239D02*
X123473499Y-76036190D01*
X123473499Y-76036190D02*
X123479879Y-75929902D01*
X123479879Y-75929902D02*
X123575117Y-75764945D01*
X123575117Y-75764945D02*
X123663976Y-75706275D01*
X123663976Y-75706275D02*
X123729024Y-75688846D01*
X123729024Y-75688846D02*
X123835313Y-75695225D01*
X105784456Y-119594984D02*
X106593979Y-119594984D01*
X106593979Y-119594984D02*
X106689217Y-119642603D01*
X106689217Y-119642603D02*
X106736837Y-119690222D01*
X106736837Y-119690222D02*
X106784456Y-119785460D01*
X106784456Y-119785460D02*
X106784456Y-119975936D01*
X106784456Y-119975936D02*
X106736837Y-120071174D01*
X106736837Y-120071174D02*
X106689217Y-120118793D01*
X106689217Y-120118793D02*
X106593979Y-120166412D01*
X106593979Y-120166412D02*
X105784456Y-120166412D01*
X106117789Y-121071174D02*
X106784456Y-121071174D01*
X105736837Y-120833079D02*
X106451122Y-120594984D01*
X106451122Y-120594984D02*
X106451122Y-121214031D01*
X131512494Y-126051708D02*
X131845827Y-125575517D01*
X132083922Y-126051708D02*
X132083922Y-125051708D01*
X132083922Y-125051708D02*
X131702970Y-125051708D01*
X131702970Y-125051708D02*
X131607732Y-125099327D01*
X131607732Y-125099327D02*
X131560113Y-125146946D01*
X131560113Y-125146946D02*
X131512494Y-125242184D01*
X131512494Y-125242184D02*
X131512494Y-125385041D01*
X131512494Y-125385041D02*
X131560113Y-125480279D01*
X131560113Y-125480279D02*
X131607732Y-125527898D01*
X131607732Y-125527898D02*
X131702970Y-125575517D01*
X131702970Y-125575517D02*
X132083922Y-125575517D01*
X130560113Y-126051708D02*
X131131541Y-126051708D01*
X130845827Y-126051708D02*
X130845827Y-125051708D01*
X130845827Y-125051708D02*
X130941065Y-125194565D01*
X130941065Y-125194565D02*
X131036303Y-125289803D01*
X131036303Y-125289803D02*
X131131541Y-125337422D01*
X130083922Y-126051708D02*
X129893446Y-126051708D01*
X129893446Y-126051708D02*
X129798208Y-126004089D01*
X129798208Y-126004089D02*
X129750589Y-125956469D01*
X129750589Y-125956469D02*
X129655351Y-125813612D01*
X129655351Y-125813612D02*
X129607732Y-125623136D01*
X129607732Y-125623136D02*
X129607732Y-125242184D01*
X129607732Y-125242184D02*
X129655351Y-125146946D01*
X129655351Y-125146946D02*
X129702970Y-125099327D01*
X129702970Y-125099327D02*
X129798208Y-125051708D01*
X129798208Y-125051708D02*
X129988684Y-125051708D01*
X129988684Y-125051708D02*
X130083922Y-125099327D01*
X130083922Y-125099327D02*
X130131541Y-125146946D01*
X130131541Y-125146946D02*
X130179160Y-125242184D01*
X130179160Y-125242184D02*
X130179160Y-125480279D01*
X130179160Y-125480279D02*
X130131541Y-125575517D01*
X130131541Y-125575517D02*
X130083922Y-125623136D01*
X130083922Y-125623136D02*
X129988684Y-125670755D01*
X129988684Y-125670755D02*
X129798208Y-125670755D01*
X129798208Y-125670755D02*
X129702970Y-125623136D01*
X129702970Y-125623136D02*
X129655351Y-125575517D01*
X129655351Y-125575517D02*
X129607732Y-125480279D01*
X125514217Y-131620222D02*
X125561837Y-131572603D01*
X125561837Y-131572603D02*
X125609456Y-131429746D01*
X125609456Y-131429746D02*
X125609456Y-131334508D01*
X125609456Y-131334508D02*
X125561837Y-131191651D01*
X125561837Y-131191651D02*
X125466598Y-131096413D01*
X125466598Y-131096413D02*
X125371360Y-131048794D01*
X125371360Y-131048794D02*
X125180884Y-131001175D01*
X125180884Y-131001175D02*
X125038027Y-131001175D01*
X125038027Y-131001175D02*
X124847551Y-131048794D01*
X124847551Y-131048794D02*
X124752313Y-131096413D01*
X124752313Y-131096413D02*
X124657075Y-131191651D01*
X124657075Y-131191651D02*
X124609456Y-131334508D01*
X124609456Y-131334508D02*
X124609456Y-131429746D01*
X124609456Y-131429746D02*
X124657075Y-131572603D01*
X124657075Y-131572603D02*
X124704694Y-131620222D01*
X124609456Y-131953556D02*
X124609456Y-132572603D01*
X124609456Y-132572603D02*
X124990408Y-132239270D01*
X124990408Y-132239270D02*
X124990408Y-132382127D01*
X124990408Y-132382127D02*
X125038027Y-132477365D01*
X125038027Y-132477365D02*
X125085646Y-132524984D01*
X125085646Y-132524984D02*
X125180884Y-132572603D01*
X125180884Y-132572603D02*
X125418979Y-132572603D01*
X125418979Y-132572603D02*
X125514217Y-132524984D01*
X125514217Y-132524984D02*
X125561837Y-132477365D01*
X125561837Y-132477365D02*
X125609456Y-132382127D01*
X125609456Y-132382127D02*
X125609456Y-132096413D01*
X125609456Y-132096413D02*
X125561837Y-132001175D01*
X125561837Y-132001175D02*
X125514217Y-131953556D01*
X122982450Y-78825769D02*
X123088738Y-78832149D01*
X123088738Y-78832149D02*
X123218835Y-78797289D01*
X123218835Y-78797289D02*
X123413982Y-78745000D01*
X123413982Y-78745000D02*
X123520270Y-78751380D01*
X123520270Y-78751380D02*
X123602749Y-78798999D01*
X123442462Y-78981386D02*
X123548750Y-78987765D01*
X123548750Y-78987765D02*
X123678847Y-78952906D01*
X123678847Y-78952906D02*
X123815325Y-78811758D01*
X123815325Y-78811758D02*
X123981991Y-78523083D01*
X123981991Y-78523083D02*
X124035990Y-78334316D01*
X124035990Y-78334316D02*
X124001131Y-78204219D01*
X124001131Y-78204219D02*
X123942462Y-78115360D01*
X123942462Y-78115360D02*
X123777504Y-78020122D01*
X123777504Y-78020122D02*
X123671216Y-78013742D01*
X123671216Y-78013742D02*
X123541119Y-78048602D01*
X123541119Y-78048602D02*
X123404641Y-78189750D01*
X123404641Y-78189750D02*
X123237975Y-78478425D01*
X123237975Y-78478425D02*
X123183976Y-78667192D01*
X123183976Y-78667192D02*
X123218835Y-78797289D01*
X123218835Y-78797289D02*
X123277504Y-78886148D01*
X123277504Y-78886148D02*
X123442462Y-78981386D01*
X123193774Y-77793077D02*
X123176345Y-77728028D01*
X123176345Y-77728028D02*
X123117676Y-77639170D01*
X123117676Y-77639170D02*
X122911479Y-77520122D01*
X122911479Y-77520122D02*
X122805191Y-77513742D01*
X122805191Y-77513742D02*
X122740142Y-77531172D01*
X122740142Y-77531172D02*
X122651284Y-77589841D01*
X122651284Y-77589841D02*
X122603665Y-77672320D01*
X122603665Y-77672320D02*
X122573475Y-77819847D01*
X122573475Y-77819847D02*
X122782633Y-78600433D01*
X122782633Y-78600433D02*
X122246522Y-78290909D01*
X108652494Y-128431708D02*
X108985827Y-127955517D01*
X109223922Y-128431708D02*
X109223922Y-127431708D01*
X109223922Y-127431708D02*
X108842970Y-127431708D01*
X108842970Y-127431708D02*
X108747732Y-127479327D01*
X108747732Y-127479327D02*
X108700113Y-127526946D01*
X108700113Y-127526946D02*
X108652494Y-127622184D01*
X108652494Y-127622184D02*
X108652494Y-127765041D01*
X108652494Y-127765041D02*
X108700113Y-127860279D01*
X108700113Y-127860279D02*
X108747732Y-127907898D01*
X108747732Y-127907898D02*
X108842970Y-127955517D01*
X108842970Y-127955517D02*
X109223922Y-127955517D01*
X107700113Y-128431708D02*
X108271541Y-128431708D01*
X107985827Y-128431708D02*
X107985827Y-127431708D01*
X107985827Y-127431708D02*
X108081065Y-127574565D01*
X108081065Y-127574565D02*
X108176303Y-127669803D01*
X108176303Y-127669803D02*
X108271541Y-127717422D01*
X107366779Y-127431708D02*
X106747732Y-127431708D01*
X106747732Y-127431708D02*
X107081065Y-127812660D01*
X107081065Y-127812660D02*
X106938208Y-127812660D01*
X106938208Y-127812660D02*
X106842970Y-127860279D01*
X106842970Y-127860279D02*
X106795351Y-127907898D01*
X106795351Y-127907898D02*
X106747732Y-128003136D01*
X106747732Y-128003136D02*
X106747732Y-128241231D01*
X106747732Y-128241231D02*
X106795351Y-128336469D01*
X106795351Y-128336469D02*
X106842970Y-128384089D01*
X106842970Y-128384089D02*
X106938208Y-128431708D01*
X106938208Y-128431708D02*
X107223922Y-128431708D01*
X107223922Y-128431708D02*
X107319160Y-128384089D01*
X107319160Y-128384089D02*
X107366779Y-128336469D01*
X131512494Y-128591708D02*
X131845827Y-128115517D01*
X132083922Y-128591708D02*
X132083922Y-127591708D01*
X132083922Y-127591708D02*
X131702970Y-127591708D01*
X131702970Y-127591708D02*
X131607732Y-127639327D01*
X131607732Y-127639327D02*
X131560113Y-127686946D01*
X131560113Y-127686946D02*
X131512494Y-127782184D01*
X131512494Y-127782184D02*
X131512494Y-127925041D01*
X131512494Y-127925041D02*
X131560113Y-128020279D01*
X131560113Y-128020279D02*
X131607732Y-128067898D01*
X131607732Y-128067898D02*
X131702970Y-128115517D01*
X131702970Y-128115517D02*
X132083922Y-128115517D01*
X130560113Y-128591708D02*
X131131541Y-128591708D01*
X130845827Y-128591708D02*
X130845827Y-127591708D01*
X130845827Y-127591708D02*
X130941065Y-127734565D01*
X130941065Y-127734565D02*
X131036303Y-127829803D01*
X131036303Y-127829803D02*
X131131541Y-127877422D01*
X129607732Y-128591708D02*
X130179160Y-128591708D01*
X129893446Y-128591708D02*
X129893446Y-127591708D01*
X129893446Y-127591708D02*
X129988684Y-127734565D01*
X129988684Y-127734565D02*
X130083922Y-127829803D01*
X130083922Y-127829803D02*
X130179160Y-127877422D01*
X131805051Y-85787824D02*
X131559325Y-85261053D01*
X132090766Y-85292952D02*
X131224740Y-84792952D01*
X131224740Y-84792952D02*
X131034264Y-85122867D01*
X131034264Y-85122867D02*
X131027884Y-85229155D01*
X131027884Y-85229155D02*
X131045314Y-85294204D01*
X131045314Y-85294204D02*
X131103983Y-85383062D01*
X131103983Y-85383062D02*
X131227701Y-85454491D01*
X131227701Y-85454491D02*
X131333989Y-85460870D01*
X131333989Y-85460870D02*
X131399038Y-85443440D01*
X131399038Y-85443440D02*
X131487896Y-85384771D01*
X131487896Y-85384771D02*
X131678373Y-85054857D01*
X130799130Y-86196798D02*
X131376480Y-86530131D01*
X130588263Y-85800125D02*
X131325900Y-85951072D01*
X131325900Y-85951072D02*
X131016376Y-86487183D01*
X117899994Y-124781708D02*
X118233327Y-124305517D01*
X118471422Y-124781708D02*
X118471422Y-123781708D01*
X118471422Y-123781708D02*
X118090470Y-123781708D01*
X118090470Y-123781708D02*
X117995232Y-123829327D01*
X117995232Y-123829327D02*
X117947613Y-123876946D01*
X117947613Y-123876946D02*
X117899994Y-123972184D01*
X117899994Y-123972184D02*
X117899994Y-124115041D01*
X117899994Y-124115041D02*
X117947613Y-124210279D01*
X117947613Y-124210279D02*
X117995232Y-124257898D01*
X117995232Y-124257898D02*
X118090470Y-124305517D01*
X118090470Y-124305517D02*
X118471422Y-124305517D01*
X117519041Y-123876946D02*
X117471422Y-123829327D01*
X117471422Y-123829327D02*
X117376184Y-123781708D01*
X117376184Y-123781708D02*
X117138089Y-123781708D01*
X117138089Y-123781708D02*
X117042851Y-123829327D01*
X117042851Y-123829327D02*
X116995232Y-123876946D01*
X116995232Y-123876946D02*
X116947613Y-123972184D01*
X116947613Y-123972184D02*
X116947613Y-124067422D01*
X116947613Y-124067422D02*
X116995232Y-124210279D01*
X116995232Y-124210279D02*
X117566660Y-124781708D01*
X117566660Y-124781708D02*
X116947613Y-124781708D01*
X116614279Y-123781708D02*
X115995232Y-123781708D01*
X115995232Y-123781708D02*
X116328565Y-124162660D01*
X116328565Y-124162660D02*
X116185708Y-124162660D01*
X116185708Y-124162660D02*
X116090470Y-124210279D01*
X116090470Y-124210279D02*
X116042851Y-124257898D01*
X116042851Y-124257898D02*
X115995232Y-124353136D01*
X115995232Y-124353136D02*
X115995232Y-124591231D01*
X115995232Y-124591231D02*
X116042851Y-124686469D01*
X116042851Y-124686469D02*
X116090470Y-124734089D01*
X116090470Y-124734089D02*
X116185708Y-124781708D01*
X116185708Y-124781708D02*
X116471422Y-124781708D01*
X116471422Y-124781708D02*
X116566660Y-124734089D01*
X116566660Y-124734089D02*
X116614279Y-124686469D01*
X157143818Y-116624794D02*
X157953341Y-116624794D01*
X157953341Y-116624794D02*
X158048579Y-116672413D01*
X158048579Y-116672413D02*
X158096199Y-116720032D01*
X158096199Y-116720032D02*
X158143818Y-116815270D01*
X158143818Y-116815270D02*
X158143818Y-117005746D01*
X158143818Y-117005746D02*
X158096199Y-117100984D01*
X158096199Y-117100984D02*
X158048579Y-117148603D01*
X158048579Y-117148603D02*
X157953341Y-117196222D01*
X157953341Y-117196222D02*
X157143818Y-117196222D01*
X157239056Y-117624794D02*
X157191437Y-117672413D01*
X157191437Y-117672413D02*
X157143818Y-117767651D01*
X157143818Y-117767651D02*
X157143818Y-118005746D01*
X157143818Y-118005746D02*
X157191437Y-118100984D01*
X157191437Y-118100984D02*
X157239056Y-118148603D01*
X157239056Y-118148603D02*
X157334294Y-118196222D01*
X157334294Y-118196222D02*
X157429532Y-118196222D01*
X157429532Y-118196222D02*
X157572389Y-118148603D01*
X157572389Y-118148603D02*
X158143818Y-117577175D01*
X158143818Y-117577175D02*
X158143818Y-118196222D01*
X157143818Y-118815270D02*
X157143818Y-118910508D01*
X157143818Y-118910508D02*
X157191437Y-119005746D01*
X157191437Y-119005746D02*
X157239056Y-119053365D01*
X157239056Y-119053365D02*
X157334294Y-119100984D01*
X157334294Y-119100984D02*
X157524770Y-119148603D01*
X157524770Y-119148603D02*
X157762865Y-119148603D01*
X157762865Y-119148603D02*
X157953341Y-119100984D01*
X157953341Y-119100984D02*
X158048579Y-119053365D01*
X158048579Y-119053365D02*
X158096199Y-119005746D01*
X158096199Y-119005746D02*
X158143818Y-118910508D01*
X158143818Y-118910508D02*
X158143818Y-118815270D01*
X158143818Y-118815270D02*
X158096199Y-118720032D01*
X158096199Y-118720032D02*
X158048579Y-118672413D01*
X158048579Y-118672413D02*
X157953341Y-118624794D01*
X157953341Y-118624794D02*
X157762865Y-118577175D01*
X157762865Y-118577175D02*
X157524770Y-118577175D01*
X157524770Y-118577175D02*
X157334294Y-118624794D01*
X157334294Y-118624794D02*
X157239056Y-118672413D01*
X157239056Y-118672413D02*
X157191437Y-118720032D01*
X157191437Y-118720032D02*
X157143818Y-118815270D01*
X141778818Y-116642930D02*
X142588341Y-116642930D01*
X142588341Y-116642930D02*
X142683579Y-116690549D01*
X142683579Y-116690549D02*
X142731199Y-116738168D01*
X142731199Y-116738168D02*
X142778818Y-116833406D01*
X142778818Y-116833406D02*
X142778818Y-117023882D01*
X142778818Y-117023882D02*
X142731199Y-117119120D01*
X142731199Y-117119120D02*
X142683579Y-117166739D01*
X142683579Y-117166739D02*
X142588341Y-117214358D01*
X142588341Y-117214358D02*
X141778818Y-117214358D01*
X142778818Y-118214358D02*
X142778818Y-117642930D01*
X142778818Y-117928644D02*
X141778818Y-117928644D01*
X141778818Y-117928644D02*
X141921675Y-117833406D01*
X141921675Y-117833406D02*
X142016913Y-117738168D01*
X142016913Y-117738168D02*
X142064532Y-117642930D01*
X142778818Y-118690549D02*
X142778818Y-118881025D01*
X142778818Y-118881025D02*
X142731199Y-118976263D01*
X142731199Y-118976263D02*
X142683579Y-119023882D01*
X142683579Y-119023882D02*
X142540722Y-119119120D01*
X142540722Y-119119120D02*
X142350246Y-119166739D01*
X142350246Y-119166739D02*
X141969294Y-119166739D01*
X141969294Y-119166739D02*
X141874056Y-119119120D01*
X141874056Y-119119120D02*
X141826437Y-119071501D01*
X141826437Y-119071501D02*
X141778818Y-118976263D01*
X141778818Y-118976263D02*
X141778818Y-118785787D01*
X141778818Y-118785787D02*
X141826437Y-118690549D01*
X141826437Y-118690549D02*
X141874056Y-118642930D01*
X141874056Y-118642930D02*
X141969294Y-118595311D01*
X141969294Y-118595311D02*
X142207389Y-118595311D01*
X142207389Y-118595311D02*
X142302627Y-118642930D01*
X142302627Y-118642930D02*
X142350246Y-118690549D01*
X142350246Y-118690549D02*
X142397865Y-118785787D01*
X142397865Y-118785787D02*
X142397865Y-118976263D01*
X142397865Y-118976263D02*
X142350246Y-119071501D01*
X142350246Y-119071501D02*
X142302627Y-119119120D01*
X142302627Y-119119120D02*
X142207389Y-119166739D01*
X108652494Y-125891708D02*
X108985827Y-125415517D01*
X109223922Y-125891708D02*
X109223922Y-124891708D01*
X109223922Y-124891708D02*
X108842970Y-124891708D01*
X108842970Y-124891708D02*
X108747732Y-124939327D01*
X108747732Y-124939327D02*
X108700113Y-124986946D01*
X108700113Y-124986946D02*
X108652494Y-125082184D01*
X108652494Y-125082184D02*
X108652494Y-125225041D01*
X108652494Y-125225041D02*
X108700113Y-125320279D01*
X108700113Y-125320279D02*
X108747732Y-125367898D01*
X108747732Y-125367898D02*
X108842970Y-125415517D01*
X108842970Y-125415517D02*
X109223922Y-125415517D01*
X108271541Y-124986946D02*
X108223922Y-124939327D01*
X108223922Y-124939327D02*
X108128684Y-124891708D01*
X108128684Y-124891708D02*
X107890589Y-124891708D01*
X107890589Y-124891708D02*
X107795351Y-124939327D01*
X107795351Y-124939327D02*
X107747732Y-124986946D01*
X107747732Y-124986946D02*
X107700113Y-125082184D01*
X107700113Y-125082184D02*
X107700113Y-125177422D01*
X107700113Y-125177422D02*
X107747732Y-125320279D01*
X107747732Y-125320279D02*
X108319160Y-125891708D01*
X108319160Y-125891708D02*
X107700113Y-125891708D01*
X106747732Y-125891708D02*
X107319160Y-125891708D01*
X107033446Y-125891708D02*
X107033446Y-124891708D01*
X107033446Y-124891708D02*
X107128684Y-125034565D01*
X107128684Y-125034565D02*
X107223922Y-125129803D01*
X107223922Y-125129803D02*
X107319160Y-125177422D01*
D13*
X99509556Y-48899006D02*
X100223841Y-48899006D01*
X100223841Y-48899006D02*
X100366698Y-48851387D01*
X100366698Y-48851387D02*
X100461937Y-48756149D01*
X100461937Y-48756149D02*
X100509556Y-48613292D01*
X100509556Y-48613292D02*
X100509556Y-48518054D01*
X99842889Y-49803768D02*
X100509556Y-49803768D01*
X99461937Y-49565673D02*
X100176222Y-49327578D01*
X100176222Y-49327578D02*
X100176222Y-49946625D01*
X100509556Y-50375197D02*
X100509556Y-50565673D01*
X100509556Y-50565673D02*
X100461937Y-50660911D01*
X100461937Y-50660911D02*
X100414317Y-50708530D01*
X100414317Y-50708530D02*
X100271460Y-50803768D01*
X100271460Y-50803768D02*
X100080984Y-50851387D01*
X100080984Y-50851387D02*
X99700032Y-50851387D01*
X99700032Y-50851387D02*
X99604794Y-50803768D01*
X99604794Y-50803768D02*
X99557175Y-50756149D01*
X99557175Y-50756149D02*
X99509556Y-50660911D01*
X99509556Y-50660911D02*
X99509556Y-50470435D01*
X99509556Y-50470435D02*
X99557175Y-50375197D01*
X99557175Y-50375197D02*
X99604794Y-50327578D01*
X99604794Y-50327578D02*
X99700032Y-50279959D01*
X99700032Y-50279959D02*
X99938127Y-50279959D01*
X99938127Y-50279959D02*
X100033365Y-50327578D01*
X100033365Y-50327578D02*
X100080984Y-50375197D01*
X100080984Y-50375197D02*
X100128603Y-50470435D01*
X100128603Y-50470435D02*
X100128603Y-50660911D01*
X100128603Y-50660911D02*
X100080984Y-50756149D01*
X100080984Y-50756149D02*
X100033365Y-50803768D01*
X100033365Y-50803768D02*
X99938127Y-50851387D01*
D12*
X106799125Y-81674250D02*
X106441982Y-82292839D01*
X106441982Y-82292839D02*
X106411793Y-82440367D01*
X106411793Y-82440367D02*
X106446652Y-82570464D01*
X106446652Y-82570464D02*
X106546561Y-82683132D01*
X106546561Y-82683132D02*
X106629039Y-82730751D01*
X106469210Y-81483773D02*
X105933099Y-81174250D01*
X105933099Y-81174250D02*
X106031298Y-81670831D01*
X106031298Y-81670831D02*
X105907580Y-81599402D01*
X105907580Y-81599402D02*
X105801292Y-81593022D01*
X105801292Y-81593022D02*
X105736243Y-81610452D01*
X105736243Y-81610452D02*
X105647385Y-81669121D01*
X105647385Y-81669121D02*
X105528337Y-81875318D01*
X105528337Y-81875318D02*
X105521958Y-81981606D01*
X105521958Y-81981606D02*
X105539387Y-82046655D01*
X105539387Y-82046655D02*
X105598056Y-82135513D01*
X105598056Y-82135513D02*
X105845492Y-82278370D01*
X105845492Y-82278370D02*
X105951780Y-82284750D01*
X105951780Y-82284750D02*
X106016829Y-82267320D01*
X105149552Y-80721869D02*
X105561945Y-80959964D01*
X105561945Y-80959964D02*
X105365090Y-81396166D01*
X105365090Y-81396166D02*
X105347660Y-81331118D01*
X105347660Y-81331118D02*
X105288991Y-81242259D01*
X105288991Y-81242259D02*
X105082794Y-81123212D01*
X105082794Y-81123212D02*
X104976506Y-81116832D01*
X104976506Y-81116832D02*
X104911457Y-81134262D01*
X104911457Y-81134262D02*
X104822599Y-81192931D01*
X104822599Y-81192931D02*
X104703551Y-81399127D01*
X104703551Y-81399127D02*
X104697171Y-81505415D01*
X104697171Y-81505415D02*
X104714601Y-81570464D01*
X104714601Y-81570464D02*
X104773270Y-81659323D01*
X104773270Y-81659323D02*
X104979467Y-81778370D01*
X104979467Y-81778370D02*
X105085755Y-81784750D01*
X105085755Y-81784750D02*
X105150804Y-81767320D01*
X130244950Y-82861521D02*
X130351238Y-82867901D01*
X130351238Y-82867901D02*
X130481335Y-82833041D01*
X130481335Y-82833041D02*
X130676482Y-82780752D01*
X130676482Y-82780752D02*
X130782770Y-82787132D01*
X130782770Y-82787132D02*
X130865249Y-82834751D01*
X130704962Y-83017138D02*
X130811250Y-83023517D01*
X130811250Y-83023517D02*
X130941347Y-82988658D01*
X130941347Y-82988658D02*
X131077825Y-82847510D01*
X131077825Y-82847510D02*
X131244491Y-82558835D01*
X131244491Y-82558835D02*
X131298490Y-82370068D01*
X131298490Y-82370068D02*
X131263631Y-82239971D01*
X131263631Y-82239971D02*
X131204962Y-82151112D01*
X131204962Y-82151112D02*
X131040004Y-82055874D01*
X131040004Y-82055874D02*
X130933716Y-82049494D01*
X130933716Y-82049494D02*
X130803619Y-82084354D01*
X130803619Y-82084354D02*
X130667141Y-82225502D01*
X130667141Y-82225502D02*
X130500475Y-82514177D01*
X130500475Y-82514177D02*
X130446476Y-82702944D01*
X130446476Y-82702944D02*
X130481335Y-82833041D01*
X130481335Y-82833041D02*
X130540004Y-82921900D01*
X130540004Y-82921900D02*
X130704962Y-83017138D01*
X129509022Y-82326661D02*
X130003893Y-82612376D01*
X129756458Y-82469519D02*
X130256458Y-81603493D01*
X130256458Y-81603493D02*
X130267508Y-81774830D01*
X130267508Y-81774830D02*
X130302367Y-81904928D01*
X130302367Y-81904928D02*
X130361036Y-81993786D01*
X122804217Y-132145222D02*
X122851837Y-132097603D01*
X122851837Y-132097603D02*
X122899456Y-131954746D01*
X122899456Y-131954746D02*
X122899456Y-131859508D01*
X122899456Y-131859508D02*
X122851837Y-131716651D01*
X122851837Y-131716651D02*
X122756598Y-131621413D01*
X122756598Y-131621413D02*
X122661360Y-131573794D01*
X122661360Y-131573794D02*
X122470884Y-131526175D01*
X122470884Y-131526175D02*
X122328027Y-131526175D01*
X122328027Y-131526175D02*
X122137551Y-131573794D01*
X122137551Y-131573794D02*
X122042313Y-131621413D01*
X122042313Y-131621413D02*
X121947075Y-131716651D01*
X121947075Y-131716651D02*
X121899456Y-131859508D01*
X121899456Y-131859508D02*
X121899456Y-131954746D01*
X121899456Y-131954746D02*
X121947075Y-132097603D01*
X121947075Y-132097603D02*
X121994694Y-132145222D01*
X122232789Y-133002365D02*
X122899456Y-133002365D01*
X121851837Y-132764270D02*
X122566122Y-132526175D01*
X122566122Y-132526175D02*
X122566122Y-133145222D01*
X117661541Y-128011708D02*
X117661541Y-128821231D01*
X117661541Y-128821231D02*
X117613922Y-128916469D01*
X117613922Y-128916469D02*
X117566303Y-128964089D01*
X117566303Y-128964089D02*
X117471065Y-129011708D01*
X117471065Y-129011708D02*
X117280589Y-129011708D01*
X117280589Y-129011708D02*
X117185351Y-128964089D01*
X117185351Y-128964089D02*
X117137732Y-128916469D01*
X117137732Y-128916469D02*
X117090113Y-128821231D01*
X117090113Y-128821231D02*
X117090113Y-128011708D01*
X116471065Y-128440279D02*
X116566303Y-128392660D01*
X116566303Y-128392660D02*
X116613922Y-128345041D01*
X116613922Y-128345041D02*
X116661541Y-128249803D01*
X116661541Y-128249803D02*
X116661541Y-128202184D01*
X116661541Y-128202184D02*
X116613922Y-128106946D01*
X116613922Y-128106946D02*
X116566303Y-128059327D01*
X116566303Y-128059327D02*
X116471065Y-128011708D01*
X116471065Y-128011708D02*
X116280589Y-128011708D01*
X116280589Y-128011708D02*
X116185351Y-128059327D01*
X116185351Y-128059327D02*
X116137732Y-128106946D01*
X116137732Y-128106946D02*
X116090113Y-128202184D01*
X116090113Y-128202184D02*
X116090113Y-128249803D01*
X116090113Y-128249803D02*
X116137732Y-128345041D01*
X116137732Y-128345041D02*
X116185351Y-128392660D01*
X116185351Y-128392660D02*
X116280589Y-128440279D01*
X116280589Y-128440279D02*
X116471065Y-128440279D01*
X116471065Y-128440279D02*
X116566303Y-128487898D01*
X116566303Y-128487898D02*
X116613922Y-128535517D01*
X116613922Y-128535517D02*
X116661541Y-128630755D01*
X116661541Y-128630755D02*
X116661541Y-128821231D01*
X116661541Y-128821231D02*
X116613922Y-128916469D01*
X116613922Y-128916469D02*
X116566303Y-128964089D01*
X116566303Y-128964089D02*
X116471065Y-129011708D01*
X116471065Y-129011708D02*
X116280589Y-129011708D01*
X116280589Y-129011708D02*
X116185351Y-128964089D01*
X116185351Y-128964089D02*
X116137732Y-128916469D01*
X116137732Y-128916469D02*
X116090113Y-128821231D01*
X116090113Y-128821231D02*
X116090113Y-128630755D01*
X116090113Y-128630755D02*
X116137732Y-128535517D01*
X116137732Y-128535517D02*
X116185351Y-128487898D01*
X116185351Y-128487898D02*
X116280589Y-128440279D01*
X147201580Y-69764031D02*
X147249200Y-69716412D01*
X147249200Y-69716412D02*
X147296819Y-69573555D01*
X147296819Y-69573555D02*
X147296819Y-69478317D01*
X147296819Y-69478317D02*
X147249200Y-69335460D01*
X147249200Y-69335460D02*
X147153961Y-69240222D01*
X147153961Y-69240222D02*
X147058723Y-69192603D01*
X147058723Y-69192603D02*
X146868247Y-69144984D01*
X146868247Y-69144984D02*
X146725390Y-69144984D01*
X146725390Y-69144984D02*
X146534914Y-69192603D01*
X146534914Y-69192603D02*
X146439676Y-69240222D01*
X146439676Y-69240222D02*
X146344438Y-69335460D01*
X146344438Y-69335460D02*
X146296819Y-69478317D01*
X146296819Y-69478317D02*
X146296819Y-69573555D01*
X146296819Y-69573555D02*
X146344438Y-69716412D01*
X146344438Y-69716412D02*
X146392057Y-69764031D01*
X147296819Y-70716412D02*
X147296819Y-70144984D01*
X147296819Y-70430698D02*
X146296819Y-70430698D01*
X146296819Y-70430698D02*
X146439676Y-70335460D01*
X146439676Y-70335460D02*
X146534914Y-70240222D01*
X146534914Y-70240222D02*
X146582533Y-70144984D01*
X147296819Y-71668793D02*
X147296819Y-71097365D01*
X147296819Y-71383079D02*
X146296819Y-71383079D01*
X146296819Y-71383079D02*
X146439676Y-71287841D01*
X146439676Y-71287841D02*
X146534914Y-71192603D01*
X146534914Y-71192603D02*
X146582533Y-71097365D01*
X188627283Y-67341404D02*
X188984426Y-67959994D01*
X188984426Y-67959994D02*
X189097094Y-68059902D01*
X189097094Y-68059902D02*
X189227191Y-68094762D01*
X189227191Y-68094762D02*
X189374719Y-68064572D01*
X189374719Y-68064572D02*
X189457197Y-68016953D01*
X188010403Y-68082460D02*
X188343736Y-68659811D01*
X188026123Y-67633498D02*
X188589462Y-68133040D01*
X188589462Y-68133040D02*
X188053351Y-68442564D01*
X187436471Y-69183620D02*
X187931343Y-68897906D01*
X187683907Y-69040763D02*
X187183907Y-68174738D01*
X187183907Y-68174738D02*
X187337814Y-68250837D01*
X187337814Y-68250837D02*
X187467912Y-68285696D01*
X187467912Y-68285696D02*
X187574200Y-68279316D01*
X141554994Y-81466469D02*
X141602613Y-81514089D01*
X141602613Y-81514089D02*
X141745470Y-81561708D01*
X141745470Y-81561708D02*
X141840708Y-81561708D01*
X141840708Y-81561708D02*
X141983565Y-81514089D01*
X141983565Y-81514089D02*
X142078803Y-81418850D01*
X142078803Y-81418850D02*
X142126422Y-81323612D01*
X142126422Y-81323612D02*
X142174041Y-81133136D01*
X142174041Y-81133136D02*
X142174041Y-80990279D01*
X142174041Y-80990279D02*
X142126422Y-80799803D01*
X142126422Y-80799803D02*
X142078803Y-80704565D01*
X142078803Y-80704565D02*
X141983565Y-80609327D01*
X141983565Y-80609327D02*
X141840708Y-80561708D01*
X141840708Y-80561708D02*
X141745470Y-80561708D01*
X141745470Y-80561708D02*
X141602613Y-80609327D01*
X141602613Y-80609327D02*
X141554994Y-80656946D01*
X140602613Y-81561708D02*
X141174041Y-81561708D01*
X140888327Y-81561708D02*
X140888327Y-80561708D01*
X140888327Y-80561708D02*
X140983565Y-80704565D01*
X140983565Y-80704565D02*
X141078803Y-80799803D01*
X141078803Y-80799803D02*
X141174041Y-80847422D01*
X140269279Y-80561708D02*
X139650232Y-80561708D01*
X139650232Y-80561708D02*
X139983565Y-80942660D01*
X139983565Y-80942660D02*
X139840708Y-80942660D01*
X139840708Y-80942660D02*
X139745470Y-80990279D01*
X139745470Y-80990279D02*
X139697851Y-81037898D01*
X139697851Y-81037898D02*
X139650232Y-81133136D01*
X139650232Y-81133136D02*
X139650232Y-81371231D01*
X139650232Y-81371231D02*
X139697851Y-81466469D01*
X139697851Y-81466469D02*
X139745470Y-81514089D01*
X139745470Y-81514089D02*
X139840708Y-81561708D01*
X139840708Y-81561708D02*
X140126422Y-81561708D01*
X140126422Y-81561708D02*
X140221660Y-81514089D01*
X140221660Y-81514089D02*
X140269279Y-81466469D01*
X156360094Y-70068819D02*
X156360094Y-70878342D01*
X156360094Y-70878342D02*
X156312475Y-70973580D01*
X156312475Y-70973580D02*
X156264856Y-71021200D01*
X156264856Y-71021200D02*
X156169618Y-71068819D01*
X156169618Y-71068819D02*
X155979142Y-71068819D01*
X155979142Y-71068819D02*
X155883904Y-71021200D01*
X155883904Y-71021200D02*
X155836285Y-70973580D01*
X155836285Y-70973580D02*
X155788666Y-70878342D01*
X155788666Y-70878342D02*
X155788666Y-70068819D01*
X155360094Y-70164057D02*
X155312475Y-70116438D01*
X155312475Y-70116438D02*
X155217237Y-70068819D01*
X155217237Y-70068819D02*
X154979142Y-70068819D01*
X154979142Y-70068819D02*
X154883904Y-70116438D01*
X154883904Y-70116438D02*
X154836285Y-70164057D01*
X154836285Y-70164057D02*
X154788666Y-70259295D01*
X154788666Y-70259295D02*
X154788666Y-70354533D01*
X154788666Y-70354533D02*
X154836285Y-70497390D01*
X154836285Y-70497390D02*
X155407713Y-71068819D01*
X155407713Y-71068819D02*
X154788666Y-71068819D01*
X154407713Y-70164057D02*
X154360094Y-70116438D01*
X154360094Y-70116438D02*
X154264856Y-70068819D01*
X154264856Y-70068819D02*
X154026761Y-70068819D01*
X154026761Y-70068819D02*
X153931523Y-70116438D01*
X153931523Y-70116438D02*
X153883904Y-70164057D01*
X153883904Y-70164057D02*
X153836285Y-70259295D01*
X153836285Y-70259295D02*
X153836285Y-70354533D01*
X153836285Y-70354533D02*
X153883904Y-70497390D01*
X153883904Y-70497390D02*
X154455332Y-71068819D01*
X154455332Y-71068819D02*
X153836285Y-71068819D01*
X140888494Y-86798469D02*
X140936113Y-86846089D01*
X140936113Y-86846089D02*
X141078970Y-86893708D01*
X141078970Y-86893708D02*
X141174208Y-86893708D01*
X141174208Y-86893708D02*
X141317065Y-86846089D01*
X141317065Y-86846089D02*
X141412303Y-86750850D01*
X141412303Y-86750850D02*
X141459922Y-86655612D01*
X141459922Y-86655612D02*
X141507541Y-86465136D01*
X141507541Y-86465136D02*
X141507541Y-86322279D01*
X141507541Y-86322279D02*
X141459922Y-86131803D01*
X141459922Y-86131803D02*
X141412303Y-86036565D01*
X141412303Y-86036565D02*
X141317065Y-85941327D01*
X141317065Y-85941327D02*
X141174208Y-85893708D01*
X141174208Y-85893708D02*
X141078970Y-85893708D01*
X141078970Y-85893708D02*
X140936113Y-85941327D01*
X140936113Y-85941327D02*
X140888494Y-85988946D01*
X139936113Y-86893708D02*
X140507541Y-86893708D01*
X140221827Y-86893708D02*
X140221827Y-85893708D01*
X140221827Y-85893708D02*
X140317065Y-86036565D01*
X140317065Y-86036565D02*
X140412303Y-86131803D01*
X140412303Y-86131803D02*
X140507541Y-86179422D01*
X139078970Y-86227041D02*
X139078970Y-86893708D01*
X139317065Y-85846089D02*
X139555160Y-86560374D01*
X139555160Y-86560374D02*
X138936113Y-86560374D01*
X106636542Y-135777069D02*
X106636542Y-136777069D01*
X106636542Y-136777069D02*
X106874637Y-136777069D01*
X106874637Y-136777069D02*
X107017494Y-136729450D01*
X107017494Y-136729450D02*
X107112732Y-136634212D01*
X107112732Y-136634212D02*
X107160351Y-136538974D01*
X107160351Y-136538974D02*
X107207970Y-136348498D01*
X107207970Y-136348498D02*
X107207970Y-136205641D01*
X107207970Y-136205641D02*
X107160351Y-136015165D01*
X107160351Y-136015165D02*
X107112732Y-135919927D01*
X107112732Y-135919927D02*
X107017494Y-135824689D01*
X107017494Y-135824689D02*
X106874637Y-135777069D01*
X106874637Y-135777069D02*
X106636542Y-135777069D01*
X107588923Y-136681831D02*
X107636542Y-136729450D01*
X107636542Y-136729450D02*
X107731780Y-136777069D01*
X107731780Y-136777069D02*
X107969875Y-136777069D01*
X107969875Y-136777069D02*
X108065113Y-136729450D01*
X108065113Y-136729450D02*
X108112732Y-136681831D01*
X108112732Y-136681831D02*
X108160351Y-136586593D01*
X108160351Y-136586593D02*
X108160351Y-136491355D01*
X108160351Y-136491355D02*
X108112732Y-136348498D01*
X108112732Y-136348498D02*
X107541304Y-135777069D01*
X107541304Y-135777069D02*
X108160351Y-135777069D01*
X142249819Y-65080642D02*
X141773628Y-64747309D01*
X142249819Y-64509214D02*
X141249819Y-64509214D01*
X141249819Y-64509214D02*
X141249819Y-64890166D01*
X141249819Y-64890166D02*
X141297438Y-64985404D01*
X141297438Y-64985404D02*
X141345057Y-65033023D01*
X141345057Y-65033023D02*
X141440295Y-65080642D01*
X141440295Y-65080642D02*
X141583152Y-65080642D01*
X141583152Y-65080642D02*
X141678390Y-65033023D01*
X141678390Y-65033023D02*
X141726009Y-64985404D01*
X141726009Y-64985404D02*
X141773628Y-64890166D01*
X141773628Y-64890166D02*
X141773628Y-64509214D01*
X141249819Y-65413976D02*
X141249819Y-66033023D01*
X141249819Y-66033023D02*
X141630771Y-65699690D01*
X141630771Y-65699690D02*
X141630771Y-65842547D01*
X141630771Y-65842547D02*
X141678390Y-65937785D01*
X141678390Y-65937785D02*
X141726009Y-65985404D01*
X141726009Y-65985404D02*
X141821247Y-66033023D01*
X141821247Y-66033023D02*
X142059342Y-66033023D01*
X142059342Y-66033023D02*
X142154580Y-65985404D01*
X142154580Y-65985404D02*
X142202200Y-65937785D01*
X142202200Y-65937785D02*
X142249819Y-65842547D01*
X142249819Y-65842547D02*
X142249819Y-65556833D01*
X142249819Y-65556833D02*
X142202200Y-65461595D01*
X142202200Y-65461595D02*
X142154580Y-65413976D01*
X141249819Y-66937785D02*
X141249819Y-66461595D01*
X141249819Y-66461595D02*
X141726009Y-66413976D01*
X141726009Y-66413976D02*
X141678390Y-66461595D01*
X141678390Y-66461595D02*
X141630771Y-66556833D01*
X141630771Y-66556833D02*
X141630771Y-66794928D01*
X141630771Y-66794928D02*
X141678390Y-66890166D01*
X141678390Y-66890166D02*
X141726009Y-66937785D01*
X141726009Y-66937785D02*
X141821247Y-66985404D01*
X141821247Y-66985404D02*
X142059342Y-66985404D01*
X142059342Y-66985404D02*
X142154580Y-66937785D01*
X142154580Y-66937785D02*
X142202200Y-66890166D01*
X142202200Y-66890166D02*
X142249819Y-66794928D01*
X142249819Y-66794928D02*
X142249819Y-66556833D01*
X142249819Y-66556833D02*
X142202200Y-66461595D01*
X142202200Y-66461595D02*
X142154580Y-66413976D01*
D14*
%TO.C,R5*%
X124978614Y-81648153D02*
X124723890Y-82089347D01*
X125883610Y-82170653D02*
X125628886Y-82611847D01*
%TO.C,U18*%
X146143999Y-115496025D02*
X146383999Y-115496025D01*
X146143999Y-117881025D02*
X146143999Y-115496025D01*
X146143999Y-117881025D02*
X146143999Y-120266025D01*
X146143999Y-120266025D02*
X146383999Y-120266025D01*
X148963999Y-115496025D02*
X148723999Y-115496025D01*
X148963999Y-117881025D02*
X148963999Y-115496025D01*
X148963999Y-117881025D02*
X148963999Y-120266025D01*
X148963999Y-120266025D02*
X148723999Y-120266025D01*
X149053999Y-121283525D02*
X148723999Y-121043525D01*
X149053999Y-120803525D01*
X149053999Y-121283525D01*
G36*
X149053999Y-121283525D02*
G01*
X148723999Y-121043525D01*
X149053999Y-120803525D01*
X149053999Y-121283525D01*
G37*
%TO.C,C12*%
X148393000Y-67398248D02*
X148393000Y-67920752D01*
X149863000Y-67398248D02*
X149863000Y-67920752D01*
%TO.C,R25*%
X114462413Y-116024389D02*
X114971861Y-116024389D01*
X114462413Y-117069389D02*
X114971861Y-117069389D01*
%TO.C,R49*%
X143652500Y-65978224D02*
X143652500Y-65468776D01*
X144697500Y-65978224D02*
X144697500Y-65468776D01*
%TO.C,R8*%
X123536847Y-77912108D02*
X123095653Y-77657384D01*
X124059347Y-77007112D02*
X123618153Y-76752388D01*
%TO.C,U4*%
X100369637Y-120356889D02*
X100369637Y-118406889D01*
X100369637Y-120356889D02*
X100369637Y-122306889D01*
X105489637Y-120356889D02*
X105489637Y-118406889D01*
X105489637Y-120356889D02*
X105489637Y-122306889D01*
X105724637Y-123296889D02*
X105394637Y-123056889D01*
X105724637Y-122816889D01*
X105724637Y-123296889D01*
G36*
X105724637Y-123296889D02*
G01*
X105394637Y-123056889D01*
X105724637Y-122816889D01*
X105724637Y-123296889D01*
G37*
%TO.C,R19*%
X130614913Y-123644389D02*
X131124361Y-123644389D01*
X130614913Y-124689389D02*
X131124361Y-124689389D01*
%TO.C,C3*%
X124244637Y-136015641D02*
X124244637Y-134593137D01*
X126064637Y-136015641D02*
X126064637Y-134593137D01*
%TO.C,Q2*%
X121195000Y-81731248D02*
X120632083Y-81406248D01*
X121195000Y-81731248D02*
X121757917Y-82056248D01*
X122755000Y-79029248D02*
X122192083Y-78704248D01*
X122755000Y-79029248D02*
X123317917Y-79354248D01*
X124109601Y-79488011D02*
X123736755Y-79653800D01*
X123693908Y-79248011D01*
X124109601Y-79488011D01*
G36*
X124109601Y-79488011D02*
G01*
X123736755Y-79653800D01*
X123693908Y-79248011D01*
X124109601Y-79488011D01*
G37*
%TO.C,R13*%
X103944913Y-127454389D02*
X104454361Y-127454389D01*
X103944913Y-128499389D02*
X104454361Y-128499389D01*
%TO.C,R11*%
X130614913Y-126184389D02*
X131124361Y-126184389D01*
X130614913Y-127229389D02*
X131124361Y-127229389D01*
%TO.C,R4*%
X132241114Y-85937905D02*
X131986390Y-86379099D01*
X133146110Y-86460405D02*
X132891386Y-86901599D01*
%TO.C,R7*%
X131589595Y-81439860D02*
X131148401Y-81185136D01*
X132112095Y-80534864D02*
X131670901Y-80280140D01*
%TO.C,R23*%
X117002413Y-122374389D02*
X117511861Y-122374389D01*
X117002413Y-123419389D02*
X117511861Y-123419389D01*
%TO.C,U20*%
X154028999Y-115496025D02*
X154268999Y-115496025D01*
X154028999Y-117881025D02*
X154028999Y-115496025D01*
X154028999Y-117881025D02*
X154028999Y-120266025D01*
X154028999Y-120266025D02*
X154268999Y-120266025D01*
X156848999Y-115496025D02*
X156608999Y-115496025D01*
X156848999Y-117881025D02*
X156848999Y-115496025D01*
X156848999Y-117881025D02*
X156848999Y-120266025D01*
X156848999Y-120266025D02*
X156608999Y-120266025D01*
X156938999Y-121283525D02*
X156608999Y-121043525D01*
X156938999Y-120803525D01*
X156938999Y-121283525D01*
G36*
X156938999Y-121283525D02*
G01*
X156608999Y-121043525D01*
X156938999Y-120803525D01*
X156938999Y-121283525D01*
G37*
%TO.C,U19*%
X138663999Y-115496025D02*
X138903999Y-115496025D01*
X138663999Y-117881025D02*
X138663999Y-115496025D01*
X138663999Y-117881025D02*
X138663999Y-120266025D01*
X138663999Y-120266025D02*
X138903999Y-120266025D01*
X141483999Y-115496025D02*
X141243999Y-115496025D01*
X141483999Y-117881025D02*
X141483999Y-115496025D01*
X141483999Y-117881025D02*
X141483999Y-120266025D01*
X141483999Y-120266025D02*
X141243999Y-120266025D01*
X141573999Y-121283525D02*
X141243999Y-121043525D01*
X141573999Y-120803525D01*
X141573999Y-121283525D01*
G36*
X141573999Y-121283525D02*
G01*
X141243999Y-121043525D01*
X141573999Y-120803525D01*
X141573999Y-121283525D01*
G37*
%TO.C,R21*%
X103944913Y-124914389D02*
X104454361Y-124914389D01*
X103944913Y-125959389D02*
X104454361Y-125959389D01*
%TO.C,J49*%
D13*
X97512137Y-54708530D02*
X107512137Y-54708530D01*
X107512137Y-44708530D01*
X97512137Y-44708530D01*
X97512137Y-54708530D01*
D14*
%TO.C,J35*%
X104005500Y-79593905D02*
X105200615Y-80283905D01*
X104695500Y-78398790D02*
X104005500Y-79593905D01*
X105330500Y-77298938D02*
X107625467Y-78623938D01*
X105330500Y-77298938D02*
X116815500Y-57406334D01*
X106300467Y-80918905D02*
X108595435Y-82243905D01*
X107625467Y-78623938D02*
X106300467Y-80918905D01*
X108595435Y-82243905D02*
X121405435Y-60056334D01*
X116815500Y-57406334D02*
X121405435Y-60056334D01*
%TO.C,Q1*%
X128457500Y-85767000D02*
X127894583Y-85442000D01*
X128457500Y-85767000D02*
X129020417Y-86092000D01*
X130017500Y-83065000D02*
X129454583Y-82740000D01*
X130017500Y-83065000D02*
X130580417Y-83390000D01*
X131372101Y-83523763D02*
X130999255Y-83689552D01*
X130956408Y-83283763D01*
X131372101Y-83523763D01*
G36*
X131372101Y-83523763D02*
G01*
X130999255Y-83689552D01*
X130956408Y-83283763D01*
X131372101Y-83523763D01*
G37*
%TO.C,C4*%
X121879637Y-136090641D02*
X121879637Y-135568137D01*
X123349637Y-136090641D02*
X123349637Y-135568137D01*
%TO.C,U8*%
X114989637Y-129646889D02*
X114989637Y-130906889D01*
X114989637Y-136466889D02*
X114989637Y-135206889D01*
X118749637Y-129646889D02*
X114989637Y-129646889D01*
X118749637Y-136466889D02*
X114989637Y-136466889D01*
X120029637Y-129746889D02*
X119789637Y-129416889D01*
X120269637Y-129416889D01*
X120029637Y-129746889D01*
G36*
X120029637Y-129746889D02*
G01*
X119789637Y-129416889D01*
X120269637Y-129416889D01*
X120029637Y-129746889D01*
G37*
%TO.C,C11*%
X146059000Y-66020748D02*
X146059000Y-67443252D01*
X147879000Y-66020748D02*
X147879000Y-67443252D01*
D15*
%TO.C,G\u002A\u002A\u002A*%
G36*
X156647277Y-103665042D02*
G01*
X156827332Y-104154191D01*
X156966410Y-104657657D01*
X157063225Y-105172911D01*
X157068404Y-105209236D01*
X157084482Y-105329202D01*
X157097468Y-105436995D01*
X157106141Y-105522001D01*
X157109282Y-105573612D01*
X157090399Y-105670312D01*
X157040832Y-105762740D01*
X156971060Y-105831255D01*
X156970740Y-105831463D01*
X156922270Y-105852139D01*
X156837340Y-105877326D01*
X156723505Y-105905460D01*
X156588320Y-105934975D01*
X156439339Y-105964305D01*
X156284118Y-105991886D01*
X156130212Y-106016151D01*
X155985175Y-106035535D01*
X155983563Y-106035726D01*
X155765291Y-106054633D01*
X155516617Y-106064488D01*
X155249936Y-106065620D01*
X154977639Y-106058359D01*
X154712120Y-106043033D01*
X154465771Y-106019971D01*
X154250986Y-105989502D01*
X154195846Y-105979664D01*
X154081629Y-105957972D01*
X153984784Y-105937829D01*
X153914164Y-105921131D01*
X153878621Y-105909773D01*
X153861957Y-105899138D01*
X153815239Y-105841840D01*
X153793772Y-105768077D01*
X153799961Y-105693495D01*
X153836209Y-105633736D01*
X153889509Y-105605765D01*
X153975342Y-105593740D01*
X153987488Y-105593722D01*
X154050853Y-105593920D01*
X154147945Y-105594457D01*
X154270652Y-105595280D01*
X154410861Y-105596335D01*
X154560460Y-105597571D01*
X154665995Y-105598198D01*
X154839667Y-105597318D01*
X154986652Y-105593208D01*
X155118613Y-105585275D01*
X155247215Y-105572923D01*
X155384124Y-105555556D01*
X155432124Y-105548832D01*
X155583688Y-105525745D01*
X155697570Y-105503764D01*
X155779007Y-105480497D01*
X155833232Y-105453552D01*
X155865483Y-105420538D01*
X155880993Y-105379062D01*
X155885000Y-105326733D01*
X155884987Y-105324841D01*
X155879129Y-105291229D01*
X155859223Y-105257121D01*
X155820310Y-105218262D01*
X155757432Y-105170399D01*
X155665632Y-105109275D01*
X155539952Y-105030638D01*
X155321218Y-104902135D01*
X154867394Y-104669866D01*
X154388705Y-104466841D01*
X153892900Y-104295591D01*
X153387724Y-104158650D01*
X152880925Y-104058550D01*
X152380249Y-103997821D01*
X152238998Y-103988278D01*
X152022373Y-103979718D01*
X151794863Y-103976856D01*
X151563382Y-103979363D01*
X151334842Y-103986909D01*
X151116155Y-103999163D01*
X150914235Y-104015795D01*
X150735994Y-104036475D01*
X150588344Y-104060873D01*
X150478199Y-104088659D01*
X150399609Y-104123454D01*
X150284998Y-104210665D01*
X150191181Y-104330767D01*
X150174273Y-104360249D01*
X150147207Y-104423047D01*
X150134176Y-104492251D01*
X150130715Y-104586771D01*
X150130757Y-104603324D01*
X150132949Y-104662397D01*
X150140533Y-104716406D01*
X150156387Y-104770272D01*
X150183384Y-104828912D01*
X150224401Y-104897247D01*
X150282313Y-104980195D01*
X150359995Y-105082676D01*
X150460324Y-105209608D01*
X150586176Y-105365912D01*
X150764688Y-105583742D01*
X150985005Y-105843802D01*
X151210591Y-106099799D01*
X151448732Y-106359812D01*
X151706715Y-106631918D01*
X151991826Y-106924194D01*
X152065423Y-106999131D01*
X152202366Y-107141079D01*
X152312653Y-107259186D01*
X152394814Y-107351816D01*
X152447376Y-107417334D01*
X152468866Y-107454105D01*
X152474383Y-107481687D01*
X152471177Y-107590830D01*
X152432141Y-107691412D01*
X152362994Y-107772814D01*
X152269453Y-107824418D01*
X152269246Y-107824484D01*
X152200958Y-107839177D01*
X152096913Y-107852718D01*
X151965832Y-107864627D01*
X151816437Y-107874423D01*
X151657449Y-107881624D01*
X151497592Y-107885749D01*
X151345586Y-107886318D01*
X151210154Y-107882849D01*
X151070173Y-107875222D01*
X150570844Y-107825739D01*
X150090012Y-107741108D01*
X149619967Y-107619420D01*
X149152999Y-107458770D01*
X148681400Y-107257249D01*
X148560139Y-107201672D01*
X148419267Y-107141736D01*
X148305712Y-107101127D01*
X148212802Y-107078344D01*
X148133866Y-107071886D01*
X148062231Y-107080250D01*
X147991226Y-107101936D01*
X147880132Y-107158583D01*
X147763247Y-107260590D01*
X147678447Y-107391516D01*
X147655485Y-107445948D01*
X147636150Y-107515257D01*
X147629921Y-107589417D01*
X147637033Y-107677777D01*
X147657726Y-107789686D01*
X147692235Y-107934491D01*
X147718098Y-108032298D01*
X147856542Y-108451703D01*
X148033533Y-108851550D01*
X148246940Y-109229728D01*
X148494630Y-109584123D01*
X148774473Y-109912624D01*
X149084336Y-110213117D01*
X149422087Y-110483491D01*
X149785595Y-110721633D01*
X150172728Y-110925430D01*
X150581354Y-111092771D01*
X151009342Y-111221541D01*
X151323610Y-111284654D01*
X151667483Y-111325676D01*
X152021303Y-111342591D01*
X152370787Y-111334723D01*
X152701652Y-111301400D01*
X152720071Y-111298674D01*
X152883661Y-111269827D01*
X153010837Y-111235815D01*
X153108972Y-111192519D01*
X153185443Y-111135824D01*
X153247623Y-111061612D01*
X153302887Y-110965767D01*
X153308705Y-110953963D01*
X153334999Y-110886554D01*
X153344764Y-110818102D01*
X153341430Y-110727399D01*
X153336609Y-110682923D01*
X153312737Y-110581165D01*
X153268544Y-110491256D01*
X153199515Y-110408441D01*
X153101136Y-110327960D01*
X152968893Y-110245057D01*
X152798272Y-110154974D01*
X152662394Y-110080789D01*
X152486833Y-109970773D01*
X152303592Y-109843094D01*
X152124525Y-109706069D01*
X151961488Y-109568012D01*
X151875065Y-109488011D01*
X151794102Y-109404719D01*
X151749601Y-109344855D01*
X151741447Y-109307381D01*
X151769525Y-109291260D01*
X151833721Y-109295455D01*
X151933919Y-109318927D01*
X151969587Y-109328427D01*
X152059984Y-109347680D01*
X152148902Y-109357392D01*
X152245263Y-109357272D01*
X152357993Y-109347028D01*
X152496018Y-109326371D01*
X152668260Y-109295009D01*
X152818433Y-109268951D01*
X153169737Y-109231348D01*
X153508322Y-109230554D01*
X153843320Y-109266842D01*
X154183864Y-109340487D01*
X154241360Y-109355564D01*
X154365340Y-109384908D01*
X154459555Y-109400466D01*
X154532890Y-109402797D01*
X154594234Y-109392462D01*
X154652476Y-109370021D01*
X154664577Y-109364160D01*
X154703879Y-109341643D01*
X154736798Y-109313090D01*
X154767963Y-109271460D01*
X154802001Y-109209709D01*
X154843542Y-109120796D01*
X154897216Y-108997678D01*
X154945164Y-108890096D01*
X155074127Y-108637706D01*
X155219117Y-108407041D01*
X155386709Y-108189218D01*
X155583478Y-107975357D01*
X155816001Y-107756574D01*
X155872812Y-107705480D01*
X155968507Y-107616453D01*
X156053023Y-107534255D01*
X156118833Y-107466284D01*
X156158410Y-107419939D01*
X156194988Y-107364050D01*
X156235282Y-107292790D01*
X156271978Y-107219752D01*
X156300353Y-107154986D01*
X156315684Y-107108544D01*
X156313247Y-107090476D01*
X156312591Y-107084362D01*
X156339376Y-107065101D01*
X156368234Y-107054018D01*
X156395356Y-107062573D01*
X156416030Y-107098713D01*
X156431631Y-107166668D01*
X156443535Y-107270671D01*
X156453119Y-107414954D01*
X156453418Y-107420605D01*
X156455479Y-107862036D01*
X156415044Y-108290601D01*
X156332504Y-108705396D01*
X156208248Y-109105514D01*
X156042665Y-109490049D01*
X155836144Y-109858096D01*
X155589075Y-110208747D01*
X155301847Y-110541099D01*
X154974850Y-110854244D01*
X154691649Y-111087198D01*
X154267969Y-111387604D01*
X153819943Y-111653032D01*
X153351260Y-111881909D01*
X152865607Y-112072665D01*
X152366674Y-112223730D01*
X151858149Y-112333532D01*
X151343721Y-112400501D01*
X151048013Y-112418018D01*
X150602817Y-112416549D01*
X150149095Y-112384274D01*
X149699754Y-112322245D01*
X149267699Y-112231511D01*
X149020579Y-112164978D01*
X148523114Y-111999561D01*
X148049986Y-111797621D01*
X147599176Y-111558024D01*
X147168665Y-111279639D01*
X146756435Y-110961335D01*
X146360465Y-110601980D01*
X146299993Y-110541987D01*
X145948184Y-110157565D01*
X145632912Y-109750020D01*
X145354541Y-109321861D01*
X145113436Y-108875596D01*
X144909962Y-108413736D01*
X144744482Y-107938788D01*
X144617361Y-107453262D01*
X144528963Y-106959667D01*
X144479653Y-106460513D01*
X144469796Y-105958308D01*
X144499755Y-105455561D01*
X144569895Y-104954781D01*
X144680580Y-104458478D01*
X144832176Y-103969161D01*
X145025045Y-103489339D01*
X145259553Y-103021520D01*
X145304167Y-102944228D01*
X145380600Y-102819181D01*
X145472942Y-102673880D01*
X145575431Y-102517225D01*
X145682306Y-102358116D01*
X145787807Y-102205452D01*
X145810338Y-102173333D01*
X145840552Y-102129648D01*
X150521457Y-102129648D01*
X150536215Y-102210483D01*
X150583468Y-102308892D01*
X150664317Y-102430037D01*
X150690606Y-102465524D01*
X150932300Y-102750747D01*
X151203524Y-103004112D01*
X151501087Y-103223759D01*
X151821796Y-103407826D01*
X152162458Y-103554453D01*
X152519881Y-103661777D01*
X152890872Y-103727939D01*
X153093204Y-103744835D01*
X153398680Y-103745470D01*
X153692275Y-103717384D01*
X153719467Y-103713224D01*
X153860898Y-103688876D01*
X153965510Y-103663896D01*
X154039824Y-103635067D01*
X154090365Y-103599166D01*
X154123653Y-103552973D01*
X154146212Y-103493270D01*
X154154167Y-103456553D01*
X154153280Y-103415581D01*
X154138257Y-103369305D01*
X154105661Y-103310374D01*
X154052051Y-103231438D01*
X153973991Y-103125148D01*
X153755878Y-102864765D01*
X153492314Y-102613835D01*
X153201959Y-102394199D01*
X152889218Y-102208452D01*
X152558495Y-102059188D01*
X152214198Y-101949002D01*
X151860729Y-101880488D01*
X151856974Y-101880000D01*
X151715853Y-101867255D01*
X151550090Y-101860799D01*
X151373455Y-101860437D01*
X151199717Y-101865971D01*
X151042644Y-101877207D01*
X150916008Y-101893948D01*
X150895181Y-101897737D01*
X150786331Y-101917907D01*
X150711239Y-101933565D01*
X150661224Y-101947674D01*
X150627605Y-101963191D01*
X150601700Y-101983079D01*
X150574829Y-102010298D01*
X150538094Y-102061226D01*
X150521457Y-102129648D01*
X145840552Y-102129648D01*
X145964214Y-101950853D01*
X146094925Y-101755149D01*
X146206643Y-101579230D01*
X146303542Y-101416105D01*
X146389794Y-101258786D01*
X146469573Y-101100280D01*
X146547052Y-100933599D01*
X146591312Y-100832849D01*
X146734470Y-100467546D01*
X146850121Y-100099487D01*
X146941949Y-99715801D01*
X147013640Y-99303616D01*
X147031618Y-99184847D01*
X147053654Y-99059456D01*
X147075700Y-98966890D01*
X147100362Y-98900580D01*
X147130247Y-98853958D01*
X147167963Y-98820455D01*
X147216116Y-98793503D01*
X147236503Y-98784075D01*
X147265350Y-98774267D01*
X147297115Y-98771851D01*
X147339639Y-98778234D01*
X147400761Y-98794823D01*
X147488322Y-98823028D01*
X147610162Y-98864255D01*
X147728183Y-98906298D01*
X148112154Y-99067676D01*
X148492083Y-99263379D01*
X148855954Y-99486819D01*
X149191751Y-99731407D01*
X149409018Y-99904376D01*
X149758622Y-99847093D01*
X150262568Y-99784376D01*
X150792076Y-99761189D01*
X151317484Y-99781775D01*
X151836977Y-99845749D01*
X152348740Y-99952728D01*
X152850958Y-100102328D01*
X153341817Y-100294165D01*
X153819501Y-100527857D01*
X154282196Y-100803019D01*
X154427579Y-100900231D01*
X154630960Y-101047222D01*
X154825985Y-101203291D01*
X155023909Y-101377599D01*
X155235987Y-101579305D01*
X155543017Y-101902214D01*
X155874116Y-102308797D01*
X156169383Y-102739815D01*
X156427532Y-103192740D01*
X156550275Y-103456553D01*
X156647277Y-103665042D01*
G37*
D14*
%TO.C,J41*%
X178968839Y-57531535D02*
X183558774Y-54881535D01*
X184103839Y-66425616D02*
X178968839Y-57531535D01*
X184103839Y-66425616D02*
X186398806Y-65100616D01*
X184738839Y-67525468D02*
X185428839Y-68720583D01*
X185428839Y-68720583D02*
X186623954Y-68030583D01*
X186398806Y-65100616D02*
X187723806Y-67395583D01*
X187723806Y-67395583D02*
X190018774Y-66070583D01*
X190018774Y-66070583D02*
X183558774Y-54881535D01*
%TO.C,C13*%
X140799370Y-82046889D02*
X141091904Y-82046889D01*
X140799370Y-83066889D02*
X141091904Y-83066889D01*
%TO.C,U22*%
X153272000Y-62704000D02*
X157032000Y-62704000D01*
X153272000Y-69524000D02*
X157032000Y-69524000D01*
X157032000Y-62704000D02*
X157032000Y-63964000D01*
X157032000Y-69524000D02*
X157032000Y-68264000D01*
X152232000Y-69754000D02*
X151752000Y-69754000D01*
X151992000Y-69424000D01*
X152232000Y-69754000D01*
G36*
X152232000Y-69754000D02*
G01*
X151752000Y-69754000D01*
X151992000Y-69424000D01*
X152232000Y-69754000D01*
G37*
%TO.C,C14*%
X139534385Y-83678889D02*
X140956889Y-83678889D01*
X139534385Y-85498889D02*
X140956889Y-85498889D01*
%TO.C,D2*%
X109449637Y-135581889D02*
X109449637Y-135431889D01*
X109449637Y-137031889D02*
X109449637Y-136881889D01*
X111649637Y-135431889D02*
X109449637Y-135431889D01*
X111649637Y-137031889D02*
X109449637Y-137031889D01*
%TO.C,R35*%
X139842500Y-65978224D02*
X139842500Y-65468776D01*
X140887500Y-65978224D02*
X140887500Y-65468776D01*
%TD*%
M02*
