%TF.GenerationSoftware,KiCad,Pcbnew,9.0.1*%
%TF.CreationDate,2025-04-22T12:55:48+09:00*%
%TF.ProjectId,ORCA_CORE_A,4f524341-5f43-44f5-9245-5f412e6b6963,rev?*%
%TF.SameCoordinates,Original*%
%TF.FileFunction,Soldermask,Top*%
%TF.FilePolarity,Negative*%
%FSLAX46Y46*%
G04 Gerber Fmt 4.6, Leading zero omitted, Abs format (unit mm)*
G04 Created by KiCad (PCBNEW 9.0.1) date 2025-04-22 12:55:48*
%MOMM*%
%LPD*%
G01*
G04 APERTURE LIST*
G04 Aperture macros list*
%AMRoundRect*
0 Rectangle with rounded corners*
0 $1 Rounding radius*
0 $2 $3 $4 $5 $6 $7 $8 $9 X,Y pos of 4 corners*
0 Add a 4 corners polygon primitive as box body*
4,1,4,$2,$3,$4,$5,$6,$7,$8,$9,$2,$3,0*
0 Add four circle primitives for the rounded corners*
1,1,$1+$1,$2,$3*
1,1,$1+$1,$4,$5*
1,1,$1+$1,$6,$7*
1,1,$1+$1,$8,$9*
0 Add four rect primitives between the rounded corners*
20,1,$1+$1,$2,$3,$4,$5,0*
20,1,$1+$1,$4,$5,$6,$7,0*
20,1,$1+$1,$6,$7,$8,$9,0*
20,1,$1+$1,$8,$9,$2,$3,0*%
%AMHorizOval*
0 Thick line with rounded ends*
0 $1 width*
0 $2 $3 position (X,Y) of the first rounded end (center of the circle)*
0 $4 $5 position (X,Y) of the second rounded end (center of the circle)*
0 Add line between two ends*
20,1,$1,$2,$3,$4,$5,0*
0 Add two circle primitives to create the rounded ends*
1,1,$1,$2,$3*
1,1,$1,$4,$5*%
%AMRotRect*
0 Rectangle, with rotation*
0 The origin of the aperture is its center*
0 $1 length*
0 $2 width*
0 $3 Rotation angle, in degrees counterclockwise*
0 Add horizontal line*
21,1,$1,$2,0,0,$3*%
G04 Aperture macros list end*
%ADD10C,1.700000*%
%ADD11RotRect,1.700000X1.700000X330.000000*%
%ADD12RoundRect,0.250000X0.725000X-0.600000X0.725000X0.600000X-0.725000X0.600000X-0.725000X-0.600000X0*%
%ADD13O,1.950000X1.700000*%
%ADD14RoundRect,0.237500X-0.080681X0.335256X-0.330681X-0.097756X0.080681X-0.335256X0.330681X0.097756X0*%
%ADD15RoundRect,0.250000X-0.750000X0.600000X-0.750000X-0.600000X0.750000X-0.600000X0.750000X0.600000X0*%
%ADD16O,2.000000X1.700000*%
%ADD17RoundRect,0.237500X0.250000X0.237500X-0.250000X0.237500X-0.250000X-0.237500X0.250000X-0.237500X0*%
%ADD18RoundRect,0.237500X0.237500X-0.250000X0.237500X0.250000X-0.237500X0.250000X-0.237500X-0.250000X0*%
%ADD19RoundRect,0.137500X0.662500X0.137500X-0.662500X0.137500X-0.662500X-0.137500X0.662500X-0.137500X0*%
%ADD20RoundRect,0.237500X-0.237500X0.287500X-0.237500X-0.287500X0.237500X-0.287500X0.237500X0.287500X0*%
%ADD21RotRect,1.700000X1.700000X210.000000*%
%ADD22C,6.000000*%
%ADD23R,1.700000X1.700000*%
%ADD24O,1.700000X1.700000*%
%ADD25RoundRect,0.237500X-0.237500X0.250000X-0.237500X-0.250000X0.237500X-0.250000X0.237500X0.250000X0*%
%ADD26RoundRect,0.237500X-0.250000X-0.237500X0.250000X-0.237500X0.250000X0.237500X-0.250000X0.237500X0*%
%ADD27RoundRect,0.110000X-0.890000X-0.440000X0.890000X-0.440000X0.890000X0.440000X-0.890000X0.440000X0*%
%ADD28RoundRect,0.080000X-0.320000X-0.470000X0.320000X-0.470000X0.320000X0.470000X-0.320000X0.470000X0*%
%ADD29RoundRect,0.250000X-0.412500X-0.650000X0.412500X-0.650000X0.412500X0.650000X-0.412500X0.650000X0*%
%ADD30RoundRect,0.070000X-0.800000X0.150000X-0.800000X-0.150000X0.800000X-0.150000X0.800000X0.150000X0*%
%ADD31RoundRect,0.250000X-0.600000X-0.750000X0.600000X-0.750000X0.600000X0.750000X-0.600000X0.750000X0*%
%ADD32O,1.700000X2.000000*%
%ADD33R,5.000000X5.000000*%
%ADD34C,5.000000*%
%ADD35RoundRect,0.150000X0.150000X-0.587500X0.150000X0.587500X-0.150000X0.587500X-0.150000X-0.587500X0*%
%ADD36RoundRect,0.237500X-0.300000X-0.237500X0.300000X-0.237500X0.300000X0.237500X-0.300000X0.237500X0*%
%ADD37R,1.200000X1.200000*%
%ADD38O,1.200000X1.200000*%
%ADD39RoundRect,0.237500X0.330681X-0.097756X0.080681X0.335256X-0.330681X0.097756X-0.080681X-0.335256X0*%
%ADD40RoundRect,0.137500X0.212172X0.642492X-0.450328X-0.504992X-0.212172X-0.642492X0.450328X0.504992X0*%
%ADD41RoundRect,0.237500X0.335256X0.080681X-0.097756X0.330681X-0.335256X-0.080681X0.097756X-0.330681X0*%
%ADD42RoundRect,0.250000X-0.327868X0.882115X-0.927868X-0.157115X0.327868X-0.882115X0.927868X0.157115X0*%
%ADD43HorizOval,1.700000X-0.108253X0.062500X0.108253X-0.062500X0*%
%ADD44C,3.200000*%
%ADD45RoundRect,0.237500X0.080681X-0.335256X0.330681X0.097756X-0.080681X0.335256X-0.330681X-0.097756X0*%
%ADD46RoundRect,0.237500X-0.335256X-0.080681X0.097756X-0.330681X0.335256X0.080681X-0.097756X0.330681X0*%
%ADD47RotRect,1.700000X1.700000X60.000000*%
%ADD48RoundRect,0.137500X0.504992X0.450328X-0.642492X-0.212172X-0.504992X-0.450328X0.642492X0.212172X0*%
%ADD49RoundRect,0.237500X-0.097756X-0.330681X0.335256X-0.080681X0.097756X0.330681X-0.335256X0.080681X0*%
%ADD50RoundRect,0.250000X0.600000X0.750000X-0.600000X0.750000X-0.600000X-0.750000X0.600000X-0.750000X0*%
%ADD51RoundRect,1.500000X-1.500000X1.500000X-1.500000X-1.500000X1.500000X-1.500000X1.500000X1.500000X0*%
%ADD52RotRect,1.700000X1.700000X30.000000*%
%ADD53RoundRect,0.237500X0.097756X0.330681X-0.335256X0.080681X-0.097756X-0.330681X0.335256X-0.080681X0*%
%ADD54O,2.400000X1.100000*%
%ADD55O,2.800000X1.100000*%
G04 APERTURE END LIST*
D10*
%TO.C,J11*%
X168609951Y-98793971D03*
X169879951Y-96594267D03*
D11*
X171149951Y-94394562D03*
%TD*%
D12*
%TO.C,J39*%
X125789637Y-129086889D03*
D13*
X125789637Y-126586889D03*
X125789637Y-124086889D03*
X125789637Y-121586889D03*
X125789637Y-119086889D03*
X125789637Y-116586889D03*
%TD*%
D14*
%TO.C,R60*%
X124033750Y-75902252D03*
X123121250Y-77482748D03*
%TD*%
D15*
%TO.C,J13*%
X109279637Y-111506889D03*
D16*
X109279637Y-114006889D03*
%TD*%
D17*
%TO.C,R71*%
X148453999Y-115976025D03*
X146628999Y-115976025D03*
%TD*%
D18*
%TO.C,R34*%
X185297600Y-78114900D03*
X185297600Y-76289900D03*
%TD*%
D19*
%TO.C,U23*%
X139805000Y-79947500D03*
X139805000Y-78677500D03*
X133305000Y-78677500D03*
X133305000Y-79947500D03*
%TD*%
D20*
%TO.C,D8*%
X144175000Y-63221000D03*
X144175000Y-64971000D03*
%TD*%
D21*
%TO.C,J9*%
X141897259Y-93834710D03*
D10*
X140627259Y-91635005D03*
X139357259Y-89435301D03*
%TD*%
D18*
%TO.C,R62*%
X142905000Y-80225000D03*
X142905000Y-78400000D03*
%TD*%
D12*
%TO.C,J46*%
X178787137Y-50754989D03*
D13*
X178787137Y-48254989D03*
X178787137Y-45754989D03*
%TD*%
D22*
%TO.C,J10*%
X162320000Y-70440000D03*
X139320000Y-128440000D03*
X139320000Y-70440000D03*
D23*
X161050000Y-123570000D03*
D24*
X163590000Y-123570000D03*
X161050000Y-121030000D03*
X163590000Y-121030000D03*
X161050000Y-118490000D03*
X163590000Y-118490000D03*
X161050000Y-115950000D03*
X163590000Y-115950000D03*
X161050000Y-113410000D03*
X163590000Y-113410000D03*
X161050000Y-110870000D03*
X163590000Y-110870000D03*
X161050000Y-108330000D03*
X163590000Y-108330000D03*
X161050000Y-105790000D03*
X163590000Y-105790000D03*
X161050000Y-103250000D03*
X163590000Y-103250000D03*
X161050000Y-100710000D03*
X163590000Y-100710000D03*
X161050000Y-98170000D03*
X163590000Y-98170000D03*
X161050000Y-95630000D03*
X163590000Y-95630000D03*
X161050000Y-93090000D03*
X163590000Y-93090000D03*
X161050000Y-90550000D03*
X163590000Y-90550000D03*
X161050000Y-88010000D03*
X163590000Y-88010000D03*
X161050000Y-85470000D03*
X163590000Y-85470000D03*
X161050000Y-82930000D03*
X163590000Y-82930000D03*
X161050000Y-80390000D03*
X163590000Y-80390000D03*
X161050000Y-77850000D03*
X163590000Y-77850000D03*
X161050000Y-75310000D03*
X163590000Y-75310000D03*
%TD*%
D15*
%TO.C,J22*%
X109279637Y-131826889D03*
D16*
X109279637Y-134326889D03*
%TD*%
D19*
%TO.C,U25*%
X176560000Y-82130000D03*
X176560000Y-80860000D03*
X170060000Y-80860000D03*
X170060000Y-82130000D03*
%TD*%
D25*
%TO.C,R15*%
X111109637Y-125794389D03*
X111109637Y-127619389D03*
%TD*%
D26*
%TO.C,R63*%
X141080000Y-75502500D03*
X142905000Y-75502500D03*
%TD*%
D27*
%TO.C,D7*%
X156543206Y-64184056D03*
D28*
X158443206Y-64184056D03*
%TD*%
D29*
%TO.C,C8*%
X101367137Y-118324889D03*
X104492137Y-118324889D03*
%TD*%
D25*
%TO.C,R64*%
X132745000Y-82487500D03*
X132745000Y-84312500D03*
%TD*%
D30*
%TO.C,U2*%
X149463999Y-103496025D03*
X149463999Y-104146025D03*
X149463999Y-104796025D03*
X149463999Y-105446025D03*
X149463999Y-106096025D03*
X149463999Y-106746025D03*
X149463999Y-107396025D03*
X149463999Y-108046025D03*
X149463999Y-108696025D03*
X149463999Y-109346025D03*
X149463999Y-109996025D03*
X149463999Y-110646025D03*
X149463999Y-111296025D03*
X149463999Y-111946025D03*
X155063999Y-111946025D03*
X155063999Y-111296025D03*
X155063999Y-110646025D03*
X155063999Y-109996025D03*
X155063999Y-109346025D03*
X155063999Y-108696025D03*
X155063999Y-108046025D03*
X155063999Y-107396025D03*
X155063999Y-106746025D03*
X155063999Y-106096025D03*
X155063999Y-105446025D03*
X155063999Y-104796025D03*
X155063999Y-104146025D03*
X155063999Y-103496025D03*
%TD*%
D25*
%TO.C,R20*%
X111109637Y-121984389D03*
X111109637Y-123809389D03*
%TD*%
D17*
%TO.C,R47*%
X141016499Y-116171025D03*
X139191499Y-116171025D03*
%TD*%
D31*
%TO.C,J15*%
X115669637Y-126706889D03*
D32*
X118169637Y-126706889D03*
%TD*%
D26*
%TO.C,R51*%
X146628999Y-117881025D03*
X148453999Y-117881025D03*
%TD*%
%TO.C,R57*%
X151587137Y-97796889D03*
X153412137Y-97796889D03*
%TD*%
D17*
%TO.C,R56*%
X156224499Y-114325025D03*
X154399499Y-114325025D03*
%TD*%
D33*
%TO.C,J18*%
X169956000Y-71500000D03*
D34*
X169956000Y-64090000D03*
%TD*%
D35*
%TO.C,Q8*%
X180690000Y-77655000D03*
X182590000Y-77655000D03*
X181640000Y-75780000D03*
%TD*%
D26*
%TO.C,R58*%
X148031137Y-97796889D03*
X149856137Y-97796889D03*
%TD*%
D36*
%TO.C,C6*%
X101204637Y-120356889D03*
X102929637Y-120356889D03*
%TD*%
D33*
%TO.C,J19*%
X147010000Y-127590000D03*
D34*
X154420000Y-127590000D03*
%TD*%
D25*
%TO.C,R73*%
X157302137Y-102321889D03*
X157302137Y-104146889D03*
%TD*%
D26*
%TO.C,R69*%
X179180000Y-83400000D03*
X181005000Y-83400000D03*
%TD*%
D19*
%TO.C,U10*%
X108009637Y-123531889D03*
X108009637Y-122261889D03*
X101509637Y-122261889D03*
X101509637Y-123531889D03*
%TD*%
D37*
%TO.C,U26*%
X145520000Y-79740000D03*
D38*
X145520000Y-81490000D03*
X145520000Y-83300000D03*
X145520000Y-85080000D03*
X145520000Y-86860000D03*
X145520000Y-88640000D03*
X145520000Y-90420000D03*
X145520000Y-92200000D03*
X156220000Y-93090000D03*
X156220000Y-91310000D03*
X156220000Y-89530000D03*
X156220000Y-87750000D03*
X156220000Y-85970000D03*
X156220000Y-84190000D03*
X156220000Y-82410000D03*
X156220000Y-80630000D03*
%TD*%
D39*
%TO.C,R65*%
X144452500Y-104538496D03*
X143540000Y-102958000D03*
%TD*%
D40*
%TO.C,U21*%
X127299926Y-78997917D03*
X126200074Y-78362917D03*
X122950074Y-83992083D03*
X124049926Y-84627083D03*
%TD*%
D41*
%TO.C,R59*%
X128535248Y-76236250D03*
X126954752Y-75323750D03*
%TD*%
D17*
%TO.C,R54*%
X141016499Y-114325025D03*
X139191499Y-114325025D03*
%TD*%
D42*
%TO.C,J52*%
X112770000Y-59130000D03*
D43*
X111520000Y-61295064D03*
X110270000Y-63460127D03*
X109020000Y-65625191D03*
%TD*%
D44*
%TO.C,H7*%
X173915986Y-136006893D03*
%TD*%
D45*
%TO.C,R68*%
X174377500Y-88790496D03*
X175290000Y-87210000D03*
%TD*%
D26*
%TO.C,R6*%
X181085000Y-80860000D03*
X182910000Y-80860000D03*
%TD*%
D23*
%TO.C,J54*%
X194512137Y-66835468D03*
D10*
X194512137Y-64295468D03*
X194512137Y-61755468D03*
X194512137Y-59215468D03*
X194512137Y-56675468D03*
X194512137Y-54135468D03*
X194512137Y-51595468D03*
%TD*%
D44*
%TO.C,H8*%
X173915987Y-113006893D03*
%TD*%
D46*
%TO.C,R70*%
X169899504Y-86297500D03*
X171480000Y-87210000D03*
%TD*%
D47*
%TO.C,J44*%
X125810295Y-70560000D03*
D10*
X128010000Y-71830000D03*
X130209704Y-73100000D03*
%TD*%
D18*
%TO.C,R72*%
X146253137Y-97335889D03*
X146253137Y-95510889D03*
%TD*%
D17*
%TO.C,R53*%
X148350499Y-114325025D03*
X146525499Y-114325025D03*
%TD*%
D12*
%TO.C,J47*%
X185687137Y-50706889D03*
D13*
X185687137Y-48206889D03*
X185687137Y-45706889D03*
%TD*%
D26*
%TO.C,R52*%
X139191499Y-117881025D03*
X141016499Y-117881025D03*
%TD*%
D48*
%TO.C,U24*%
X143540000Y-100545000D03*
X142905000Y-99445148D03*
X137275834Y-102695148D03*
X137910834Y-103795000D03*
%TD*%
D49*
%TO.C,R67*%
X138939752Y-106081250D03*
X140520248Y-105168750D03*
%TD*%
D50*
%TO.C,J20*%
X118169637Y-119086889D03*
D32*
X115669637Y-119086889D03*
%TD*%
D11*
%TO.C,J34*%
X126741522Y-61133962D03*
D10*
X124541817Y-59863962D03*
X125471522Y-63333667D03*
X123271817Y-62063667D03*
X124201522Y-65533371D03*
X122001817Y-64263371D03*
X122931522Y-67733076D03*
X120731817Y-66463076D03*
X121661522Y-69932780D03*
X119461817Y-68662780D03*
X120391522Y-72132485D03*
X118191817Y-70862485D03*
X119121522Y-74332189D03*
X116921817Y-73062189D03*
X117851522Y-76531894D03*
X115651817Y-75261895D03*
X116581522Y-78731598D03*
X114381817Y-77461598D03*
X115311522Y-80931303D03*
X113111817Y-79661303D03*
%TD*%
D51*
%TO.C,J1*%
X177112137Y-121056889D03*
D22*
X177112137Y-128256889D03*
%TD*%
D17*
%TO.C,R48*%
X156073999Y-115976025D03*
X154248999Y-115976025D03*
%TD*%
D33*
%TO.C,J6*%
X169362137Y-121223889D03*
D34*
X169362137Y-128633889D03*
%TD*%
D18*
%TO.C,R74*%
X157302137Y-107495889D03*
X157302137Y-105670889D03*
%TD*%
D23*
%TO.C,J59*%
X99512137Y-80358790D03*
D10*
X102052137Y-80358790D03*
X99512137Y-77818790D03*
X102052137Y-77818790D03*
X99512137Y-75278790D03*
X102052137Y-75278790D03*
X99512137Y-72738790D03*
X102052137Y-72738790D03*
X99512137Y-70198790D03*
X102052137Y-70198790D03*
X99512137Y-67658790D03*
X102052137Y-67658790D03*
X99512137Y-65118790D03*
X102052137Y-65118790D03*
X99512137Y-62578790D03*
X102052137Y-62578790D03*
X99512137Y-60038790D03*
X102052137Y-60038790D03*
X99512137Y-57498790D03*
X102052137Y-57498790D03*
%TD*%
D19*
%TO.C,U6*%
X108009637Y-127341889D03*
X108009637Y-126071889D03*
X101509637Y-126071889D03*
X101509637Y-127341889D03*
%TD*%
D46*
%TO.C,R61*%
X126239752Y-86118750D03*
X127820248Y-87031250D03*
%TD*%
D44*
%TO.C,H15*%
X130869637Y-135486889D03*
%TD*%
D26*
%TO.C,R55*%
X154248999Y-117881025D03*
X156073999Y-117881025D03*
%TD*%
D52*
%TO.C,J33*%
X177319018Y-59913962D03*
D10*
X175119313Y-61183962D03*
X178589018Y-62113667D03*
X176389313Y-63383667D03*
X179859018Y-64313371D03*
X177659313Y-65583371D03*
X181129018Y-66513076D03*
X178929313Y-67783076D03*
X182399018Y-68712780D03*
X180199313Y-69982780D03*
%TD*%
D26*
%TO.C,R9*%
X151998999Y-101371025D03*
X153823999Y-101371025D03*
%TD*%
D53*
%TO.C,R66*%
X142905000Y-106260000D03*
X141324504Y-107172500D03*
%TD*%
D44*
%TO.C,H16*%
X130869637Y-109986889D03*
%TD*%
D20*
%TO.C,D19*%
X140365000Y-63235000D03*
X140365000Y-64985000D03*
%TD*%
D23*
%TO.C,J8*%
X148280000Y-73913962D03*
D10*
X150820000Y-73913962D03*
X153360000Y-73913962D03*
%TD*%
D54*
%TO.C,J49*%
X100862137Y-45608530D03*
X100862137Y-53808530D03*
D55*
X104912137Y-45608530D03*
X104912137Y-53808530D03*
%TD*%
D11*
%TO.C,J35*%
X105890615Y-79088790D03*
D10*
X108090320Y-80358790D03*
X107160615Y-76889085D03*
X109360320Y-78159085D03*
X108430615Y-74689381D03*
X110630320Y-75959381D03*
X109700615Y-72489676D03*
X111900320Y-73759676D03*
X110970615Y-70289972D03*
X113170320Y-71559972D03*
X112240615Y-68090267D03*
X114440320Y-69360267D03*
X113510615Y-65890563D03*
X115710320Y-67160563D03*
X114780615Y-63690858D03*
X116980320Y-64960857D03*
X116050615Y-61491154D03*
X118250320Y-62761154D03*
X117320615Y-59291449D03*
X119520320Y-60561449D03*
%TD*%
D52*
%TO.C,J41*%
X185933954Y-66835468D03*
D10*
X188133659Y-65565468D03*
X184663954Y-64635763D03*
X186863659Y-63365763D03*
X183393954Y-62436059D03*
X185593659Y-61166059D03*
X182123954Y-60236354D03*
X184323659Y-58966354D03*
X180853954Y-58036650D03*
X183053659Y-56766650D03*
%TD*%
M02*
