%TF.GenerationSoftware,KiCad,Pcbnew,9.0.1*%
%TF.CreationDate,2025-04-22T12:55:48+09:00*%
%TF.ProjectId,ORCA_CORE_A,4f524341-5f43-44f5-9245-5f412e6b6963,rev?*%
%TF.SameCoordinates,Original*%
%TF.FileFunction,Paste,Bot*%
%TF.FilePolarity,Positive*%
%FSLAX46Y46*%
G04 Gerber Fmt 4.6, Leading zero omitted, Abs format (unit mm)*
G04 Created by KiCad (PCBNEW 9.0.1) date 2025-04-22 12:55:48*
%MOMM*%
%LPD*%
G01*
G04 APERTURE LIST*
G04 Aperture macros list*
%AMRoundRect*
0 Rectangle with rounded corners*
0 $1 Rounding radius*
0 $2 $3 $4 $5 $6 $7 $8 $9 X,Y pos of 4 corners*
0 Add a 4 corners polygon primitive as box body*
4,1,4,$2,$3,$4,$5,$6,$7,$8,$9,$2,$3,0*
0 Add four circle primitives for the rounded corners*
1,1,$1+$1,$2,$3*
1,1,$1+$1,$4,$5*
1,1,$1+$1,$6,$7*
1,1,$1+$1,$8,$9*
0 Add four rect primitives between the rounded corners*
20,1,$1+$1,$2,$3,$4,$5,0*
20,1,$1+$1,$4,$5,$6,$7,0*
20,1,$1+$1,$6,$7,$8,$9,0*
20,1,$1+$1,$8,$9,$2,$3,0*%
G04 Aperture macros list end*
%ADD10RoundRect,0.237500X-0.080681X0.335256X-0.330681X-0.097756X0.080681X-0.335256X0.330681X0.097756X0*%
%ADD11RoundRect,0.137500X0.137500X-0.662500X0.137500X0.662500X-0.137500X0.662500X-0.137500X-0.662500X0*%
%ADD12RoundRect,0.250000X-0.475000X0.337500X-0.475000X-0.337500X0.475000X-0.337500X0.475000X0.337500X0*%
%ADD13RoundRect,0.237500X-0.250000X-0.237500X0.250000X-0.237500X0.250000X0.237500X-0.250000X0.237500X0*%
%ADD14RoundRect,0.237500X0.237500X-0.250000X0.237500X0.250000X-0.237500X0.250000X-0.237500X-0.250000X0*%
%ADD15RoundRect,0.237500X0.335256X0.080681X-0.097756X0.330681X-0.335256X-0.080681X0.097756X-0.330681X0*%
%ADD16RoundRect,0.150000X0.150000X-0.675000X0.150000X0.675000X-0.150000X0.675000X-0.150000X-0.675000X0*%
%ADD17RoundRect,0.250000X0.650000X-0.412500X0.650000X0.412500X-0.650000X0.412500X-0.650000X-0.412500X0*%
%ADD18RoundRect,0.150000X0.583790X-0.163846X-0.433790X0.423654X-0.583790X0.163846X0.433790X-0.423654X0*%
%ADD19R,3.250000X0.350000*%
%ADD20RoundRect,0.250000X0.475000X-0.337500X0.475000X0.337500X-0.475000X0.337500X-0.475000X-0.337500X0*%
%ADD21RoundRect,0.375000X0.625000X0.375000X-0.625000X0.375000X-0.625000X-0.375000X0.625000X-0.375000X0*%
%ADD22RoundRect,0.500000X0.500000X1.400000X-0.500000X1.400000X-0.500000X-1.400000X0.500000X-1.400000X0*%
%ADD23RoundRect,0.250000X-0.650000X0.412500X-0.650000X-0.412500X0.650000X-0.412500X0.650000X0.412500X0*%
%ADD24RoundRect,0.237500X-0.300000X-0.237500X0.300000X-0.237500X0.300000X0.237500X-0.300000X0.237500X0*%
%ADD25RoundRect,0.375000X-0.625000X-0.375000X0.625000X-0.375000X0.625000X0.375000X-0.625000X0.375000X0*%
%ADD26RoundRect,0.500000X-0.500000X-1.400000X0.500000X-1.400000X0.500000X1.400000X-0.500000X1.400000X0*%
%ADD27RoundRect,0.250000X-0.412500X-0.650000X0.412500X-0.650000X0.412500X0.650000X-0.412500X0.650000X0*%
%ADD28RoundRect,0.110000X-0.890000X-0.440000X0.890000X-0.440000X0.890000X0.440000X-0.890000X0.440000X0*%
%ADD29RoundRect,0.080000X-0.320000X-0.470000X0.320000X-0.470000X0.320000X0.470000X-0.320000X0.470000X0*%
G04 APERTURE END LIST*
D10*
%TO.C,R5*%
X125760000Y-81339752D03*
X124847500Y-82920248D03*
%TD*%
D11*
%TO.C,U18*%
X148188999Y-121131025D03*
X146918999Y-121131025D03*
X146918999Y-114631025D03*
X148188999Y-114631025D03*
%TD*%
D12*
%TO.C,C12*%
X149128000Y-66622000D03*
X149128000Y-68697000D03*
%TD*%
D13*
%TO.C,R25*%
X113804637Y-116546889D03*
X115629637Y-116546889D03*
%TD*%
D14*
%TO.C,R49*%
X144175000Y-66636000D03*
X144175000Y-64811000D03*
%TD*%
D15*
%TO.C,R8*%
X124367748Y-77788498D03*
X122787252Y-76875998D03*
%TD*%
D16*
%TO.C,U4*%
X104834637Y-122981889D03*
X103564637Y-122981889D03*
X102294637Y-122981889D03*
X101024637Y-122981889D03*
X101024637Y-117731889D03*
X102294637Y-117731889D03*
X103564637Y-117731889D03*
X104834637Y-117731889D03*
%TD*%
D13*
%TO.C,R19*%
X129957137Y-124166889D03*
X131782137Y-124166889D03*
%TD*%
D17*
%TO.C,C3*%
X125154637Y-136866889D03*
X125154637Y-133741889D03*
%TD*%
D18*
%TO.C,Q2*%
X123261899Y-80026274D03*
X122311899Y-81671722D03*
X121163101Y-79911498D03*
%TD*%
D13*
%TO.C,R13*%
X103287137Y-127976889D03*
X105112137Y-127976889D03*
%TD*%
%TO.C,R11*%
X129957137Y-126706889D03*
X131782137Y-126706889D03*
%TD*%
D10*
%TO.C,R4*%
X133022500Y-85629504D03*
X132110000Y-87210000D03*
%TD*%
D15*
%TO.C,R7*%
X132420496Y-81316250D03*
X130840000Y-80403750D03*
%TD*%
D13*
%TO.C,R23*%
X116344637Y-122896889D03*
X118169637Y-122896889D03*
%TD*%
D11*
%TO.C,U20*%
X156073999Y-121131025D03*
X154803999Y-121131025D03*
X154803999Y-114631025D03*
X156073999Y-114631025D03*
%TD*%
%TO.C,U19*%
X140708999Y-121131025D03*
X139438999Y-121131025D03*
X139438999Y-114631025D03*
X140708999Y-114631025D03*
%TD*%
D13*
%TO.C,R21*%
X103287137Y-125436889D03*
X105112137Y-125436889D03*
%TD*%
D19*
%TO.C,J49*%
X105137137Y-51008530D03*
X105137137Y-50358530D03*
X105137137Y-49708530D03*
X105132137Y-49058530D03*
X105132137Y-48408530D03*
%TD*%
D18*
%TO.C,Q1*%
X130524399Y-84062026D03*
X129574399Y-85707474D03*
X128425601Y-83947250D03*
%TD*%
D20*
%TO.C,C4*%
X122614637Y-136866889D03*
X122614637Y-134791889D03*
%TD*%
D21*
%TO.C,U8*%
X120049637Y-130756889D03*
X120049637Y-133056889D03*
D22*
X113749637Y-133056889D03*
D21*
X120049637Y-135356889D03*
%TD*%
D23*
%TO.C,C11*%
X146969000Y-65169500D03*
X146969000Y-68294500D03*
%TD*%
D24*
%TO.C,C13*%
X140083137Y-82556889D03*
X141808137Y-82556889D03*
%TD*%
D25*
%TO.C,U22*%
X151972000Y-68414000D03*
X151972000Y-66114000D03*
D26*
X158272000Y-66114000D03*
D25*
X151972000Y-63814000D03*
%TD*%
D27*
%TO.C,C14*%
X138683137Y-84588889D03*
X141808137Y-84588889D03*
%TD*%
D28*
%TO.C,D2*%
X109899637Y-136231889D03*
D29*
X111799637Y-136231889D03*
%TD*%
D14*
%TO.C,R35*%
X140365000Y-66636000D03*
X140365000Y-64811000D03*
%TD*%
M02*
