%TF.GenerationSoftware,KiCad,Pcbnew,9.0.1*%
%TF.CreationDate,2025-04-22T12:55:48+09:00*%
%TF.ProjectId,ORCA_CORE_A,4f524341-5f43-44f5-9245-5f412e6b6963,rev?*%
%TF.SameCoordinates,Original*%
%TF.FileFunction,Profile,NP*%
%FSLAX46Y46*%
G04 Gerber Fmt 4.6, Leading zero omitted, Abs format (unit mm)*
G04 Created by KiCad (PCBNEW 9.0.1) date 2025-04-22 12:55:48*
%MOMM*%
%LPD*%
G01*
G04 APERTURE LIST*
%TA.AperFunction,Profile*%
%ADD10C,0.500000*%
%TD*%
%TA.AperFunction,Profile*%
%ADD11C,0.050000*%
%TD*%
G04 APERTURE END LIST*
D10*
X107750029Y-51888028D02*
X107750016Y-51888036D01*
X165903836Y-133806100D02*
X165903847Y-133806100D01*
X162903800Y-131907069D02*
X162903800Y-131907073D01*
X135903847Y-133806200D02*
G75*
G02*
X138303831Y-131846540I2000053J0D01*
G01*
X163503847Y-131846461D02*
G75*
G02*
X165903837Y-133806100I399953J-1959639D01*
G01*
X133837978Y-103874981D02*
G75*
G02*
X132310717Y-106500000I-1515578J-875019D01*
G01*
X174278466Y-42999994D02*
X173513936Y-44324199D01*
X174278466Y-42999994D02*
G75*
G02*
X181119551Y-41176203I4330134J-2500006D01*
G01*
X182589714Y-42025001D02*
X181119551Y-41176203D01*
X185089700Y-42694873D02*
G75*
G02*
X182589713Y-42025003I0J4999973D01*
G01*
X191500000Y-42694873D02*
X185089700Y-42694873D01*
X191500000Y-42694873D02*
G75*
G02*
X196500000Y-47711331I0J-5000027D01*
G01*
X196500000Y-67828600D02*
X196500000Y-47711331D01*
X196500000Y-67828600D02*
G75*
G02*
X193620085Y-72356808I-4999900J0D01*
G01*
X188921319Y-83685739D02*
X189689734Y-82354805D01*
X188921319Y-83685739D02*
G75*
G02*
X182983610Y-85920152I-4330019J2499939D01*
G01*
X177045836Y-88154679D02*
G75*
G02*
X182983612Y-85920145I4330164J-2500021D01*
G01*
X166153881Y-107020099D02*
X177045836Y-88154679D01*
X165903847Y-107514576D02*
G75*
G02*
X166153886Y-107020102I4580053J-2005524D01*
G01*
X165903847Y-113000000D02*
X165903847Y-107514576D01*
X170403846Y-113000000D02*
X165903847Y-113000000D01*
X170403846Y-113000000D02*
G75*
G02*
X177403854Y-113000000I3500004J-4D01*
G01*
X181903847Y-113000000D02*
X177403853Y-113000000D01*
X181903847Y-136000000D02*
X181903847Y-113000000D01*
X177403845Y-136000000D02*
X181903847Y-136000000D01*
X177403845Y-136000000D02*
G75*
G02*
X170403853Y-136000000I-3499996J-4D01*
G01*
X165903847Y-136000000D02*
X170403853Y-136000000D01*
X163503847Y-131846461D02*
G75*
G02*
X162903800Y-131907077I-600047J2939661D01*
G01*
X138903800Y-131907073D02*
X162903800Y-131907073D01*
X135903847Y-136500000D02*
X135903847Y-133806200D01*
X135903847Y-136500000D02*
G75*
G02*
X132903847Y-139499947I-2999947J0D01*
G01*
X101903800Y-139500000D02*
X132903847Y-139500000D01*
X101903800Y-139500000D02*
G75*
G02*
X98903900Y-136500000I0J2999900D01*
G01*
X98903847Y-109500100D02*
X98903847Y-136500000D01*
X98903847Y-109500100D02*
G75*
G02*
X101921732Y-106499999I3000153J0D01*
G01*
X124857829Y-88320907D02*
X133837978Y-103874981D01*
X118920069Y-86086404D02*
G75*
G02*
X124857824Y-88320910I1607631J-4734496D01*
G01*
X118920069Y-86086404D02*
G75*
G02*
X114295210Y-85338966I-1607669J4734504D01*
G01*
X102500000Y-86351901D02*
X104036800Y-86351901D01*
X102500000Y-86351901D02*
G75*
G02*
X97499999Y-81351900I0J5000001D01*
G01*
X97500000Y-45330600D02*
X97500000Y-81351900D01*
X97500000Y-45330600D02*
G75*
G02*
X100500000Y-42330700I2999900J0D01*
G01*
X105499900Y-42330641D02*
X100500000Y-42330641D01*
X105499900Y-42330641D02*
G75*
G02*
X107500001Y-44346062I0J-2000159D01*
G01*
X107500000Y-51454997D02*
X107500000Y-44346062D01*
X107750016Y-51888036D02*
X107500000Y-51454997D01*
X113687794Y-54122571D02*
G75*
G02*
X107750029Y-51888028I-1607594J4734571D01*
G01*
X113687794Y-54122571D02*
G75*
G02*
X118312620Y-54870053I1607606J-4734529D01*
G01*
X130107900Y-53857073D02*
X128571200Y-53857073D01*
X130107900Y-53857073D02*
G75*
G02*
X135011857Y-57882077I0J-4999927D01*
G01*
X139915900Y-61907073D02*
G75*
G02*
X135011826Y-57882084I0J5000073D01*
G01*
X161681462Y-61907073D02*
X139915900Y-61907073D01*
X166603847Y-57882073D02*
G75*
G02*
X161681462Y-61907091I-4904047J974973D01*
G01*
X166603847Y-57882073D02*
G75*
G02*
X169468137Y-54292039I4904053J-975027D01*
G01*
X138903800Y-131907073D02*
G75*
G02*
X138303849Y-131846454I0J2999173D01*
G01*
X165903847Y-133806100D02*
X165903847Y-136000000D01*
X132310717Y-106500000D02*
X101921732Y-106500000D01*
X125553926Y-54870035D02*
G75*
G02*
X128571200Y-53857078I3017274J-3987265D01*
G01*
X107053937Y-85338939D02*
G75*
G02*
X104036800Y-86351900I-3017137J3986839D01*
G01*
X190270796Y-78916602D02*
G75*
G02*
X189689732Y-82354804I-4911196J-938198D01*
G01*
X172922153Y-47732282D02*
G75*
G02*
X173513935Y-44324198I4917847J901482D01*
G01*
X125553926Y-54870035D02*
G75*
G02*
X118312633Y-54870035I-3620646J4784443D01*
G01*
X107053937Y-85338939D02*
G75*
G02*
X114295230Y-85338939I3620647J-4784448D01*
G01*
X190270796Y-78916602D02*
G75*
G02*
X193620125Y-72356895I5893404J1125802D01*
G01*
X172922153Y-47732282D02*
G75*
G02*
X169468130Y-54292023I-5901653J-1081718D01*
G01*
%TO.C,U26*%
D11*
X155140000Y-94220000D02*
X146600000Y-94220000D01*
X146600000Y-76960000D01*
X155140000Y-76960000D01*
X155140000Y-94220000D01*
%TD*%
M02*
