M48
; DRILL file {KiCad 9.0.1} date 2025-04-22T12:55:50+0900
; FORMAT={-:-/ absolute / inch / decimal}
; #@! TF.CreationDate,2025-04-22T12:55:50+09:00
; #@! TF.GenerationSoftware,Kicad,Pcbnew,9.0.1
; #@! TF.FileFunction,Plated,1,2,PTH
FMAT,2
INCH
; #@! TA.AperFunction,Plated,PTH,ViaDrill
T1C0.0157
; #@! TA.AperFunction,Plated,PTH,ViaDrill
T2C0.0197
; #@! TA.AperFunction,Plated,PTH,ComponentDrill
T3C0.0197
; #@! TA.AperFunction,Plated,PTH,ComponentDrill
T4C0.0276
; #@! TA.AperFunction,Plated,PTH,ViaDrill
T5C0.0315
; #@! TA.AperFunction,Plated,PTH,ComponentDrill
T6C0.0374
; #@! TA.AperFunction,Plated,PTH,ComponentDrill
T7C0.0394
; #@! TA.AperFunction,Plated,PTH,ComponentDrill
T8C0.0984
; #@! TA.AperFunction,Plated,PTH,ComponentDrill
T9C0.1772
%
G90
G05
T1
X3.868Y-2.3253
X3.9012Y-1.8835
X3.9012Y-1.9335
X3.9012Y-1.9835
X3.9012Y-2.0335
X3.9512Y-1.8835
X3.9512Y-1.9335
X3.9512Y-1.9835
X3.9512Y-2.0335
X3.9644Y-2.7003
X3.9773Y-4.5635
X3.9844Y-4.7385
X3.993Y-3.2503
X3.993Y-3.2503
X3.9964Y-4.9635
X4.0012Y-1.8835
X4.0012Y-1.9335
X4.0012Y-1.9835
X4.0012Y-2.0335
X4.0023Y-4.2885
X4.0023Y-4.3885
X4.0023Y-4.4885
X4.0023Y-5.1885
X4.0023Y-5.2885
X4.0023Y-5.3885
X4.0273Y-4.5635
X4.0523Y-4.7385
X4.0664Y-4.9385
X4.0664Y-5.0385
X4.068Y-2.7253
X4.0714Y-3.1115
X4.0773Y-4.8418
X4.0812Y-3.2922
X4.0929Y-2.5728
X4.093Y-1.8503
X4.093Y-2.0503
X4.1012Y-2.3835
X4.1012Y-3.2335
X4.1023Y-4.2885
X4.1023Y-4.7385
X4.1023Y-5.0885
X4.1023Y-5.2885
X4.1023Y-5.3885
X4.1067Y-3.0585
X4.1247Y-2.8211
X4.1251Y-2.8738
X4.1262Y-3.1835
X4.1362Y-2.7835
X4.143Y-1.8503
X4.1512Y-2.3835
X4.1512Y-2.4335
X4.1512Y-2.4835
X4.1512Y-2.5335
X4.1512Y-3.2585
X4.1526Y-2.6072
X4.1627Y-2.9775
X4.1727Y-2.8648
X4.1752Y-2.7889
X4.1762Y-3.2085
X4.192Y-2.6072
X4.193Y-1.8503
X4.2023Y-4.2885
X4.2023Y-4.5885
X4.2023Y-4.6885
X4.2023Y-5.1385
X4.2023Y-5.1885
X4.2023Y-5.3885
X4.203Y-2.682
X4.2304Y-2.2235
X4.2304Y-2.2628
X4.2399Y-2.863
X4.2437Y-2.6884
X4.2523Y-5.1135
X4.2555Y-3.3287
X4.269Y-2.8003
X4.2874Y-2.2685
X4.294Y-2.7439
X4.2965Y-3.2551
X4.3023Y-4.2885
X4.3023Y-4.5885
X4.3023Y-4.7135
X4.3023Y-5.1135
X4.3262Y-2.3835
X4.3346Y-3.1878
X4.3362Y-2.1835
X4.3744Y-4.8025
X4.3744Y-4.9525
X4.3784Y-3.1184
X4.3928Y-2.6097
X4.3991Y-3.2076
X4.4023Y-4.6885
X4.4112Y-2.1835
X4.4178Y-3.0436
X4.4312Y-2.2435
X4.4406Y-3.2843
X4.4532Y-2.9766
X4.4762Y-2.2635
X4.478Y-4.9909
X4.4912Y-2.1685
X4.4926Y-2.9137
X4.5023Y-4.2885
X4.5023Y-4.4885
X4.5212Y-2.2885
X4.532Y-2.8467
X4.5567Y-4.9083
X4.5712Y-2.1785
X4.5713Y-2.7798
X4.5805Y-4.8385
X4.6023Y-4.3885
X4.6023Y-4.5885
X4.6023Y-5.1885
X4.6023Y-5.2885
X4.6023Y-5.3885
X4.6068Y-2.7129
X4.6105Y-3.2049
X4.6426Y-3.1563
X4.6461Y-2.6459
X4.65Y-2.2713
X4.6523Y-4.8385
X4.6712Y-2.5385
X4.6755Y-3.2166
X4.6762Y-2.2435
X4.6816Y-2.5829
X4.6912Y-2.3185
X4.6937Y-2.202
X4.7023Y-4.2885
X4.7023Y-4.4885
X4.7112Y-2.4535
X4.717Y-2.52
X4.719Y-2.9938
X4.7225Y-3.1044
X4.7264Y-5.2385
X4.7367Y-2.7759
X4.7457Y-2.2787
X4.7557Y-3.2457
X4.7564Y-2.4491
X4.7643Y-2.7011
X4.7693Y-2.3638
X4.7731Y-2.9137
X4.7958Y-2.4688
X4.8023Y-4.3885
X4.8023Y-4.5885
X4.8023Y-4.6885
X4.8023Y-4.9885
X4.8024Y-2.3783
X4.8044Y-2.8898
X4.8047Y-2.9928
X4.8273Y-5.3885
X4.8305Y-3.2154
X4.8405Y-2.9428
X4.8469Y-2.3822
X4.8476Y-2.3028
X4.8504Y-3.0703
X4.8746Y-2.9231
X4.8773Y-5.0885
X4.8773Y-5.1385
X4.8863Y-2.516
X4.889Y-2.2303
X4.9023Y-4.2885
X4.9023Y-4.4885
X4.9139Y-2.4412
X4.9148Y-3.2646
X4.916Y-3.0168
X4.9191Y-2.9355
X4.9523Y-5.1635
X4.9542Y-3.0054
X4.9559Y-3.346
X4.9762Y-3.0784
X4.99Y-3.2807
X4.9912Y-2.6835
X4.9926Y-3.0318
X5.0023Y-4.3885
X5.0023Y-5.2885
X5.0023Y-5.3885
X5.0273Y-5.0885
X5.0273Y-5.1385
X5.0412Y-2.7135
X5.043Y-2.2003
X5.043Y-2.2503
X5.043Y-2.4503
X5.043Y-2.5003
X5.0437Y-3.1688
X5.0728Y-3.142
X5.0812Y-2.6535
X5.093Y-2.2003
X5.093Y-2.4003
X5.1012Y-2.5735
X5.1014Y-3.0492
X5.1023Y-4.4885
X5.1023Y-4.6885
X5.1023Y-5.0885
X5.1186Y-2.9727
X5.1388Y-3.3095
X5.143Y-2.2003
X5.143Y-2.2503
X5.143Y-2.4003
X5.143Y-2.4503
X5.143Y-3.4203
X5.1449Y-3.4596
X5.1612Y-2.6135
X5.1674Y-3.5476
X5.1776Y-2.9727
X5.1812Y-2.5635
X5.182Y-3.1344
X5.2012Y-2.7835
X5.2012Y-2.8835
X5.2012Y-3.0435
X5.2023Y-4.5885
X5.2023Y-4.7885
X5.2362Y-4.1925
X5.243Y-2.2503
X5.243Y-2.4503
X5.2512Y-2.7335
X5.2512Y-2.8335
X5.2564Y-2.9727
X5.2612Y-3.0435
X5.2712Y-2.5535
X5.283Y-3.3844
X5.2911Y-3.9503
X5.293Y-2.3003
X5.2943Y-3.2703
X5.3004Y-4.15
X5.3012Y-2.7835
X5.3012Y-2.8835
X5.3023Y-4.4885
X5.3023Y-4.6885
X5.3023Y-4.8885
X5.3023Y-5.0885
X5.3038Y-3.477
X5.3059Y-3.8756
X5.3112Y-3.0435
X5.3114Y-4.228
X5.3118Y-3.7674
X5.3154Y-2.9727
X5.343Y-2.3753
X5.3462Y-3.1167
X5.3504Y-5.2134
X5.3509Y-4.2365
X5.3509Y-4.3152
X5.3509Y-4.3979
X5.3509Y-4.4766
X5.3509Y-4.5554
X5.3509Y-4.6341
X5.3509Y-4.7129
X5.3509Y-4.7877
X5.3509Y-4.8664
X5.3509Y-4.9452
X5.3509Y-5.016
X5.3509Y-5.0908
X5.3549Y-3.0718
X5.361Y-3.5183
X5.367Y-3.5603
X5.3706Y-3.5948
X5.3712Y-2.5535
X5.3726Y-3.3095
X5.3756Y-5.1449
X5.3843Y-3.1892
X5.393Y-2.4253
X5.3942Y-2.9924
X5.3945Y-3.413
X5.4012Y-2.894
X5.4012Y-4.8135
X5.4012Y-4.8835
X5.404Y-3.5948
X5.406Y-3.7664
X5.406Y-3.9445
X5.408Y-3.1479
X5.4135Y-3.9985
X5.4148Y-3.0406
X5.417Y-3.3143
X5.4201Y-5.1846
X5.4237Y-3.8855
X5.4264Y-3.8001
X5.433Y-3.3483
X5.4474Y-3.2572
X5.4505Y-2.9907
X5.4515Y-3.413
X5.4532Y-2.9333
X5.4532Y-3.4589
X5.4565Y-3.8638
X5.4628Y-3.7446
X5.468Y-2.4753
X5.473Y-4.4503
X5.4762Y-2.894
X5.4762Y-4.8835
X5.48Y-4.641
X5.4828Y-3.8931
X5.4837Y-3.0117
X5.4868Y-3.2003
X5.49Y-3.7772
X5.5053Y-4.3817
X5.507Y-3.0993
X5.5095Y-3.3617
X5.51Y-3.3263
X5.5132Y-4.4409
X5.5151Y-3.2503
X5.5262Y-2.4896
X5.5262Y-2.5516
X5.5289Y-4.8412
X5.5326Y-4.3253
X5.5358Y-3.2915
X5.539Y-3.0703
X5.545Y-3.2083
X5.5483Y-4.5045
X5.549Y-4.396
X5.551Y-3.1123
X5.5518Y-4.641
X5.5525Y-3.4253
X5.5673Y-3.8327
X5.5762Y-4.8835
X5.58Y-3.1743
X5.5826Y-3.7939
X5.5827Y-4.2459
X5.5829Y-3.0129
X5.5843Y-4.0496
X5.5905Y-4.2991
X5.593Y-2.4753
X5.5938Y-4.0114
X5.605Y-4.4806
X5.6066Y-2.8962
X5.6112Y-2.7135
X5.6147Y-3.9373
X5.615Y-4.6563
X5.6174Y-4.3833
X5.621Y-4.2323
X5.6212Y-2.5435
X5.6215Y-4.1163
X5.623Y-3.3803
X5.6242Y-4.5629
X5.6299Y-3.6003
X5.643Y-4.9503
X5.6467Y-4.6796
X5.6498Y-4.7361
X5.6512Y-4.0535
X5.6512Y-5.0335
X5.6512Y-5.1335
X5.6537Y-3.7297
X5.656Y-4.2673
X5.6659Y-4.618
X5.668Y-4.8753
X5.6684Y-4.4381
X5.6762Y-2.489
X5.6762Y-2.5516
X5.6776Y-2.6165
X5.6789Y-2.8412
X5.6863Y-3.816
X5.6961Y-4.5243
X5.6986Y-3.8578
X5.7012Y-2.6835
X5.7012Y-2.7335
X5.7044Y-4.4222
X5.7074Y-2.8693
X5.7177Y-3.6776
X5.718Y-4.8753
X5.72Y-2.9264
X5.7219Y-4.0554
X5.7242Y-3.89
X5.7262Y-5.1585
X5.7362Y-4.1775
X5.7412Y-2.4935
X5.743Y-3.0803
X5.7433Y-4.4312
X5.7437Y-4.6036
X5.7446Y-4.3231
X5.751Y-4.7183
X5.7634Y-2.7431
X5.768Y-4.8753
X5.7682Y-4.3507
X5.782Y-4.4383
X5.793Y-2.7691
X5.793Y-4.1514
X5.7938Y-4.1918
X5.7941Y-3.7311
X5.7997Y-4.3743
X5.8053Y-4.0871
X5.8057Y-4.6819
X5.818Y-4.8753
X5.8233Y-3.9963
X5.8262Y-5.1585
X5.828Y-3.8483
X5.829Y-3.8093
X5.8342Y-4.513
X5.843Y-2.4753
X5.843Y-2.5253
X5.843Y-2.8503
X5.8446Y-4.641
X5.846Y-4.02
X5.859Y-3.8753
X5.863Y-3.7603
X5.868Y-4.8753
X5.8844Y-4.1258
X5.893Y-2.4753
X5.893Y-2.5253
X5.8942Y-4.6213
X5.901Y-4.7203
X5.9139Y-3.9963
X5.9179Y-4.5321
X5.918Y-4.8753
X5.9262Y-5.0335
X5.9262Y-5.1335
X5.9296Y-4.1105
X5.9303Y-4.4447
X5.933Y-3.7403
X5.9342Y-4.5679
X5.9349Y-4.4966
X5.9395Y-4.0721
X5.9404Y-4.1967
X5.943Y-4.9503
X5.953Y-4.7223
X5.9547Y-4.2993
X5.9578Y-4.4088
X5.963Y-3.7703
X5.9712Y-4.6341
X5.9712Y-4.5814
X5.9831Y-2.5124
X5.9842Y-3.9912
X5.9887Y-4.3191
X5.993Y-2.7003
X5.993Y-3.7403
X6.0381Y-4.9018
X6.0382Y-4.2245
X6.043Y-2.8003
X6.043Y-3.7403
X6.0498Y-4.3045
X6.0501Y-4.2635
X6.0548Y-4.0952
X6.0595Y-4.453
X6.0595Y-4.7286
X6.061Y-4.8625
X6.0712Y-2.7035
X6.0859Y-3.9136
X6.0944Y-3.8336
X6.097Y-4.7343
X6.0972Y-2.6715
X6.1192Y-2.8475
X6.1229Y-2.4711
X6.123Y-3.8606
X6.1265Y-4.8861
X6.133Y-2.9644
X6.133Y-4.4503
X6.1446Y-4.641
X6.1506Y-4.501
X6.1539Y-3.7735
X6.156Y-3.8128
X6.1572Y-2.8371
X6.1593Y-4.2677
X6.1658Y-4.3585
X6.1666Y-2.7775
X6.168Y-4.8753
X6.1698Y-4.457
X6.1886Y-3.0215
X6.193Y-4.1003
X6.193Y-4.1603
X6.1989Y-2.9011
X6.201Y-4.6103
X6.2013Y-4.2837
X6.2016Y-3.3803
X6.2061Y-4.4924
X6.2082Y-4.205
X6.2125Y-4.5668
X6.2231Y-4.3498
X6.2247Y-4.672
X6.2262Y-4.9585
X6.2262Y-5.0335
X6.2262Y-5.1085
X6.2312Y-2.6029
X6.243Y-2.4753
X6.2467Y-3.1603
X6.283Y-2.9403
X6.283Y-4.8743
X6.3012Y-4.9585
X6.3012Y-5.0335
X6.3012Y-5.1085
X6.307Y-2.4943
X6.343Y-2.9203
X6.35Y-2.4713
X6.3762Y-4.9585
X6.3762Y-5.0335
X6.3762Y-5.1085
X6.383Y-3.4103
X6.3911Y-4.1312
X6.3972Y-3.9169
X6.3981Y-3.0042
X6.4012Y-4.8085
X6.403Y-3.3203
X6.403Y-3.5203
X6.4512Y-4.9585
X6.4512Y-5.0335
X6.4512Y-5.1085
X6.4567Y-5.1854
X6.4762Y-4.8085
X6.4762Y-4.9085
X6.493Y-4.3253
X6.493Y-4.4253
X6.493Y-4.5253
X6.493Y-4.6003
X6.503Y-3.4003
X6.503Y-3.5203
X6.503Y-3.6403
X6.5037Y-3.7112
X6.518Y-3.9503
X6.518Y-4.0253
X6.518Y-4.1003
X6.523Y-3.0803
X6.523Y-3.1603
X6.523Y-3.3003
X6.523Y-3.4603
X6.523Y-3.5803
X6.5232Y-2.8915
X6.5284Y-5.129
X6.532Y-4.4452
X6.532Y-4.52
X6.532Y-4.6066
X6.532Y-4.6932
X6.532Y-4.7837
X6.532Y-4.8703
X6.532Y-4.957
X6.532Y-5.0436
X6.5327Y-5.2252
X6.533Y-3.2403
X6.543Y-3.9003
X6.5512Y-2.8035
X6.5512Y-3.7585
X6.5572Y-2.7415
X6.5587Y-3.7106
X6.563Y-2.9603
X6.568Y-3.9503
X6.568Y-4.0253
X6.568Y-4.1003
X6.572Y-3.6249
X6.572Y-3.353
X6.5792Y-2.6855
X6.583Y-3.0203
X6.5997Y-3.1935
X6.6112Y-3.0902
X6.618Y-3.9753
X6.623Y-2.9603
X6.6233Y-4.5861
X6.643Y-2.2503
X6.643Y-2.3503
X6.643Y-3.0203
X6.6505Y-3.0887
X6.6733Y-4.5861
X6.6783Y-3.3443
X6.683Y-2.9603
X6.685Y-3.6843
X6.693Y-2.3003
X6.7099Y-3.149
X6.7134Y-2.1244
X6.723Y-2.9535
X6.723Y-3.3103
X6.7233Y-4.5861
X6.7392Y-2.6835
X6.743Y-2.2003
X6.746Y-3.6083
X6.755Y-3.3613
X6.762Y-3.6553
X6.773Y-3.2703
X6.773Y-3.3203
X6.7733Y-4.5861
X6.793Y-2.3003
X6.793Y-3.3873
X6.794Y-3.5963
X6.7949Y-2.1213
X6.8112Y-2.4735
X6.8194Y-3.1774
X6.8209Y-1.9256
X6.823Y-3.1403
X6.8233Y-4.5861
X6.8233Y-4.6361
X6.8233Y-4.6861
X6.8233Y-4.7361
X6.8233Y-4.7861
X6.8233Y-4.8361
X6.8233Y-4.8861
X6.843Y-2.2503
X6.843Y-2.3503
X6.8493Y-1.8018
X6.8493Y-1.9018
X6.8583Y-1.9909
X6.8724Y-2.1299
X6.8733Y-4.5861
X6.893Y-2.2003
X6.8993Y-1.7518
X6.8993Y-2.0018
X6.9043Y-2.0669
X6.9233Y-4.5861
X6.943Y-3.1003
X6.9493Y-1.9018
X6.9493Y-1.9518
X6.9493Y-2.0018
X6.9493Y-2.0518
X6.9532Y-2.1617
X6.9683Y-2.7437
X6.9728Y-2.8471
X6.9733Y-4.5861
X6.9804Y-1.7428
X6.993Y-3.1003
X6.993Y-3.1503
X6.9965Y-2.2286
X6.9968Y-2.7058
X7.0233Y-4.5861
X7.0398Y-2.3034
X7.043Y-2.2003
X7.043Y-2.8503
X7.043Y-3.0003
X7.043Y-3.0503
X7.043Y-3.1003
X7.043Y-3.1503
X7.043Y-3.2003
X7.0733Y-4.5861
X7.0792Y-2.3703
X7.0804Y-1.7428
X7.093Y-2.1003
X7.093Y-2.8503
X7.093Y-2.9003
X7.1033Y-3.2436
X7.1186Y-2.4412
X7.1233Y-4.5861
X7.1268Y-3.285
X7.1293Y-3.1835
X7.1304Y-1.7928
X7.1304Y-1.8428
X7.143Y-2.1003
X7.143Y-2.1503
X7.1619Y-2.5121
X7.193Y-2.1003
X7.193Y-2.1503
X7.193Y-2.8503
X7.2012Y-3.1835
X7.2013Y-2.579
X7.218Y-2.9503
X7.243Y-2.8503
X7.243Y-2.9003
X7.243Y-3.3003
X7.2446Y-2.6578
X7.2879Y-2.7286
X7.293Y-3.2503
X7.3312Y-2.8034
X7.343Y-2.9503
X7.343Y-3.1503
X7.3712Y-2.3049
X7.3756Y-2.8795
X7.393Y-3.0503
X7.393Y-3.2503
X7.3996Y-2.8516
X7.4046Y-2.2335
X7.4112Y-2.3817
X7.4252Y-2.9669
X7.443Y-2.7503
X7.443Y-2.8003
X7.4717Y-3.0445
X7.4795Y-2.865
X7.493Y-2.1003
X7.493Y-2.1503
X7.493Y-2.2003
X7.493Y-2.2503
X7.493Y-2.4503
X7.493Y-2.6003
X7.493Y-2.7503
X7.493Y-2.8003
X7.5005Y-1.8003
X7.5005Y-1.9003
X7.5005Y-2.0003
X7.543Y-2.1003
X7.543Y-2.1503
X7.543Y-2.2003
X7.543Y-2.2503
X7.543Y-2.4503
X7.543Y-2.6003
X7.543Y-2.7503
X7.543Y-2.8003
X7.543Y-2.8003
X7.5622Y-2.865
X7.593Y-2.4003
X7.593Y-2.4503
X7.593Y-2.6003
X7.593Y-2.7503
X7.593Y-2.8003
X7.6005Y-1.8003
X7.6005Y-1.9003
T2
X5.6365Y-3.4593
T4
X5.7291Y-3.1394
X5.7291Y-3.2083
X5.7291Y-3.2795
X5.7291Y-3.3496
X5.7291Y-3.4197
X5.7291Y-3.4898
X5.7291Y-3.5598
X5.7291Y-3.6299
X6.1504Y-3.1744
X6.1504Y-3.2445
X6.1504Y-3.3146
X6.1504Y-3.3846
X6.1504Y-3.4547
X6.1504Y-3.5248
X6.1504Y-3.5949
X6.1504Y-3.665
T5
X6.6252Y-3.5855
X6.6631Y-3.2833
X6.883Y-3.3016
X6.9715Y-2.9461
T6
X4.2921Y-2.5837
X4.3413Y-2.4984
X4.3906Y-2.4132
X4.4398Y-2.328
X4.9523Y-4.59
X4.9523Y-4.6885
X4.9523Y-4.7869
X4.9523Y-4.8853
X4.9523Y-4.9837
X4.9523Y-5.0822
X7.0389Y-1.8014
X7.0389Y-1.8998
X7.0389Y-1.9982
X7.3105Y-1.7995
X7.3105Y-1.8979
X7.3105Y-1.9963
T7
X3.9178Y-2.2637
X3.9178Y-2.3637
X3.9178Y-2.4637
X3.9178Y-2.5637
X3.9178Y-2.6637
X3.9178Y-2.7637
X3.9178Y-2.8637
X3.9178Y-2.9637
X3.9178Y-3.0637
X3.9178Y-3.1637
X4.0178Y-2.2637
X4.0178Y-2.3637
X4.0178Y-2.4637
X4.0178Y-2.5637
X4.0178Y-2.6637
X4.0178Y-2.7637
X4.0178Y-2.8637
X4.0178Y-2.9637
X4.0178Y-3.0637
X4.0178Y-3.1637
X4.1689Y-3.1137
X4.2189Y-3.0271
X4.2555Y-3.1637
X4.2689Y-2.9405
X4.3023Y-4.39
X4.3023Y-4.4885
X4.3023Y-5.19
X4.3023Y-5.2885
X4.3055Y-3.0771
X4.3189Y-2.8539
X4.3555Y-2.9905
X4.3689Y-2.7673
X4.4055Y-2.9039
X4.4189Y-2.6807
X4.4532Y-3.1363
X4.4555Y-2.8173
X4.4689Y-2.5941
X4.5032Y-3.0497
X4.5055Y-2.7307
X4.5189Y-2.5075
X4.5398Y-3.1863
X4.5532Y-2.9631
X4.5539Y-4.6885
X4.5539Y-4.9885
X4.5555Y-2.6441
X4.5689Y-2.4209
X4.5898Y-3.0997
X4.6032Y-2.8765
X4.6055Y-2.5575
X4.6189Y-2.3343
X4.6398Y-3.0131
X4.6523Y-4.6885
X4.6523Y-4.9885
X4.6532Y-2.7899
X4.6555Y-2.4709
X4.6898Y-2.9265
X4.7032Y-2.7033
X4.7055Y-2.3843
X4.7398Y-2.8399
X4.7532Y-2.6167
X4.7898Y-2.7533
X4.8032Y-2.5301
X4.8398Y-2.6667
X4.8532Y-2.4435
X4.8898Y-2.5801
X4.9032Y-2.3568
X4.9398Y-2.4935
X4.9532Y-2.778
X4.9898Y-2.4068
X5.0398Y-2.828
X5.1264Y-2.878
X5.4865Y-3.5211
X5.5365Y-3.6077
X5.5865Y-3.6943
X5.8378Y-2.91
X5.9378Y-2.91
X6.0378Y-2.91
X6.3406Y-2.965
X6.3406Y-3.065
X6.3406Y-3.165
X6.3406Y-3.265
X6.3406Y-3.365
X6.3406Y-3.465
X6.3406Y-3.565
X6.3406Y-3.665
X6.3406Y-3.765
X6.3406Y-3.865
X6.3406Y-3.965
X6.3406Y-4.065
X6.3406Y-4.165
X6.3406Y-4.265
X6.3406Y-4.365
X6.3406Y-4.465
X6.3406Y-4.565
X6.3406Y-4.665
X6.3406Y-4.765
X6.3406Y-4.865
X6.4406Y-2.965
X6.4406Y-3.065
X6.4406Y-3.165
X6.4406Y-3.265
X6.4406Y-3.365
X6.4406Y-3.465
X6.4406Y-3.565
X6.4406Y-3.665
X6.4406Y-3.765
X6.4406Y-3.865
X6.4406Y-3.965
X6.4406Y-4.065
X6.4406Y-4.165
X6.4406Y-4.265
X6.4406Y-4.365
X6.4406Y-4.465
X6.4406Y-4.565
X6.4406Y-4.665
X6.4406Y-4.765
X6.4406Y-4.865
X6.6382Y-3.8895
X6.6882Y-3.8029
X6.7382Y-3.7163
X6.8945Y-2.4088
X6.9445Y-2.4954
X6.9811Y-2.3588
X6.9945Y-2.582
X7.0311Y-2.4454
X7.0445Y-2.6686
X7.0811Y-2.532
X7.0945Y-2.7552
X7.1202Y-2.2849
X7.1311Y-2.6186
X7.1702Y-2.3715
X7.1811Y-2.7052
X7.2068Y-2.2349
X7.2202Y-2.4581
X7.2568Y-2.3215
X7.2702Y-2.5447
X7.3068Y-2.4081
X7.3202Y-2.6313
X7.3568Y-2.4947
X7.4068Y-2.5813
X7.658Y-2.0313
X7.658Y-2.1313
X7.658Y-2.2313
X7.658Y-2.3313
X7.658Y-2.4313
X7.658Y-2.5313
X7.658Y-2.6313
T8
X5.7878Y-5.0232
X6.0795Y-5.0232
X6.6678Y-4.7726
X6.6678Y-5.0643
X6.6912Y-2.5232
X6.6912Y-2.815
T9
X6.9729Y-4.766
X6.9729Y-5.0495
T3
G00X3.9965Y-1.7956
M15
G01X3.9454Y-1.7956
M16
G05
G00X3.9965Y-2.1184
M15
G01X3.9454Y-2.1184
M16
G05
G00X4.1639Y-1.7956
M15
G01X4.0969Y-1.7956
M16
G05
G00X4.1639Y-2.1184
M15
G01X4.0969Y-2.1184
M16
G05
M30
